<svg xmlns="http://www.w3.org/2000/svg" width="1920" height="1080" viewBox="0 0 1920 1080" version="1.1"><path d="M 0 540 L 0 1080 121 1080 C 193.701 1080, 242 1079.634, 242 1079.083 C 242 1078.579, 245.357 1074.597, 249.461 1070.235 C 265.022 1053.693, 282.865 1044.638, 305.265 1041.914 C 333.365 1038.498, 364.336 1051.354, 382.469 1073.962 L 387.312 1080 516.734 1080 L 646.156 1080 653.539 1072.152 C 677.691 1046.478, 712.523 1037.093, 744.690 1047.594 C 760.937 1052.897, 776.961 1063.679, 786 1075.390 L 789.500 1079.924 931 1079.879 L 1072.500 1079.834 1077.564 1073.667 C 1088.571 1060.261, 1106.749 1049.119, 1124.416 1044.950 C 1136.567 1042.083, 1152.449 1042.085, 1164.584 1044.955 C 1181.903 1049.052, 1200.027 1060.089, 1210.831 1073.116 L 1216.500 1079.952 1347.028 1079.976 L 1477.555 1080 1482.890 1073.939 C 1499.021 1055.613, 1523.303 1044.846, 1548.500 1044.846 C 1573.283 1044.846, 1594.485 1053.954, 1612.085 1072.160 L 1619.670 1080.007 1770.085 1079.753 L 1920.500 1079.500 1920.751 539.750 L 1921.002 0 960.501 0 L 0 0 0 540 M 0.496 540.500 C 0.496 837.500, 0.610 958.851, 0.750 810.168 C 0.890 661.485, 0.890 418.485, 0.750 270.168 C 0.610 121.851, 0.496 243.500, 0.496 540.500 M 923.342 19.410 C 892.009 25.398, 866.926 45.823, 855.949 74.290 C 847.898 95.167, 847.914 119.925, 855.992 140.784 C 865.894 166.354, 887.853 186.463, 914.179 194.069 C 924.663 197.098, 943.912 197.807, 954.949 195.570 C 991.403 188.184, 1019.195 159.312, 1025.034 122.761 C 1026.754 111.995, 1025.783 92.639, 1023.040 83 C 1012.490 45.937, 979.552 20.028, 941 18.467 C 934.480 18.204, 927.786 18.561, 923.342 19.410 M 509.342 20.410 C 478.009 26.398, 452.926 46.823, 441.949 75.290 C 433.382 97.502, 434.086 122.585, 443.860 143.441 C 448.950 154.305, 452.781 159.851, 461.314 168.708 C 473.604 181.468, 489.236 189.982, 506.927 193.552 C 518.098 195.807, 537.294 195.110, 547.821 192.069 C 577.124 183.603, 599.687 161.051, 608.624 131.297 C 610.895 123.736, 611.282 120.534, 611.383 108.500 C 611.577 85.310, 606.415 69.960, 592.403 52.051 C 581.598 38.242, 563.388 26.556, 545.500 21.952 C 535.197 19.300, 518.808 18.601, 509.342 20.410 M 1754 20.419 C 1712.698 27.862, 1682.807 61.154, 1680.362 102.433 C 1677.954 143.112, 1704.685 180.658, 1744.179 192.069 C 1754.663 195.098, 1773.912 195.807, 1784.949 193.570 C 1821.435 186.178, 1849.194 157.316, 1855.046 120.691 C 1856.668 110.539, 1855.734 93.803, 1852.998 84 C 1842.757 47.306, 1809.770 21.203, 1771.500 19.510 C 1765.457 19.242, 1758.532 19.602, 1754 20.419 M 93.342 21.410 C 62.009 27.398, 36.926 47.823, 25.949 76.290 C 17.382 98.502, 18.086 123.585, 27.860 144.441 C 32.950 155.305, 36.781 160.851, 45.314 169.708 C 57.604 182.468, 73.236 190.982, 90.927 194.552 C 102.098 196.807, 121.294 196.110, 131.821 193.069 C 161.124 184.603, 183.687 162.051, 192.624 132.297 C 194.895 124.736, 195.282 121.534, 195.383 109.500 C 195.577 86.310, 190.415 70.960, 176.403 53.051 C 165.598 39.242, 147.388 27.556, 129.500 22.952 C 119.197 20.300, 102.808 19.601, 93.342 21.410 M 1340 21.419 C 1298.698 28.862, 1268.807 62.154, 1266.362 103.433 C 1263.954 144.112, 1290.685 181.658, 1330.179 193.069 C 1340.663 196.098, 1359.912 196.807, 1370.949 194.570 C 1407.435 187.178, 1435.194 158.316, 1441.046 121.691 C 1442.668 111.539, 1441.734 94.803, 1438.998 85 C 1428.757 48.306, 1395.770 22.203, 1357.500 20.510 C 1351.457 20.242, 1344.532 20.602, 1340 21.419 M 510 34.427 C 487.042 39.530, 468.581 53.360, 458.096 73.311 C 454.418 80.310, 451.066 90.763, 450.419 97.250 L 449.946 102 472.837 102 L 495.728 102 497.506 97.346 C 499.703 91.593, 504.881 85.743, 510.916 82.195 C 514.946 79.825, 516.527 79.505, 524 79.543 C 533.605 79.591, 536.604 80.750, 543.453 87.063 C 547.178 90.497, 549.544 94.430, 551.384 100.250 C 551.890 101.851, 553.935 102, 575.469 102 C 603.269 102, 600.832 103.983, 595.740 85.500 C 593.101 75.925, 583.922 60.978, 576.344 53.920 C 558.484 37.284, 532.068 29.523, 510 34.427 M 1754 34.427 C 1740.432 37.443, 1729.743 42.683, 1719.927 51.132 C 1705.903 63.201, 1696.459 80.318, 1694.481 97.250 L 1693.926 102 1716.907 102 L 1739.888 102 1742.593 95.973 C 1745.493 89.510, 1749.532 85.330, 1756.278 81.809 C 1762.567 78.526, 1773.696 78.727, 1780.563 82.248 C 1788.141 86.134, 1792.568 91.514, 1795.375 100.250 C 1795.889 101.851, 1797.939 102, 1819.469 102 L 1843 102 1843 98.730 C 1843 93.254, 1839.097 80.947, 1834.682 72.500 C 1831.584 66.574, 1828.156 62.133, 1821.460 55.370 C 1813.477 47.308, 1811.198 45.651, 1801.960 41.193 C 1786.043 33.512, 1768.959 31.102, 1754 34.427 M 94 35.427 C 71.042 40.530, 52.581 54.360, 42.096 74.311 C 38.418 81.310, 35.066 91.763, 34.419 98.250 L 33.946 103 56.837 103 L 79.728 103 81.506 98.346 C 83.703 92.593, 88.881 86.743, 94.916 83.195 C 98.946 80.825, 100.527 80.505, 108 80.543 C 117.605 80.591, 120.604 81.750, 127.453 88.063 C 131.178 91.497, 133.544 95.430, 135.384 101.250 C 135.890 102.851, 137.935 103, 159.469 103 C 187.269 103, 184.832 104.983, 179.740 86.500 C 177.101 76.925, 167.922 61.978, 160.344 54.920 C 142.484 38.284, 116.068 30.523, 94 35.427 M 1340 35.427 C 1326.432 38.443, 1315.743 43.683, 1305.927 52.132 C 1291.903 64.201, 1282.459 81.318, 1280.481 98.250 L 1279.926 103 1302.907 103 L 1325.888 103 1328.593 96.973 C 1331.493 90.510, 1335.532 86.330, 1342.278 82.809 C 1348.567 79.526, 1359.696 79.727, 1366.563 83.248 C 1374.141 87.134, 1378.568 92.514, 1381.375 101.250 C 1381.889 102.851, 1383.939 103, 1405.469 103 L 1429 103 1429 99.730 C 1429 94.254, 1425.097 81.947, 1420.682 73.500 C 1417.584 67.574, 1414.156 63.133, 1407.460 56.370 C 1399.477 48.308, 1397.198 46.651, 1387.960 42.193 C 1372.043 34.512, 1354.959 32.102, 1340 35.427 M 924 36.427 C 910.432 39.443, 899.743 44.683, 889.927 53.132 C 875.903 65.201, 866.459 82.318, 864.481 99.250 L 863.926 104 886.907 104 L 909.888 104 912.593 97.973 C 915.493 91.510, 919.532 87.330, 926.278 83.809 C 932.567 80.526, 943.696 80.727, 950.563 84.248 C 958.141 88.134, 962.568 93.514, 965.375 102.250 C 965.889 103.851, 967.939 104, 989.469 104 L 1013 104 1013 100.730 C 1013 95.254, 1009.097 82.947, 1004.682 74.500 C 1001.584 68.574, 998.156 64.133, 991.460 57.370 C 983.477 49.308, 981.198 47.651, 971.960 43.193 C 956.043 35.512, 938.959 33.102, 924 36.427 M 1761.581 90.481 C 1753.411 93.399, 1748.853 102.400, 1750.940 111.495 C 1752.971 120.348, 1759.008 125.235, 1767.916 125.235 C 1774.636 125.235, 1777.283 124.063, 1781.750 119.106 C 1789.059 110.997, 1786.565 96.446, 1777.021 91.511 C 1772.798 89.327, 1766.068 88.878, 1761.581 90.481 M 515.366 91.919 C 513.642 92.970, 510.950 95.511, 509.382 97.565 C 507.034 100.645, 506.533 102.285, 506.533 106.905 C 506.533 113.911, 509.431 118.996, 515.425 122.509 C 520.663 125.578, 525.904 125.709, 531.677 122.914 C 536.761 120.453, 539.482 116.964, 541.133 110.793 C 542.161 106.949, 542.082 105.657, 540.588 101.898 C 537.298 93.619, 532.187 89.998, 523.800 90.004 C 520.348 90.006, 517.407 90.674, 515.366 91.919 M 1347.581 91.481 C 1339.411 94.399, 1334.853 103.400, 1336.940 112.495 C 1338.971 121.348, 1345.008 126.235, 1353.916 126.235 C 1360.636 126.235, 1363.283 125.063, 1367.750 120.106 C 1375.059 111.997, 1372.565 97.446, 1363.021 92.511 C 1358.798 90.327, 1352.068 89.878, 1347.581 91.481 M 99.366 92.919 C 97.642 93.970, 94.950 96.511, 93.382 98.565 C 91.034 101.645, 90.533 103.285, 90.533 107.905 C 90.533 114.911, 93.431 119.996, 99.425 123.509 C 104.663 126.578, 109.904 126.709, 115.677 123.914 C 120.761 121.453, 123.482 117.964, 125.133 111.793 C 126.161 107.949, 126.082 106.657, 124.588 102.898 C 121.298 94.619, 116.187 90.998, 107.800 91.004 C 104.348 91.006, 101.407 91.674, 99.366 92.919 M 931.581 92.481 C 923.411 95.399, 918.853 104.400, 920.940 113.495 C 922.971 122.348, 929.008 127.235, 937.916 127.235 C 944.636 127.235, 947.283 126.063, 951.750 121.106 C 959.059 112.997, 956.565 98.446, 947.021 93.511 C 942.798 91.327, 936.068 90.878, 931.581 92.481 M 449.418 117.979 C 452.420 144.515, 473.018 169.064, 499.605 177.792 C 518.364 183.950, 537.446 182.801, 555.797 174.407 C 571.937 167.024, 585.924 152.120, 592.844 134.930 C 595.803 127.579, 597.973 119.276, 597.988 115.250 L 598 112 575.750 112.015 C 563.513 112.024, 553.027 112.361, 552.449 112.765 C 551.870 113.169, 550.573 115.698, 549.565 118.384 C 545.761 128.523, 535.847 135, 524.133 135 C 516.587 135, 512.610 133.700, 506.442 129.216 C 502.803 126.570, 498.255 119.439, 496.578 113.750 C 496.106 112.147, 494.073 112, 472.402 112 L 448.742 112 449.418 117.979 M 1693.418 117.979 C 1697.009 149.716, 1723.374 176.195, 1756.728 181.562 C 1766.472 183.130, 1780 182.694, 1780 180.812 C 1780 180.300, 1780.409 180.135, 1780.909 180.444 C 1782.499 181.427, 1794.251 177.889, 1801.500 174.246 C 1810.958 169.492, 1819.059 163.088, 1825.512 155.264 C 1834.702 144.123, 1841.687 128.357, 1842.244 117.500 L 1842.500 112.500 1821 112.217 C 1809.175 112.062, 1798.562 112.164, 1797.415 112.445 C 1796.051 112.779, 1794.928 114.297, 1794.168 116.833 C 1792.584 122.119, 1785.776 129.586, 1780.145 132.212 C 1777.359 133.512, 1772.898 134.522, 1769 134.736 C 1763.235 135.054, 1761.770 134.721, 1756.042 131.797 C 1749.281 128.345, 1743.571 122.240, 1742.361 117.171 C 1741.116 111.951, 1741.365 112, 1716.248 112 L 1692.742 112 1693.418 117.979 M 33.418 118.979 C 36.420 145.515, 57.018 170.064, 83.605 178.792 C 102.364 184.950, 121.446 183.801, 139.797 175.407 C 155.937 168.024, 169.924 153.120, 176.844 135.930 C 179.803 128.579, 181.973 120.276, 181.988 116.250 L 182 113 159.750 113.015 C 147.512 113.024, 137.027 113.361, 136.449 113.765 C 135.870 114.169, 134.573 116.698, 133.565 119.384 C 129.761 129.523, 119.847 136, 108.133 136 C 100.587 136, 96.610 134.700, 90.442 130.216 C 86.803 127.570, 82.255 120.439, 80.578 114.750 C 80.106 113.147, 78.073 113, 56.402 113 L 32.742 113 33.418 118.979 M 1279.418 118.979 C 1283.009 150.716, 1309.374 177.195, 1342.728 182.562 C 1352.472 184.130, 1366 183.694, 1366 181.812 C 1366 181.300, 1366.409 181.135, 1366.909 181.444 C 1368.499 182.427, 1380.251 178.889, 1387.500 175.246 C 1396.958 170.492, 1405.059 164.088, 1411.512 156.264 C 1420.702 145.123, 1427.687 129.357, 1428.244 118.500 L 1428.500 113.500 1407 113.217 C 1395.175 113.062, 1384.562 113.164, 1383.415 113.445 C 1382.051 113.779, 1380.928 115.297, 1380.168 117.833 C 1378.584 123.119, 1371.776 130.586, 1366.145 133.212 C 1363.359 134.512, 1358.898 135.522, 1355 135.736 C 1349.235 136.054, 1347.770 135.721, 1342.042 132.797 C 1335.281 129.345, 1329.571 123.240, 1328.361 118.171 C 1327.116 112.951, 1327.365 113, 1302.248 113 L 1278.742 113 1279.418 118.979 M 863.418 119.979 C 867.009 151.716, 893.374 178.195, 926.728 183.562 C 936.472 185.130, 950 184.694, 950 182.812 C 950 182.300, 950.409 182.135, 950.909 182.444 C 952.499 183.427, 964.251 179.889, 971.500 176.246 C 980.958 171.492, 989.059 165.088, 995.512 157.264 C 1004.702 146.123, 1011.687 130.357, 1012.244 119.500 L 1012.500 114.500 991 114.217 C 979.175 114.062, 968.562 114.164, 967.415 114.445 C 966.051 114.779, 964.928 116.297, 964.168 118.833 C 962.584 124.119, 955.776 131.586, 950.145 134.212 C 947.359 135.512, 942.898 136.522, 939 136.736 C 933.235 137.054, 931.770 136.721, 926.042 133.797 C 919.281 130.345, 913.571 124.240, 912.361 119.171 C 911.116 113.951, 911.365 114, 886.248 114 L 862.742 114 863.418 119.979 M 306.342 221.410 C 275.009 227.398, 249.926 247.823, 238.949 276.290 C 230.382 298.502, 231.086 323.585, 240.860 344.441 C 245.950 355.305, 249.781 360.851, 258.314 369.708 C 270.604 382.468, 286.236 390.982, 303.927 394.552 C 315.098 396.807, 334.294 396.110, 344.821 393.069 C 374.124 384.603, 396.687 362.051, 405.624 332.297 C 407.895 324.736, 408.282 321.534, 408.383 309.500 C 408.577 286.310, 403.415 270.960, 389.403 253.051 C 378.598 239.242, 360.388 227.556, 342.500 222.952 C 332.197 220.300, 315.808 219.601, 306.342 221.410 M 1137 222.419 C 1095.698 229.862, 1065.807 263.154, 1063.362 304.433 C 1060.954 345.112, 1087.685 382.658, 1127.179 394.069 C 1137.663 397.098, 1156.912 397.807, 1167.949 395.570 C 1204.435 388.178, 1232.194 359.316, 1238.046 322.691 C 1239.668 312.539, 1238.734 295.803, 1235.998 286 C 1225.757 249.306, 1192.770 223.203, 1154.500 221.510 C 1148.457 221.242, 1141.532 221.602, 1137 222.419 M 710.342 223.410 C 679.009 229.398, 653.926 249.823, 642.949 278.290 C 634.382 300.502, 635.086 325.585, 644.860 346.441 C 649.950 357.305, 653.781 362.851, 662.314 371.708 C 674.604 384.468, 690.236 392.982, 707.927 396.552 C 719.098 398.807, 738.294 398.110, 748.821 395.069 C 778.124 386.603, 800.687 364.051, 809.624 334.297 C 811.895 326.736, 812.282 323.534, 812.383 311.500 C 812.577 288.310, 807.415 272.960, 793.403 255.051 C 782.598 241.242, 764.388 229.556, 746.500 224.952 C 736.197 222.300, 719.808 221.601, 710.342 223.410 M 1541 224.419 C 1499.698 231.862, 1469.807 265.154, 1467.362 306.433 C 1464.954 347.112, 1491.685 384.658, 1531.179 396.069 C 1541.663 399.098, 1560.912 399.807, 1571.949 397.570 C 1608.435 390.178, 1636.194 361.316, 1642.046 324.691 C 1643.668 314.539, 1642.734 297.803, 1639.998 288 C 1629.757 251.306, 1596.770 225.203, 1558.500 223.510 C 1552.457 223.242, 1545.532 223.602, 1541 224.419 M 307 235.427 C 284.042 240.530, 265.581 254.360, 255.096 274.311 C 251.418 281.310, 248.066 291.763, 247.419 298.250 L 246.946 303 269.837 303 L 292.728 303 294.506 298.346 C 296.703 292.593, 301.881 286.743, 307.916 283.195 C 311.946 280.825, 313.527 280.505, 321 280.543 C 330.605 280.591, 333.604 281.750, 340.453 288.063 C 344.178 291.497, 346.544 295.430, 348.384 301.250 C 348.890 302.851, 350.935 303, 372.469 303 C 400.269 303, 397.832 304.983, 392.740 286.500 C 390.101 276.925, 380.922 261.978, 373.344 254.920 C 355.484 238.284, 329.068 230.523, 307 235.427 M 1137 236.427 C 1123.432 239.443, 1112.743 244.683, 1102.927 253.132 C 1088.903 265.201, 1079.459 282.318, 1077.481 299.250 L 1076.926 304 1099.907 304 L 1122.888 304 1125.593 297.973 C 1128.493 291.510, 1132.532 287.330, 1139.278 283.809 C 1145.567 280.526, 1156.696 280.727, 1163.563 284.248 C 1171.141 288.134, 1175.568 293.514, 1178.375 302.250 C 1178.889 303.851, 1180.939 304, 1202.469 304 L 1226 304 1226 300.730 C 1226 295.254, 1222.097 282.947, 1217.682 274.500 C 1214.584 268.574, 1211.156 264.133, 1204.460 257.370 C 1196.477 249.308, 1194.198 247.651, 1184.960 243.193 C 1169.043 235.512, 1151.959 233.102, 1137 236.427 M 711 237.427 C 688.042 242.530, 669.581 256.360, 659.096 276.311 C 655.418 283.310, 652.066 293.763, 651.419 300.250 L 650.946 305 673.837 305 L 696.728 305 698.506 300.346 C 700.703 294.593, 705.881 288.743, 711.916 285.195 C 715.946 282.825, 717.527 282.505, 725 282.543 C 734.605 282.591, 737.604 283.750, 744.453 290.063 C 748.178 293.497, 750.544 297.430, 752.384 303.250 C 752.890 304.851, 754.935 305, 776.469 305 C 804.269 305, 801.832 306.983, 796.740 288.500 C 794.101 278.925, 784.922 263.978, 777.344 256.920 C 759.484 240.284, 733.068 232.523, 711 237.427 M 1541 238.427 C 1527.432 241.443, 1516.743 246.683, 1506.927 255.132 C 1492.903 267.201, 1483.459 284.318, 1481.481 301.250 L 1480.926 306 1503.907 306 L 1526.888 306 1529.593 299.973 C 1532.493 293.510, 1536.532 289.330, 1543.278 285.809 C 1549.567 282.526, 1560.696 282.727, 1567.563 286.248 C 1575.141 290.134, 1579.568 295.514, 1582.375 304.250 C 1582.889 305.851, 1584.939 306, 1606.469 306 L 1630 306 1630 302.730 C 1630 297.254, 1626.097 284.947, 1621.682 276.500 C 1618.584 270.574, 1615.156 266.133, 1608.460 259.370 C 1600.477 251.308, 1598.198 249.651, 1588.960 245.193 C 1573.043 237.512, 1555.959 235.102, 1541 238.427 M 312.366 292.919 C 310.642 293.970, 307.950 296.511, 306.382 298.565 C 304.034 301.645, 303.533 303.285, 303.533 307.905 C 303.533 314.911, 306.431 319.996, 312.425 323.509 C 317.663 326.578, 322.904 326.709, 328.677 323.914 C 333.761 321.453, 336.482 317.964, 338.133 311.793 C 339.161 307.949, 339.082 306.657, 337.588 302.898 C 334.298 294.619, 329.187 290.998, 320.800 291.004 C 317.348 291.006, 314.407 291.674, 312.366 292.919 M 1144.581 292.481 C 1136.411 295.399, 1131.853 304.400, 1133.940 313.495 C 1135.971 322.348, 1142.008 327.235, 1150.916 327.235 C 1157.636 327.235, 1160.283 326.063, 1164.750 321.106 C 1172.059 312.997, 1169.565 298.446, 1160.021 293.511 C 1155.798 291.327, 1149.068 290.878, 1144.581 292.481 M 716.366 294.919 C 714.642 295.970, 711.950 298.511, 710.382 300.565 C 708.034 303.645, 707.533 305.285, 707.533 309.905 C 707.533 316.911, 710.431 321.996, 716.425 325.509 C 721.663 328.578, 726.904 328.709, 732.677 325.914 C 737.761 323.453, 740.482 319.964, 742.133 313.793 C 743.161 309.949, 743.082 308.657, 741.588 304.898 C 738.298 296.619, 733.187 292.998, 724.800 293.004 C 721.348 293.006, 718.407 293.674, 716.366 294.919 M 1548.581 294.481 C 1540.411 297.399, 1535.853 306.400, 1537.940 315.495 C 1539.971 324.348, 1546.008 329.235, 1554.916 329.235 C 1561.636 329.235, 1564.283 328.063, 1568.750 323.106 C 1576.059 314.997, 1573.565 300.446, 1564.021 295.511 C 1559.798 293.327, 1553.068 292.878, 1548.581 294.481 M 246.418 318.979 C 249.420 345.515, 270.018 370.064, 296.605 378.792 C 315.364 384.950, 334.446 383.801, 352.797 375.407 C 368.937 368.024, 382.924 353.120, 389.844 335.930 C 392.803 328.579, 394.973 320.276, 394.988 316.250 L 395 313 372.750 313.015 C 360.512 313.024, 350.027 313.361, 349.449 313.765 C 348.870 314.169, 347.573 316.698, 346.565 319.384 C 342.761 329.523, 332.847 336, 321.133 336 C 313.587 336, 309.610 334.700, 303.442 330.216 C 299.803 327.570, 295.255 320.439, 293.578 314.750 C 293.106 313.147, 291.073 313, 269.402 313 L 245.742 313 246.418 318.979 M 1076.418 319.979 C 1080.009 351.716, 1106.374 378.195, 1139.728 383.562 C 1149.472 385.130, 1163 384.694, 1163 382.812 C 1163 382.300, 1163.409 382.135, 1163.909 382.444 C 1165.499 383.427, 1177.251 379.889, 1184.500 376.246 C 1193.958 371.492, 1202.059 365.088, 1208.512 357.264 C 1217.702 346.123, 1224.687 330.357, 1225.244 319.500 L 1225.500 314.500 1204 314.217 C 1192.175 314.062, 1181.562 314.164, 1180.415 314.445 C 1179.051 314.779, 1177.928 316.297, 1177.168 318.833 C 1175.584 324.119, 1168.776 331.586, 1163.145 334.212 C 1160.359 335.512, 1155.898 336.522, 1152 336.736 C 1146.235 337.054, 1144.770 336.721, 1139.042 333.797 C 1132.281 330.345, 1126.571 324.240, 1125.361 319.171 C 1124.116 313.951, 1124.365 314, 1099.248 314 L 1075.742 314 1076.418 319.979 M 650.418 320.979 C 653.420 347.515, 674.018 372.064, 700.605 380.792 C 719.364 386.950, 738.446 385.801, 756.797 377.407 C 772.937 370.024, 786.924 355.120, 793.844 337.930 C 796.803 330.579, 798.973 322.276, 798.988 318.250 L 799 315 776.750 315.015 C 764.513 315.024, 754.027 315.361, 753.449 315.765 C 752.870 316.169, 751.573 318.698, 750.565 321.384 C 746.761 331.523, 736.847 338, 725.133 338 C 717.587 338, 713.610 336.700, 707.442 332.216 C 703.803 329.570, 699.255 322.439, 697.578 316.750 C 697.106 315.147, 695.073 315, 673.402 315 L 649.742 315 650.418 320.979 M 1480.418 321.979 C 1484.009 353.716, 1510.374 380.195, 1543.728 385.562 C 1553.472 387.130, 1567 386.694, 1567 384.812 C 1567 384.300, 1567.409 384.135, 1567.909 384.444 C 1569.499 385.427, 1581.251 381.889, 1588.500 378.246 C 1597.958 373.492, 1606.059 367.088, 1612.512 359.264 C 1621.702 348.123, 1628.687 332.357, 1629.244 321.500 L 1629.500 316.500 1608 316.217 C 1596.175 316.062, 1585.562 316.164, 1584.415 316.445 C 1583.051 316.779, 1581.928 318.297, 1581.168 320.833 C 1579.584 326.119, 1572.776 333.586, 1567.145 336.212 C 1564.359 337.512, 1559.898 338.522, 1556 338.736 C 1550.235 339.054, 1548.770 338.721, 1543.042 335.797 C 1536.281 332.345, 1530.571 326.240, 1529.361 321.171 C 1528.116 315.951, 1528.365 316, 1503.248 316 L 1479.742 316 1480.418 321.979 M 916.633 430.489 C 898.271 434.308, 885.103 441.100, 872.136 453.443 C 860.733 464.296, 851.546 479.792, 847.498 495 C 844.884 504.820, 844.359 525.731, 846.465 536.125 C 853.188 569.304, 876.727 595.250, 908.500 604.503 C 919.682 607.760, 935.563 608.829, 946.514 607.062 C 984.388 600.952, 1013.948 571.416, 1020.051 533.584 C 1021.583 524.090, 1020.775 503.688, 1018.543 495.500 C 1010.007 464.181, 985.870 439.831, 955.500 431.899 C 945.097 429.182, 926.212 428.497, 916.633 430.489 M 506.500 431.109 C 471.926 436.095, 443.410 461.604, 433.959 496 C 432.007 503.103, 431.633 506.800, 431.681 518.500 C 431.732 530.684, 432.087 533.657, 434.415 541.421 C 441.532 565.153, 455.896 583.234, 476.784 594.756 C 511.137 613.704, 553.673 607.467, 581.359 579.422 C 591.964 568.679, 600.124 554.292, 604.173 539.198 C 607.127 528.187, 607.094 507.704, 604.103 496.500 C 592.468 452.904, 550.471 424.768, 506.500 431.109 M 1751.500 430.627 C 1712.984 436.580, 1683.010 465.331, 1676.520 502.548 C 1667.387 554.921, 1705.306 602.818, 1758.191 605.709 C 1799.451 607.965, 1835.306 582.609, 1847.642 542.451 C 1850.145 534.301, 1850.389 532.114, 1850.365 518 C 1850.342 504.030, 1850.070 501.612, 1847.611 493.500 C 1838.502 463.456, 1815.157 440.700, 1785.500 432.957 C 1777.667 430.912, 1758.262 429.583, 1751.500 430.627 M 86.633 432.489 C 68.271 436.308, 55.103 443.100, 42.136 455.443 C 30.722 466.306, 21.515 481.844, 17.510 497 C 15.261 505.512, 14.402 525.211, 15.928 533.279 C 24.180 576.908, 59.760 607, 103.096 607 C 143.042 607, 176.939 580.828, 188.204 541.289 C 191.401 530.066, 191.401 507.934, 188.204 496.711 C 179.243 465.259, 156.023 442.009, 125.500 433.928 C 115.122 431.180, 96.280 430.482, 86.633 432.489 M 1334.607 432.605 C 1317.035 435.779, 1302.408 443.058, 1289.765 454.921 C 1270.625 472.882, 1261.720 493.229, 1261.720 519 C 1261.720 544.186, 1270.472 564.690, 1288.638 582.061 C 1299.664 592.604, 1310.277 598.930, 1323.500 602.841 C 1365.091 615.142, 1408.481 596.319, 1427.473 557.736 C 1434.284 543.900, 1436.239 535.263, 1436.239 519 C 1436.239 502.737, 1434.284 494.100, 1427.473 480.264 C 1414.852 454.625, 1391.139 437.112, 1362.824 432.520 C 1351.587 430.698, 1345.059 430.717, 1334.607 432.605 M 510.337 443.609 C 490.088 447.634, 478.353 453.573, 465.972 466.063 C 458.811 473.286, 453.609 481.299, 449.706 491.117 C 446.785 498.468, 444.483 509.209, 445.346 511.460 C 445.854 512.783, 449.091 513, 468.333 513 L 490.728 513 492.506 508.346 C 497.883 494.267, 513.748 486.766, 528.081 491.527 C 534.935 493.803, 543.044 501.631, 545.175 508.027 L 546.666 512.500 569.857 512.768 C 589.543 512.996, 593.134 512.814, 593.614 511.562 C 594.392 509.535, 591.450 497.069, 588.454 489.695 C 581.724 473.132, 565.467 456.528, 548.926 449.324 C 541.433 446.061, 529.987 443.723, 520.837 443.586 C 515.522 443.507, 510.797 443.517, 510.337 443.609 M 1748 444.997 C 1723.998 450.491, 1706.200 464.727, 1695.800 486.751 C 1691.736 495.355, 1688.250 508.603, 1689.318 511.385 C 1689.863 512.806, 1692.654 513, 1712.493 513 L 1735.050 513 1736.032 510.250 C 1738.901 502.215, 1743.453 496.858, 1750.437 493.295 C 1766.465 485.119, 1784.704 493.324, 1790.391 511.268 C 1790.909 512.903, 1792.709 513.017, 1814.226 512.768 L 1837.500 512.500 1837.815 509.766 C 1838.274 505.780, 1834.402 492.550, 1830.477 484.692 C 1818.435 460.585, 1793.003 444.371, 1766 443.585 C 1758.688 443.373, 1753.223 443.801, 1748 444.997 M 94.337 444.609 C 74.140 448.623, 61.675 455.004, 49.407 467.606 C 42.613 474.585, 37.506 482.559, 33.706 492.117 C 30.785 499.468, 28.483 510.209, 29.346 512.460 C 29.854 513.783, 33.091 514, 52.333 514 L 74.728 514 76.520 509.309 C 78.687 503.634, 84.950 496.609, 90.455 493.678 C 93.676 491.963, 96.232 491.522, 103 491.512 C 110.427 491.502, 112.068 491.836, 116 494.165 C 122.329 497.913, 126.756 502.848, 128.932 508.581 L 130.798 513.500 153.923 513.768 C 173.551 513.996, 177.134 513.814, 177.614 512.562 C 178.392 510.535, 175.450 498.069, 172.454 490.695 C 165.724 474.132, 149.467 457.528, 132.926 450.324 C 125.433 447.061, 113.987 444.723, 104.837 444.586 C 99.522 444.507, 94.797 444.517, 94.337 444.609 M 1340.500 444.517 C 1339.950 444.659, 1336.800 445.362, 1333.500 446.079 C 1309.548 451.284, 1288.773 469.025, 1279.728 492 C 1276.780 499.490, 1274.483 510.212, 1275.346 512.460 C 1275.854 513.784, 1279.107 514, 1298.493 514 L 1321.050 514 1322.051 511.250 C 1324.046 505.775, 1326.564 501.754, 1329.778 498.911 C 1346.215 484.374, 1369.681 491.098, 1376.391 512.268 C 1376.909 513.903, 1378.709 514.017, 1400.226 513.768 L 1423.500 513.500 1423.815 510.766 C 1424.274 506.780, 1420.402 493.550, 1416.477 485.692 C 1404.420 461.556, 1379.070 445.389, 1352 444.575 C 1346.225 444.401, 1341.050 444.375, 1340.500 444.517 M 918 446.997 C 893.998 452.491, 876.200 466.727, 865.800 488.751 C 861.736 497.355, 858.250 510.603, 859.318 513.385 C 859.863 514.806, 862.654 515, 882.493 515 L 905.050 515 906.032 512.250 C 908.901 504.215, 913.453 498.858, 920.437 495.295 C 936.465 487.119, 954.704 495.324, 960.391 513.268 C 960.909 514.903, 962.709 515.017, 984.226 514.768 L 1007.500 514.500 1007.815 511.766 C 1008.274 507.780, 1004.402 494.550, 1000.477 486.692 C 988.435 462.585, 963.003 446.371, 936 445.585 C 928.688 445.373, 923.223 445.801, 918 446.997 M 1757.581 500.533 C 1750.236 503.058, 1745 509.987, 1745 517.182 C 1745 523.796, 1746.922 527.922, 1752.050 532.311 C 1756.040 535.726, 1756.833 536, 1762.733 536 C 1767.748 536, 1769.832 535.507, 1772.514 533.684 C 1777.253 530.464, 1779.769 526.981, 1780.858 522.136 C 1783.951 508.371, 1770.660 496.037, 1757.581 500.533 M 510.280 501.971 C 504.844 505.285, 501 511.546, 501 517.085 C 501 525.367, 504.029 530.415, 511.210 534.097 C 520.095 538.654, 532.454 533.827, 536.037 524.402 C 539.291 515.844, 534.159 504.277, 525.685 501.067 C 521.164 499.354, 513.870 499.782, 510.280 501.971 M 1343.581 501.533 C 1339.138 503.061, 1337.447 504.425, 1333.833 509.400 C 1329.212 515.762, 1330.070 525.269, 1335.814 531.339 C 1339.821 535.575, 1343.278 537, 1349.546 537 C 1363.495 537, 1371.721 522.287, 1364.794 509.730 C 1360.837 502.557, 1351.311 498.876, 1343.581 501.533 M 94.280 502.971 C 88.844 506.285, 85 512.546, 85 518.085 C 85 526.367, 88.029 531.415, 95.210 535.097 C 104.095 539.654, 116.454 534.827, 120.037 525.402 C 123.291 516.844, 118.159 505.277, 109.685 502.067 C 105.164 500.354, 97.870 500.782, 94.280 502.971 M 927.581 502.533 C 920.236 505.058, 915 511.987, 915 519.182 C 915 525.796, 916.922 529.922, 922.050 534.311 C 926.040 537.726, 926.833 538, 932.733 538 C 937.748 538, 939.832 537.507, 942.514 535.684 C 947.253 532.464, 949.769 528.981, 950.858 524.136 C 953.951 510.371, 940.660 498.037, 927.581 502.533 M 445.112 522.910 C 441.863 524.967, 446.049 543.038, 452.417 554.444 C 455.932 560.740, 456.321 561.215, 465.621 570.580 C 478.091 583.137, 490.959 589.415, 509.646 592.059 C 532.665 595.316, 557.774 586.064, 573.951 568.363 C 584.198 557.152, 591.402 541.739, 592.702 528.250 L 593.208 523 570.226 523 C 545.079 523, 546.233 522.719, 543.877 529.412 C 540.736 538.336, 529.801 545.293, 519 545.240 C 507.486 545.183, 498.919 539.808, 494.035 529.574 L 491.036 523.289 484.871 522.644 C 475.794 521.696, 446.723 521.889, 445.112 522.910 M 1689.112 522.910 C 1685.840 524.981, 1690.053 543.046, 1696.502 554.597 C 1709.172 577.291, 1735.488 593.152, 1760.592 593.223 C 1770.905 593.252, 1773.300 592.941, 1782.382 590.390 C 1797.056 586.268, 1807.549 580.059, 1817.399 569.668 C 1828.391 558.073, 1836.580 541.078, 1837.238 528.500 L 1837.500 523.500 1814.015 523.500 L 1790.530 523.500 1788.182 528.500 C 1781.495 542.741, 1766.114 548.976, 1752.315 543.040 C 1746.158 540.392, 1741.841 536.091, 1738.141 528.921 C 1735.448 523.702, 1735.161 523.475, 1730.422 522.838 C 1723.041 521.844, 1690.705 521.901, 1689.112 522.910 M 29.112 523.910 C 25.863 525.967, 30.049 544.038, 36.417 555.444 C 39.932 561.740, 40.321 562.215, 49.621 571.580 C 62.091 584.137, 74.959 590.415, 93.646 593.059 C 116.665 596.316, 141.774 587.064, 157.951 569.363 C 168.198 558.152, 175.402 542.739, 176.702 529.250 L 177.208 524 154.226 524 C 129.079 524, 130.233 523.719, 127.877 530.412 C 124.736 539.336, 113.801 546.293, 103 546.240 C 91.486 546.183, 82.919 540.808, 78.035 530.574 L 75.036 524.289 68.871 523.644 C 59.794 522.696, 30.723 522.889, 29.112 523.910 M 1275.112 523.910 C 1274.056 524.578, 1273.867 526.310, 1274.319 531.144 C 1275.815 547.118, 1286.978 566.403, 1301.194 577.571 C 1313.400 587.161, 1331.666 593.957, 1345.770 594.156 C 1356.640 594.309, 1359.032 594.017, 1368.382 591.390 C 1383.056 587.268, 1393.549 581.059, 1403.399 570.668 C 1414.391 559.073, 1422.580 542.078, 1423.238 529.500 L 1423.500 524.500 1400.015 524.500 L 1376.530 524.500 1374.182 529.500 C 1367.495 543.741, 1352.114 549.976, 1338.315 544.040 C 1332.158 541.392, 1327.841 537.091, 1324.141 529.921 C 1321.448 524.702, 1321.161 524.475, 1316.422 523.838 C 1309.041 522.844, 1276.705 522.901, 1275.112 523.910 M 859.112 524.910 C 855.840 526.981, 860.053 545.046, 866.502 556.597 C 879.172 579.291, 905.488 595.152, 930.592 595.223 C 940.905 595.252, 943.300 594.941, 952.382 592.390 C 967.056 588.268, 977.549 582.059, 987.399 571.668 C 998.391 560.073, 1006.580 543.078, 1007.238 530.500 L 1007.500 525.500 984.015 525.500 L 960.530 525.500 958.182 530.500 C 951.495 544.741, 936.114 550.976, 922.315 545.040 C 916.158 542.392, 911.841 538.091, 908.141 530.921 C 905.448 525.702, 905.161 525.475, 900.422 524.838 C 893.041 523.844, 860.705 523.901, 859.112 524.910 M 299.633 632.489 C 281.271 636.308, 268.103 643.100, 255.136 655.443 C 243.722 666.306, 234.515 681.844, 230.510 697 C 228.261 705.512, 227.402 725.211, 228.928 733.279 C 237.180 776.908, 272.760 807, 316.096 807 C 356.042 807, 389.939 780.828, 401.204 741.289 C 404.401 730.066, 404.401 707.934, 401.204 696.711 C 392.243 665.259, 369.023 642.009, 338.500 633.928 C 328.122 631.180, 309.280 630.482, 299.633 632.489 M 1134.500 632.627 C 1095.984 638.580, 1066.010 667.331, 1059.520 704.548 C 1050.387 756.921, 1088.306 804.818, 1141.191 807.709 C 1182.451 809.965, 1218.306 784.609, 1230.642 744.451 C 1233.145 736.301, 1233.389 734.114, 1233.365 720 C 1233.342 706.030, 1233.070 703.612, 1230.611 695.500 C 1221.502 665.456, 1198.157 642.700, 1168.500 634.957 C 1160.667 632.912, 1141.262 631.583, 1134.500 632.627 M 703.633 634.489 C 685.271 638.308, 672.103 645.100, 659.136 657.443 C 647.722 668.306, 638.515 683.844, 634.510 699 C 632.261 707.512, 631.402 727.211, 632.928 735.279 C 641.180 778.908, 676.760 809, 720.096 809 C 760.042 809, 793.939 782.828, 805.204 743.289 C 808.401 732.066, 808.401 709.934, 805.204 698.711 C 796.243 667.259, 773.023 644.009, 742.500 635.928 C 732.122 633.180, 713.280 632.482, 703.633 634.489 M 1538.500 634.627 C 1499.984 640.580, 1470.010 669.331, 1463.520 706.548 C 1454.387 758.921, 1492.306 806.818, 1545.191 809.709 C 1586.451 811.965, 1622.306 786.609, 1634.642 746.451 C 1637.145 738.301, 1637.389 736.114, 1637.365 722 C 1637.342 708.030, 1637.070 705.612, 1634.611 697.500 C 1625.502 667.456, 1602.157 644.700, 1572.500 636.957 C 1564.667 634.912, 1545.262 633.583, 1538.500 634.627 M 307.337 644.609 C 287.140 648.623, 274.675 655.004, 262.407 667.606 C 255.613 674.585, 250.506 682.559, 246.706 692.117 C 243.785 699.468, 241.483 710.209, 242.346 712.460 C 242.854 713.783, 246.091 714, 265.333 714 L 287.728 714 289.520 709.309 C 291.687 703.634, 297.950 696.609, 303.455 693.678 C 306.676 691.963, 309.232 691.522, 316 691.512 C 323.427 691.502, 325.068 691.836, 329 694.165 C 335.329 697.913, 339.756 702.848, 341.932 708.581 L 343.798 713.500 366.923 713.768 C 386.551 713.996, 390.134 713.814, 390.614 712.562 C 391.392 710.535, 388.450 698.069, 385.454 690.695 C 378.724 674.132, 362.467 657.528, 345.926 650.324 C 338.433 647.061, 326.987 644.723, 317.837 644.586 C 312.522 644.507, 307.797 644.517, 307.337 644.609 M 1131 646.997 C 1106.998 652.491, 1089.200 666.727, 1078.800 688.751 C 1074.736 697.355, 1071.250 710.603, 1072.318 713.385 C 1072.863 714.806, 1075.654 715, 1095.493 715 L 1118.050 715 1119.032 712.250 C 1121.901 704.215, 1126.453 698.858, 1133.437 695.295 C 1149.465 687.119, 1167.704 695.324, 1173.391 713.268 C 1173.909 714.903, 1175.709 715.017, 1197.226 714.768 L 1220.500 714.500 1220.815 711.766 C 1221.274 707.780, 1217.402 694.550, 1213.477 686.692 C 1201.435 662.585, 1176.003 646.371, 1149 645.585 C 1141.688 645.373, 1136.223 645.801, 1131 646.997 M 711.337 646.609 C 691.140 650.623, 678.675 657.004, 666.407 669.606 C 659.613 676.585, 654.506 684.559, 650.706 694.117 C 647.785 701.468, 645.483 712.209, 646.346 714.460 C 646.854 715.783, 650.091 716, 669.333 716 L 691.728 716 693.520 711.309 C 695.687 705.634, 701.950 698.609, 707.455 695.678 C 710.676 693.963, 713.232 693.522, 720 693.512 C 727.427 693.502, 729.068 693.836, 733 696.165 C 739.329 699.913, 743.756 704.848, 745.932 710.581 L 747.798 715.500 770.923 715.768 C 790.551 715.996, 794.134 715.814, 794.614 714.562 C 795.392 712.535, 792.450 700.069, 789.454 692.695 C 782.724 676.132, 766.467 659.528, 749.926 652.324 C 742.433 649.061, 730.987 646.723, 721.837 646.586 C 716.522 646.507, 711.797 646.517, 711.337 646.609 M 1535 648.997 C 1510.998 654.491, 1493.200 668.727, 1482.800 690.751 C 1478.736 699.355, 1475.250 712.603, 1476.318 715.385 C 1476.863 716.806, 1479.654 717, 1499.493 717 L 1522.050 717 1523.032 714.250 C 1525.901 706.215, 1530.453 700.858, 1537.437 697.295 C 1553.465 689.119, 1571.704 697.324, 1577.391 715.268 C 1577.909 716.903, 1579.709 717.017, 1601.226 716.768 L 1624.500 716.500 1624.815 713.766 C 1625.274 709.780, 1621.402 696.550, 1617.477 688.692 C 1605.435 664.585, 1580.003 648.371, 1553 647.585 C 1545.688 647.373, 1540.223 647.801, 1535 648.997 M 307.280 702.971 C 301.844 706.285, 298 712.546, 298 718.085 C 298 726.367, 301.029 731.415, 308.210 735.097 C 317.095 739.654, 329.454 734.827, 333.037 725.402 C 336.291 716.844, 331.159 705.277, 322.685 702.067 C 318.164 700.354, 310.870 700.782, 307.280 702.971 M 1140.581 702.533 C 1133.236 705.058, 1128 711.987, 1128 719.182 C 1128 725.796, 1129.922 729.922, 1135.050 734.311 C 1139.040 737.726, 1139.833 738, 1145.733 738 C 1150.748 738, 1152.832 737.507, 1155.514 735.684 C 1160.253 732.464, 1162.769 728.981, 1163.858 724.136 C 1166.951 710.371, 1153.660 698.037, 1140.581 702.533 M 711.280 704.971 C 705.844 708.285, 702 714.546, 702 720.085 C 702 728.367, 705.029 733.415, 712.210 737.097 C 721.095 741.654, 733.454 736.827, 737.037 727.402 C 740.291 718.844, 735.159 707.277, 726.685 704.067 C 722.164 702.354, 714.870 702.782, 711.280 704.971 M 1544.581 704.533 C 1537.236 707.058, 1532 713.987, 1532 721.182 C 1532 727.796, 1533.922 731.922, 1539.050 736.311 C 1543.040 739.726, 1543.833 740, 1549.733 740 C 1554.748 740, 1556.832 739.507, 1559.514 737.684 C 1564.253 734.464, 1566.769 730.981, 1567.858 726.136 C 1570.951 712.371, 1557.660 700.037, 1544.581 704.533 M 242.112 723.910 C 238.863 725.967, 243.049 744.038, 249.417 755.444 C 252.932 761.740, 253.321 762.215, 262.621 771.580 C 275.091 784.137, 287.959 790.415, 306.646 793.059 C 329.665 796.316, 354.774 787.064, 370.951 769.363 C 381.198 758.152, 388.402 742.739, 389.702 729.250 L 390.208 724 367.226 724 C 342.079 724, 343.233 723.719, 340.877 730.412 C 337.736 739.336, 326.801 746.293, 316 746.240 C 304.486 746.183, 295.919 740.808, 291.035 730.574 L 288.036 724.289 281.871 723.644 C 272.794 722.696, 243.723 722.889, 242.112 723.910 M 1072.112 724.910 C 1068.840 726.981, 1073.053 745.046, 1079.502 756.597 C 1092.172 779.291, 1118.488 795.152, 1143.592 795.223 C 1153.905 795.252, 1156.300 794.941, 1165.382 792.390 C 1180.056 788.268, 1190.549 782.059, 1200.399 771.668 C 1211.391 760.073, 1219.580 743.078, 1220.238 730.500 L 1220.500 725.500 1197.015 725.500 L 1173.530 725.500 1171.182 730.500 C 1164.495 744.741, 1149.114 750.976, 1135.315 745.040 C 1129.158 742.392, 1124.841 738.091, 1121.141 730.921 C 1118.448 725.702, 1118.161 725.475, 1113.422 724.838 C 1106.041 723.844, 1073.705 723.901, 1072.112 724.910 M 646.112 725.910 C 642.863 727.967, 647.049 746.038, 653.417 757.444 C 656.932 763.740, 657.321 764.215, 666.621 773.580 C 679.091 786.137, 691.959 792.415, 710.646 795.059 C 733.665 798.316, 758.774 789.064, 774.951 771.363 C 785.198 760.152, 792.402 744.739, 793.702 731.250 L 794.208 726 771.226 726 C 746.079 726, 747.233 725.719, 744.877 732.412 C 741.736 741.336, 730.801 748.293, 720 748.240 C 708.486 748.183, 699.919 742.808, 695.035 732.574 L 692.036 726.289 685.871 725.644 C 676.794 724.696, 647.723 724.889, 646.112 725.910 M 1476.112 726.910 C 1472.840 728.981, 1477.053 747.046, 1483.502 758.597 C 1496.172 781.291, 1522.488 797.152, 1547.592 797.223 C 1557.905 797.252, 1560.300 796.941, 1569.382 794.390 C 1584.056 790.268, 1594.549 784.059, 1604.399 773.668 C 1615.391 762.073, 1623.580 745.078, 1624.238 732.500 L 1624.500 727.500 1601.015 727.500 L 1577.530 727.500 1575.182 732.500 C 1568.495 746.741, 1553.114 752.976, 1539.315 747.040 C 1533.158 744.392, 1528.841 740.091, 1525.141 732.921 C 1522.448 727.702, 1522.161 727.475, 1517.422 726.838 C 1510.041 725.844, 1477.705 725.901, 1476.112 726.910 M 920.061 840.087 C 899.977 842.686, 881.262 852.476, 866.711 867.994 C 839.487 897.029, 835.197 941.101, 856.160 976.386 C 861.435 985.265, 873.408 997.788, 882.228 1003.651 C 911.573 1023.160, 949.753 1023.488, 979.130 1004.485 C 1012.799 982.704, 1027.627 940.649, 1015.360 901.729 C 1004.776 868.147, 976.975 844.882, 941.678 840.067 C 932.934 838.874, 929.406 838.878, 920.061 840.087 M 506.061 841.087 C 485.977 843.686, 467.262 853.476, 452.711 868.994 C 416.404 907.717, 422.942 969.432, 466.660 1000.648 C 483.358 1012.572, 506.045 1018.398, 526.634 1016.049 C 562.351 1011.974, 590.467 988.683, 601.536 954 C 605.102 942.827, 606.074 923.484, 603.656 911.792 C 595.817 873.886, 566.206 846.323, 527.678 841.067 C 518.934 839.874, 515.406 839.878, 506.061 841.087 M 1753 841.091 C 1720.643 844.005, 1691.865 865.613, 1679.673 896.147 C 1675.216 907.309, 1673.704 915.468, 1673.679 928.500 C 1673.630 953.687, 1682.611 974.809, 1700.731 992.120 C 1717.714 1008.346, 1737.853 1016.389, 1761.500 1016.389 C 1796.073 1016.389, 1825.620 997.682, 1840.876 966.133 C 1847.207 953.041, 1849.361 941.865, 1848.757 925.231 C 1848.224 910.574, 1845.853 900.619, 1840.245 889.500 C 1823.752 856.800, 1789.514 837.803, 1753 841.091 M 90.061 842.087 C 69.977 844.686, 51.262 854.476, 36.711 869.994 C 0.404 908.717, 6.942 970.432, 50.660 1001.648 C 67.358 1013.572, 90.045 1019.398, 110.634 1017.049 C 146.351 1012.974, 174.467 989.683, 185.536 955 C 189.102 943.827, 190.074 924.484, 187.656 912.792 C 179.817 874.886, 150.206 847.323, 111.678 842.067 C 102.934 840.874, 99.406 840.878, 90.061 842.087 M 1339 842.091 C 1306.643 845.005, 1277.865 866.613, 1265.673 897.147 C 1261.216 908.309, 1259.704 916.468, 1259.679 929.500 C 1259.630 954.687, 1268.611 975.809, 1286.731 993.120 C 1303.714 1009.346, 1323.853 1017.389, 1347.500 1017.389 C 1382.073 1017.389, 1411.620 998.682, 1426.876 967.133 C 1433.207 954.041, 1435.361 942.865, 1434.757 926.231 C 1434.224 911.574, 1431.853 901.619, 1426.245 890.500 C 1409.752 857.800, 1375.514 838.803, 1339 842.091 M 503 855.514 C 478.150 860.585, 456.676 878.810, 447.636 902.500 C 444.461 910.822, 442.681 922.131, 444.373 923.235 C 444.993 923.639, 454.950 923.969, 466.500 923.969 C 478.050 923.969, 487.997 923.639, 488.605 923.235 C 489.213 922.831, 490.248 920.850, 490.905 918.834 C 491.562 916.818, 493.972 913.041, 496.262 910.440 C 507.306 897.893, 526.193 897.572, 537.660 909.737 C 541.420 913.726, 542.616 915.777, 544.375 921.250 C 544.945 923.025, 550.092 923.308, 584.750 923.469 L 591.500 923.500 591.813 920.258 C 592.287 915.340, 588.370 902.452, 583.686 893.517 C 577.817 882.325, 564.591 869.140, 553.277 863.204 C 537.681 855.021, 519.240 852.200, 503 855.514 M 1747 855.521 C 1716.768 861.723, 1692.122 887.183, 1688.092 916.377 C 1687.500 920.665, 1687.584 922.720, 1688.373 923.235 C 1688.993 923.639, 1699.283 923.976, 1711.240 923.985 L 1732.980 924 1735.854 917.750 C 1739.064 910.772, 1742.363 907.281, 1748.972 903.873 C 1754.342 901.103, 1764.127 900.234, 1769.651 902.034 C 1777.901 904.724, 1785.979 912.525, 1787.875 919.634 L 1788.640 922.500 1811.070 923.230 C 1823.407 923.631, 1834.063 923.758, 1834.750 923.511 C 1836.508 922.881, 1836.277 917.684, 1834.128 909.500 C 1830.542 895.847, 1824.225 885.328, 1813.365 874.925 C 1795.716 858.022, 1770.604 850.679, 1747 855.521 M 87 856.514 C 62.150 861.585, 40.676 879.810, 31.636 903.500 C 28.461 911.822, 26.681 923.131, 28.373 924.235 C 28.993 924.639, 38.950 924.969, 50.500 924.969 C 62.050 924.969, 71.997 924.639, 72.605 924.235 C 73.213 923.831, 74.248 921.850, 74.905 919.834 C 75.562 917.818, 77.972 914.041, 80.262 911.440 C 91.306 898.893, 110.193 898.572, 121.660 910.737 C 125.420 914.726, 126.616 916.777, 128.375 922.250 C 128.945 924.025, 134.092 924.308, 168.750 924.469 L 175.500 924.500 175.813 921.258 C 176.287 916.340, 172.370 903.452, 167.686 894.517 C 161.817 883.325, 148.591 870.140, 137.277 864.204 C 121.681 856.021, 103.240 853.200, 87 856.514 M 1333 856.521 C 1302.768 862.723, 1278.122 888.183, 1274.092 917.377 C 1273.500 921.665, 1273.584 923.720, 1274.373 924.235 C 1274.993 924.639, 1285.283 924.976, 1297.240 924.985 L 1318.980 925 1321.854 918.750 C 1325.064 911.772, 1328.363 908.281, 1334.972 904.873 C 1340.342 902.103, 1350.127 901.234, 1355.651 903.034 C 1363.901 905.724, 1371.979 913.525, 1373.875 920.634 L 1374.640 923.500 1397.070 924.230 C 1409.407 924.631, 1420.063 924.758, 1420.750 924.511 C 1422.508 923.881, 1422.277 918.684, 1420.128 910.500 C 1416.542 896.847, 1410.225 886.328, 1399.365 875.925 C 1381.716 859.022, 1356.604 851.679, 1333 856.521 M 917 857.521 C 886.768 863.723, 862.122 889.183, 858.092 918.377 C 857.500 922.665, 857.584 924.720, 858.373 925.235 C 858.993 925.639, 869.283 925.976, 881.240 925.985 L 902.980 926 905.854 919.750 C 909.064 912.772, 912.363 909.281, 918.972 905.873 C 924.342 903.103, 934.127 902.234, 939.651 904.034 C 947.901 906.724, 955.979 914.525, 957.875 921.634 L 958.640 924.500 981.070 925.230 C 993.407 925.631, 1004.063 925.758, 1004.750 925.511 C 1006.508 924.881, 1006.277 919.684, 1004.128 911.500 C 1000.542 897.847, 994.225 887.328, 983.365 876.925 C 965.716 860.022, 940.604 852.679, 917 857.521 M 1755.784 911.216 C 1751.073 912.441, 1745.475 918.524, 1743.993 924.027 C 1742.001 931.425, 1745.039 939.580, 1751.385 943.873 C 1763.526 952.085, 1780 943.167, 1780 928.382 C 1780 924.021, 1779.459 922.446, 1776.735 918.875 C 1771.222 911.647, 1764.116 909.049, 1755.784 911.216 M 508.972 912.699 C 503.673 916.474, 501.968 918.580, 500.407 923.280 C 497.520 931.972, 501.122 940.709, 509.269 944.778 C 514.506 947.393, 518.664 947.585, 523.782 945.447 C 537.054 939.903, 539.316 922.058, 527.787 913.849 C 523.374 910.706, 512.685 910.053, 508.972 912.699 M 1341.784 912.216 C 1337.073 913.441, 1331.475 919.524, 1329.993 925.027 C 1328.001 932.425, 1331.039 940.580, 1337.385 944.873 C 1349.526 953.085, 1366 944.167, 1366 929.382 C 1366 925.021, 1365.459 923.446, 1362.735 919.875 C 1357.222 912.647, 1350.116 910.049, 1341.784 912.216 M 92.972 913.699 C 87.673 917.474, 85.968 919.580, 84.407 924.280 C 81.520 932.972, 85.122 941.709, 93.269 945.778 C 98.506 948.393, 102.664 948.585, 107.782 946.447 C 121.054 940.903, 123.316 923.058, 111.787 914.849 C 107.374 911.706, 96.685 911.053, 92.972 913.699 M 925.784 913.216 C 921.073 914.441, 915.475 920.524, 913.993 926.027 C 912.001 933.425, 915.039 941.580, 921.385 945.873 C 933.526 954.085, 950 945.167, 950 930.382 C 950 926.021, 949.459 924.446, 946.735 920.875 C 941.222 913.647, 934.116 911.049, 925.784 913.216 M 442.017 935.750 C 442.054 941.596, 445.162 952.844, 448.855 960.500 C 456.086 975.489, 467.229 987.391, 479.988 993.752 C 483.020 995.263, 485.725 996.752, 486 997.060 C 487.389 998.614, 500.612 1002.080, 509 1003.089 C 518.347 1004.212, 523.625 1003.742, 538.500 1000.462 C 542.830 999.507, 560 991.135, 560 989.978 C 560 989.440, 560.567 989, 561.259 989 C 563.567 989, 577.558 973.600, 581.912 966.269 C 586.788 958.057, 590.860 945.947, 591.242 938.526 L 591.500 933.500 581 933.178 C 575.225 933, 564.538 933.159, 557.250 933.530 C 545.890 934.109, 543.999 934.440, 543.991 935.852 C 543.972 939.194, 537.975 947.920, 533.762 950.737 C 527.196 955.127, 524.157 956.125, 517.351 956.125 C 510.547 956.125, 503.377 953.599, 499.122 949.701 C 495.863 946.717, 491 939.015, 491 936.839 C 491 933.492, 487.611 933, 464.566 933 L 442 933 442.017 935.750 M 1686.467 934.053 C 1686.097 934.652, 1686.089 937.248, 1686.449 939.821 C 1691.910 978.861, 1728.928 1007.887, 1768 1003.764 C 1774.851 1003.041, 1779.961 1001.871, 1780.570 1000.887 C 1780.871 1000.399, 1782.226 1000, 1783.581 1000 C 1789.683 1000, 1807.458 989.437, 1815.045 981.301 C 1827.218 968.248, 1834.842 952.458, 1835.297 939.355 L 1835.500 933.500 1825 933.178 C 1819.225 933, 1808.537 933.159, 1801.250 933.530 C 1790.708 934.067, 1788 934.499, 1788 935.642 C 1788 938.265, 1784.222 944.449, 1780.335 948.190 C 1766.315 961.680, 1744.823 957.083, 1736 938.707 L 1733.500 933.500 1710.320 933.232 C 1694.408 933.048, 1686.930 933.305, 1686.467 934.053 M 26.017 936.750 C 26.054 942.596, 29.162 953.844, 32.855 961.500 C 40.086 976.489, 51.229 988.391, 63.988 994.752 C 67.020 996.263, 69.725 997.752, 70 998.060 C 71.389 999.614, 84.612 1003.080, 93 1004.089 C 102.347 1005.212, 107.625 1004.742, 122.500 1001.462 C 126.830 1000.507, 144 992.135, 144 990.978 C 144 990.440, 144.567 990, 145.259 990 C 147.567 990, 161.558 974.600, 165.912 967.269 C 170.788 959.057, 174.860 946.947, 175.242 939.526 L 175.500 934.500 165 934.178 C 159.225 934, 148.537 934.159, 141.250 934.530 C 129.890 935.109, 127.999 935.440, 127.991 936.852 C 127.972 940.194, 121.975 948.920, 117.762 951.737 C 111.196 956.127, 108.157 957.125, 101.351 957.125 C 94.547 957.125, 87.377 954.599, 83.122 950.701 C 79.863 947.717, 75 940.015, 75 937.839 C 75 934.492, 71.611 934, 48.566 934 L 26 934 26.017 936.750 M 1272.467 935.053 C 1272.097 935.652, 1272.089 938.248, 1272.449 940.821 C 1277.910 979.861, 1314.928 1008.887, 1354 1004.764 C 1360.851 1004.041, 1365.961 1002.871, 1366.570 1001.887 C 1366.871 1001.399, 1368.226 1001, 1369.581 1001 C 1375.683 1001, 1393.458 990.437, 1401.045 982.301 C 1413.218 969.248, 1420.842 953.458, 1421.297 940.355 L 1421.500 934.500 1411 934.178 C 1405.225 934, 1394.537 934.159, 1387.250 934.530 C 1376.708 935.067, 1374 935.499, 1374 936.642 C 1374 939.265, 1370.222 945.449, 1366.335 949.190 C 1352.315 962.680, 1330.823 958.083, 1322 939.707 L 1319.500 934.500 1296.320 934.232 C 1280.408 934.048, 1272.930 934.305, 1272.467 935.053 M 856.467 936.053 C 856.097 936.652, 856.089 939.248, 856.449 941.821 C 861.910 980.861, 898.928 1009.887, 938 1005.764 C 944.851 1005.041, 949.961 1003.871, 950.570 1002.887 C 950.871 1002.399, 952.226 1002, 953.581 1002 C 959.683 1002, 977.458 991.437, 985.045 983.301 C 997.218 970.248, 1004.842 954.458, 1005.297 941.355 L 1005.500 935.500 995 935.178 C 989.225 935, 978.538 935.159, 971.250 935.530 C 960.708 936.067, 958 936.499, 958 937.642 C 958 940.265, 954.222 946.449, 950.335 950.190 C 936.315 963.680, 914.823 959.083, 906 940.707 L 903.500 935.500 880.320 935.232 C 864.408 935.048, 856.930 935.305, 856.467 936.053 M 300 1056.514 C 287.130 1059.140, 273.629 1066.107, 263.500 1075.348 L 258.500 1079.910 314.500 1079.908 L 370.500 1079.906 364.211 1074.125 C 347.747 1058.990, 322.202 1051.984, 300 1056.514 M 1130 1057.514 C 1117.396 1060.086, 1104.311 1066.777, 1094 1075.923 L 1089.500 1079.915 1144.458 1079.957 L 1199.416 1080 1195.181 1075.684 C 1180.419 1060.643, 1152.631 1052.896, 1130 1057.514 M 704 1058.514 C 691.766 1061.011, 678.109 1067.886, 668.500 1076.386 L 664.500 1079.925 718.500 1079.919 L 772.500 1079.913 767.082 1075.060 C 751.220 1060.850, 725.551 1054.117, 704 1058.514 M 1534 1059.514 C 1522.020 1061.959, 1509.036 1068.434, 1499 1076.970 L 1495.500 1079.946 1548.446 1079.973 L 1601.392 1080 1598.192 1076.698 C 1594.139 1072.517, 1583.264 1065.983, 1575.580 1063.112 C 1562.089 1058.073, 1547.326 1056.795, 1534 1059.514" stroke="none" fill="#272727" fill-rule="evenodd"/><path d="M 923.342 19.410 C 892.009 25.398, 866.926 45.823, 855.949 74.290 C 847.898 95.167, 847.914 119.925, 855.992 140.784 C 865.894 166.354, 887.853 186.463, 914.179 194.069 C 924.663 197.098, 943.912 197.807, 954.949 195.570 C 991.403 188.184, 1019.195 159.312, 1025.034 122.761 C 1026.754 111.995, 1025.783 92.639, 1023.040 83 C 1012.490 45.937, 979.552 20.028, 941 18.467 C 934.480 18.204, 927.786 18.561, 923.342 19.410 M 509.342 20.410 C 478.009 26.398, 452.926 46.823, 441.949 75.290 C 433.382 97.502, 434.086 122.585, 443.860 143.441 C 448.950 154.305, 452.781 159.851, 461.314 168.708 C 473.604 181.468, 489.236 189.982, 506.927 193.552 C 518.098 195.807, 537.294 195.110, 547.821 192.069 C 577.124 183.603, 599.687 161.051, 608.624 131.297 C 610.895 123.736, 611.282 120.534, 611.383 108.500 C 611.577 85.310, 606.415 69.960, 592.403 52.051 C 581.598 38.242, 563.388 26.556, 545.500 21.952 C 535.197 19.300, 518.808 18.601, 509.342 20.410 M 1754 20.419 C 1712.698 27.862, 1682.807 61.154, 1680.362 102.433 C 1677.954 143.112, 1704.685 180.658, 1744.179 192.069 C 1754.663 195.098, 1773.912 195.807, 1784.949 193.570 C 1821.435 186.178, 1849.194 157.316, 1855.046 120.691 C 1856.668 110.539, 1855.734 93.803, 1852.998 84 C 1842.757 47.306, 1809.770 21.203, 1771.500 19.510 C 1765.457 19.242, 1758.532 19.602, 1754 20.419 M 93.342 21.410 C 62.009 27.398, 36.926 47.823, 25.949 76.290 C 17.382 98.502, 18.086 123.585, 27.860 144.441 C 32.950 155.305, 36.781 160.851, 45.314 169.708 C 57.604 182.468, 73.236 190.982, 90.927 194.552 C 102.098 196.807, 121.294 196.110, 131.821 193.069 C 161.124 184.603, 183.687 162.051, 192.624 132.297 C 194.895 124.736, 195.282 121.534, 195.383 109.500 C 195.577 86.310, 190.415 70.960, 176.403 53.051 C 165.598 39.242, 147.388 27.556, 129.500 22.952 C 119.197 20.300, 102.808 19.601, 93.342 21.410 M 1340 21.419 C 1298.698 28.862, 1268.807 62.154, 1266.362 103.433 C 1263.954 144.112, 1290.685 181.658, 1330.179 193.069 C 1340.663 196.098, 1359.912 196.807, 1370.949 194.570 C 1407.435 187.178, 1435.194 158.316, 1441.046 121.691 C 1442.668 111.539, 1441.734 94.803, 1438.998 85 C 1428.757 48.306, 1395.770 22.203, 1357.500 20.510 C 1351.457 20.242, 1344.532 20.602, 1340 21.419 M 510 34.427 C 487.042 39.530, 468.581 53.360, 458.096 73.311 C 454.418 80.310, 451.066 90.763, 450.419 97.250 L 449.946 102 472.837 102 L 495.728 102 497.506 97.346 C 499.703 91.593, 504.881 85.743, 510.916 82.195 C 514.946 79.825, 516.527 79.505, 524 79.543 C 533.605 79.591, 536.604 80.750, 543.453 87.063 C 547.178 90.497, 549.544 94.430, 551.384 100.250 C 551.890 101.851, 553.935 102, 575.469 102 C 603.269 102, 600.832 103.983, 595.740 85.500 C 593.101 75.925, 583.922 60.978, 576.344 53.920 C 558.484 37.284, 532.068 29.523, 510 34.427 M 1754 34.427 C 1740.432 37.443, 1729.743 42.683, 1719.927 51.132 C 1705.903 63.201, 1696.459 80.318, 1694.481 97.250 L 1693.926 102 1716.907 102 L 1739.888 102 1742.593 95.973 C 1745.493 89.510, 1749.532 85.330, 1756.278 81.809 C 1762.567 78.526, 1773.696 78.727, 1780.563 82.248 C 1788.141 86.134, 1792.568 91.514, 1795.375 100.250 C 1795.889 101.851, 1797.939 102, 1819.469 102 L 1843 102 1843 98.730 C 1843 93.254, 1839.097 80.947, 1834.682 72.500 C 1831.584 66.574, 1828.156 62.133, 1821.460 55.370 C 1813.477 47.308, 1811.198 45.651, 1801.960 41.193 C 1786.043 33.512, 1768.959 31.102, 1754 34.427 M 94 35.427 C 71.042 40.530, 52.581 54.360, 42.096 74.311 C 38.418 81.310, 35.066 91.763, 34.419 98.250 L 33.946 103 56.837 103 L 79.728 103 81.506 98.346 C 83.703 92.593, 88.881 86.743, 94.916 83.195 C 98.946 80.825, 100.527 80.505, 108 80.543 C 117.605 80.591, 120.604 81.750, 127.453 88.063 C 131.178 91.497, 133.544 95.430, 135.384 101.250 C 135.890 102.851, 137.935 103, 159.469 103 C 187.269 103, 184.832 104.983, 179.740 86.500 C 177.101 76.925, 167.922 61.978, 160.344 54.920 C 142.484 38.284, 116.068 30.523, 94 35.427 M 1340 35.427 C 1326.432 38.443, 1315.743 43.683, 1305.927 52.132 C 1291.903 64.201, 1282.459 81.318, 1280.481 98.250 L 1279.926 103 1302.907 103 L 1325.888 103 1328.593 96.973 C 1331.493 90.510, 1335.532 86.330, 1342.278 82.809 C 1348.567 79.526, 1359.696 79.727, 1366.563 83.248 C 1374.141 87.134, 1378.568 92.514, 1381.375 101.250 C 1381.889 102.851, 1383.939 103, 1405.469 103 L 1429 103 1429 99.730 C 1429 94.254, 1425.097 81.947, 1420.682 73.500 C 1417.584 67.574, 1414.156 63.133, 1407.460 56.370 C 1399.477 48.308, 1397.198 46.651, 1387.960 42.193 C 1372.043 34.512, 1354.959 32.102, 1340 35.427 M 924 36.427 C 910.432 39.443, 899.743 44.683, 889.927 53.132 C 875.903 65.201, 866.459 82.318, 864.481 99.250 L 863.926 104 886.907 104 L 909.888 104 912.593 97.973 C 915.493 91.510, 919.532 87.330, 926.278 83.809 C 932.567 80.526, 943.696 80.727, 950.563 84.248 C 958.141 88.134, 962.568 93.514, 965.375 102.250 C 965.889 103.851, 967.939 104, 989.469 104 L 1013 104 1013 100.730 C 1013 95.254, 1009.097 82.947, 1004.682 74.500 C 1001.584 68.574, 998.156 64.133, 991.460 57.370 C 983.477 49.308, 981.198 47.651, 971.960 43.193 C 956.043 35.512, 938.959 33.102, 924 36.427 M 1761.581 90.481 C 1753.411 93.399, 1748.853 102.400, 1750.940 111.495 C 1752.971 120.348, 1759.008 125.235, 1767.916 125.235 C 1774.636 125.235, 1777.283 124.063, 1781.750 119.106 C 1789.059 110.997, 1786.565 96.446, 1777.021 91.511 C 1772.798 89.327, 1766.068 88.878, 1761.581 90.481 M 515.366 91.919 C 513.642 92.970, 510.950 95.511, 509.382 97.565 C 507.034 100.645, 506.533 102.285, 506.533 106.905 C 506.533 113.911, 509.431 118.996, 515.425 122.509 C 520.663 125.578, 525.904 125.709, 531.677 122.914 C 536.761 120.453, 539.482 116.964, 541.133 110.793 C 542.161 106.949, 542.082 105.657, 540.588 101.898 C 537.298 93.619, 532.187 89.998, 523.800 90.004 C 520.348 90.006, 517.407 90.674, 515.366 91.919 M 1347.581 91.481 C 1339.411 94.399, 1334.853 103.400, 1336.940 112.495 C 1338.971 121.348, 1345.008 126.235, 1353.916 126.235 C 1360.636 126.235, 1363.283 125.063, 1367.750 120.106 C 1375.059 111.997, 1372.565 97.446, 1363.021 92.511 C 1358.798 90.327, 1352.068 89.878, 1347.581 91.481 M 99.366 92.919 C 97.642 93.970, 94.950 96.511, 93.382 98.565 C 91.034 101.645, 90.533 103.285, 90.533 107.905 C 90.533 114.911, 93.431 119.996, 99.425 123.509 C 104.663 126.578, 109.904 126.709, 115.677 123.914 C 120.761 121.453, 123.482 117.964, 125.133 111.793 C 126.161 107.949, 126.082 106.657, 124.588 102.898 C 121.298 94.619, 116.187 90.998, 107.800 91.004 C 104.348 91.006, 101.407 91.674, 99.366 92.919 M 931.581 92.481 C 923.411 95.399, 918.853 104.400, 920.940 113.495 C 922.971 122.348, 929.008 127.235, 937.916 127.235 C 944.636 127.235, 947.283 126.063, 951.750 121.106 C 959.059 112.997, 956.565 98.446, 947.021 93.511 C 942.798 91.327, 936.068 90.878, 931.581 92.481 M 449.418 117.979 C 452.420 144.515, 473.018 169.064, 499.605 177.792 C 518.364 183.950, 537.446 182.801, 555.797 174.407 C 571.937 167.024, 585.924 152.120, 592.844 134.930 C 595.803 127.579, 597.973 119.276, 597.988 115.250 L 598 112 575.750 112.015 C 563.513 112.024, 553.027 112.361, 552.449 112.765 C 551.870 113.169, 550.573 115.698, 549.565 118.384 C 545.761 128.523, 535.847 135, 524.133 135 C 516.587 135, 512.610 133.700, 506.442 129.216 C 502.803 126.570, 498.255 119.439, 496.578 113.750 C 496.106 112.147, 494.073 112, 472.402 112 L 448.742 112 449.418 117.979 M 1693.418 117.979 C 1697.009 149.716, 1723.374 176.195, 1756.728 181.562 C 1766.472 183.130, 1780 182.694, 1780 180.812 C 1780 180.300, 1780.409 180.135, 1780.909 180.444 C 1782.499 181.427, 1794.251 177.889, 1801.500 174.246 C 1810.958 169.492, 1819.059 163.088, 1825.512 155.264 C 1834.702 144.123, 1841.687 128.357, 1842.244 117.500 L 1842.500 112.500 1821 112.217 C 1809.175 112.062, 1798.562 112.164, 1797.415 112.445 C 1796.051 112.779, 1794.928 114.297, 1794.168 116.833 C 1792.584 122.119, 1785.776 129.586, 1780.145 132.212 C 1777.359 133.512, 1772.898 134.522, 1769 134.736 C 1763.235 135.054, 1761.770 134.721, 1756.042 131.797 C 1749.281 128.345, 1743.571 122.240, 1742.361 117.171 C 1741.116 111.951, 1741.365 112, 1716.248 112 L 1692.742 112 1693.418 117.979 M 33.418 118.979 C 36.420 145.515, 57.018 170.064, 83.605 178.792 C 102.364 184.950, 121.446 183.801, 139.797 175.407 C 155.937 168.024, 169.924 153.120, 176.844 135.930 C 179.803 128.579, 181.973 120.276, 181.988 116.250 L 182 113 159.750 113.015 C 147.512 113.024, 137.027 113.361, 136.449 113.765 C 135.870 114.169, 134.573 116.698, 133.565 119.384 C 129.761 129.523, 119.847 136, 108.133 136 C 100.587 136, 96.610 134.700, 90.442 130.216 C 86.803 127.570, 82.255 120.439, 80.578 114.750 C 80.106 113.147, 78.073 113, 56.402 113 L 32.742 113 33.418 118.979 M 1279.418 118.979 C 1283.009 150.716, 1309.374 177.195, 1342.728 182.562 C 1352.472 184.130, 1366 183.694, 1366 181.812 C 1366 181.300, 1366.409 181.135, 1366.909 181.444 C 1368.499 182.427, 1380.251 178.889, 1387.500 175.246 C 1396.958 170.492, 1405.059 164.088, 1411.512 156.264 C 1420.702 145.123, 1427.687 129.357, 1428.244 118.500 L 1428.500 113.500 1407 113.217 C 1395.175 113.062, 1384.562 113.164, 1383.415 113.445 C 1382.051 113.779, 1380.928 115.297, 1380.168 117.833 C 1378.584 123.119, 1371.776 130.586, 1366.145 133.212 C 1363.359 134.512, 1358.898 135.522, 1355 135.736 C 1349.235 136.054, 1347.770 135.721, 1342.042 132.797 C 1335.281 129.345, 1329.571 123.240, 1328.361 118.171 C 1327.116 112.951, 1327.365 113, 1302.248 113 L 1278.742 113 1279.418 118.979 M 863.418 119.979 C 867.009 151.716, 893.374 178.195, 926.728 183.562 C 936.472 185.130, 950 184.694, 950 182.812 C 950 182.300, 950.409 182.135, 950.909 182.444 C 952.499 183.427, 964.251 179.889, 971.500 176.246 C 980.958 171.492, 989.059 165.088, 995.512 157.264 C 1004.702 146.123, 1011.687 130.357, 1012.244 119.500 L 1012.500 114.500 991 114.217 C 979.175 114.062, 968.562 114.164, 967.415 114.445 C 966.051 114.779, 964.928 116.297, 964.168 118.833 C 962.584 124.119, 955.776 131.586, 950.145 134.212 C 947.359 135.512, 942.898 136.522, 939 136.736 C 933.235 137.054, 931.770 136.721, 926.042 133.797 C 919.281 130.345, 913.571 124.240, 912.361 119.171 C 911.116 113.951, 911.365 114, 886.248 114 L 862.742 114 863.418 119.979 M 306.342 221.410 C 275.009 227.398, 249.926 247.823, 238.949 276.290 C 230.382 298.502, 231.086 323.585, 240.860 344.441 C 245.950 355.305, 249.781 360.851, 258.314 369.708 C 270.604 382.468, 286.236 390.982, 303.927 394.552 C 315.098 396.807, 334.294 396.110, 344.821 393.069 C 374.124 384.603, 396.687 362.051, 405.624 332.297 C 407.895 324.736, 408.282 321.534, 408.383 309.500 C 408.577 286.310, 403.415 270.960, 389.403 253.051 C 378.598 239.242, 360.388 227.556, 342.500 222.952 C 332.197 220.300, 315.808 219.601, 306.342 221.410 M 1137 222.419 C 1095.698 229.862, 1065.807 263.154, 1063.362 304.433 C 1060.954 345.112, 1087.685 382.658, 1127.179 394.069 C 1137.663 397.098, 1156.912 397.807, 1167.949 395.570 C 1204.435 388.178, 1232.194 359.316, 1238.046 322.691 C 1239.668 312.539, 1238.734 295.803, 1235.998 286 C 1225.757 249.306, 1192.770 223.203, 1154.500 221.510 C 1148.457 221.242, 1141.532 221.602, 1137 222.419 M 710.342 223.410 C 679.009 229.398, 653.926 249.823, 642.949 278.290 C 634.382 300.502, 635.086 325.585, 644.860 346.441 C 649.950 357.305, 653.781 362.851, 662.314 371.708 C 674.604 384.468, 690.236 392.982, 707.927 396.552 C 719.098 398.807, 738.294 398.110, 748.821 395.069 C 778.124 386.603, 800.687 364.051, 809.624 334.297 C 811.895 326.736, 812.282 323.534, 812.383 311.500 C 812.577 288.310, 807.415 272.960, 793.403 255.051 C 782.598 241.242, 764.388 229.556, 746.500 224.952 C 736.197 222.300, 719.808 221.601, 710.342 223.410 M 1541 224.419 C 1499.698 231.862, 1469.807 265.154, 1467.362 306.433 C 1464.954 347.112, 1491.685 384.658, 1531.179 396.069 C 1541.663 399.098, 1560.912 399.807, 1571.949 397.570 C 1608.435 390.178, 1636.194 361.316, 1642.046 324.691 C 1643.668 314.539, 1642.734 297.803, 1639.998 288 C 1629.757 251.306, 1596.770 225.203, 1558.500 223.510 C 1552.457 223.242, 1545.532 223.602, 1541 224.419 M 307 235.427 C 284.042 240.530, 265.581 254.360, 255.096 274.311 C 251.418 281.310, 248.066 291.763, 247.419 298.250 L 246.946 303 269.837 303 L 292.728 303 294.506 298.346 C 296.703 292.593, 301.881 286.743, 307.916 283.195 C 311.946 280.825, 313.527 280.505, 321 280.543 C 330.605 280.591, 333.604 281.750, 340.453 288.063 C 344.178 291.497, 346.544 295.430, 348.384 301.250 C 348.890 302.851, 350.935 303, 372.469 303 C 400.269 303, 397.832 304.983, 392.740 286.500 C 390.101 276.925, 380.922 261.978, 373.344 254.920 C 355.484 238.284, 329.068 230.523, 307 235.427 M 1137 236.427 C 1123.432 239.443, 1112.743 244.683, 1102.927 253.132 C 1088.903 265.201, 1079.459 282.318, 1077.481 299.250 L 1076.926 304 1099.907 304 L 1122.888 304 1125.593 297.973 C 1128.493 291.510, 1132.532 287.330, 1139.278 283.809 C 1145.567 280.526, 1156.696 280.727, 1163.563 284.248 C 1171.141 288.134, 1175.568 293.514, 1178.375 302.250 C 1178.889 303.851, 1180.939 304, 1202.469 304 L 1226 304 1226 300.730 C 1226 295.254, 1222.097 282.947, 1217.682 274.500 C 1214.584 268.574, 1211.156 264.133, 1204.460 257.370 C 1196.477 249.308, 1194.198 247.651, 1184.960 243.193 C 1169.043 235.512, 1151.959 233.102, 1137 236.427 M 711 237.427 C 688.042 242.530, 669.581 256.360, 659.096 276.311 C 655.418 283.310, 652.066 293.763, 651.419 300.250 L 650.946 305 673.837 305 L 696.728 305 698.506 300.346 C 700.703 294.593, 705.881 288.743, 711.916 285.195 C 715.946 282.825, 717.527 282.505, 725 282.543 C 734.605 282.591, 737.604 283.750, 744.453 290.063 C 748.178 293.497, 750.544 297.430, 752.384 303.250 C 752.890 304.851, 754.935 305, 776.469 305 C 804.269 305, 801.832 306.983, 796.740 288.500 C 794.101 278.925, 784.922 263.978, 777.344 256.920 C 759.484 240.284, 733.068 232.523, 711 237.427 M 1541 238.427 C 1527.432 241.443, 1516.743 246.683, 1506.927 255.132 C 1492.903 267.201, 1483.459 284.318, 1481.481 301.250 L 1480.926 306 1503.907 306 L 1526.888 306 1529.593 299.973 C 1532.493 293.510, 1536.532 289.330, 1543.278 285.809 C 1549.567 282.526, 1560.696 282.727, 1567.563 286.248 C 1575.141 290.134, 1579.568 295.514, 1582.375 304.250 C 1582.889 305.851, 1584.939 306, 1606.469 306 L 1630 306 1630 302.730 C 1630 297.254, 1626.097 284.947, 1621.682 276.500 C 1618.584 270.574, 1615.156 266.133, 1608.460 259.370 C 1600.477 251.308, 1598.198 249.651, 1588.960 245.193 C 1573.043 237.512, 1555.959 235.102, 1541 238.427 M 312.366 292.919 C 310.642 293.970, 307.950 296.511, 306.382 298.565 C 304.034 301.645, 303.533 303.285, 303.533 307.905 C 303.533 314.911, 306.431 319.996, 312.425 323.509 C 317.663 326.578, 322.904 326.709, 328.677 323.914 C 333.761 321.453, 336.482 317.964, 338.133 311.793 C 339.161 307.949, 339.082 306.657, 337.588 302.898 C 334.298 294.619, 329.187 290.998, 320.800 291.004 C 317.348 291.006, 314.407 291.674, 312.366 292.919 M 1144.581 292.481 C 1136.411 295.399, 1131.853 304.400, 1133.940 313.495 C 1135.971 322.348, 1142.008 327.235, 1150.916 327.235 C 1157.636 327.235, 1160.283 326.063, 1164.750 321.106 C 1172.059 312.997, 1169.565 298.446, 1160.021 293.511 C 1155.798 291.327, 1149.068 290.878, 1144.581 292.481 M 716.366 294.919 C 714.642 295.970, 711.950 298.511, 710.382 300.565 C 708.034 303.645, 707.533 305.285, 707.533 309.905 C 707.533 316.911, 710.431 321.996, 716.425 325.509 C 721.663 328.578, 726.904 328.709, 732.677 325.914 C 737.761 323.453, 740.482 319.964, 742.133 313.793 C 743.161 309.949, 743.082 308.657, 741.588 304.898 C 738.298 296.619, 733.187 292.998, 724.800 293.004 C 721.348 293.006, 718.407 293.674, 716.366 294.919 M 1548.581 294.481 C 1540.411 297.399, 1535.853 306.400, 1537.940 315.495 C 1539.971 324.348, 1546.008 329.235, 1554.916 329.235 C 1561.636 329.235, 1564.283 328.063, 1568.750 323.106 C 1576.059 314.997, 1573.565 300.446, 1564.021 295.511 C 1559.798 293.327, 1553.068 292.878, 1548.581 294.481 M 246.418 318.979 C 249.420 345.515, 270.018 370.064, 296.605 378.792 C 315.364 384.950, 334.446 383.801, 352.797 375.407 C 368.937 368.024, 382.924 353.120, 389.844 335.930 C 392.803 328.579, 394.973 320.276, 394.988 316.250 L 395 313 372.750 313.015 C 360.512 313.024, 350.027 313.361, 349.449 313.765 C 348.870 314.169, 347.573 316.698, 346.565 319.384 C 342.761 329.523, 332.847 336, 321.133 336 C 313.587 336, 309.610 334.700, 303.442 330.216 C 299.803 327.570, 295.255 320.439, 293.578 314.750 C 293.106 313.147, 291.073 313, 269.402 313 L 245.742 313 246.418 318.979 M 1076.418 319.979 C 1080.009 351.716, 1106.374 378.195, 1139.728 383.562 C 1149.472 385.130, 1163 384.694, 1163 382.812 C 1163 382.300, 1163.409 382.135, 1163.909 382.444 C 1165.499 383.427, 1177.251 379.889, 1184.500 376.246 C 1193.958 371.492, 1202.059 365.088, 1208.512 357.264 C 1217.702 346.123, 1224.687 330.357, 1225.244 319.500 L 1225.500 314.500 1204 314.217 C 1192.175 314.062, 1181.562 314.164, 1180.415 314.445 C 1179.051 314.779, 1177.928 316.297, 1177.168 318.833 C 1175.584 324.119, 1168.776 331.586, 1163.145 334.212 C 1160.359 335.512, 1155.898 336.522, 1152 336.736 C 1146.235 337.054, 1144.770 336.721, 1139.042 333.797 C 1132.281 330.345, 1126.571 324.240, 1125.361 319.171 C 1124.116 313.951, 1124.365 314, 1099.248 314 L 1075.742 314 1076.418 319.979 M 650.418 320.979 C 653.420 347.515, 674.018 372.064, 700.605 380.792 C 719.364 386.950, 738.446 385.801, 756.797 377.407 C 772.937 370.024, 786.924 355.120, 793.844 337.930 C 796.803 330.579, 798.973 322.276, 798.988 318.250 L 799 315 776.750 315.015 C 764.513 315.024, 754.027 315.361, 753.449 315.765 C 752.870 316.169, 751.573 318.698, 750.565 321.384 C 746.761 331.523, 736.847 338, 725.133 338 C 717.587 338, 713.610 336.700, 707.442 332.216 C 703.803 329.570, 699.255 322.439, 697.578 316.750 C 697.106 315.147, 695.073 315, 673.402 315 L 649.742 315 650.418 320.979 M 1480.418 321.979 C 1484.009 353.716, 1510.374 380.195, 1543.728 385.562 C 1553.472 387.130, 1567 386.694, 1567 384.812 C 1567 384.300, 1567.409 384.135, 1567.909 384.444 C 1569.499 385.427, 1581.251 381.889, 1588.500 378.246 C 1597.958 373.492, 1606.059 367.088, 1612.512 359.264 C 1621.702 348.123, 1628.687 332.357, 1629.244 321.500 L 1629.500 316.500 1608 316.217 C 1596.175 316.062, 1585.562 316.164, 1584.415 316.445 C 1583.051 316.779, 1581.928 318.297, 1581.168 320.833 C 1579.584 326.119, 1572.776 333.586, 1567.145 336.212 C 1564.359 337.512, 1559.898 338.522, 1556 338.736 C 1550.235 339.054, 1548.770 338.721, 1543.042 335.797 C 1536.281 332.345, 1530.571 326.240, 1529.361 321.171 C 1528.116 315.951, 1528.365 316, 1503.248 316 L 1479.742 316 1480.418 321.979 M 916.633 430.489 C 898.271 434.308, 885.103 441.100, 872.136 453.443 C 860.733 464.296, 851.546 479.792, 847.498 495 C 844.884 504.820, 844.359 525.731, 846.465 536.125 C 853.188 569.304, 876.727 595.250, 908.500 604.503 C 919.682 607.760, 935.563 608.829, 946.514 607.062 C 984.388 600.952, 1013.948 571.416, 1020.051 533.584 C 1021.583 524.090, 1020.775 503.688, 1018.543 495.500 C 1010.007 464.181, 985.870 439.831, 955.500 431.899 C 945.097 429.182, 926.212 428.497, 916.633 430.489 M 506.500 431.109 C 471.926 436.095, 443.410 461.604, 433.959 496 C 432.007 503.103, 431.633 506.800, 431.681 518.500 C 431.732 530.684, 432.087 533.657, 434.415 541.421 C 441.532 565.153, 455.896 583.234, 476.784 594.756 C 511.137 613.704, 553.673 607.467, 581.359 579.422 C 591.964 568.679, 600.124 554.292, 604.173 539.198 C 607.127 528.187, 607.094 507.704, 604.103 496.500 C 592.468 452.904, 550.471 424.768, 506.500 431.109 M 1751.500 430.627 C 1712.984 436.580, 1683.010 465.331, 1676.520 502.548 C 1667.387 554.921, 1705.306 602.818, 1758.191 605.709 C 1799.451 607.965, 1835.306 582.609, 1847.642 542.451 C 1850.145 534.301, 1850.389 532.114, 1850.365 518 C 1850.342 504.030, 1850.070 501.612, 1847.611 493.500 C 1838.502 463.456, 1815.157 440.700, 1785.500 432.957 C 1777.667 430.912, 1758.262 429.583, 1751.500 430.627 M 86.633 432.489 C 68.271 436.308, 55.103 443.100, 42.136 455.443 C 30.722 466.306, 21.515 481.844, 17.510 497 C 15.261 505.512, 14.402 525.211, 15.928 533.279 C 24.180 576.908, 59.760 607, 103.096 607 C 143.042 607, 176.939 580.828, 188.204 541.289 C 191.401 530.066, 191.401 507.934, 188.204 496.711 C 179.243 465.259, 156.023 442.009, 125.500 433.928 C 115.122 431.180, 96.280 430.482, 86.633 432.489 M 1334.607 432.605 C 1317.035 435.779, 1302.408 443.058, 1289.765 454.921 C 1270.625 472.882, 1261.720 493.229, 1261.720 519 C 1261.720 544.186, 1270.472 564.690, 1288.638 582.061 C 1299.664 592.604, 1310.277 598.930, 1323.500 602.841 C 1365.091 615.142, 1408.481 596.319, 1427.473 557.736 C 1434.284 543.900, 1436.239 535.263, 1436.239 519 C 1436.239 502.737, 1434.284 494.100, 1427.473 480.264 C 1414.852 454.625, 1391.139 437.112, 1362.824 432.520 C 1351.587 430.698, 1345.059 430.717, 1334.607 432.605 M 510.337 443.609 C 490.088 447.634, 478.353 453.573, 465.972 466.063 C 458.811 473.286, 453.609 481.299, 449.706 491.117 C 446.785 498.468, 444.483 509.209, 445.346 511.460 C 445.854 512.783, 449.091 513, 468.333 513 L 490.728 513 492.506 508.346 C 497.883 494.267, 513.748 486.766, 528.081 491.527 C 534.935 493.803, 543.044 501.631, 545.175 508.027 L 546.666 512.500 569.857 512.768 C 589.543 512.996, 593.134 512.814, 593.614 511.562 C 594.392 509.535, 591.450 497.069, 588.454 489.695 C 581.724 473.132, 565.467 456.528, 548.926 449.324 C 541.433 446.061, 529.987 443.723, 520.837 443.586 C 515.522 443.507, 510.797 443.517, 510.337 443.609 M 1748 444.997 C 1723.998 450.491, 1706.200 464.727, 1695.800 486.751 C 1691.736 495.355, 1688.250 508.603, 1689.318 511.385 C 1689.863 512.806, 1692.654 513, 1712.493 513 L 1735.050 513 1736.032 510.250 C 1738.901 502.215, 1743.453 496.858, 1750.437 493.295 C 1766.465 485.119, 1784.704 493.324, 1790.391 511.268 C 1790.909 512.903, 1792.709 513.017, 1814.226 512.768 L 1837.500 512.500 1837.815 509.766 C 1838.274 505.780, 1834.402 492.550, 1830.477 484.692 C 1818.435 460.585, 1793.003 444.371, 1766 443.585 C 1758.688 443.373, 1753.223 443.801, 1748 444.997 M 94.337 444.609 C 74.140 448.623, 61.675 455.004, 49.407 467.606 C 42.613 474.585, 37.506 482.559, 33.706 492.117 C 30.785 499.468, 28.483 510.209, 29.346 512.460 C 29.854 513.783, 33.091 514, 52.333 514 L 74.728 514 76.520 509.309 C 78.687 503.634, 84.950 496.609, 90.455 493.678 C 93.676 491.963, 96.232 491.522, 103 491.512 C 110.427 491.502, 112.068 491.836, 116 494.165 C 122.329 497.913, 126.756 502.848, 128.932 508.581 L 130.798 513.500 153.923 513.768 C 173.551 513.996, 177.134 513.814, 177.614 512.562 C 178.392 510.535, 175.450 498.069, 172.454 490.695 C 165.724 474.132, 149.467 457.528, 132.926 450.324 C 125.433 447.061, 113.987 444.723, 104.837 444.586 C 99.522 444.507, 94.797 444.517, 94.337 444.609 M 1340.500 444.517 C 1339.950 444.659, 1336.800 445.362, 1333.500 446.079 C 1309.548 451.284, 1288.773 469.025, 1279.728 492 C 1276.780 499.490, 1274.483 510.212, 1275.346 512.460 C 1275.854 513.784, 1279.107 514, 1298.493 514 L 1321.050 514 1322.051 511.250 C 1324.046 505.775, 1326.564 501.754, 1329.778 498.911 C 1346.215 484.374, 1369.681 491.098, 1376.391 512.268 C 1376.909 513.903, 1378.709 514.017, 1400.226 513.768 L 1423.500 513.500 1423.815 510.766 C 1424.274 506.780, 1420.402 493.550, 1416.477 485.692 C 1404.420 461.556, 1379.070 445.389, 1352 444.575 C 1346.225 444.401, 1341.050 444.375, 1340.500 444.517 M 918 446.997 C 893.998 452.491, 876.200 466.727, 865.800 488.751 C 861.736 497.355, 858.250 510.603, 859.318 513.385 C 859.863 514.806, 862.654 515, 882.493 515 L 905.050 515 906.032 512.250 C 908.901 504.215, 913.453 498.858, 920.437 495.295 C 936.465 487.119, 954.704 495.324, 960.391 513.268 C 960.909 514.903, 962.709 515.017, 984.226 514.768 L 1007.500 514.500 1007.815 511.766 C 1008.274 507.780, 1004.402 494.550, 1000.477 486.692 C 988.435 462.585, 963.003 446.371, 936 445.585 C 928.688 445.373, 923.223 445.801, 918 446.997 M 1757.581 500.533 C 1750.236 503.058, 1745 509.987, 1745 517.182 C 1745 523.796, 1746.922 527.922, 1752.050 532.311 C 1756.040 535.726, 1756.833 536, 1762.733 536 C 1767.748 536, 1769.832 535.507, 1772.514 533.684 C 1777.253 530.464, 1779.769 526.981, 1780.858 522.136 C 1783.951 508.371, 1770.660 496.037, 1757.581 500.533 M 510.280 501.971 C 504.844 505.285, 501 511.546, 501 517.085 C 501 525.367, 504.029 530.415, 511.210 534.097 C 520.095 538.654, 532.454 533.827, 536.037 524.402 C 539.291 515.844, 534.159 504.277, 525.685 501.067 C 521.164 499.354, 513.870 499.782, 510.280 501.971 M 1343.581 501.533 C 1339.138 503.061, 1337.447 504.425, 1333.833 509.400 C 1329.212 515.762, 1330.070 525.269, 1335.814 531.339 C 1339.821 535.575, 1343.278 537, 1349.546 537 C 1363.495 537, 1371.721 522.287, 1364.794 509.730 C 1360.837 502.557, 1351.311 498.876, 1343.581 501.533 M 94.280 502.971 C 88.844 506.285, 85 512.546, 85 518.085 C 85 526.367, 88.029 531.415, 95.210 535.097 C 104.095 539.654, 116.454 534.827, 120.037 525.402 C 123.291 516.844, 118.159 505.277, 109.685 502.067 C 105.164 500.354, 97.870 500.782, 94.280 502.971 M 927.581 502.533 C 920.236 505.058, 915 511.987, 915 519.182 C 915 525.796, 916.922 529.922, 922.050 534.311 C 926.040 537.726, 926.833 538, 932.733 538 C 937.748 538, 939.832 537.507, 942.514 535.684 C 947.253 532.464, 949.769 528.981, 950.858 524.136 C 953.951 510.371, 940.660 498.037, 927.581 502.533 M 445.112 522.910 C 441.863 524.967, 446.049 543.038, 452.417 554.444 C 455.932 560.740, 456.321 561.215, 465.621 570.580 C 478.091 583.137, 490.959 589.415, 509.646 592.059 C 532.665 595.316, 557.774 586.064, 573.951 568.363 C 584.198 557.152, 591.402 541.739, 592.702 528.250 L 593.208 523 570.226 523 C 545.079 523, 546.233 522.719, 543.877 529.412 C 540.736 538.336, 529.801 545.293, 519 545.240 C 507.486 545.183, 498.919 539.808, 494.035 529.574 L 491.036 523.289 484.871 522.644 C 475.794 521.696, 446.723 521.889, 445.112 522.910 M 1689.112 522.910 C 1685.840 524.981, 1690.053 543.046, 1696.502 554.597 C 1709.172 577.291, 1735.488 593.152, 1760.592 593.223 C 1770.905 593.252, 1773.300 592.941, 1782.382 590.390 C 1797.056 586.268, 1807.549 580.059, 1817.399 569.668 C 1828.391 558.073, 1836.580 541.078, 1837.238 528.500 L 1837.500 523.500 1814.015 523.500 L 1790.530 523.500 1788.182 528.500 C 1781.495 542.741, 1766.114 548.976, 1752.315 543.040 C 1746.158 540.392, 1741.841 536.091, 1738.141 528.921 C 1735.448 523.702, 1735.161 523.475, 1730.422 522.838 C 1723.041 521.844, 1690.705 521.901, 1689.112 522.910 M 29.112 523.910 C 25.863 525.967, 30.049 544.038, 36.417 555.444 C 39.932 561.740, 40.321 562.215, 49.621 571.580 C 62.091 584.137, 74.959 590.415, 93.646 593.059 C 116.665 596.316, 141.774 587.064, 157.951 569.363 C 168.198 558.152, 175.402 542.739, 176.702 529.250 L 177.208 524 154.226 524 C 129.079 524, 130.233 523.719, 127.877 530.412 C 124.736 539.336, 113.801 546.293, 103 546.240 C 91.486 546.183, 82.919 540.808, 78.035 530.574 L 75.036 524.289 68.871 523.644 C 59.794 522.696, 30.723 522.889, 29.112 523.910 M 1275.112 523.910 C 1274.056 524.578, 1273.867 526.310, 1274.319 531.144 C 1275.815 547.118, 1286.978 566.403, 1301.194 577.571 C 1313.400 587.161, 1331.666 593.957, 1345.770 594.156 C 1356.640 594.309, 1359.032 594.017, 1368.382 591.390 C 1383.056 587.268, 1393.549 581.059, 1403.399 570.668 C 1414.391 559.073, 1422.580 542.078, 1423.238 529.500 L 1423.500 524.500 1400.015 524.500 L 1376.530 524.500 1374.182 529.500 C 1367.495 543.741, 1352.114 549.976, 1338.315 544.040 C 1332.158 541.392, 1327.841 537.091, 1324.141 529.921 C 1321.448 524.702, 1321.161 524.475, 1316.422 523.838 C 1309.041 522.844, 1276.705 522.901, 1275.112 523.910 M 859.112 524.910 C 855.840 526.981, 860.053 545.046, 866.502 556.597 C 879.172 579.291, 905.488 595.152, 930.592 595.223 C 940.905 595.252, 943.300 594.941, 952.382 592.390 C 967.056 588.268, 977.549 582.059, 987.399 571.668 C 998.391 560.073, 1006.580 543.078, 1007.238 530.500 L 1007.500 525.500 984.015 525.500 L 960.530 525.500 958.182 530.500 C 951.495 544.741, 936.114 550.976, 922.315 545.040 C 916.158 542.392, 911.841 538.091, 908.141 530.921 C 905.448 525.702, 905.161 525.475, 900.422 524.838 C 893.041 523.844, 860.705 523.901, 859.112 524.910 M 299.633 632.489 C 281.271 636.308, 268.103 643.100, 255.136 655.443 C 243.722 666.306, 234.515 681.844, 230.510 697 C 228.261 705.512, 227.402 725.211, 228.928 733.279 C 237.180 776.908, 272.760 807, 316.096 807 C 356.042 807, 389.939 780.828, 401.204 741.289 C 404.401 730.066, 404.401 707.934, 401.204 696.711 C 392.243 665.259, 369.023 642.009, 338.500 633.928 C 328.122 631.180, 309.280 630.482, 299.633 632.489 M 1134.500 632.627 C 1095.984 638.580, 1066.010 667.331, 1059.520 704.548 C 1050.387 756.921, 1088.306 804.818, 1141.191 807.709 C 1182.451 809.965, 1218.306 784.609, 1230.642 744.451 C 1233.145 736.301, 1233.389 734.114, 1233.365 720 C 1233.342 706.030, 1233.070 703.612, 1230.611 695.500 C 1221.502 665.456, 1198.157 642.700, 1168.500 634.957 C 1160.667 632.912, 1141.262 631.583, 1134.500 632.627 M 703.633 634.489 C 685.271 638.308, 672.103 645.100, 659.136 657.443 C 647.722 668.306, 638.515 683.844, 634.510 699 C 632.261 707.512, 631.402 727.211, 632.928 735.279 C 641.180 778.908, 676.760 809, 720.096 809 C 760.042 809, 793.939 782.828, 805.204 743.289 C 808.401 732.066, 808.401 709.934, 805.204 698.711 C 796.243 667.259, 773.023 644.009, 742.500 635.928 C 732.122 633.180, 713.280 632.482, 703.633 634.489 M 1538.500 634.627 C 1499.984 640.580, 1470.010 669.331, 1463.520 706.548 C 1454.387 758.921, 1492.306 806.818, 1545.191 809.709 C 1586.451 811.965, 1622.306 786.609, 1634.642 746.451 C 1637.145 738.301, 1637.389 736.114, 1637.365 722 C 1637.342 708.030, 1637.070 705.612, 1634.611 697.500 C 1625.502 667.456, 1602.157 644.700, 1572.500 636.957 C 1564.667 634.912, 1545.262 633.583, 1538.500 634.627 M 307.337 644.609 C 287.140 648.623, 274.675 655.004, 262.407 667.606 C 255.613 674.585, 250.506 682.559, 246.706 692.117 C 243.785 699.468, 241.483 710.209, 242.346 712.460 C 242.854 713.783, 246.091 714, 265.333 714 L 287.728 714 289.520 709.309 C 291.687 703.634, 297.950 696.609, 303.455 693.678 C 306.676 691.963, 309.232 691.522, 316 691.512 C 323.427 691.502, 325.068 691.836, 329 694.165 C 335.329 697.913, 339.756 702.848, 341.932 708.581 L 343.798 713.500 366.923 713.768 C 386.551 713.996, 390.134 713.814, 390.614 712.562 C 391.392 710.535, 388.450 698.069, 385.454 690.695 C 378.724 674.132, 362.467 657.528, 345.926 650.324 C 338.433 647.061, 326.987 644.723, 317.837 644.586 C 312.522 644.507, 307.797 644.517, 307.337 644.609 M 1131 646.997 C 1106.998 652.491, 1089.200 666.727, 1078.800 688.751 C 1074.736 697.355, 1071.250 710.603, 1072.318 713.385 C 1072.863 714.806, 1075.654 715, 1095.493 715 L 1118.050 715 1119.032 712.250 C 1121.901 704.215, 1126.453 698.858, 1133.437 695.295 C 1149.465 687.119, 1167.704 695.324, 1173.391 713.268 C 1173.909 714.903, 1175.709 715.017, 1197.226 714.768 L 1220.500 714.500 1220.815 711.766 C 1221.274 707.780, 1217.402 694.550, 1213.477 686.692 C 1201.435 662.585, 1176.003 646.371, 1149 645.585 C 1141.688 645.373, 1136.223 645.801, 1131 646.997 M 711.337 646.609 C 691.140 650.623, 678.675 657.004, 666.407 669.606 C 659.613 676.585, 654.506 684.559, 650.706 694.117 C 647.785 701.468, 645.483 712.209, 646.346 714.460 C 646.854 715.783, 650.091 716, 669.333 716 L 691.728 716 693.520 711.309 C 695.687 705.634, 701.950 698.609, 707.455 695.678 C 710.676 693.963, 713.232 693.522, 720 693.512 C 727.427 693.502, 729.068 693.836, 733 696.165 C 739.329 699.913, 743.756 704.848, 745.932 710.581 L 747.798 715.500 770.923 715.768 C 790.551 715.996, 794.134 715.814, 794.614 714.562 C 795.392 712.535, 792.450 700.069, 789.454 692.695 C 782.724 676.132, 766.467 659.528, 749.926 652.324 C 742.433 649.061, 730.987 646.723, 721.837 646.586 C 716.522 646.507, 711.797 646.517, 711.337 646.609 M 1535 648.997 C 1510.998 654.491, 1493.200 668.727, 1482.800 690.751 C 1478.736 699.355, 1475.250 712.603, 1476.318 715.385 C 1476.863 716.806, 1479.654 717, 1499.493 717 L 1522.050 717 1523.032 714.250 C 1525.901 706.215, 1530.453 700.858, 1537.437 697.295 C 1553.465 689.119, 1571.704 697.324, 1577.391 715.268 C 1577.909 716.903, 1579.709 717.017, 1601.226 716.768 L 1624.500 716.500 1624.815 713.766 C 1625.274 709.780, 1621.402 696.550, 1617.477 688.692 C 1605.435 664.585, 1580.003 648.371, 1553 647.585 C 1545.688 647.373, 1540.223 647.801, 1535 648.997 M 307.280 702.971 C 301.844 706.285, 298 712.546, 298 718.085 C 298 726.367, 301.029 731.415, 308.210 735.097 C 317.095 739.654, 329.454 734.827, 333.037 725.402 C 336.291 716.844, 331.159 705.277, 322.685 702.067 C 318.164 700.354, 310.870 700.782, 307.280 702.971 M 1140.581 702.533 C 1133.236 705.058, 1128 711.987, 1128 719.182 C 1128 725.796, 1129.922 729.922, 1135.050 734.311 C 1139.040 737.726, 1139.833 738, 1145.733 738 C 1150.748 738, 1152.832 737.507, 1155.514 735.684 C 1160.253 732.464, 1162.769 728.981, 1163.858 724.136 C 1166.951 710.371, 1153.660 698.037, 1140.581 702.533 M 711.280 704.971 C 705.844 708.285, 702 714.546, 702 720.085 C 702 728.367, 705.029 733.415, 712.210 737.097 C 721.095 741.654, 733.454 736.827, 737.037 727.402 C 740.291 718.844, 735.159 707.277, 726.685 704.067 C 722.164 702.354, 714.870 702.782, 711.280 704.971 M 1544.581 704.533 C 1537.236 707.058, 1532 713.987, 1532 721.182 C 1532 727.796, 1533.922 731.922, 1539.050 736.311 C 1543.040 739.726, 1543.833 740, 1549.733 740 C 1554.748 740, 1556.832 739.507, 1559.514 737.684 C 1564.253 734.464, 1566.769 730.981, 1567.858 726.136 C 1570.951 712.371, 1557.660 700.037, 1544.581 704.533 M 242.112 723.910 C 238.863 725.967, 243.049 744.038, 249.417 755.444 C 252.932 761.740, 253.321 762.215, 262.621 771.580 C 275.091 784.137, 287.959 790.415, 306.646 793.059 C 329.665 796.316, 354.774 787.064, 370.951 769.363 C 381.198 758.152, 388.402 742.739, 389.702 729.250 L 390.208 724 367.226 724 C 342.079 724, 343.233 723.719, 340.877 730.412 C 337.736 739.336, 326.801 746.293, 316 746.240 C 304.486 746.183, 295.919 740.808, 291.035 730.574 L 288.036 724.289 281.871 723.644 C 272.794 722.696, 243.723 722.889, 242.112 723.910 M 1072.112 724.910 C 1068.840 726.981, 1073.053 745.046, 1079.502 756.597 C 1092.172 779.291, 1118.488 795.152, 1143.592 795.223 C 1153.905 795.252, 1156.300 794.941, 1165.382 792.390 C 1180.056 788.268, 1190.549 782.059, 1200.399 771.668 C 1211.391 760.073, 1219.580 743.078, 1220.238 730.500 L 1220.500 725.500 1197.015 725.500 L 1173.530 725.500 1171.182 730.500 C 1164.495 744.741, 1149.114 750.976, 1135.315 745.040 C 1129.158 742.392, 1124.841 738.091, 1121.141 730.921 C 1118.448 725.702, 1118.161 725.475, 1113.422 724.838 C 1106.041 723.844, 1073.705 723.901, 1072.112 724.910 M 646.112 725.910 C 642.863 727.967, 647.049 746.038, 653.417 757.444 C 656.932 763.740, 657.321 764.215, 666.621 773.580 C 679.091 786.137, 691.959 792.415, 710.646 795.059 C 733.665 798.316, 758.774 789.064, 774.951 771.363 C 785.198 760.152, 792.402 744.739, 793.702 731.250 L 794.208 726 771.226 726 C 746.079 726, 747.233 725.719, 744.877 732.412 C 741.736 741.336, 730.801 748.293, 720 748.240 C 708.486 748.183, 699.919 742.808, 695.035 732.574 L 692.036 726.289 685.871 725.644 C 676.794 724.696, 647.723 724.889, 646.112 725.910 M 1476.112 726.910 C 1472.840 728.981, 1477.053 747.046, 1483.502 758.597 C 1496.172 781.291, 1522.488 797.152, 1547.592 797.223 C 1557.905 797.252, 1560.300 796.941, 1569.382 794.390 C 1584.056 790.268, 1594.549 784.059, 1604.399 773.668 C 1615.391 762.073, 1623.580 745.078, 1624.238 732.500 L 1624.500 727.500 1601.015 727.500 L 1577.530 727.500 1575.182 732.500 C 1568.495 746.741, 1553.114 752.976, 1539.315 747.040 C 1533.158 744.392, 1528.841 740.091, 1525.141 732.921 C 1522.448 727.702, 1522.161 727.475, 1517.422 726.838 C 1510.041 725.844, 1477.705 725.901, 1476.112 726.910 M 920.061 840.087 C 899.977 842.686, 881.262 852.476, 866.711 867.994 C 839.487 897.029, 835.197 941.101, 856.160 976.386 C 861.435 985.265, 873.408 997.788, 882.228 1003.651 C 911.573 1023.160, 949.753 1023.488, 979.130 1004.485 C 1012.799 982.704, 1027.627 940.649, 1015.360 901.729 C 1004.776 868.147, 976.975 844.882, 941.678 840.067 C 932.934 838.874, 929.406 838.878, 920.061 840.087 M 506.061 841.087 C 485.977 843.686, 467.262 853.476, 452.711 868.994 C 416.404 907.717, 422.942 969.432, 466.660 1000.648 C 483.358 1012.572, 506.045 1018.398, 526.634 1016.049 C 562.351 1011.974, 590.467 988.683, 601.536 954 C 605.102 942.827, 606.074 923.484, 603.656 911.792 C 595.817 873.886, 566.206 846.323, 527.678 841.067 C 518.934 839.874, 515.406 839.878, 506.061 841.087 M 1753 841.091 C 1720.643 844.005, 1691.865 865.613, 1679.673 896.147 C 1675.216 907.309, 1673.704 915.468, 1673.679 928.500 C 1673.630 953.687, 1682.611 974.809, 1700.731 992.120 C 1717.714 1008.346, 1737.853 1016.389, 1761.500 1016.389 C 1796.073 1016.389, 1825.620 997.682, 1840.876 966.133 C 1847.207 953.041, 1849.361 941.865, 1848.757 925.231 C 1848.224 910.574, 1845.853 900.619, 1840.245 889.500 C 1823.752 856.800, 1789.514 837.803, 1753 841.091 M 90.061 842.087 C 69.977 844.686, 51.262 854.476, 36.711 869.994 C 0.404 908.717, 6.942 970.432, 50.660 1001.648 C 67.358 1013.572, 90.045 1019.398, 110.634 1017.049 C 146.351 1012.974, 174.467 989.683, 185.536 955 C 189.102 943.827, 190.074 924.484, 187.656 912.792 C 179.817 874.886, 150.206 847.323, 111.678 842.067 C 102.934 840.874, 99.406 840.878, 90.061 842.087 M 1339 842.091 C 1306.643 845.005, 1277.865 866.613, 1265.673 897.147 C 1261.216 908.309, 1259.704 916.468, 1259.679 929.500 C 1259.630 954.687, 1268.611 975.809, 1286.731 993.120 C 1303.714 1009.346, 1323.853 1017.389, 1347.500 1017.389 C 1382.073 1017.389, 1411.620 998.682, 1426.876 967.133 C 1433.207 954.041, 1435.361 942.865, 1434.757 926.231 C 1434.224 911.574, 1431.853 901.619, 1426.245 890.500 C 1409.752 857.800, 1375.514 838.803, 1339 842.091 M 503 855.514 C 478.150 860.585, 456.676 878.810, 447.636 902.500 C 444.461 910.822, 442.681 922.131, 444.373 923.235 C 444.993 923.639, 454.950 923.969, 466.500 923.969 C 478.050 923.969, 487.997 923.639, 488.605 923.235 C 489.213 922.831, 490.248 920.850, 490.905 918.834 C 491.562 916.818, 493.972 913.041, 496.262 910.440 C 507.306 897.893, 526.193 897.572, 537.660 909.737 C 541.420 913.726, 542.616 915.777, 544.375 921.250 C 544.945 923.025, 550.092 923.308, 584.750 923.469 L 591.500 923.500 591.813 920.258 C 592.287 915.340, 588.370 902.452, 583.686 893.517 C 577.817 882.325, 564.591 869.140, 553.277 863.204 C 537.681 855.021, 519.240 852.200, 503 855.514 M 1747 855.521 C 1716.768 861.723, 1692.122 887.183, 1688.092 916.377 C 1687.500 920.665, 1687.584 922.720, 1688.373 923.235 C 1688.993 923.639, 1699.283 923.976, 1711.240 923.985 L 1732.980 924 1735.854 917.750 C 1739.064 910.772, 1742.363 907.281, 1748.972 903.873 C 1754.342 901.103, 1764.127 900.234, 1769.651 902.034 C 1777.901 904.724, 1785.979 912.525, 1787.875 919.634 L 1788.640 922.500 1811.070 923.230 C 1823.407 923.631, 1834.063 923.758, 1834.750 923.511 C 1836.508 922.881, 1836.277 917.684, 1834.128 909.500 C 1830.542 895.847, 1824.225 885.328, 1813.365 874.925 C 1795.716 858.022, 1770.604 850.679, 1747 855.521 M 87 856.514 C 62.150 861.585, 40.676 879.810, 31.636 903.500 C 28.461 911.822, 26.681 923.131, 28.373 924.235 C 28.993 924.639, 38.950 924.969, 50.500 924.969 C 62.050 924.969, 71.997 924.639, 72.605 924.235 C 73.213 923.831, 74.248 921.850, 74.905 919.834 C 75.562 917.818, 77.972 914.041, 80.262 911.440 C 91.306 898.893, 110.193 898.572, 121.660 910.737 C 125.420 914.726, 126.616 916.777, 128.375 922.250 C 128.945 924.025, 134.092 924.308, 168.750 924.469 L 175.500 924.500 175.813 921.258 C 176.287 916.340, 172.370 903.452, 167.686 894.517 C 161.817 883.325, 148.591 870.140, 137.277 864.204 C 121.681 856.021, 103.240 853.200, 87 856.514 M 1333 856.521 C 1302.768 862.723, 1278.122 888.183, 1274.092 917.377 C 1273.500 921.665, 1273.584 923.720, 1274.373 924.235 C 1274.993 924.639, 1285.283 924.976, 1297.240 924.985 L 1318.980 925 1321.854 918.750 C 1325.064 911.772, 1328.363 908.281, 1334.972 904.873 C 1340.342 902.103, 1350.127 901.234, 1355.651 903.034 C 1363.901 905.724, 1371.979 913.525, 1373.875 920.634 L 1374.640 923.500 1397.070 924.230 C 1409.407 924.631, 1420.063 924.758, 1420.750 924.511 C 1422.508 923.881, 1422.277 918.684, 1420.128 910.500 C 1416.542 896.847, 1410.225 886.328, 1399.365 875.925 C 1381.716 859.022, 1356.604 851.679, 1333 856.521 M 917 857.521 C 886.768 863.723, 862.122 889.183, 858.092 918.377 C 857.500 922.665, 857.584 924.720, 858.373 925.235 C 858.993 925.639, 869.283 925.976, 881.240 925.985 L 902.980 926 905.854 919.750 C 909.064 912.772, 912.363 909.281, 918.972 905.873 C 924.342 903.103, 934.127 902.234, 939.651 904.034 C 947.901 906.724, 955.979 914.525, 957.875 921.634 L 958.640 924.500 981.070 925.230 C 993.407 925.631, 1004.063 925.758, 1004.750 925.511 C 1006.508 924.881, 1006.277 919.684, 1004.128 911.500 C 1000.542 897.847, 994.225 887.328, 983.365 876.925 C 965.716 860.022, 940.604 852.679, 917 857.521 M 1755.784 911.216 C 1751.073 912.441, 1745.475 918.524, 1743.993 924.027 C 1742.001 931.425, 1745.039 939.580, 1751.385 943.873 C 1763.526 952.085, 1780 943.167, 1780 928.382 C 1780 924.021, 1779.459 922.446, 1776.735 918.875 C 1771.222 911.647, 1764.116 909.049, 1755.784 911.216 M 508.972 912.699 C 503.673 916.474, 501.968 918.580, 500.407 923.280 C 497.520 931.972, 501.122 940.709, 509.269 944.778 C 514.506 947.393, 518.664 947.585, 523.782 945.447 C 537.054 939.903, 539.316 922.058, 527.787 913.849 C 523.374 910.706, 512.685 910.053, 508.972 912.699 M 1341.784 912.216 C 1337.073 913.441, 1331.475 919.524, 1329.993 925.027 C 1328.001 932.425, 1331.039 940.580, 1337.385 944.873 C 1349.526 953.085, 1366 944.167, 1366 929.382 C 1366 925.021, 1365.459 923.446, 1362.735 919.875 C 1357.222 912.647, 1350.116 910.049, 1341.784 912.216 M 92.972 913.699 C 87.673 917.474, 85.968 919.580, 84.407 924.280 C 81.520 932.972, 85.122 941.709, 93.269 945.778 C 98.506 948.393, 102.664 948.585, 107.782 946.447 C 121.054 940.903, 123.316 923.058, 111.787 914.849 C 107.374 911.706, 96.685 911.053, 92.972 913.699 M 925.784 913.216 C 921.073 914.441, 915.475 920.524, 913.993 926.027 C 912.001 933.425, 915.039 941.580, 921.385 945.873 C 933.526 954.085, 950 945.167, 950 930.382 C 950 926.021, 949.459 924.446, 946.735 920.875 C 941.222 913.647, 934.116 911.049, 925.784 913.216 M 442.017 935.750 C 442.054 941.596, 445.162 952.844, 448.855 960.500 C 456.086 975.489, 467.229 987.391, 479.988 993.752 C 483.020 995.263, 485.725 996.752, 486 997.060 C 487.389 998.614, 500.612 1002.080, 509 1003.089 C 518.347 1004.212, 523.625 1003.742, 538.500 1000.462 C 542.830 999.507, 560 991.135, 560 989.978 C 560 989.440, 560.567 989, 561.259 989 C 563.567 989, 577.558 973.600, 581.912 966.269 C 586.788 958.057, 590.860 945.947, 591.242 938.526 L 591.500 933.500 581 933.178 C 575.225 933, 564.538 933.159, 557.250 933.530 C 545.890 934.109, 543.999 934.440, 543.991 935.852 C 543.972 939.194, 537.975 947.920, 533.762 950.737 C 527.196 955.127, 524.157 956.125, 517.351 956.125 C 510.547 956.125, 503.377 953.599, 499.122 949.701 C 495.863 946.717, 491 939.015, 491 936.839 C 491 933.492, 487.611 933, 464.566 933 L 442 933 442.017 935.750 M 1686.467 934.053 C 1686.097 934.652, 1686.089 937.248, 1686.449 939.821 C 1691.910 978.861, 1728.928 1007.887, 1768 1003.764 C 1774.851 1003.041, 1779.961 1001.871, 1780.570 1000.887 C 1780.871 1000.399, 1782.226 1000, 1783.581 1000 C 1789.683 1000, 1807.458 989.437, 1815.045 981.301 C 1827.218 968.248, 1834.842 952.458, 1835.297 939.355 L 1835.500 933.500 1825 933.178 C 1819.225 933, 1808.537 933.159, 1801.250 933.530 C 1790.708 934.067, 1788 934.499, 1788 935.642 C 1788 938.265, 1784.222 944.449, 1780.335 948.190 C 1766.315 961.680, 1744.823 957.083, 1736 938.707 L 1733.500 933.500 1710.320 933.232 C 1694.408 933.048, 1686.930 933.305, 1686.467 934.053 M 26.017 936.750 C 26.054 942.596, 29.162 953.844, 32.855 961.500 C 40.086 976.489, 51.229 988.391, 63.988 994.752 C 67.020 996.263, 69.725 997.752, 70 998.060 C 71.389 999.614, 84.612 1003.080, 93 1004.089 C 102.347 1005.212, 107.625 1004.742, 122.500 1001.462 C 126.830 1000.507, 144 992.135, 144 990.978 C 144 990.440, 144.567 990, 145.259 990 C 147.567 990, 161.558 974.600, 165.912 967.269 C 170.788 959.057, 174.860 946.947, 175.242 939.526 L 175.500 934.500 165 934.178 C 159.225 934, 148.537 934.159, 141.250 934.530 C 129.890 935.109, 127.999 935.440, 127.991 936.852 C 127.972 940.194, 121.975 948.920, 117.762 951.737 C 111.196 956.127, 108.157 957.125, 101.351 957.125 C 94.547 957.125, 87.377 954.599, 83.122 950.701 C 79.863 947.717, 75 940.015, 75 937.839 C 75 934.492, 71.611 934, 48.566 934 L 26 934 26.017 936.750 M 1272.467 935.053 C 1272.097 935.652, 1272.089 938.248, 1272.449 940.821 C 1277.910 979.861, 1314.928 1008.887, 1354 1004.764 C 1360.851 1004.041, 1365.961 1002.871, 1366.570 1001.887 C 1366.871 1001.399, 1368.226 1001, 1369.581 1001 C 1375.683 1001, 1393.458 990.437, 1401.045 982.301 C 1413.218 969.248, 1420.842 953.458, 1421.297 940.355 L 1421.500 934.500 1411 934.178 C 1405.225 934, 1394.537 934.159, 1387.250 934.530 C 1376.708 935.067, 1374 935.499, 1374 936.642 C 1374 939.265, 1370.222 945.449, 1366.335 949.190 C 1352.315 962.680, 1330.823 958.083, 1322 939.707 L 1319.500 934.500 1296.320 934.232 C 1280.408 934.048, 1272.930 934.305, 1272.467 935.053 M 856.467 936.053 C 856.097 936.652, 856.089 939.248, 856.449 941.821 C 861.910 980.861, 898.928 1009.887, 938 1005.764 C 944.851 1005.041, 949.961 1003.871, 950.570 1002.887 C 950.871 1002.399, 952.226 1002, 953.581 1002 C 959.683 1002, 977.458 991.437, 985.045 983.301 C 997.218 970.248, 1004.842 954.458, 1005.297 941.355 L 1005.500 935.500 995 935.178 C 989.225 935, 978.538 935.159, 971.250 935.530 C 960.708 936.067, 958 936.499, 958 937.642 C 958 940.265, 954.222 946.449, 950.335 950.190 C 936.315 963.680, 914.823 959.083, 906 940.707 L 903.500 935.500 880.320 935.232 C 864.408 935.048, 856.930 935.305, 856.467 936.053 M 303.061 1042.087 C 289.566 1043.833, 276.021 1049.101, 264.442 1057.105 C 257.396 1061.976, 242 1077.054, 242 1079.083 C 242 1079.587, 245.643 1080, 250.096 1080 L 258.193 1080 264.346 1074.638 C 275.413 1064.995, 287.309 1059.059, 300.838 1056.427 C 322.950 1052.126, 347.551 1058.996, 364.356 1074.163 L 370.824 1080 378.980 1080 L 387.136 1080 384.828 1076.750 C 380.933 1071.265, 370.679 1061.536, 364.046 1057.031 C 352.112 1048.927, 339.319 1044.064, 324.678 1042.067 C 315.934 1040.874, 312.406 1040.878, 303.061 1042.087 M 1136 1043.091 C 1114.631 1045.016, 1093.644 1055.599, 1078.982 1071.844 C 1075.692 1075.489, 1073 1078.816, 1073 1079.236 C 1073 1079.656, 1076.620 1080, 1081.044 1080 L 1089.088 1080 1095.196 1074.916 C 1106.620 1065.409, 1117.666 1059.989, 1130.838 1057.427 C 1153.370 1053.045, 1178.598 1060.084, 1194.641 1075.231 L 1199.782 1080.084 1208.059 1079.792 L 1216.336 1079.500 1210.682 1072.840 C 1192.931 1051.932, 1164.330 1040.540, 1136 1043.091 M 707.061 1044.087 C 687.060 1046.675, 668.550 1056.324, 653.786 1071.858 L 646.522 1079.500 655.356 1079.790 L 664.190 1080.081 669.345 1075.695 C 679.715 1066.874, 691.907 1060.943, 704.838 1058.427 C 726.262 1054.260, 749.848 1060.478, 766.720 1074.742 L 772.940 1080 780.970 1080 C 785.386 1080, 789 1079.596, 789 1079.102 C 789 1077.339, 774.384 1063.318, 768.122 1059.074 C 756.085 1050.917, 743.338 1046.067, 728.678 1044.067 C 719.934 1042.874, 716.406 1042.878, 707.061 1044.087 M 1540 1045.091 C 1518.898 1046.992, 1497.701 1057.578, 1483.418 1073.349 L 1477.847 1079.500 1486.482 1079.790 L 1495.116 1080.080 1501.308 1075.219 C 1512.381 1066.527, 1522.202 1061.904, 1534.838 1059.434 C 1556.646 1055.172, 1582.177 1061.982, 1597.566 1076.167 L 1601.724 1080 1610.461 1080 L 1619.198 1080 1614.014 1074.016 C 1596.455 1053.748, 1567.880 1042.580, 1540 1045.091" stroke="none" fill="#000000" fill-rule="evenodd"/></svg>