<svg xmlns="http://www.w3.org/2000/svg" width="500" height="500" viewBox="0 0 500 500" version="1.1"><path d="M 292.871 96.250 C 291.783 97.487, 289.417 102.179, 287.614 106.675 C 282.914 118.393, 278.424 125.321, 270.946 132.395 C 264.806 138.203, 252.912 145.273, 243 149.006 C 235.524 151.821, 232.842 157.304, 236.750 161.785 C 237.713 162.889, 242.243 165.377, 246.819 167.315 C 268.407 176.460, 278.723 186.665, 287.635 207.693 C 292.062 218.141, 293.849 220.333, 297.932 220.333 C 302.217 220.333, 304.295 218.029, 307.967 209.202 C 316.989 187.519, 331.106 173.669, 351.500 166.494 C 358.102 164.172, 362.395 159.736, 361.518 156.143 C 360.590 152.337, 358.397 150.630, 350.500 147.565 C 340.452 143.665, 332.336 138.892, 325.810 133.045 C 321.395 129.090, 320.153 128.386, 320.268 129.904 C 320.349 130.981, 320.697 131.780, 321.041 131.681 C 321.769 131.470, 329.283 137.943, 330.320 139.674 C 330.954 140.731, 320.639 152.036, 319.096 151.977 C 318.768 151.964, 316.106 149.520, 313.179 146.544 C 307.014 140.276, 307.032 140.127, 314.905 132.682 C 320.085 127.783, 320.768 126.593, 319.021 125.513 C 317.353 124.482, 311.252 113.434, 307.403 104.473 C 305.383 99.772, 302.921 95.493, 301.931 94.963 C 298.870 93.325, 294.953 93.881, 292.871 96.250 M 295.500 96 C 295.160 96.550, 295.246 97.007, 295.691 97.015 C 296.136 97.024, 295.825 97.474, 295 98.015 C 293.667 98.891, 293.667 99.109, 295 99.985 C 295.825 100.526, 296.158 100.976, 295.739 100.985 C 295.321 100.993, 297.479 103.264, 300.534 106.031 C 306.788 111.695, 308.777 111.751, 306.400 106.197 C 305.530 104.163, 304.567 101.825, 304.260 101 C 302.607 96.557, 297.099 93.413, 295.500 96 M 290.875 102.500 C 290.396 104.415, 290.378 104.461, 286.084 114.362 C 284.391 118.265, 284.274 119.109, 285.488 118.643 C 286.319 118.324, 287 118.430, 287 118.878 C 287 120.138, 290.606 124, 291.783 124 C 292.359 124, 295.257 121.475, 298.223 118.389 L 303.614 112.779 298.436 107.389 C 293.853 102.619, 291.264 100.945, 290.875 102.500 M 308 112.211 C 308 113.060, 308.749 114.373, 309.664 115.128 C 311.186 116.383, 311.217 116.287, 310.028 114 C 308.286 110.648, 308 110.395, 308 112.211 M 299.192 121.007 L 293.885 126.789 299.271 132.394 C 302.233 135.478, 305.088 138, 305.616 138 C 307.081 138, 316.343 128.268, 316.611 126.448 C 316.770 125.364, 316.339 125.040, 315.281 125.445 C 313.922 125.967, 313.900 125.821, 315.109 124.331 C 315.913 123.339, 315.996 122.919, 315.304 123.334 C 314.564 123.778, 313.132 122.617, 311.554 120.294 C 310.149 118.227, 309 117.190, 309 117.990 C 309 118.934, 308.454 118.665, 307.443 117.223 C 306.587 116, 305.575 115.051, 305.193 115.113 C 304.812 115.175, 302.112 117.828, 299.192 121.007 M 281.882 121.250 C 281.816 121.938, 281.846 123.108, 281.948 123.850 C 282.050 124.593, 281.654 124.904, 281.067 124.541 C 280.480 124.179, 280 124.300, 280 124.812 C 280 125.323, 278.210 127.478, 276.023 129.601 L 272.045 133.461 274.773 135.695 C 276.273 136.923, 277.768 137.944, 278.096 137.964 C 278.424 137.984, 281.263 135.470, 284.405 132.377 L 290.118 126.755 287.954 124.451 C 286.753 123.173, 286.113 121.626, 286.516 120.974 C 287.060 120.094, 286.680 120.101, 285 121 C 283.516 121.794, 282.988 121.828, 283.438 121.100 C 283.812 120.495, 283.641 120, 283.059 120 C 282.477 120, 281.947 120.563, 281.882 121.250 M 285.718 134.780 L 279.998 140.560 285.997 146.497 L 291.997 152.435 297.499 147.001 C 300.524 144.013, 303 141.088, 303 140.500 C 303 139.461, 292.937 129, 291.937 129 C 291.662 129, 288.863 131.601, 285.718 134.780 M 268.557 137.223 C 267.701 138.445, 266.993 139.007, 266.985 138.473 C 266.975 137.867, 266.692 137.877, 266.235 138.500 C 265.831 139.050, 263.855 140.400, 261.844 141.500 C 259.833 142.600, 258.096 143.877, 257.984 144.338 C 257.736 145.357, 262.922 152, 263.966 152 C 264.718 152, 272.392 144.761, 274.809 141.771 C 275.916 140.403, 275.772 139.753, 273.879 137.576 C 271.144 134.431, 270.540 134.391, 268.557 137.223 M 327.616 147.688 C 324.527 150.728, 322 153.596, 322 154.061 C 322 154.527, 324.468 157.516, 327.486 160.704 L 332.971 166.500 339.070 160.406 C 344.556 154.924, 345.014 154.157, 343.632 152.775 C 342.787 151.930, 342.374 150.960, 342.714 150.619 C 343.055 150.279, 342.739 150, 342.012 150 C 341.285 150, 339.012 148.236, 336.961 146.080 L 333.232 142.160 327.616 147.688 M 272.250 148.092 C 269.363 150.870, 267.018 153.672, 267.039 154.321 C 267.061 154.969, 269.498 157.949, 272.456 160.941 L 277.833 166.383 281.684 162.941 C 283.802 161.049, 286.539 158.305, 287.766 156.844 L 289.996 154.189 284.825 148.594 C 281.981 145.517, 279.169 143.010, 278.577 143.022 C 277.985 143.033, 275.137 145.315, 272.250 148.092 M 299.053 148.537 C 293.223 154.702, 293.120 153.857, 300.601 161.338 L 305.046 165.783 308.773 162.700 C 310.823 161.005, 313.553 158.347, 314.839 156.793 L 317.178 153.969 311.896 148.484 C 308.991 145.468, 306.091 143, 305.452 143 C 304.813 143, 301.934 145.492, 299.053 148.537 M 340.756 145.840 C 342.342 147.239, 342.639 147.995, 341.756 148.386 C 341.056 148.696, 341.250 148.844, 342.194 148.721 C 343.126 148.599, 344.540 149.383, 345.336 150.462 C 346.577 152.145, 347.016 152.231, 348.416 151.070 C 350.487 149.351, 351.706 150.444, 350.004 152.495 C 348.946 153.771, 349.049 154.424, 350.605 156.269 C 354.316 160.671, 355.564 161.645, 356.911 161.196 C 357.813 160.896, 358.036 161.210, 357.565 162.120 C 357.173 162.879, 357.560 162.626, 358.426 161.559 C 360.311 159.234, 360.492 154.620, 358.750 153.293 C 358.063 152.770, 355.025 151.342, 352 150.120 C 348.975 148.898, 344.700 146.988, 342.500 145.875 C 338.565 143.883, 338.537 143.883, 340.756 145.840 M 247 148.913 C 243.425 150.316, 239.600 152.326, 238.500 153.379 C 237.400 154.432, 236.991 155.020, 237.592 154.686 C 238.192 154.351, 241.013 156.535, 243.860 159.539 C 246.707 162.542, 249.659 165, 250.421 165 C 251.806 165, 261.500 155.522, 261.500 154.168 C 261.500 152.973, 257.555 148.570, 255.463 147.431 C 253.934 146.598, 252.063 146.926, 247 148.913 M 237.250 158.470 C 237.250 159.841, 237.791 161.411, 238.452 161.960 C 240.405 163.581, 247.239 166.196, 246.532 165.051 C 246.174 164.473, 245.121 163.993, 244.191 163.985 C 242.721 163.971, 242.696 163.829, 244 162.890 C 245.266 161.980, 245.227 161.899, 243.750 162.374 C 242.787 162.684, 242 162.525, 242 162.020 C 242 161.516, 240.931 159.950, 239.625 158.540 L 237.250 155.978 237.250 158.470 M 259.346 161.042 C 256.540 163.719, 254.488 166.155, 254.788 166.455 C 255.088 166.755, 254.808 167, 254.167 167 C 253.525 167, 253.004 167.338, 253.008 167.750 C 253.019 168.829, 258.119 171.044, 259.140 170.413 C 259.613 170.121, 260 170.314, 260 170.842 C 260 171.370, 261.688 172.852, 263.750 174.135 C 267.894 176.714, 269.842 177.645, 268.855 176.575 C 268.500 176.191, 270.046 174.164, 272.290 172.070 L 276.371 168.264 273.953 165.382 C 272.623 163.797, 269.941 161.077, 267.992 159.337 L 264.449 156.174 259.346 161.042 M 285.489 162.011 L 279.541 168.021 285.658 174.138 L 291.774 180.254 297.758 173.927 L 303.742 167.599 298.143 161.800 C 295.063 158.610, 292.294 156, 291.990 156 C 291.686 156, 288.761 158.705, 285.489 162.011 M 313.686 161.618 C 310.559 164.745, 308 167.608, 308 167.979 C 308 168.350, 310.535 171.169, 313.633 174.242 C 318.141 178.715, 319.543 179.598, 320.653 178.665 C 323.757 176.056, 331 168.629, 331 168.054 C 331 167.715, 328.384 164.849, 325.186 161.684 L 319.373 155.932 313.686 161.618 M 340.687 161.811 C 337.559 164.972, 335 167.867, 335 168.244 C 335 168.621, 335.977 169.452, 337.171 170.091 C 338.970 171.054, 339.569 170.942, 340.671 169.435 C 341.402 168.436, 342 167.905, 342 168.257 C 342 168.608, 343.349 168.426, 344.999 167.851 C 346.720 167.251, 347.715 166.348, 347.335 165.733 C 346.936 165.088, 347.251 164.882, 348.123 165.217 C 348.922 165.523, 350.908 165.186, 352.537 164.468 C 354.167 163.750, 354.911 163.126, 354.191 163.081 C 353.471 163.037, 353.157 162.555, 353.493 162.011 C 353.857 161.422, 353.376 161.284, 352.302 161.671 C 351.311 162.027, 350.816 161.968, 351.202 161.540 C 351.888 160.781, 351.101 159.756, 347.933 157.282 C 346.624 156.261, 345.459 156.989, 340.687 161.811 M 274.243 173.534 C 272.459 175.477, 270.993 176.715, 270.985 176.284 C 270.976 175.853, 270.571 176.129, 270.084 176.898 C 269.462 177.880, 270.015 178.983, 271.939 180.602 C 273.446 181.870, 275.764 184.500, 277.089 186.447 C 278.415 188.394, 280.010 189.989, 280.632 189.993 C 281.255 189.997, 283.632 188.132, 285.915 185.849 L 290.066 181.699 287.783 179.196 C 284.497 175.594, 278.587 170.059, 277.993 170.027 C 277.714 170.012, 276.027 171.590, 274.243 173.534 M 299.744 175.563 C 296.585 178.623, 294 181.483, 294 181.918 C 294 182.825, 304.560 193, 305.500 193 C 306.521 193, 317 182.785, 317 181.790 C 317 180.965, 306.592 170, 305.809 170 C 305.632 170, 302.903 172.504, 299.744 175.563 M 330.508 171.013 C 330.736 171.382, 328.633 174.023, 325.834 176.881 C 323.035 179.739, 320.982 182.315, 321.272 182.605 C 321.562 182.895, 322.632 182.267, 323.649 181.210 C 324.667 180.153, 327.869 177.679, 330.764 175.712 C 334.334 173.286, 335.627 171.887, 334.781 171.365 C 333.201 170.388, 329.956 170.120, 330.508 171.013 M 168.618 186.177 C 166.798 187.764, 164.425 192.617, 161.124 201.500 C 150.238 230.793, 137.820 249.115, 120.392 261.598 C 111.521 267.952, 95.322 275.934, 81.060 280.980 C 74.217 283.401, 67.805 286.195, 66.810 287.190 C 64.483 289.517, 64.449 295.196, 66.750 297.260 C 67.713 298.123, 73.675 300.714, 80 303.018 C 93.930 308.091, 109.220 315.381, 118 321.136 C 136.962 333.565, 151.184 354.493, 162.536 386.674 C 166.505 397.923, 168.082 400, 172.655 400 C 177.368 400, 179.140 397.746, 182.908 386.955 C 194.340 354.216, 207.891 334.158, 227.147 321.472 C 236.454 315.341, 252.567 307.641, 265.936 302.937 C 271.685 300.914, 277.426 298.334, 278.695 297.205 C 283.772 292.682, 280.339 286.319, 271.297 283.490 C 255.512 278.552, 236.673 269.659, 225.211 261.735 C 215.682 255.148, 204.686 243.314, 198.733 233.239 C 193.499 224.380, 185.556 206.438, 182.027 195.500 C 179.538 187.787, 177.808 185.445, 173.891 184.490 C 171.973 184.022, 170.576 184.469, 168.618 186.177 M 287 188.089 C 285.075 190.293, 283.332 192.281, 283.126 192.505 C 282.921 192.730, 283.107 193.721, 283.540 194.707 C 283.973 195.693, 284.387 196.950, 284.459 197.500 C 284.532 198.050, 285.117 198.393, 285.759 198.262 C 286.402 198.131, 286.684 198.661, 286.385 199.439 C 285.606 201.469, 291.341 207.190, 293.374 206.410 C 294.268 206.067, 295 205.452, 295 205.044 C 295 204.636, 297.004 202.322, 299.452 199.901 L 303.905 195.500 298.368 189.750 C 295.323 186.588, 292.307 184.018, 291.665 184.041 C 291.024 184.063, 288.925 185.885, 287 188.089 M 318.500 185 C 318.840 185.550, 318.615 186, 318 186 C 317.372 186, 317.211 186.548, 317.633 187.250 C 318.143 188.099, 317.842 188.060, 316.692 187.128 C 315.499 186.159, 315 186.103, 315 186.937 C 315 187.586, 314.555 187.843, 314.011 187.507 C 313.424 187.144, 313.290 187.593, 313.681 188.612 C 314.128 189.776, 313.964 190.096, 313.170 189.605 C 312.526 189.207, 312 189.359, 312 189.941 C 312 190.523, 311.100 191.900, 310 193 C 307.672 195.328, 307.350 197.463, 309.449 196.658 C 310.418 196.286, 310.714 196.582, 310.342 197.551 C 309.228 200.454, 310.900 198.888, 313.866 194.250 C 315.537 191.637, 317.863 188.262, 319.036 186.750 C 320.858 184.398, 320.929 184, 319.524 184 C 318.621 184, 318.160 184.450, 318.500 185 M 168.023 187.977 C 166.184 189.816, 166.183 193, 168.021 193 C 168.465 193, 170.450 191.425, 172.432 189.500 L 176.036 186 173.018 186 C 171.345 186, 169.119 186.881, 168.023 187.977 M 173.540 191.527 C 169.671 194.969, 169.669 194.976, 171.583 197.185 C 176.442 202.790, 181.299 206.823, 182.592 206.326 C 183.367 206.029, 183.994 205.722, 183.987 205.643 C 183.922 204.948, 178.084 188.751, 177.795 188.461 C 177.585 188.252, 175.671 189.632, 173.540 191.527 M 299.403 203.375 L 293.321 209.500 297.059 213 C 299.115 214.925, 301.483 216.361, 302.321 216.192 C 304.062 215.839, 306.301 210.295, 305.334 208.731 C 304.980 208.159, 305.163 207.982, 305.739 208.339 C 306.688 208.925, 308.567 204.594, 308.164 202.750 C 308.074 202.338, 308.454 202, 309.008 202 C 310.205 202, 308.048 198.232, 306.514 197.644 C 305.949 197.427, 302.749 200.006, 299.403 203.375 M 165.364 199.494 C 165.048 200.316, 164.445 200.775, 164.022 200.514 C 163.600 200.253, 162.251 202.790, 161.024 206.154 L 158.795 212.268 163.364 216.838 L 167.934 221.408 174.174 215.225 L 180.415 209.043 174.457 203.544 C 168.264 197.828, 166.333 196.968, 165.364 199.494 M 175.685 216.620 C 172.558 219.697, 170 222.518, 170 222.889 C 170 223.259, 172.602 226.137, 175.782 229.284 L 181.563 235.005 186.873 229.629 C 192.162 224.273, 192.176 224.242, 190.611 221.376 C 188.916 218.271, 186.605 215.512, 183.397 212.762 C 181.431 211.077, 181.199 211.193, 175.685 216.620 M 291 212 C 291 212.550, 291.436 213, 291.969 213 C 292.501 213, 292.696 213.628, 292.401 214.396 C 291.795 215.977, 295.566 219, 298.144 219 C 299.366 219, 298.731 217.877, 295.883 215 C 291.731 210.806, 291 210.357, 291 212 M 156.685 216.378 C 156.394 217.136, 156.684 218.288, 157.328 218.937 C 158.227 219.844, 158.052 219.948, 156.576 219.386 C 155.048 218.803, 154.785 218.997, 155.295 220.326 C 155.648 221.247, 155.501 222, 154.969 222 C 154.436 222, 153.990 222.563, 153.978 223.250 C 153.966 223.938, 153.076 225.625, 152 227 C 149.957 229.612, 149.365 231.511, 150.887 230.570 C 151.375 230.268, 151.712 230.787, 151.637 231.722 C 151.353 235.242, 154.933 234.021, 160.389 228.736 L 165.943 223.357 162.161 219.178 C 158.027 214.610, 157.472 214.326, 156.685 216.378 M 166.500 225.794 C 165.950 226.214, 163.268 228.906, 160.540 231.776 L 155.581 236.994 161.652 242.899 L 167.724 248.803 174.064 242.863 L 180.404 236.923 174.041 230.961 C 170.542 227.683, 167.638 225.007, 167.589 225.015 C 167.540 225.024, 167.050 225.374, 166.500 225.794 M 188.738 231.532 C 186.132 233.960, 184 236.309, 184 236.754 C 184 237.199, 186.637 240.172, 189.861 243.362 L 195.721 249.162 198.986 245.331 C 200.782 243.224, 201.962 242.031, 201.609 242.681 C 201.256 243.330, 201.411 244.136, 201.954 244.472 C 202.497 244.807, 201.583 246.301, 199.924 247.791 L 196.908 250.500 202.938 256.453 L 208.968 262.405 211.984 259.516 C 215.243 256.393, 215.940 254.425, 213.448 255.382 C 212.522 255.737, 212.154 255.561, 212.534 254.945 C 213.384 253.570, 211.057 250.847, 209.732 251.666 C 209.113 252.048, 208.992 251.822, 209.434 251.107 C 210.177 249.905, 205.638 244.500, 203.886 244.500 C 203.399 244.500, 203.009 244.158, 203.020 243.740 C 203.050 242.626, 200.041 237, 199.415 237 C 199.122 237, 199.203 237.520, 199.595 238.155 C 200.041 238.876, 199.869 239.037, 199.138 238.585 C 198.494 238.187, 198.213 237.464, 198.514 236.977 C 198.815 236.490, 197.804 234.073, 196.269 231.606 L 193.476 227.119 188.738 231.532 M 147.464 235.293 C 146.415 236.507, 144.130 239.611, 142.386 242.191 C 140.642 244.771, 138.844 246.571, 138.390 246.191 C 137.937 245.811, 138.151 246.266, 138.866 247.203 C 140.048 248.750, 140.561 248.500, 144.494 244.453 C 146.874 242.004, 149.338 240, 149.970 240 C 150.601 240, 150.864 239.588, 150.553 239.085 C 150.242 238.582, 150.525 237.992, 151.182 237.773 C 152.056 237.481, 151.973 236.799, 150.874 235.230 L 149.371 233.085 147.464 235.293 M 148.112 244.386 C 141.864 250.713, 141.920 251.455, 149.141 257.929 L 154.080 262.358 160.041 256.459 L 166.002 250.560 160.282 244.780 C 157.137 241.601, 154.308 239, 153.997 239 C 153.686 239, 151.038 241.424, 148.112 244.386 M 175.532 244.968 L 169.627 250.935 175.328 256.546 C 178.463 259.632, 181.439 262.009, 181.941 261.829 C 183.751 261.176, 192.999 251.835, 192.977 250.682 C 192.956 249.612, 182.855 239, 181.857 239 C 181.626 239, 178.780 241.685, 175.532 244.968 M 132.699 253.250 C 130.156 255.863, 127.663 258, 127.160 258 C 126.657 258, 125.711 258.644, 125.058 259.430 C 124.106 260.577, 124.304 261.092, 126.056 262.030 C 127.258 262.673, 127.980 262.776, 127.660 262.259 C 127.340 261.741, 128.444 260.308, 130.114 259.074 C 131.903 257.751, 132.926 256.249, 132.606 255.415 C 132.307 254.637, 132.461 254, 132.948 254 C 133.435 254, 134.060 254.563, 134.338 255.250 C 134.706 256.163, 134.863 256.125, 134.921 255.110 C 134.964 254.346, 135.737 253.182, 136.638 252.523 C 137.538 251.864, 138.061 250.690, 137.800 249.913 C 137.470 248.933, 135.907 249.955, 132.699 253.250 M 134.347 258.048 C 131.681 260.824, 129.374 263.453, 129.219 263.890 C 128.947 264.660, 135.751 272.106, 139.232 274.849 C 140.674 275.986, 141.146 275.975, 142.222 274.783 C 142.925 274.004, 145.495 271.270, 147.934 268.708 L 152.367 264.050 146.571 258.525 C 143.383 255.486, 140.419 253, 139.984 253 C 139.550 253, 137.013 255.271, 134.347 258.048 M 161.731 258.767 L 156.024 264.533 161.900 270.651 L 167.776 276.768 173.913 270.688 L 180.050 264.608 174.306 258.804 C 171.147 255.612, 168.309 253, 168 253 C 167.691 253, 164.869 255.595, 161.731 258.767 M 189.218 258.368 C 186.348 261.321, 184.010 264.133, 184.023 264.618 C 184.036 265.103, 186.534 267.947, 189.574 270.939 L 195.103 276.377 201.136 270.344 L 207.170 264.310 201.693 258.655 C 198.681 255.545, 195.815 253, 195.326 253 C 194.836 253, 192.087 255.416, 189.218 258.368 M 214.204 261.289 L 211.016 264.579 217 270.500 L 222.983 276.421 227.193 272.039 C 231.060 268.015, 231.254 267.569, 229.568 266.579 C 228.558 265.985, 226.402 264.414, 224.777 263.086 C 222.315 261.075, 221.653 260.908, 220.816 262.086 C 219.996 263.240, 219.906 263.201, 220.328 261.872 C 220.806 260.361, 219.384 258, 217.996 258 C 217.664 258, 215.958 259.480, 214.204 261.289 M 119.439 263.800 C 118.372 264.791, 116.684 265.913, 115.687 266.293 C 114.689 266.674, 114.150 267.434, 114.489 267.981 C 114.827 268.529, 114.518 268.765, 113.802 268.506 C 113.086 268.247, 111.469 268.831, 110.208 269.804 L 107.916 271.572 110.394 273.900 L 112.871 276.228 118.851 270.229 C 123.250 265.816, 124.536 263.936, 123.715 263.115 C 122.215 261.615, 121.704 261.697, 119.439 263.800 M 120.486 272.014 L 114.541 278.021 120.575 284.055 L 126.608 290.088 132.304 284.392 C 135.437 281.259, 137.986 278.427, 137.968 278.098 C 137.921 277.212, 135.934 275.001, 130.918 270.253 L 126.431 266.007 120.486 272.014 M 203.713 271.594 C 200.571 274.637, 198 277.578, 198 278.129 C 198 278.680, 200.474 281.685, 203.498 284.807 L 208.996 290.484 215.144 284.336 L 221.292 278.188 215.359 272.124 L 209.425 266.060 203.713 271.594 M 147.750 272.269 C 145.137 275.011, 143 277.780, 143 278.421 C 143 279.973, 152.628 289.009, 154.237 288.967 C 155.667 288.929, 157.986 286.995, 162.860 281.775 L 166.221 278.177 160.632 272.589 C 157.558 269.515, 154.471 267.064, 153.772 267.141 C 153.072 267.219, 150.363 269.526, 147.750 272.269 M 175.216 272.281 C 172.347 275.186, 170 277.847, 170 278.195 C 170 278.543, 172.559 281.365, 175.686 284.468 L 181.372 290.108 187.414 284.066 L 193.456 278.024 188.012 272.512 C 185.018 269.480, 182.088 267, 181.500 267 C 180.912 267, 178.085 269.377, 175.216 272.281 M 232.236 269 C 232.381 269.825, 231.904 270.376, 231.176 270.225 C 230.447 270.074, 230.094 270.343, 230.390 270.822 C 230.686 271.301, 229.514 273.140, 227.786 274.908 L 224.643 278.123 230.635 284.115 L 236.628 290.108 242.749 283.852 C 248.553 277.921, 248.770 277.527, 246.933 276.241 C 245.868 275.495, 244.478 275.205, 243.844 275.597 C 243.187 276.003, 242.961 275.873, 243.318 275.294 C 243.663 274.736, 242.060 273.429, 239.755 272.390 C 237.450 271.350, 235.457 270.725, 235.325 271 C 235.194 271.275, 234.385 270.600, 233.529 269.500 C 232.482 268.156, 232.058 267.992, 232.236 269 M 103 274.196 C 103 274.703, 102.550 274.840, 102 274.500 C 101.450 274.160, 101 274.359, 101 274.941 C 101 275.523, 100.662 275.927, 100.250 275.839 C 99.838 275.750, 98.263 276.200, 96.750 276.839 C 95.237 277.477, 92.849 278.449, 91.442 278.997 L 88.884 279.995 93.982 285.174 L 99.081 290.353 105.092 284.229 L 111.104 278.104 108.805 275.802 C 106.474 273.469, 103 272.507, 103 274.196 M 255.589 281.250 C 256.633 282.488, 258.989 284.944, 260.824 286.708 C 263.632 289.408, 264.454 289.733, 266.016 288.758 C 267.036 288.121, 267.648 287.240, 267.376 286.800 C 267.104 286.360, 267.359 286, 267.941 286 C 268.523 286, 269 285.550, 269 285 C 269 284.450, 268.381 284, 267.624 284 C 266.868 284, 263.705 282.875, 260.596 281.500 C 253.662 278.434, 253.192 278.410, 255.589 281.250 M 370.030 280.279 C 367.408 281.606, 367.342 281.716, 361.112 295.259 C 356.189 305.962, 352.782 311.014, 346.106 317.511 C 339.925 323.528, 331.479 328.790, 321.164 333.051 C 316.949 334.793, 312.712 336.913, 311.750 337.764 C 309.716 339.561, 309.435 344.885, 311.250 347.238 C 311.938 348.129, 317 350.821, 322.500 353.221 C 344.555 362.846, 354.591 373.183, 363.976 395.941 C 367.199 403.757, 369.103 405.917, 372.816 405.968 C 375.602 406.006, 379 404.324, 379 402.906 C 379 402.343, 378.555 402.157, 378.011 402.493 C 377.434 402.850, 377.284 402.424, 377.651 401.468 C 378.152 400.162, 378.445 400.101, 379.103 401.166 C 379.690 402.115, 380.279 401.490, 381.142 399 C 383.827 391.260, 392.167 376.199, 396.475 371.310 C 402.385 364.606, 412.392 358.001, 424.687 352.691 C 435.836 347.876, 438.175 345.251, 435.998 339.995 C 435.026 337.649, 429.929 334, 427.624 334 C 427.308 334, 424.042 332.622, 420.366 330.939 C 402.461 322.738, 390.758 310.245, 383.037 291.092 C 379.993 283.539, 376.434 278.977, 373.615 279.015 C 373.002 279.023, 371.389 279.592, 370.030 280.279 M 106.575 285.925 L 100.728 291.833 106.641 297.876 L 112.554 303.919 118.277 298.331 C 121.425 295.258, 123.999 292.463, 123.999 292.122 C 123.997 291.337, 120.464 287.457, 115.925 283.258 L 112.421 280.016 106.575 285.925 M 161.489 286.011 L 155.541 292.021 161.521 297.973 L 167.500 303.925 173.801 297.903 L 180.102 291.881 174.180 285.940 C 170.923 282.673, 168.074 280, 167.848 280 C 167.622 280, 164.761 282.705, 161.489 286.011 M 189.250 285.679 C 186.363 288.634, 184 291.472, 184 291.984 C 184 292.496, 186.530 295.385, 189.622 298.404 L 195.244 303.894 201.128 298.213 C 204.363 295.089, 206.896 292.200, 206.755 291.794 C 206.321 290.538, 195.781 279.991, 195.122 280.152 C 194.780 280.236, 192.137 282.723, 189.250 285.679 M 218.740 284 C 216.717 286.200, 214.706 288, 214.272 288 C 213.837 288, 212.897 288.935, 212.183 290.078 C 210.705 292.445, 211.343 293.619, 216.473 297.975 C 218.109 299.364, 220.247 301.288, 221.224 302.251 C 222.920 303.921, 223.251 303.741, 228.501 298.278 C 231.525 295.130, 234 292.166, 234 291.691 C 234 290.957, 223.375 280, 222.664 280 C 222.529 280, 220.763 281.800, 218.740 284 M 244.532 285.439 C 241.800 288.391, 239.434 291.198, 239.274 291.677 C 239.115 292.155, 241.589 295.125, 244.772 298.275 L 250.560 304.002 256.445 298.055 L 262.330 292.108 258.508 287.804 C 253.338 281.983, 251.233 279.993, 250.292 280.036 C 249.856 280.055, 247.264 282.487, 244.532 285.439 M 83.750 281.689 C 82.787 281.941, 82 282.564, 82 283.073 C 82 283.583, 81.325 284, 80.500 284 C 79.675 284, 79.112 284.367, 79.250 284.816 C 79.388 285.265, 77.942 287.061, 76.037 288.807 L 72.574 291.982 78.446 297.491 C 81.675 300.521, 85.221 303, 86.326 303 C 87.430 303, 88.088 302.755, 87.788 302.455 C 87.488 302.155, 89.551 299.689, 92.372 296.974 L 97.500 292.037 92 286.558 C 88.975 283.544, 86.275 281.113, 86 281.155 C 85.725 281.197, 84.713 281.438, 83.750 281.689 M 134.347 286.048 C 131.681 288.824, 129.384 291.422, 129.242 291.821 C 129.100 292.220, 131.579 295.114, 134.750 298.252 L 140.515 303.957 146.257 298.350 C 149.416 295.266, 152 292.406, 152 291.995 C 152 290.799, 141.618 281.007, 140.347 281.003 C 139.713 281.001, 137.013 283.271, 134.347 286.048 M 369.065 282.421 C 368.015 283.687, 368.352 284.434, 371.108 286.951 L 374.408 289.965 376.704 287.808 C 378.883 285.761, 380.004 282.261, 378.105 283.435 C 377.612 283.740, 376.952 283.316, 376.636 282.494 C 375.944 280.690, 372.006 280.484, 371.985 282.250 C 371.973 283.213, 371.780 283.202, 371.146 282.203 C 370.487 281.164, 370.073 281.207, 369.065 282.421 M 72.239 285.666 C 70.394 286.409, 68.678 289.870, 70.270 289.637 C 72.279 289.342, 76.046 286.380, 75.327 285.660 C 74.591 284.924, 74.078 284.925, 72.239 285.666 M 269.244 288.686 L 265.988 291.951 269.530 295.598 C 273.032 299.205, 273.095 299.224, 275.208 297.373 C 276.383 296.343, 277.015 296.063, 276.613 296.750 C 276.211 297.438, 276.122 298, 276.415 298 C 276.709 298, 277.605 296.731, 278.407 295.181 C 279.606 292.861, 279.640 291.930, 278.601 289.931 C 277.905 288.594, 276.811 287.613, 276.168 287.750 C 275.526 287.887, 275 287.598, 275 287.107 C 275 284.929, 272.234 285.688, 269.244 288.686 M 365.872 288.938 C 365.308 290.554, 363.996 293.546, 362.956 295.586 C 361.916 297.626, 361.302 299.679, 361.591 300.148 C 361.881 300.617, 361.750 301, 361.300 301 C 360.849 301, 359.862 301.992, 359.105 303.204 C 357.740 305.389, 357.750 305.394, 360.289 303.730 C 361.698 302.807, 363.035 302.378, 363.261 302.776 C 363.487 303.174, 363.541 302.952, 363.380 302.282 C 362.989 300.656, 364.685 299.681, 365.529 301.047 C 365.896 301.640, 365.394 303.012, 364.414 304.095 C 362.682 306.008, 362.785 306.219, 368.032 311.532 C 371.002 314.539, 373.911 317, 374.497 317 C 375.470 317, 386 306.631, 386 305.673 C 386 305.446, 383.439 302.719, 380.309 299.613 L 374.618 293.967 370.899 297.599 C 368.854 299.596, 366.690 300.926, 366.090 300.556 C 364.410 299.517, 364.782 298.454, 367.297 297.109 C 370.911 295.174, 372.266 292.399, 370.768 290 C 370.081 288.900, 368.926 288, 368.200 288 C 367.475 288, 367.160 287.550, 367.500 287 C 367.840 286.450, 367.843 286, 367.507 286 C 367.171 286, 366.435 287.322, 365.872 288.938 M 378.250 289.496 C 377.563 290.277, 377 291.438, 377 292.076 C 377 293.278, 382.942 298.956, 384.229 298.984 C 385.284 299.007, 382.794 293.736, 381.012 292.176 C 380.080 291.359, 380.017 291.118, 380.850 291.547 C 381.938 292.106, 381.979 291.830, 381.065 290.121 C 379.740 287.645, 379.856 287.671, 378.250 289.496 M 66.607 289.727 C 65.729 290.604, 65.862 293.796, 66.800 294.376 C 67.240 294.648, 68.078 294.105, 68.663 293.169 C 69.437 291.928, 69.385 291.149, 68.469 290.294 C 67.778 289.648, 66.940 289.393, 66.607 289.727 M 69.367 295.371 C 67.957 296.982, 70.008 298.445, 75.033 299.414 L 78.500 300.082 75.038 297.041 C 71.148 293.625, 70.947 293.565, 69.367 295.371 M 93 299.500 C 89.917 302.622, 88.214 305, 89.062 305 C 89.884 305, 93.760 306.535, 97.676 308.412 L 104.795 311.824 107.397 309.107 C 108.829 307.613, 110 305.950, 110 305.411 C 110 304.432, 99.884 294, 98.934 294 C 98.658 294, 95.987 296.475, 93 299.500 M 120.735 299.657 C 117.581 302.689, 115.007 305.468, 115.016 305.835 C 115.024 306.201, 117.620 309.079, 120.783 312.231 L 126.536 317.962 132.018 312.573 C 135.033 309.608, 137.500 306.752, 137.500 306.225 C 137.500 305.287, 130.794 297.654, 127.921 295.323 C 126.743 294.367, 125.395 295.180, 120.735 299.657 M 148.242 299.345 C 145.359 302.284, 143 305.112, 143 305.629 C 143 306.146, 145.465 309.003, 148.478 311.979 L 153.957 317.389 156.644 314.945 C 161.238 310.766, 164.940 306.546, 164.971 305.454 C 165.001 304.383, 155.115 294, 154.065 294 C 153.746 294, 151.126 296.405, 148.242 299.345 M 175.631 299.586 C 172.534 302.659, 170 305.417, 170 305.717 C 170 306.544, 180.720 317, 181.568 317 C 182.659 317, 193 306.676, 193 305.586 C 193 304.762, 182.398 294, 181.586 294 C 181.408 294, 178.728 296.514, 175.631 299.586 M 203.250 299.326 C 200.363 302.193, 198 305.035, 198 305.641 C 198 306.952, 207.556 317, 208.803 317 C 209.932 317, 217.199 310.151, 219.197 307.203 C 220.701 304.985, 220.560 304.722, 215.036 299.453 C 211.892 296.454, 209.135 294.026, 208.910 294.057 C 208.684 294.088, 206.137 296.459, 203.250 299.326 M 234.500 295.904 C 233.400 296.855, 230.723 299.515, 228.550 301.813 L 224.601 305.993 228.050 309.579 C 233.552 315.297, 234.292 315.446, 240.236 312.037 C 243.131 310.377, 245.050 308.986, 244.500 308.946 C 243.950 308.906, 244.512 308.466, 245.750 307.969 C 246.988 307.471, 248 306.687, 248 306.226 C 248 305.366, 240.691 297.401, 238 295.329 C 236.831 294.428, 236.059 294.555, 234.500 295.904 M 259.467 298.351 C 257.249 300.678, 254.337 303.351, 252.995 304.291 C 249.453 306.772, 252.671 306.519, 258.667 303.845 C 261.325 302.660, 264.365 301.526, 265.422 301.325 C 266.478 301.125, 267.966 300.443, 268.727 299.812 C 269.870 298.863, 269.624 298.265, 267.305 296.368 C 265.762 295.105, 264.275 294.083, 264 294.096 C 263.725 294.109, 261.685 296.023, 259.467 298.351 M 355.312 312.566 C 352.458 315.439, 349.946 317.612, 349.728 317.395 C 349.511 317.178, 349.333 317.782, 349.333 318.738 C 349.333 319.694, 349.821 320.947, 350.417 321.522 C 351.012 322.097, 353.582 324.471, 356.126 326.797 L 360.753 331.027 366.892 325.257 L 373.031 319.487 366.765 313.414 L 360.500 307.341 355.312 312.566 M 109.993 310.507 C 107.685 312.964, 107.677 313.044, 109.569 314.475 C 110.631 315.279, 111.836 315.951, 112.248 315.968 C 112.659 315.986, 115.219 317.597, 117.936 319.549 C 122.600 322.900, 122.934 322.992, 123.895 321.195 C 124.717 319.661, 124.376 318.776, 122.138 316.632 C 120.611 315.169, 119.055 314.203, 118.681 314.486 C 118.306 314.769, 118.231 314.694, 118.514 314.319 C 119.043 313.619, 114.129 308, 112.987 308 C 112.636 308, 111.289 309.128, 109.993 310.507 M 133.824 313.750 L 128.211 319.500 134.134 325.461 L 140.057 331.423 146.016 325.461 L 151.976 319.500 146.359 313.750 C 143.270 310.587, 140.449 308, 140.090 308 C 139.731 308, 136.911 310.587, 133.824 313.750 M 161.249 313.848 L 155.997 319.477 162.026 325.489 L 168.055 331.500 173.958 325.354 L 179.860 319.207 174.212 313.604 C 171.105 310.522, 168.099 308.049, 167.532 308.110 C 166.964 308.170, 164.137 310.752, 161.249 313.848 M 189.250 313.384 C 186.363 316.320, 184 319.040, 184 319.429 C 184 320.321, 194.266 331, 195.123 331 C 195.773 331, 202.075 324.992, 205.276 321.321 C 207.008 319.336, 206.918 319.141, 201.760 313.642 C 198.849 310.539, 196.024 308.010, 195.483 308.023 C 194.943 308.036, 192.137 310.448, 189.250 313.384 M 216.265 313.931 L 211.030 319.637 214.465 322.966 C 217.815 326.213, 217.963 326.254, 220.450 324.625 C 222.909 323.014, 224.195 321.143, 221.845 322.595 C 221.124 323.041, 220.963 322.869, 221.415 322.138 C 221.813 321.494, 222.544 321.218, 223.041 321.525 C 224.258 322.278, 229.125 319.012, 228.439 317.902 C 228.141 317.419, 228.549 317.273, 229.347 317.580 C 230.145 317.886, 231.072 317.693, 231.407 317.151 C 232.081 316.060, 224.090 307.961, 222.500 308.124 C 221.950 308.180, 219.144 310.793, 216.265 313.931 M 382.250 313.439 C 379.363 316.330, 377 319.134, 377 319.670 C 377 320.753, 387.018 331, 388.076 331 C 388.443 331, 391.266 328.416, 394.350 325.257 L 399.957 319.515 394.260 313.757 C 391.126 310.591, 388.324 308.041, 388.031 308.091 C 387.739 308.142, 385.137 310.548, 382.250 313.439 M 224.901 315.250 C 224.459 316.363, 224.431 320.902, 224.868 320.465 C 225.481 319.852, 225.905 315, 225.346 315 C 225.156 315, 224.955 315.113, 224.901 315.250 M 346.293 320.989 C 346.007 322.083, 345.363 322.724, 344.862 322.414 C 344.360 322.105, 344.015 322.222, 344.094 322.676 C 344.172 323.129, 344.184 324.118, 344.118 324.872 C 344.018 326.036, 343.742 326.036, 342.308 324.872 C 341.344 324.091, 340.921 324.008, 341.324 324.681 C 342.238 326.204, 337.461 331.403, 335.986 330.491 C 335.220 330.018, 335.439 329.146, 336.685 327.712 C 338.379 325.761, 338.283 325.773, 335.238 327.887 C 332.063 330.093, 331.687 332.718, 334.712 331.557 C 335.715 331.172, 336.045 331.439, 335.695 332.353 C 335.387 333.155, 337.590 336.126, 340.980 339.480 L 346.793 345.232 352.396 339.921 C 355.478 337, 357.996 334.135, 357.991 333.555 C 357.986 332.975, 355.549 329.809, 352.575 326.519 C 349.601 323.230, 347.381 320.192, 347.643 319.769 C 347.904 319.346, 347.824 319, 347.465 319 C 347.106 319, 346.579 319.895, 346.293 320.989 M 125.176 322.287 C 124.279 323.369, 124.621 324.185, 126.766 326.068 C 128.270 327.389, 129.838 328.364, 130.250 328.235 C 130.662 328.106, 130.887 328.563, 130.750 329.250 C 130.450 330.748, 133.184 330.949, 133.678 329.465 C 133.868 328.895, 132.291 326.737, 130.173 324.668 C 127.007 321.577, 126.118 321.153, 125.176 322.287 M 202.675 327.244 C 196.996 333.368, 196.924 333.520, 198.900 335.120 C 200.008 336.017, 200.597 337.130, 200.207 337.593 C 199.818 338.056, 200.251 337.861, 201.170 337.161 C 202.527 336.126, 202.802 336.132, 202.642 337.194 C 202.533 337.912, 202.140 338.986, 201.768 339.579 C 201.376 340.206, 201.807 340.604, 202.796 340.528 C 203.733 340.456, 207.150 337.614, 210.390 334.212 L 216.280 328.026 212.444 324.513 C 210.335 322.581, 208.577 321, 208.537 321 C 208.498 321, 205.860 323.810, 202.675 327.244 M 147.646 327.604 L 141.793 333.150 147.946 339.265 L 154.099 345.381 160.162 339.318 L 166.225 333.255 160.363 327.641 C 157.138 324.553, 154.275 322.034, 154 322.042 C 153.725 322.051, 150.866 324.553, 147.646 327.604 M 175.081 327.601 L 169.723 333.203 175.659 339.139 L 181.594 345.074 187.749 339.163 L 193.904 333.251 188.234 327.625 C 185.115 324.531, 182.085 322, 181.501 322 C 180.917 322, 178.028 324.521, 175.081 327.601 M 368.216 327.281 C 365.347 330.186, 363 332.846, 363 333.193 C 363 333.928, 373.682 345, 374.391 345 C 375.164 345, 386 333.939, 386 333.151 C 386 332.051, 375.575 322, 374.434 322 C 373.883 322, 371.085 324.377, 368.216 327.281 M 395.546 327.584 L 389.688 333.168 395.844 339.324 L 402 345.480 408.093 339.387 L 414.186 333.294 409.110 328.297 C 406.318 325.549, 403.801 323.533, 403.517 323.817 C 403.232 324.101, 403 323.808, 403 323.167 C 403 321.035, 401.457 321.949, 395.546 327.584 M 133.984 330.519 C 132.952 331.763, 133.055 332.403, 134.551 334.056 C 136.236 335.918, 136.452 335.943, 137.329 334.377 C 138.016 333.148, 137.830 332.349, 136.655 331.490 C 135.762 330.837, 135.324 330.009, 135.682 329.651 C 136.040 329.293, 136.088 329, 135.789 329 C 135.490 329, 134.678 329.683, 133.984 330.519 M 328 332.094 C 328 332.592, 327.152 333, 326.115 333 C 323.362 333, 317.842 335.509, 318.703 336.370 C 319.108 336.774, 318.665 336.809, 317.720 336.446 C 316.699 336.054, 316 336.260, 316 336.952 C 316 337.593, 315.581 337.859, 315.069 337.543 C 313.242 336.414, 313.188 338.598, 314.984 340.979 C 316.626 343.155, 316.999 343.254, 318.656 341.951 C 320.353 340.615, 320.389 340.641, 319.107 342.274 C 318.342 343.250, 318.021 344.354, 318.395 344.728 C 318.768 345.102, 322.027 342.455, 325.635 338.846 C 331.469 333.012, 331.964 332.224, 330.098 331.736 C 328.944 331.434, 328 331.595, 328 332.094 M 417 332.464 C 417 333.168, 429.319 345, 430.052 345 C 432.802 345, 435.199 337.573, 432.486 337.458 C 431.944 337.435, 430.024 336.629, 428.221 335.667 C 426.417 334.705, 424.435 334.231, 423.816 334.614 C 423.173 335.011, 422.967 334.863, 423.334 334.268 C 423.688 333.696, 422.970 332.957, 421.739 332.627 C 419.035 331.903, 417 331.833, 417 332.464 M 410.130 340.368 C 404.288 346.263, 403.918 346.896, 405.157 348.880 C 405.893 350.058, 407.290 351.275, 408.262 351.583 C 409.234 351.892, 409.791 352.529, 409.500 353 C 409.209 353.471, 409.884 354.146, 411 354.500 C 412.116 354.854, 412.769 355.565, 412.451 356.080 C 412.133 356.594, 413.039 356.484, 414.465 355.834 C 416.406 354.950, 416.736 354.422, 415.778 353.732 C 414.869 353.077, 415.009 352.975, 416.262 353.379 C 418.571 354.123, 422.958 352.204, 425.644 349.274 L 427.787 346.936 421.894 341.134 C 418.653 337.943, 416.301 335.032, 416.667 334.666 C 417.034 334.300, 417.133 334, 416.888 334 C 416.643 334, 413.602 336.866, 410.130 340.368 M 139.300 336.661 C 138.933 337.616, 139.362 338.792, 140.338 339.505 C 141.252 340.173, 142 341.047, 142 341.447 C 142 341.846, 143.436 344.173, 145.192 346.617 L 148.383 351.061 150.442 348.998 C 152.216 347.219, 152.293 346.803, 151 345.982 C 150.175 345.459, 149.853 345.024, 150.285 345.015 C 150.716 345.007, 149.397 343.538, 147.352 341.750 C 145.308 339.962, 143.284 338.607, 142.854 338.738 C 142.424 338.869, 142.307 338.364, 142.593 337.617 C 142.880 336.870, 142.397 335.983, 141.520 335.646 C 140.548 335.273, 139.680 335.670, 139.300 336.661 M 162.250 340.340 C 159.363 343.231, 157.003 346.250, 157.006 347.048 C 157.010 347.847, 159.461 350.879, 162.453 353.787 L 167.893 359.074 173.858 352.903 L 179.822 346.731 177.584 344.616 C 176.354 343.452, 173.581 340.831, 171.423 338.792 L 167.500 335.084 162.250 340.340 M 189.714 340.590 C 186.571 343.733, 184 346.616, 184 346.996 C 184 348.181, 192.329 356, 193.590 356 C 194.773 356, 196.466 353.199, 196.159 351.750 C 196.071 351.337, 196.498 351, 197.107 351 C 197.716 351, 197.957 350.330, 197.643 349.512 C 197.329 348.694, 197.508 348.131, 198.041 348.262 C 198.574 348.393, 199.837 347.150, 200.849 345.500 L 202.689 342.500 199.059 338.688 L 195.428 334.876 189.714 340.590 M 325.316 342.511 C 321.365 346.447, 318.758 349.667, 319.522 349.667 C 320.287 349.667, 320.680 349.292, 320.397 348.833 C 319.006 346.583, 322.443 348.419, 325.485 351.553 C 328.577 354.736, 329.172 354.979, 331.218 353.889 C 333.362 352.746, 333.410 352.784, 332 354.524 C 330.641 356.201, 330.664 356.313, 332.250 355.719 C 333.212 355.358, 334 355.457, 334 355.938 C 334 356.419, 334.900 356.577, 336 356.290 C 337.100 356.002, 338 355.368, 338 354.881 C 338 354.394, 339.671 352.419, 341.714 350.493 L 345.427 346.990 339.495 340.995 C 336.232 337.698, 333.324 335.080, 333.031 335.178 C 332.739 335.276, 329.267 338.576, 325.316 342.511 M 354.503 340.997 L 348.572 346.991 354.558 352.959 L 360.545 358.927 366.273 353.335 C 369.423 350.260, 371.993 347.463, 371.985 347.122 C 371.961 346.146, 370.804 344.844, 365.438 339.752 L 360.434 335.003 354.503 340.997 M 382.500 340.544 C 379.750 343.543, 377.301 346.234, 377.059 346.524 C 376.502 347.187, 387.117 358, 388.325 358 C 388.816 358, 391.717 355.541, 394.770 352.536 L 400.322 347.072 394.411 341.050 C 391.160 337.737, 388.275 335.041, 388 335.058 C 387.725 335.076, 385.250 337.544, 382.500 340.544 M 311 342.536 C 311 344.731, 312.851 348, 314.094 348 C 314.657 348, 314.800 347.438, 314.412 346.750 C 313.848 345.750, 313.976 345.750, 315.053 346.750 C 315.794 347.438, 316.746 348, 317.169 348 C 318.662 348, 316.865 345.277, 313.951 343.122 C 311.494 341.306, 311 341.207, 311 342.536 M 432.369 345.480 C 431.525 347.680, 432.453 348.364, 433.906 346.613 C 434.724 345.628, 434.766 344.974, 434.041 344.526 C 433.461 344.167, 432.708 344.596, 432.369 345.480 M 151.722 351.011 C 149.564 353.532, 149.567 353.584, 152.068 357.096 C 153.206 358.693, 153.871 360, 153.548 360 C 152.647 360, 156.809 367.764, 158.156 368.596 C 158.966 369.097, 159.132 368.786, 158.681 367.612 C 158.319 366.668, 158.396 366.127, 158.853 366.409 C 159.310 366.691, 161.101 365.459, 162.834 363.672 L 165.984 360.421 160.319 354.711 C 157.203 351.570, 154.382 349, 154.049 349 C 153.717 349, 152.669 349.905, 151.722 351.011 M 178.464 351.956 C 176.834 353.457, 174.171 356.113, 172.546 357.860 L 169.592 361.036 175.297 366.518 C 178.435 369.533, 181.373 372, 181.827 372 C 183.235 372, 187.059 367.393, 186.290 366.623 C 185.889 366.222, 186.321 366.186, 187.251 366.543 C 188.507 367.025, 189.376 366.280, 190.632 363.646 L 192.323 360.100 188.911 356.251 C 187.035 354.134, 184.584 351.688, 183.464 350.816 C 181.561 349.333, 181.232 349.408, 178.464 351.956 M 341.835 353.436 C 339.289 355.876, 337.026 357.789, 336.805 357.686 C 336.585 357.584, 338.209 359.137, 340.415 361.137 C 344.289 364.650, 347.449 365.334, 346.330 362.417 C 346.031 361.638, 346.359 361, 347.060 361 C 347.760 361, 348.037 361.296, 347.675 361.658 C 347.313 362.020, 347.540 362.945, 348.178 363.714 C 348.816 364.484, 348.925 365.034, 348.419 364.938 C 346.308 364.536, 346.116 365.113, 347.732 367 C 348.674 368.100, 349.788 369, 350.209 369 C 351.195 369, 357.937 361.763, 357.973 360.666 C 358.004 359.718, 347.981 349, 347.064 349 C 346.734 349, 344.382 350.996, 341.835 353.436 M 370.614 352.269 C 369.027 354.046, 366.587 356.731, 365.191 358.236 L 362.652 360.972 368.699 367.019 L 374.745 373.065 380.677 366.928 L 386.609 360.790 380.469 354.895 C 377.093 351.653, 374.143 349.009, 373.915 349.019 C 373.687 349.029, 372.201 350.492, 370.614 352.269 M 395.772 354.750 C 391.074 359.519, 390.283 360.808, 391.134 362.305 C 391.916 363.679, 392.482 363.845, 393.502 362.998 C 394.568 362.113, 394.730 362.315, 394.294 363.985 C 393.992 365.140, 394.139 366.013, 394.622 365.924 C 396.868 365.512, 398.064 366.090, 397.367 367.250 C 396.888 368.048, 397.319 367.975, 398.558 367.047 C 402.863 363.827, 404.912 361.666, 404.417 360.866 C 404.131 360.402, 404.482 360.235, 405.198 360.494 C 405.914 360.753, 407.557 360.149, 408.850 359.153 L 411.200 357.341 406.850 353.181 C 404.457 350.893, 402.261 349.017, 401.969 349.011 C 401.676 349.005, 398.888 351.587, 395.772 354.750 M 162.975 367.365 L 158.451 371.684 160.487 376.750 C 161.607 379.536, 163.418 382.823, 164.512 384.054 C 165.936 385.658, 166.144 386.417, 165.244 386.732 C 164.553 386.973, 164.236 387.573, 164.540 388.064 C 164.843 388.555, 168.462 385.733, 172.580 381.793 L 180.069 374.628 174.316 368.814 C 171.152 365.616, 168.324 363.010, 168.031 363.023 C 167.739 363.036, 165.464 364.990, 162.975 367.365 M 357.589 366.077 C 356.165 367.769, 355 368.794, 355 368.354 C 355 367.915, 354.305 368.547, 353.455 369.760 C 352.009 371.826, 352.120 372.256, 355.205 376.542 C 358.124 380.597, 362.740 386.212, 362.357 385.243 C 362.278 385.043, 364.416 382.821, 367.107 380.303 C 369.798 377.786, 372 375.300, 372 374.779 C 372 373.647, 361.985 363, 360.920 363 C 360.512 363, 359.013 364.385, 357.589 366.077 M 382.216 368.281 C 379.347 371.186, 377 373.926, 377 374.370 C 377 375.915, 384.337 382.910, 385.320 382.302 C 385.874 381.960, 385.995 382.199, 385.595 382.845 C 385.203 383.480, 385.246 383.997, 385.691 383.994 C 386.136 383.990, 387.279 382.619, 388.230 380.947 C 389.216 379.214, 389.431 378.232, 388.730 378.664 C 388.054 379.081, 389.188 377.683, 391.250 375.558 C 393.313 373.432, 395 371.176, 395 370.543 C 395 369.450, 388.945 363, 387.918 363 C 387.651 363, 385.085 365.377, 382.216 368.281 M 185.199 372.613 C 184.483 373.390, 184.220 374.546, 184.613 375.184 C 185.076 375.933, 185.632 375.523, 186.186 374.026 C 187.233 371.196, 186.919 370.747, 185.199 372.613 M 175.478 382.566 C 172.465 385.628, 170 388.360, 170 388.638 C 170 388.916, 170.635 389.778, 171.411 390.554 C 172.187 391.329, 173.028 392.535, 173.280 393.232 C 173.643 394.235, 174.236 394.205, 176.119 393.089 C 178.189 391.863, 178.344 391.867, 177.307 393.123 C 176.651 393.917, 176.466 395.136, 176.896 395.831 C 177.869 397.407, 184.128 380.496, 183.335 378.431 C 182.436 376.087, 181.230 376.721, 175.478 382.566 M 369.282 381.032 C 362.459 387.471, 362.437 387.782, 368.348 394.287 C 371.203 397.429, 373.980 399.988, 374.520 399.972 C 376.137 399.926, 380.617 394.773, 382.794 390.452 L 384.834 386.405 380.103 381.702 C 377.501 379.116, 374.951 377.011, 374.436 377.025 C 373.921 377.039, 371.602 378.842, 369.282 381.032 M 166 391.800 C 166 392.240, 166.563 393.206, 167.250 393.947 C 168.257 395.032, 168.238 395.145, 167.150 394.526 C 166.061 393.907, 166.018 394.165, 166.929 395.868 C 168.141 398.132, 172.061 399.574, 174.481 398.646 C 176.157 398.002, 175.444 395, 173.615 395 C 172.971 395, 171.674 394.100, 170.732 393 C 169.039 391.023, 166 390.252, 166 391.800 M 366.606 396.829 C 365.594 398.466, 367.729 402.785, 370.202 404.103 C 372.301 405.221, 372.379 405.181, 371.109 403.641 C 369.876 402.147, 369.933 402.032, 371.609 402.637 C 373.196 403.211, 373.101 402.853, 371.015 400.410 C 369.648 398.810, 368.237 397.123, 367.878 396.663 C 367.519 396.202, 366.947 396.277, 366.606 396.829" stroke="none" fill="#090909" fill-rule="evenodd"/><path d="M 295.500 96 C 295.160 96.550, 295.246 97.007, 295.691 97.015 C 296.136 97.024, 295.825 97.474, 295 98.015 C 293.667 98.891, 293.667 99.109, 295 99.985 C 295.825 100.526, 296.158 100.976, 295.739 100.985 C 295.321 100.993, 297.479 103.264, 300.534 106.031 C 306.788 111.695, 308.777 111.751, 306.400 106.197 C 305.530 104.163, 304.567 101.825, 304.260 101 C 302.607 96.557, 297.099 93.413, 295.500 96 M 290.875 102.500 C 290.396 104.415, 290.378 104.461, 286.084 114.362 C 284.391 118.265, 284.274 119.109, 285.488 118.643 C 286.319 118.324, 287 118.430, 287 118.878 C 287 120.138, 290.606 124, 291.783 124 C 292.359 124, 295.257 121.475, 298.223 118.389 L 303.614 112.779 298.436 107.389 C 293.853 102.619, 291.264 100.945, 290.875 102.500 M 308 112.211 C 308 113.060, 308.749 114.373, 309.664 115.128 C 311.186 116.383, 311.217 116.287, 310.028 114 C 308.286 110.648, 308 110.395, 308 112.211 M 299.192 121.007 L 293.885 126.789 299.271 132.394 C 302.233 135.478, 305.088 138, 305.616 138 C 307.081 138, 316.343 128.268, 316.611 126.448 C 316.770 125.364, 316.339 125.040, 315.281 125.445 C 313.922 125.967, 313.900 125.821, 315.109 124.331 C 315.913 123.339, 315.996 122.919, 315.304 123.334 C 314.564 123.778, 313.132 122.617, 311.554 120.294 C 310.149 118.227, 309 117.190, 309 117.990 C 309 118.934, 308.454 118.665, 307.443 117.223 C 306.587 116, 305.575 115.051, 305.193 115.113 C 304.812 115.175, 302.112 117.828, 299.192 121.007 M 281.882 121.250 C 281.816 121.938, 281.846 123.108, 281.948 123.850 C 282.050 124.593, 281.654 124.904, 281.067 124.541 C 280.480 124.179, 280 124.300, 280 124.812 C 280 125.323, 278.210 127.478, 276.023 129.601 L 272.045 133.461 274.773 135.695 C 276.273 136.923, 277.768 137.944, 278.096 137.964 C 278.424 137.984, 281.263 135.470, 284.405 132.377 L 290.118 126.755 287.954 124.451 C 286.753 123.173, 286.113 121.626, 286.516 120.974 C 287.060 120.094, 286.680 120.101, 285 121 C 283.516 121.794, 282.988 121.828, 283.438 121.100 C 283.812 120.495, 283.641 120, 283.059 120 C 282.477 120, 281.947 120.563, 281.882 121.250 M 313.730 133.935 C 310.578 137.131, 308.010 140.140, 308.023 140.623 C 308.047 141.527, 318.342 152, 319.207 152 C 320.713 152, 330.922 140.677, 330.320 139.674 C 329.068 137.584, 321.693 131.492, 320.759 131.775 C 320.260 131.926, 320.080 131.679, 320.360 131.227 C 320.639 130.775, 320.551 129.892, 320.164 129.265 C 319.715 128.539, 317.377 130.236, 313.730 133.935 M 285.718 134.780 L 279.998 140.560 285.997 146.497 L 291.997 152.435 297.499 147.001 C 300.524 144.013, 303 141.088, 303 140.500 C 303 139.461, 292.937 129, 291.937 129 C 291.662 129, 288.863 131.601, 285.718 134.780 M 268.557 137.223 C 267.701 138.445, 266.993 139.007, 266.985 138.473 C 266.975 137.867, 266.692 137.877, 266.235 138.500 C 265.831 139.050, 263.855 140.400, 261.844 141.500 C 259.833 142.600, 258.096 143.877, 257.984 144.338 C 257.736 145.357, 262.922 152, 263.966 152 C 264.718 152, 272.392 144.761, 274.809 141.771 C 275.916 140.403, 275.772 139.753, 273.879 137.576 C 271.144 134.431, 270.540 134.391, 268.557 137.223 M 327.616 147.688 C 324.527 150.728, 322 153.596, 322 154.061 C 322 154.527, 324.468 157.516, 327.486 160.704 L 332.971 166.500 339.070 160.406 C 344.556 154.924, 345.014 154.157, 343.632 152.775 C 342.787 151.930, 342.374 150.960, 342.714 150.619 C 343.055 150.279, 342.739 150, 342.012 150 C 341.285 150, 339.012 148.236, 336.961 146.080 L 333.232 142.160 327.616 147.688 M 272.250 148.092 C 269.363 150.870, 267.018 153.672, 267.039 154.321 C 267.061 154.969, 269.498 157.949, 272.456 160.941 L 277.833 166.383 281.684 162.941 C 283.802 161.049, 286.539 158.305, 287.766 156.844 L 289.996 154.189 284.825 148.594 C 281.981 145.517, 279.169 143.010, 278.577 143.022 C 277.985 143.033, 275.137 145.315, 272.250 148.092 M 299.053 148.537 C 293.223 154.702, 293.120 153.857, 300.601 161.338 L 305.046 165.783 308.773 162.700 C 310.823 161.005, 313.553 158.347, 314.839 156.793 L 317.178 153.969 311.896 148.484 C 308.991 145.468, 306.091 143, 305.452 143 C 304.813 143, 301.934 145.492, 299.053 148.537 M 340.756 145.840 C 342.342 147.239, 342.639 147.995, 341.756 148.386 C 341.056 148.696, 341.250 148.844, 342.194 148.721 C 343.126 148.599, 344.540 149.383, 345.336 150.462 C 346.577 152.145, 347.016 152.231, 348.416 151.070 C 350.487 149.351, 351.706 150.444, 350.004 152.495 C 348.946 153.771, 349.049 154.424, 350.605 156.269 C 354.316 160.671, 355.564 161.645, 356.911 161.196 C 357.813 160.896, 358.036 161.210, 357.565 162.120 C 357.173 162.879, 357.560 162.626, 358.426 161.559 C 360.311 159.234, 360.492 154.620, 358.750 153.293 C 358.063 152.770, 355.025 151.342, 352 150.120 C 348.975 148.898, 344.700 146.988, 342.500 145.875 C 338.565 143.883, 338.537 143.883, 340.756 145.840 M 247 148.913 C 243.425 150.316, 239.600 152.326, 238.500 153.379 C 237.400 154.432, 236.991 155.020, 237.592 154.686 C 238.192 154.351, 241.013 156.535, 243.860 159.539 C 246.707 162.542, 249.659 165, 250.421 165 C 251.806 165, 261.500 155.522, 261.500 154.168 C 261.500 152.973, 257.555 148.570, 255.463 147.431 C 253.934 146.598, 252.063 146.926, 247 148.913 M 237.250 158.470 C 237.250 159.841, 237.791 161.411, 238.452 161.960 C 240.405 163.581, 247.239 166.196, 246.532 165.051 C 246.174 164.473, 245.121 163.993, 244.191 163.985 C 242.721 163.971, 242.696 163.829, 244 162.890 C 245.266 161.980, 245.227 161.899, 243.750 162.374 C 242.787 162.684, 242 162.525, 242 162.020 C 242 161.516, 240.931 159.950, 239.625 158.540 L 237.250 155.978 237.250 158.470 M 259.346 161.042 C 256.540 163.719, 254.488 166.155, 254.788 166.455 C 255.088 166.755, 254.808 167, 254.167 167 C 253.525 167, 253.004 167.338, 253.008 167.750 C 253.019 168.829, 258.119 171.044, 259.140 170.413 C 259.613 170.121, 260 170.314, 260 170.842 C 260 171.370, 261.688 172.852, 263.750 174.135 C 267.894 176.714, 269.842 177.645, 268.855 176.575 C 268.500 176.191, 270.046 174.164, 272.290 172.070 L 276.371 168.264 273.953 165.382 C 272.623 163.797, 269.941 161.077, 267.992 159.337 L 264.449 156.174 259.346 161.042 M 285.489 162.011 L 279.541 168.021 285.658 174.138 L 291.774 180.254 297.758 173.927 L 303.742 167.599 298.143 161.800 C 295.063 158.610, 292.294 156, 291.990 156 C 291.686 156, 288.761 158.705, 285.489 162.011 M 313.686 161.618 C 310.559 164.745, 308 167.608, 308 167.979 C 308 168.350, 310.535 171.169, 313.633 174.242 C 318.141 178.715, 319.543 179.598, 320.653 178.665 C 323.757 176.056, 331 168.629, 331 168.054 C 331 167.715, 328.384 164.849, 325.186 161.684 L 319.373 155.932 313.686 161.618 M 340.687 161.811 C 337.559 164.972, 335 167.867, 335 168.244 C 335 168.621, 335.977 169.452, 337.171 170.091 C 338.970 171.054, 339.569 170.942, 340.671 169.435 C 341.402 168.436, 342 167.905, 342 168.257 C 342 168.608, 343.349 168.426, 344.999 167.851 C 346.720 167.251, 347.715 166.348, 347.335 165.733 C 346.936 165.088, 347.251 164.882, 348.123 165.217 C 348.922 165.523, 350.908 165.186, 352.537 164.468 C 354.167 163.750, 354.911 163.126, 354.191 163.081 C 353.471 163.037, 353.157 162.555, 353.493 162.011 C 353.857 161.422, 353.376 161.284, 352.302 161.671 C 351.311 162.027, 350.816 161.968, 351.202 161.540 C 351.888 160.781, 351.101 159.756, 347.933 157.282 C 346.624 156.261, 345.459 156.989, 340.687 161.811 M 274.243 173.534 C 272.459 175.477, 270.993 176.715, 270.985 176.284 C 270.976 175.853, 270.571 176.129, 270.084 176.898 C 269.462 177.880, 270.015 178.983, 271.939 180.602 C 273.446 181.870, 275.764 184.500, 277.089 186.447 C 278.415 188.394, 280.010 189.989, 280.632 189.993 C 281.255 189.997, 283.632 188.132, 285.915 185.849 L 290.066 181.699 287.783 179.196 C 284.497 175.594, 278.587 170.059, 277.993 170.027 C 277.714 170.012, 276.027 171.590, 274.243 173.534 M 299.744 175.563 C 296.585 178.623, 294 181.483, 294 181.918 C 294 182.825, 304.560 193, 305.500 193 C 306.521 193, 317 182.785, 317 181.790 C 317 180.965, 306.592 170, 305.809 170 C 305.632 170, 302.903 172.504, 299.744 175.563 M 330.508 171.013 C 330.736 171.382, 328.633 174.023, 325.834 176.881 C 323.035 179.739, 320.982 182.315, 321.272 182.605 C 321.562 182.895, 322.632 182.267, 323.649 181.210 C 324.667 180.153, 327.869 177.679, 330.764 175.712 C 334.334 173.286, 335.627 171.887, 334.781 171.365 C 333.201 170.388, 329.956 170.120, 330.508 171.013 M 287 188.089 C 285.075 190.293, 283.332 192.281, 283.126 192.505 C 282.921 192.730, 283.107 193.721, 283.540 194.707 C 283.973 195.693, 284.387 196.950, 284.459 197.500 C 284.532 198.050, 285.117 198.393, 285.759 198.262 C 286.402 198.131, 286.684 198.661, 286.385 199.439 C 285.606 201.469, 291.341 207.190, 293.374 206.410 C 294.268 206.067, 295 205.452, 295 205.044 C 295 204.636, 297.004 202.322, 299.452 199.901 L 303.905 195.500 298.368 189.750 C 295.323 186.588, 292.307 184.018, 291.665 184.041 C 291.024 184.063, 288.925 185.885, 287 188.089 M 318.500 185 C 318.840 185.550, 318.615 186, 318 186 C 317.372 186, 317.211 186.548, 317.633 187.250 C 318.143 188.099, 317.842 188.060, 316.692 187.128 C 315.499 186.159, 315 186.103, 315 186.937 C 315 187.586, 314.555 187.843, 314.011 187.507 C 313.424 187.144, 313.290 187.593, 313.681 188.612 C 314.128 189.776, 313.964 190.096, 313.170 189.605 C 312.526 189.207, 312 189.359, 312 189.941 C 312 190.523, 311.100 191.900, 310 193 C 307.672 195.328, 307.350 197.463, 309.449 196.658 C 310.418 196.286, 310.714 196.582, 310.342 197.551 C 309.228 200.454, 310.900 198.888, 313.866 194.250 C 315.537 191.637, 317.863 188.262, 319.036 186.750 C 320.858 184.398, 320.929 184, 319.524 184 C 318.621 184, 318.160 184.450, 318.500 185 M 168.023 187.977 C 166.184 189.816, 166.183 193, 168.021 193 C 168.465 193, 170.450 191.425, 172.432 189.500 L 176.036 186 173.018 186 C 171.345 186, 169.119 186.881, 168.023 187.977 M 173.540 191.527 C 169.671 194.969, 169.669 194.976, 171.583 197.185 C 176.442 202.790, 181.299 206.823, 182.592 206.326 C 183.367 206.029, 183.994 205.722, 183.987 205.643 C 183.922 204.948, 178.084 188.751, 177.795 188.461 C 177.585 188.252, 175.671 189.632, 173.540 191.527 M 299.403 203.375 L 293.321 209.500 297.059 213 C 299.115 214.925, 301.483 216.361, 302.321 216.192 C 304.062 215.839, 306.301 210.295, 305.334 208.731 C 304.980 208.159, 305.163 207.982, 305.739 208.339 C 306.688 208.925, 308.567 204.594, 308.164 202.750 C 308.074 202.338, 308.454 202, 309.008 202 C 310.205 202, 308.048 198.232, 306.514 197.644 C 305.949 197.427, 302.749 200.006, 299.403 203.375 M 165.364 199.494 C 165.048 200.316, 164.445 200.775, 164.022 200.514 C 163.600 200.253, 162.251 202.790, 161.024 206.154 L 158.795 212.268 163.364 216.838 L 167.934 221.408 174.174 215.225 L 180.415 209.043 174.457 203.544 C 168.264 197.828, 166.333 196.968, 165.364 199.494 M 175.685 216.620 C 172.558 219.697, 170 222.518, 170 222.889 C 170 223.259, 172.602 226.137, 175.782 229.284 L 181.563 235.005 186.873 229.629 C 192.162 224.273, 192.176 224.242, 190.611 221.376 C 188.916 218.271, 186.605 215.512, 183.397 212.762 C 181.431 211.077, 181.199 211.193, 175.685 216.620 M 291 212 C 291 212.550, 291.436 213, 291.969 213 C 292.501 213, 292.696 213.628, 292.401 214.396 C 291.795 215.977, 295.566 219, 298.144 219 C 299.366 219, 298.731 217.877, 295.883 215 C 291.731 210.806, 291 210.357, 291 212 M 156.685 216.378 C 156.394 217.136, 156.684 218.288, 157.328 218.937 C 158.227 219.844, 158.052 219.948, 156.576 219.386 C 155.048 218.803, 154.785 218.997, 155.295 220.326 C 155.648 221.247, 155.501 222, 154.969 222 C 154.436 222, 153.990 222.563, 153.978 223.250 C 153.966 223.938, 153.076 225.625, 152 227 C 149.957 229.612, 149.365 231.511, 150.887 230.570 C 151.375 230.268, 151.712 230.787, 151.637 231.722 C 151.353 235.242, 154.933 234.021, 160.389 228.736 L 165.943 223.357 162.161 219.178 C 158.027 214.610, 157.472 214.326, 156.685 216.378 M 166.500 225.794 C 165.950 226.214, 163.268 228.906, 160.540 231.776 L 155.581 236.994 161.652 242.899 L 167.724 248.803 174.064 242.863 L 180.404 236.923 174.041 230.961 C 170.542 227.683, 167.638 225.007, 167.589 225.015 C 167.540 225.024, 167.050 225.374, 166.500 225.794 M 188.738 231.532 C 186.132 233.960, 184 236.309, 184 236.754 C 184 237.199, 186.637 240.172, 189.861 243.362 L 195.721 249.162 198.986 245.331 C 200.782 243.224, 201.962 242.031, 201.609 242.681 C 201.256 243.330, 201.411 244.136, 201.954 244.472 C 202.497 244.807, 201.583 246.301, 199.924 247.791 L 196.908 250.500 202.938 256.453 L 208.968 262.405 211.984 259.516 C 215.243 256.393, 215.940 254.425, 213.448 255.382 C 212.522 255.737, 212.154 255.561, 212.534 254.945 C 213.384 253.570, 211.057 250.847, 209.732 251.666 C 209.113 252.048, 208.992 251.822, 209.434 251.107 C 210.177 249.905, 205.638 244.500, 203.886 244.500 C 203.399 244.500, 203.009 244.158, 203.020 243.740 C 203.050 242.626, 200.041 237, 199.415 237 C 199.122 237, 199.203 237.520, 199.595 238.155 C 200.041 238.876, 199.869 239.037, 199.138 238.585 C 198.494 238.187, 198.213 237.464, 198.514 236.977 C 198.815 236.490, 197.804 234.073, 196.269 231.606 L 193.476 227.119 188.738 231.532 M 147.464 235.293 C 146.415 236.507, 144.130 239.611, 142.386 242.191 C 140.642 244.771, 138.844 246.571, 138.390 246.191 C 137.937 245.811, 138.151 246.266, 138.866 247.203 C 140.048 248.750, 140.561 248.500, 144.494 244.453 C 146.874 242.004, 149.338 240, 149.970 240 C 150.601 240, 150.864 239.588, 150.553 239.085 C 150.242 238.582, 150.525 237.992, 151.182 237.773 C 152.056 237.481, 151.973 236.799, 150.874 235.230 L 149.371 233.085 147.464 235.293 M 148.112 244.386 C 141.864 250.713, 141.920 251.455, 149.141 257.929 L 154.080 262.358 160.041 256.459 L 166.002 250.560 160.282 244.780 C 157.137 241.601, 154.308 239, 153.997 239 C 153.686 239, 151.038 241.424, 148.112 244.386 M 175.532 244.968 L 169.627 250.935 175.328 256.546 C 178.463 259.632, 181.439 262.009, 181.941 261.829 C 183.751 261.176, 192.999 251.835, 192.977 250.682 C 192.956 249.612, 182.855 239, 181.857 239 C 181.626 239, 178.780 241.685, 175.532 244.968 M 132.699 253.250 C 130.156 255.863, 127.663 258, 127.160 258 C 126.657 258, 125.711 258.644, 125.058 259.430 C 124.106 260.577, 124.304 261.092, 126.056 262.030 C 127.258 262.673, 127.980 262.776, 127.660 262.259 C 127.340 261.741, 128.444 260.308, 130.114 259.074 C 131.903 257.751, 132.926 256.249, 132.606 255.415 C 132.307 254.637, 132.461 254, 132.948 254 C 133.435 254, 134.060 254.563, 134.338 255.250 C 134.706 256.163, 134.863 256.125, 134.921 255.110 C 134.964 254.346, 135.737 253.182, 136.638 252.523 C 137.538 251.864, 138.061 250.690, 137.800 249.913 C 137.470 248.933, 135.907 249.955, 132.699 253.250 M 134.347 258.048 C 131.681 260.824, 129.374 263.453, 129.219 263.890 C 128.947 264.660, 135.751 272.106, 139.232 274.849 C 140.674 275.986, 141.146 275.975, 142.222 274.783 C 142.925 274.004, 145.495 271.270, 147.934 268.708 L 152.367 264.050 146.571 258.525 C 143.383 255.486, 140.419 253, 139.984 253 C 139.550 253, 137.013 255.271, 134.347 258.048 M 161.731 258.767 L 156.024 264.533 161.900 270.651 L 167.776 276.768 173.913 270.688 L 180.050 264.608 174.306 258.804 C 171.147 255.612, 168.309 253, 168 253 C 167.691 253, 164.869 255.595, 161.731 258.767 M 189.218 258.368 C 186.348 261.321, 184.010 264.133, 184.023 264.618 C 184.036 265.103, 186.534 267.947, 189.574 270.939 L 195.103 276.377 201.136 270.344 L 207.170 264.310 201.693 258.655 C 198.681 255.545, 195.815 253, 195.326 253 C 194.836 253, 192.087 255.416, 189.218 258.368 M 214.204 261.289 L 211.016 264.579 217 270.500 L 222.983 276.421 227.193 272.039 C 231.060 268.015, 231.254 267.569, 229.568 266.579 C 228.558 265.985, 226.402 264.414, 224.777 263.086 C 222.315 261.075, 221.653 260.908, 220.816 262.086 C 219.996 263.240, 219.906 263.201, 220.328 261.872 C 220.806 260.361, 219.384 258, 217.996 258 C 217.664 258, 215.958 259.480, 214.204 261.289 M 119.439 263.800 C 118.372 264.791, 116.684 265.913, 115.687 266.293 C 114.689 266.674, 114.150 267.434, 114.489 267.981 C 114.827 268.529, 114.518 268.765, 113.802 268.506 C 113.086 268.247, 111.469 268.831, 110.208 269.804 L 107.916 271.572 110.394 273.900 L 112.871 276.228 118.851 270.229 C 123.250 265.816, 124.536 263.936, 123.715 263.115 C 122.215 261.615, 121.704 261.697, 119.439 263.800 M 120.486 272.014 L 114.541 278.021 120.575 284.055 L 126.608 290.088 132.304 284.392 C 135.437 281.259, 137.986 278.427, 137.968 278.098 C 137.921 277.212, 135.934 275.001, 130.918 270.253 L 126.431 266.007 120.486 272.014 M 203.713 271.594 C 200.571 274.637, 198 277.578, 198 278.129 C 198 278.680, 200.474 281.685, 203.498 284.807 L 208.996 290.484 215.144 284.336 L 221.292 278.188 215.359 272.124 L 209.425 266.060 203.713 271.594 M 147.750 272.269 C 145.137 275.011, 143 277.780, 143 278.421 C 143 279.973, 152.628 289.009, 154.237 288.967 C 155.667 288.929, 157.986 286.995, 162.860 281.775 L 166.221 278.177 160.632 272.589 C 157.558 269.515, 154.471 267.064, 153.772 267.141 C 153.072 267.219, 150.363 269.526, 147.750 272.269 M 175.216 272.281 C 172.347 275.186, 170 277.847, 170 278.195 C 170 278.543, 172.559 281.365, 175.686 284.468 L 181.372 290.108 187.414 284.066 L 193.456 278.024 188.012 272.512 C 185.018 269.480, 182.088 267, 181.500 267 C 180.912 267, 178.085 269.377, 175.216 272.281 M 232.236 269 C 232.381 269.825, 231.904 270.376, 231.176 270.225 C 230.447 270.074, 230.094 270.343, 230.390 270.822 C 230.686 271.301, 229.514 273.140, 227.786 274.908 L 224.643 278.123 230.635 284.115 L 236.628 290.108 242.749 283.852 C 248.553 277.921, 248.770 277.527, 246.933 276.241 C 245.868 275.495, 244.478 275.205, 243.844 275.597 C 243.187 276.003, 242.961 275.873, 243.318 275.294 C 243.663 274.736, 242.060 273.429, 239.755 272.390 C 237.450 271.350, 235.457 270.725, 235.325 271 C 235.194 271.275, 234.385 270.600, 233.529 269.500 C 232.482 268.156, 232.058 267.992, 232.236 269 M 103 274.196 C 103 274.703, 102.550 274.840, 102 274.500 C 101.450 274.160, 101 274.359, 101 274.941 C 101 275.523, 100.662 275.927, 100.250 275.839 C 99.838 275.750, 98.263 276.200, 96.750 276.839 C 95.237 277.477, 92.849 278.449, 91.442 278.997 L 88.884 279.995 93.982 285.174 L 99.081 290.353 105.092 284.229 L 111.104 278.104 108.805 275.802 C 106.474 273.469, 103 272.507, 103 274.196 M 255.589 281.250 C 256.633 282.488, 258.989 284.944, 260.824 286.708 C 263.632 289.408, 264.454 289.733, 266.016 288.758 C 267.036 288.121, 267.648 287.240, 267.376 286.800 C 267.104 286.360, 267.359 286, 267.941 286 C 268.523 286, 269 285.550, 269 285 C 269 284.450, 268.381 284, 267.624 284 C 266.868 284, 263.705 282.875, 260.596 281.500 C 253.662 278.434, 253.192 278.410, 255.589 281.250 M 106.575 285.925 L 100.728 291.833 106.641 297.876 L 112.554 303.919 118.277 298.331 C 121.425 295.258, 123.999 292.463, 123.999 292.122 C 123.997 291.337, 120.464 287.457, 115.925 283.258 L 112.421 280.016 106.575 285.925 M 161.489 286.011 L 155.541 292.021 161.521 297.973 L 167.500 303.925 173.801 297.903 L 180.102 291.881 174.180 285.940 C 170.923 282.673, 168.074 280, 167.848 280 C 167.622 280, 164.761 282.705, 161.489 286.011 M 189.250 285.679 C 186.363 288.634, 184 291.472, 184 291.984 C 184 292.496, 186.530 295.385, 189.622 298.404 L 195.244 303.894 201.128 298.213 C 204.363 295.089, 206.896 292.200, 206.755 291.794 C 206.321 290.538, 195.781 279.991, 195.122 280.152 C 194.780 280.236, 192.137 282.723, 189.250 285.679 M 218.740 284 C 216.717 286.200, 214.706 288, 214.272 288 C 213.837 288, 212.897 288.935, 212.183 290.078 C 210.705 292.445, 211.343 293.619, 216.473 297.975 C 218.109 299.364, 220.247 301.288, 221.224 302.251 C 222.920 303.921, 223.251 303.741, 228.501 298.278 C 231.525 295.130, 234 292.166, 234 291.691 C 234 290.957, 223.375 280, 222.664 280 C 222.529 280, 220.763 281.800, 218.740 284 M 244.532 285.439 C 241.800 288.391, 239.434 291.198, 239.274 291.677 C 239.115 292.155, 241.589 295.125, 244.772 298.275 L 250.560 304.002 256.445 298.055 L 262.330 292.108 258.508 287.804 C 253.338 281.983, 251.233 279.993, 250.292 280.036 C 249.856 280.055, 247.264 282.487, 244.532 285.439 M 83.750 281.689 C 82.787 281.941, 82 282.564, 82 283.073 C 82 283.583, 81.325 284, 80.500 284 C 79.675 284, 79.112 284.367, 79.250 284.816 C 79.388 285.265, 77.942 287.061, 76.037 288.807 L 72.574 291.982 78.446 297.491 C 81.675 300.521, 85.221 303, 86.326 303 C 87.430 303, 88.088 302.755, 87.788 302.455 C 87.488 302.155, 89.551 299.689, 92.372 296.974 L 97.500 292.037 92 286.558 C 88.975 283.544, 86.275 281.113, 86 281.155 C 85.725 281.197, 84.713 281.438, 83.750 281.689 M 134.347 286.048 C 131.681 288.824, 129.384 291.422, 129.242 291.821 C 129.100 292.220, 131.579 295.114, 134.750 298.252 L 140.515 303.957 146.257 298.350 C 149.416 295.266, 152 292.406, 152 291.995 C 152 290.799, 141.618 281.007, 140.347 281.003 C 139.713 281.001, 137.013 283.271, 134.347 286.048 M 369.065 282.421 C 368.015 283.687, 368.352 284.434, 371.108 286.951 L 374.408 289.965 376.704 287.808 C 378.883 285.761, 380.004 282.261, 378.105 283.435 C 377.612 283.740, 376.952 283.316, 376.636 282.494 C 375.944 280.690, 372.006 280.484, 371.985 282.250 C 371.973 283.213, 371.780 283.202, 371.146 282.203 C 370.487 281.164, 370.073 281.207, 369.065 282.421 M 72.239 285.666 C 70.394 286.409, 68.678 289.870, 70.270 289.637 C 72.279 289.342, 76.046 286.380, 75.327 285.660 C 74.591 284.924, 74.078 284.925, 72.239 285.666 M 269.244 288.686 L 265.988 291.951 269.530 295.598 C 273.032 299.205, 273.095 299.224, 275.208 297.373 C 276.383 296.343, 277.015 296.063, 276.613 296.750 C 276.211 297.438, 276.122 298, 276.415 298 C 276.709 298, 277.605 296.731, 278.407 295.181 C 279.606 292.861, 279.640 291.930, 278.601 289.931 C 277.905 288.594, 276.811 287.613, 276.168 287.750 C 275.526 287.887, 275 287.598, 275 287.107 C 275 284.929, 272.234 285.688, 269.244 288.686 M 365.872 288.938 C 365.308 290.554, 363.996 293.546, 362.956 295.586 C 361.916 297.626, 361.302 299.679, 361.591 300.148 C 361.881 300.617, 361.750 301, 361.300 301 C 360.849 301, 359.862 301.992, 359.105 303.204 C 357.740 305.389, 357.750 305.394, 360.289 303.730 C 361.698 302.807, 363.035 302.378, 363.261 302.776 C 363.487 303.174, 363.541 302.952, 363.380 302.282 C 362.989 300.656, 364.685 299.681, 365.529 301.047 C 365.896 301.640, 365.394 303.012, 364.414 304.095 C 362.682 306.008, 362.785 306.219, 368.032 311.532 C 371.002 314.539, 373.911 317, 374.497 317 C 375.470 317, 386 306.631, 386 305.673 C 386 305.446, 383.439 302.719, 380.309 299.613 L 374.618 293.967 370.899 297.599 C 368.854 299.596, 366.690 300.926, 366.090 300.556 C 364.410 299.517, 364.782 298.454, 367.297 297.109 C 370.911 295.174, 372.266 292.399, 370.768 290 C 370.081 288.900, 368.926 288, 368.200 288 C 367.475 288, 367.160 287.550, 367.500 287 C 367.840 286.450, 367.843 286, 367.507 286 C 367.171 286, 366.435 287.322, 365.872 288.938 M 378.250 289.496 C 377.563 290.277, 377 291.438, 377 292.076 C 377 293.278, 382.942 298.956, 384.229 298.984 C 385.284 299.007, 382.794 293.736, 381.012 292.176 C 380.080 291.359, 380.017 291.118, 380.850 291.547 C 381.938 292.106, 381.979 291.830, 381.065 290.121 C 379.740 287.645, 379.856 287.671, 378.250 289.496 M 66.607 289.727 C 65.729 290.604, 65.862 293.796, 66.800 294.376 C 67.240 294.648, 68.078 294.105, 68.663 293.169 C 69.437 291.928, 69.385 291.149, 68.469 290.294 C 67.778 289.648, 66.940 289.393, 66.607 289.727 M 69.367 295.371 C 67.957 296.982, 70.008 298.445, 75.033 299.414 L 78.500 300.082 75.038 297.041 C 71.148 293.625, 70.947 293.565, 69.367 295.371 M 93 299.500 C 89.917 302.622, 88.214 305, 89.062 305 C 89.884 305, 93.760 306.535, 97.676 308.412 L 104.795 311.824 107.397 309.107 C 108.829 307.613, 110 305.950, 110 305.411 C 110 304.432, 99.884 294, 98.934 294 C 98.658 294, 95.987 296.475, 93 299.500 M 120.735 299.657 C 117.581 302.689, 115.007 305.468, 115.016 305.835 C 115.024 306.201, 117.620 309.079, 120.783 312.231 L 126.536 317.962 132.018 312.573 C 135.033 309.608, 137.500 306.752, 137.500 306.225 C 137.500 305.287, 130.794 297.654, 127.921 295.323 C 126.743 294.367, 125.395 295.180, 120.735 299.657 M 148.242 299.345 C 145.359 302.284, 143 305.112, 143 305.629 C 143 306.146, 145.465 309.003, 148.478 311.979 L 153.957 317.389 156.644 314.945 C 161.238 310.766, 164.940 306.546, 164.971 305.454 C 165.001 304.383, 155.115 294, 154.065 294 C 153.746 294, 151.126 296.405, 148.242 299.345 M 175.631 299.586 C 172.534 302.659, 170 305.417, 170 305.717 C 170 306.544, 180.720 317, 181.568 317 C 182.659 317, 193 306.676, 193 305.586 C 193 304.762, 182.398 294, 181.586 294 C 181.408 294, 178.728 296.514, 175.631 299.586 M 203.250 299.326 C 200.363 302.193, 198 305.035, 198 305.641 C 198 306.952, 207.556 317, 208.803 317 C 209.932 317, 217.199 310.151, 219.197 307.203 C 220.701 304.985, 220.560 304.722, 215.036 299.453 C 211.892 296.454, 209.135 294.026, 208.910 294.057 C 208.684 294.088, 206.137 296.459, 203.250 299.326 M 234.500 295.904 C 233.400 296.855, 230.723 299.515, 228.550 301.813 L 224.601 305.993 228.050 309.579 C 233.552 315.297, 234.292 315.446, 240.236 312.037 C 243.131 310.377, 245.050 308.986, 244.500 308.946 C 243.950 308.906, 244.512 308.466, 245.750 307.969 C 246.988 307.471, 248 306.687, 248 306.226 C 248 305.366, 240.691 297.401, 238 295.329 C 236.831 294.428, 236.059 294.555, 234.500 295.904 M 259.467 298.351 C 257.249 300.678, 254.337 303.351, 252.995 304.291 C 249.453 306.772, 252.671 306.519, 258.667 303.845 C 261.325 302.660, 264.365 301.526, 265.422 301.325 C 266.478 301.125, 267.966 300.443, 268.727 299.812 C 269.870 298.863, 269.624 298.265, 267.305 296.368 C 265.762 295.105, 264.275 294.083, 264 294.096 C 263.725 294.109, 261.685 296.023, 259.467 298.351 M 355.312 312.566 C 352.458 315.439, 349.946 317.612, 349.728 317.395 C 349.511 317.178, 349.333 317.782, 349.333 318.738 C 349.333 319.694, 349.821 320.947, 350.417 321.522 C 351.012 322.097, 353.582 324.471, 356.126 326.797 L 360.753 331.027 366.892 325.257 L 373.031 319.487 366.765 313.414 L 360.500 307.341 355.312 312.566 M 109.993 310.507 C 107.685 312.964, 107.677 313.044, 109.569 314.475 C 110.631 315.279, 111.836 315.951, 112.248 315.968 C 112.659 315.986, 115.219 317.597, 117.936 319.549 C 122.600 322.900, 122.934 322.992, 123.895 321.195 C 124.717 319.661, 124.376 318.776, 122.138 316.632 C 120.611 315.169, 119.055 314.203, 118.681 314.486 C 118.306 314.769, 118.231 314.694, 118.514 314.319 C 119.043 313.619, 114.129 308, 112.987 308 C 112.636 308, 111.289 309.128, 109.993 310.507 M 133.824 313.750 L 128.211 319.500 134.134 325.461 L 140.057 331.423 146.016 325.461 L 151.976 319.500 146.359 313.750 C 143.270 310.587, 140.449 308, 140.090 308 C 139.731 308, 136.911 310.587, 133.824 313.750 M 161.249 313.848 L 155.997 319.477 162.026 325.489 L 168.055 331.500 173.958 325.354 L 179.860 319.207 174.212 313.604 C 171.105 310.522, 168.099 308.049, 167.532 308.110 C 166.964 308.170, 164.137 310.752, 161.249 313.848 M 189.250 313.384 C 186.363 316.320, 184 319.040, 184 319.429 C 184 320.321, 194.266 331, 195.123 331 C 195.773 331, 202.075 324.992, 205.276 321.321 C 207.008 319.336, 206.918 319.141, 201.760 313.642 C 198.849 310.539, 196.024 308.010, 195.483 308.023 C 194.943 308.036, 192.137 310.448, 189.250 313.384 M 216.265 313.931 L 211.030 319.637 214.465 322.966 C 217.815 326.213, 217.963 326.254, 220.450 324.625 C 222.909 323.014, 224.195 321.143, 221.845 322.595 C 221.124 323.041, 220.963 322.869, 221.415 322.138 C 221.813 321.494, 222.544 321.218, 223.041 321.525 C 224.258 322.278, 229.125 319.012, 228.439 317.902 C 228.141 317.419, 228.549 317.273, 229.347 317.580 C 230.145 317.886, 231.072 317.693, 231.407 317.151 C 232.081 316.060, 224.090 307.961, 222.500 308.124 C 221.950 308.180, 219.144 310.793, 216.265 313.931 M 382.250 313.439 C 379.363 316.330, 377 319.134, 377 319.670 C 377 320.753, 387.018 331, 388.076 331 C 388.443 331, 391.266 328.416, 394.350 325.257 L 399.957 319.515 394.260 313.757 C 391.126 310.591, 388.324 308.041, 388.031 308.091 C 387.739 308.142, 385.137 310.548, 382.250 313.439 M 224.901 315.250 C 224.459 316.363, 224.431 320.902, 224.868 320.465 C 225.481 319.852, 225.905 315, 225.346 315 C 225.156 315, 224.955 315.113, 224.901 315.250 M 346.293 320.989 C 346.007 322.083, 345.363 322.724, 344.862 322.414 C 344.360 322.105, 344.015 322.222, 344.094 322.676 C 344.172 323.129, 344.184 324.118, 344.118 324.872 C 344.018 326.036, 343.742 326.036, 342.308 324.872 C 341.344 324.091, 340.921 324.008, 341.324 324.681 C 342.238 326.204, 337.461 331.403, 335.986 330.491 C 335.220 330.018, 335.439 329.146, 336.685 327.712 C 338.379 325.761, 338.283 325.773, 335.238 327.887 C 332.063 330.093, 331.687 332.718, 334.712 331.557 C 335.715 331.172, 336.045 331.439, 335.695 332.353 C 335.387 333.155, 337.590 336.126, 340.980 339.480 L 346.793 345.232 352.396 339.921 C 355.478 337, 357.996 334.135, 357.991 333.555 C 357.986 332.975, 355.549 329.809, 352.575 326.519 C 349.601 323.230, 347.381 320.192, 347.643 319.769 C 347.904 319.346, 347.824 319, 347.465 319 C 347.106 319, 346.579 319.895, 346.293 320.989 M 125.176 322.287 C 124.279 323.369, 124.621 324.185, 126.766 326.068 C 128.270 327.389, 129.838 328.364, 130.250 328.235 C 130.662 328.106, 130.887 328.563, 130.750 329.250 C 130.450 330.748, 133.184 330.949, 133.678 329.465 C 133.868 328.895, 132.291 326.737, 130.173 324.668 C 127.007 321.577, 126.118 321.153, 125.176 322.287 M 202.675 327.244 C 196.996 333.368, 196.924 333.520, 198.900 335.120 C 200.008 336.017, 200.597 337.130, 200.207 337.593 C 199.818 338.056, 200.251 337.861, 201.170 337.161 C 202.527 336.126, 202.802 336.132, 202.642 337.194 C 202.533 337.912, 202.140 338.986, 201.768 339.579 C 201.376 340.206, 201.807 340.604, 202.796 340.528 C 203.733 340.456, 207.150 337.614, 210.390 334.212 L 216.280 328.026 212.444 324.513 C 210.335 322.581, 208.577 321, 208.537 321 C 208.498 321, 205.860 323.810, 202.675 327.244 M 147.646 327.604 L 141.793 333.150 147.946 339.265 L 154.099 345.381 160.162 339.318 L 166.225 333.255 160.363 327.641 C 157.138 324.553, 154.275 322.034, 154 322.042 C 153.725 322.051, 150.866 324.553, 147.646 327.604 M 175.081 327.601 L 169.723 333.203 175.659 339.139 L 181.594 345.074 187.749 339.163 L 193.904 333.251 188.234 327.625 C 185.115 324.531, 182.085 322, 181.501 322 C 180.917 322, 178.028 324.521, 175.081 327.601 M 368.216 327.281 C 365.347 330.186, 363 332.846, 363 333.193 C 363 333.928, 373.682 345, 374.391 345 C 375.164 345, 386 333.939, 386 333.151 C 386 332.051, 375.575 322, 374.434 322 C 373.883 322, 371.085 324.377, 368.216 327.281 M 395.546 327.584 L 389.688 333.168 395.844 339.324 L 402 345.480 408.093 339.387 L 414.186 333.294 409.110 328.297 C 406.318 325.549, 403.801 323.533, 403.517 323.817 C 403.232 324.101, 403 323.808, 403 323.167 C 403 321.035, 401.457 321.949, 395.546 327.584 M 133.984 330.519 C 132.952 331.763, 133.055 332.403, 134.551 334.056 C 136.236 335.918, 136.452 335.943, 137.329 334.377 C 138.016 333.148, 137.830 332.349, 136.655 331.490 C 135.762 330.837, 135.324 330.009, 135.682 329.651 C 136.040 329.293, 136.088 329, 135.789 329 C 135.490 329, 134.678 329.683, 133.984 330.519 M 328 332.094 C 328 332.592, 327.152 333, 326.115 333 C 323.362 333, 317.842 335.509, 318.703 336.370 C 319.108 336.774, 318.665 336.809, 317.720 336.446 C 316.699 336.054, 316 336.260, 316 336.952 C 316 337.593, 315.581 337.859, 315.069 337.543 C 313.242 336.414, 313.188 338.598, 314.984 340.979 C 316.626 343.155, 316.999 343.254, 318.656 341.951 C 320.353 340.615, 320.389 340.641, 319.107 342.274 C 318.342 343.250, 318.021 344.354, 318.395 344.728 C 318.768 345.102, 322.027 342.455, 325.635 338.846 C 331.469 333.012, 331.964 332.224, 330.098 331.736 C 328.944 331.434, 328 331.595, 328 332.094 M 417 332.464 C 417 333.168, 429.319 345, 430.052 345 C 432.802 345, 435.199 337.573, 432.486 337.458 C 431.944 337.435, 430.024 336.629, 428.221 335.667 C 426.417 334.705, 424.435 334.231, 423.816 334.614 C 423.173 335.011, 422.967 334.863, 423.334 334.268 C 423.688 333.696, 422.970 332.957, 421.739 332.627 C 419.035 331.903, 417 331.833, 417 332.464 M 410.130 340.368 C 404.288 346.263, 403.918 346.896, 405.157 348.880 C 405.893 350.058, 407.290 351.275, 408.262 351.583 C 409.234 351.892, 409.791 352.529, 409.500 353 C 409.209 353.471, 409.884 354.146, 411 354.500 C 412.116 354.854, 412.769 355.565, 412.451 356.080 C 412.133 356.594, 413.039 356.484, 414.465 355.834 C 416.406 354.950, 416.736 354.422, 415.778 353.732 C 414.869 353.077, 415.009 352.975, 416.262 353.379 C 418.571 354.123, 422.958 352.204, 425.644 349.274 L 427.787 346.936 421.894 341.134 C 418.653 337.943, 416.301 335.032, 416.667 334.666 C 417.034 334.300, 417.133 334, 416.888 334 C 416.643 334, 413.602 336.866, 410.130 340.368 M 139.300 336.661 C 138.933 337.616, 139.362 338.792, 140.338 339.505 C 141.252 340.173, 142 341.047, 142 341.447 C 142 341.846, 143.436 344.173, 145.192 346.617 L 148.383 351.061 150.442 348.998 C 152.216 347.219, 152.293 346.803, 151 345.982 C 150.175 345.459, 149.853 345.024, 150.285 345.015 C 150.716 345.007, 149.397 343.538, 147.352 341.750 C 145.308 339.962, 143.284 338.607, 142.854 338.738 C 142.424 338.869, 142.307 338.364, 142.593 337.617 C 142.880 336.870, 142.397 335.983, 141.520 335.646 C 140.548 335.273, 139.680 335.670, 139.300 336.661 M 162.250 340.340 C 159.363 343.231, 157.003 346.250, 157.006 347.048 C 157.010 347.847, 159.461 350.879, 162.453 353.787 L 167.893 359.074 173.858 352.903 L 179.822 346.731 177.584 344.616 C 176.354 343.452, 173.581 340.831, 171.423 338.792 L 167.500 335.084 162.250 340.340 M 189.714 340.590 C 186.571 343.733, 184 346.616, 184 346.996 C 184 348.181, 192.329 356, 193.590 356 C 194.773 356, 196.466 353.199, 196.159 351.750 C 196.071 351.337, 196.498 351, 197.107 351 C 197.716 351, 197.957 350.330, 197.643 349.512 C 197.329 348.694, 197.508 348.131, 198.041 348.262 C 198.574 348.393, 199.837 347.150, 200.849 345.500 L 202.689 342.500 199.059 338.688 L 195.428 334.876 189.714 340.590 M 325.316 342.511 C 321.365 346.447, 318.758 349.667, 319.522 349.667 C 320.287 349.667, 320.680 349.292, 320.397 348.833 C 319.006 346.583, 322.443 348.419, 325.485 351.553 C 328.577 354.736, 329.172 354.979, 331.218 353.889 C 333.362 352.746, 333.410 352.784, 332 354.524 C 330.641 356.201, 330.664 356.313, 332.250 355.719 C 333.212 355.358, 334 355.457, 334 355.938 C 334 356.419, 334.900 356.577, 336 356.290 C 337.100 356.002, 338 355.368, 338 354.881 C 338 354.394, 339.671 352.419, 341.714 350.493 L 345.427 346.990 339.495 340.995 C 336.232 337.698, 333.324 335.080, 333.031 335.178 C 332.739 335.276, 329.267 338.576, 325.316 342.511 M 354.503 340.997 L 348.572 346.991 354.558 352.959 L 360.545 358.927 366.273 353.335 C 369.423 350.260, 371.993 347.463, 371.985 347.122 C 371.961 346.146, 370.804 344.844, 365.438 339.752 L 360.434 335.003 354.503 340.997 M 382.500 340.544 C 379.750 343.543, 377.301 346.234, 377.059 346.524 C 376.502 347.187, 387.117 358, 388.325 358 C 388.816 358, 391.717 355.541, 394.770 352.536 L 400.322 347.072 394.411 341.050 C 391.160 337.737, 388.275 335.041, 388 335.058 C 387.725 335.076, 385.250 337.544, 382.500 340.544 M 311 342.536 C 311 344.731, 312.851 348, 314.094 348 C 314.657 348, 314.800 347.438, 314.412 346.750 C 313.848 345.750, 313.976 345.750, 315.053 346.750 C 315.794 347.438, 316.746 348, 317.169 348 C 318.662 348, 316.865 345.277, 313.951 343.122 C 311.494 341.306, 311 341.207, 311 342.536 M 432.369 345.480 C 431.525 347.680, 432.453 348.364, 433.906 346.613 C 434.724 345.628, 434.766 344.974, 434.041 344.526 C 433.461 344.167, 432.708 344.596, 432.369 345.480 M 151.722 351.011 C 149.564 353.532, 149.567 353.584, 152.068 357.096 C 153.206 358.693, 153.871 360, 153.548 360 C 152.647 360, 156.809 367.764, 158.156 368.596 C 158.966 369.097, 159.132 368.786, 158.681 367.612 C 158.319 366.668, 158.396 366.127, 158.853 366.409 C 159.310 366.691, 161.101 365.459, 162.834 363.672 L 165.984 360.421 160.319 354.711 C 157.203 351.570, 154.382 349, 154.049 349 C 153.717 349, 152.669 349.905, 151.722 351.011 M 178.464 351.956 C 176.834 353.457, 174.171 356.113, 172.546 357.860 L 169.592 361.036 175.297 366.518 C 178.435 369.533, 181.373 372, 181.827 372 C 183.235 372, 187.059 367.393, 186.290 366.623 C 185.889 366.222, 186.321 366.186, 187.251 366.543 C 188.507 367.025, 189.376 366.280, 190.632 363.646 L 192.323 360.100 188.911 356.251 C 187.035 354.134, 184.584 351.688, 183.464 350.816 C 181.561 349.333, 181.232 349.408, 178.464 351.956 M 341.835 353.436 C 339.289 355.876, 337.026 357.789, 336.805 357.686 C 336.585 357.584, 338.209 359.137, 340.415 361.137 C 344.289 364.650, 347.449 365.334, 346.330 362.417 C 346.031 361.638, 346.359 361, 347.060 361 C 347.760 361, 348.037 361.296, 347.675 361.658 C 347.313 362.020, 347.540 362.945, 348.178 363.714 C 348.816 364.484, 348.925 365.034, 348.419 364.938 C 346.308 364.536, 346.116 365.113, 347.732 367 C 348.674 368.100, 349.788 369, 350.209 369 C 351.195 369, 357.937 361.763, 357.973 360.666 C 358.004 359.718, 347.981 349, 347.064 349 C 346.734 349, 344.382 350.996, 341.835 353.436 M 370.614 352.269 C 369.027 354.046, 366.587 356.731, 365.191 358.236 L 362.652 360.972 368.699 367.019 L 374.745 373.065 380.677 366.928 L 386.609 360.790 380.469 354.895 C 377.093 351.653, 374.143 349.009, 373.915 349.019 C 373.687 349.029, 372.201 350.492, 370.614 352.269 M 395.772 354.750 C 391.074 359.519, 390.283 360.808, 391.134 362.305 C 391.916 363.679, 392.482 363.845, 393.502 362.998 C 394.568 362.113, 394.730 362.315, 394.294 363.985 C 393.992 365.140, 394.139 366.013, 394.622 365.924 C 396.868 365.512, 398.064 366.090, 397.367 367.250 C 396.888 368.048, 397.319 367.975, 398.558 367.047 C 402.863 363.827, 404.912 361.666, 404.417 360.866 C 404.131 360.402, 404.482 360.235, 405.198 360.494 C 405.914 360.753, 407.557 360.149, 408.850 359.153 L 411.200 357.341 406.850 353.181 C 404.457 350.893, 402.261 349.017, 401.969 349.011 C 401.676 349.005, 398.888 351.587, 395.772 354.750 M 162.975 367.365 L 158.451 371.684 160.487 376.750 C 161.607 379.536, 163.418 382.823, 164.512 384.054 C 165.936 385.658, 166.144 386.417, 165.244 386.732 C 164.553 386.973, 164.236 387.573, 164.540 388.064 C 164.843 388.555, 168.462 385.733, 172.580 381.793 L 180.069 374.628 174.316 368.814 C 171.152 365.616, 168.324 363.010, 168.031 363.023 C 167.739 363.036, 165.464 364.990, 162.975 367.365 M 357.589 366.077 C 356.165 367.769, 355 368.794, 355 368.354 C 355 367.915, 354.305 368.547, 353.455 369.760 C 352.009 371.826, 352.120 372.256, 355.205 376.542 C 358.124 380.597, 362.740 386.212, 362.357 385.243 C 362.278 385.043, 364.416 382.821, 367.107 380.303 C 369.798 377.786, 372 375.300, 372 374.779 C 372 373.647, 361.985 363, 360.920 363 C 360.512 363, 359.013 364.385, 357.589 366.077 M 382.216 368.281 C 379.347 371.186, 377 373.926, 377 374.370 C 377 375.915, 384.337 382.910, 385.320 382.302 C 385.874 381.960, 385.995 382.199, 385.595 382.845 C 385.203 383.480, 385.246 383.997, 385.691 383.994 C 386.136 383.990, 387.279 382.619, 388.230 380.947 C 389.216 379.214, 389.431 378.232, 388.730 378.664 C 388.054 379.081, 389.188 377.683, 391.250 375.558 C 393.313 373.432, 395 371.176, 395 370.543 C 395 369.450, 388.945 363, 387.918 363 C 387.651 363, 385.085 365.377, 382.216 368.281 M 185.199 372.613 C 184.483 373.390, 184.220 374.546, 184.613 375.184 C 185.076 375.933, 185.632 375.523, 186.186 374.026 C 187.233 371.196, 186.919 370.747, 185.199 372.613 M 175.478 382.566 C 172.465 385.628, 170 388.360, 170 388.638 C 170 388.916, 170.635 389.778, 171.411 390.554 C 172.187 391.329, 173.028 392.535, 173.280 393.232 C 173.643 394.235, 174.236 394.205, 176.119 393.089 C 178.189 391.863, 178.344 391.867, 177.307 393.123 C 176.651 393.917, 176.466 395.136, 176.896 395.831 C 177.869 397.407, 184.128 380.496, 183.335 378.431 C 182.436 376.087, 181.230 376.721, 175.478 382.566 M 369.282 381.032 C 362.459 387.471, 362.437 387.782, 368.348 394.287 C 371.203 397.429, 373.980 399.988, 374.520 399.972 C 376.137 399.926, 380.617 394.773, 382.794 390.452 L 384.834 386.405 380.103 381.702 C 377.501 379.116, 374.951 377.011, 374.436 377.025 C 373.921 377.039, 371.602 378.842, 369.282 381.032 M 166 391.800 C 166 392.240, 166.563 393.206, 167.250 393.947 C 168.257 395.032, 168.238 395.145, 167.150 394.526 C 166.061 393.907, 166.018 394.165, 166.929 395.868 C 168.141 398.132, 172.061 399.574, 174.481 398.646 C 176.157 398.002, 175.444 395, 173.615 395 C 172.971 395, 171.674 394.100, 170.732 393 C 169.039 391.023, 166 390.252, 166 391.800 M 366.606 396.829 C 365.594 398.466, 367.729 402.785, 370.202 404.103 C 372.301 405.221, 372.379 405.181, 371.109 403.641 C 369.876 402.147, 369.933 402.032, 371.609 402.637 C 373.196 403.211, 373.101 402.853, 371.015 400.410 C 369.648 398.810, 368.237 397.123, 367.878 396.663 C 367.519 396.202, 366.947 396.277, 366.606 396.829" stroke="none" fill="#000000" fill-rule="evenodd"/></svg>