<svg xmlns="http://www.w3.org/2000/svg" width="1920" height="1080" viewBox="0 0 1920 1080" version="1.1"><path d="M 938.500 88.615 C 897.515 95.966, 862.444 122.849, 844.912 160.351 L 840.537 169.711 723.518 170.355 C 659.158 170.708, 492.200 171.229, 352.500 171.513 C 212.800 171.796, 76.338 172.300, 49.250 172.633 L 0 173.237 0 218.784 L 0 264.331 288.250 263.665 C 446.788 263.298, 636.125 262.716, 709 262.371 L 841.500 261.743 845.640 270.621 C 851.648 283.505, 859.205 294.178, 870 305.031 C 881.073 316.163, 889.603 322.434, 902.836 329.171 C 939.168 347.669, 982.832 347.669, 1019.164 329.171 C 1032.397 322.434, 1040.927 316.163, 1052 305.031 C 1062.711 294.264, 1070.153 283.778, 1076.562 270.424 L 1080.931 261.321 1254.215 260.662 C 1349.522 260.299, 1538.272 259.705, 1673.659 259.341 L 1919.819 258.679 1920.273 261.090 C 1920.992 264.904, 1921.052 174.945, 1920.333 170.593 L 1919.687 166.686 1657.594 167.348 C 1513.442 167.712, 1324.724 168.061, 1238.221 168.123 L 1080.942 168.236 1076.425 158.954 C 1070.171 146.105, 1063.938 137.121, 1054.082 126.747 C 1034.725 106.372, 1010.297 93.310, 982.619 88.533 C 971.563 86.625, 949.364 86.666, 938.500 88.615 M 941 116.886 C 916.196 122.337, 893.178 137.442, 880.058 156.877 C 874.886 164.538, 867.576 179.726, 865.978 186.132 L 864.822 190.764 810.661 191.371 C 780.872 191.704, 602.150 192.434, 413.500 192.993 C 224.850 193.552, 57.788 194.284, 42.250 194.619 L 14 195.228 14 219.042 L 14 242.856 29.250 243.207 C 37.638 243.400, 197.950 243, 385.500 242.318 C 573.050 241.636, 757.911 241.060, 796.302 241.039 L 866.104 241 867.156 244.019 C 869.220 249.939, 876.003 263.115, 880.149 269.257 C 889.682 283.380, 907.818 297.688, 924.247 304.047 C 937.956 309.352, 949.461 311.278, 964 310.698 C 979.176 310.093, 988.901 307.722, 1001.944 301.444 C 1027.398 289.193, 1044.793 269.395, 1054.279 241.880 C 1054.926 240.002, 1099.344 239.681, 1593 237.985 C 1748.375 237.451, 1880.112 236.743, 1885.750 236.411 L 1896 235.808 1896 211.904 L 1896 188 1812.750 187.992 C 1738.864 187.986, 1298.785 189.451, 1122.264 190.291 L 1056.028 190.607 1054.420 185.053 C 1048.821 165.705, 1034.504 145.597, 1017.883 133.736 C 1009.225 127.558, 994.348 120.499, 984.500 117.897 C 972.945 114.843, 952.462 114.367, 941 116.886 M 0.461 218.500 C 0.461 243.800, 0.591 254.007, 0.749 241.181 C 0.908 228.356, 0.907 207.656, 0.749 195.181 C 0.590 182.707, 0.461 193.200, 0.461 218.500" stroke="none" fill="#5daec8" fill-rule="evenodd"/></svg>