<svg xmlns="http://www.w3.org/2000/svg" width="512" height="511" viewBox="0 0 512 511" version="1.1"><path d="M 237.500 72.033 C 224.312 73.537, 213.231 76.005, 199.366 80.528 C 151.531 96.132, 111.502 131.160, 89.991 176.241 C 85.215 186.249, 77.044 208.858, 77.015 212.146 C 77.001 213.635, 79.907 213.806, 107.476 213.942 C 134.536 214.075, 138.570 214.304, 143.459 215.986 C 153.234 219.349, 162.534 227.246, 166.977 235.955 L 169.041 240 177.270 239.991 L 185.500 239.981 187.715 232.741 C 190.847 222.502, 196.317 213.696, 205 204.916 C 223.379 186.329, 249.154 179.062, 273.926 185.481 C 297.259 191.527, 317.483 210.507, 324.285 232.741 L 326.500 239.981 335.730 239.991 L 344.959 240 347.023 235.955 C 351.466 227.246, 360.766 219.349, 370.541 215.986 C 375.430 214.304, 379.464 214.075, 406.524 213.942 C 442.294 213.766, 439.076 215.756, 432.962 197.587 C 411.207 132.931, 356.110 85.594, 289 73.900 C 275.751 71.591, 249.668 70.646, 237.500 72.033 M 247.594 213.057 C 236.833 214.860, 224.175 223.751, 218.490 233.500 C 211.887 244.823, 211.194 261.407, 216.822 273.432 C 220.936 282.225, 228.607 290.189, 236.890 294.266 C 243.235 297.390, 243.884 297.500, 256 297.500 C 268.116 297.500, 268.765 297.390, 275.110 294.266 C 283.420 290.176, 291.043 282.243, 295.299 273.259 C 298.297 266.929, 298.500 265.802, 298.500 255.500 C 298.500 245.198, 298.297 244.071, 295.299 237.741 C 288.955 224.349, 276.681 214.957, 262.925 212.969 C 255.616 211.912, 254.385 211.920, 247.594 213.057 M 74 256.154 L 74 261.307 115.729 260.586 C 142.464 260.124, 157.915 259.486, 158.729 258.810 C 160.335 257.477, 160.374 253.774, 158.800 252.200 C 157.905 251.305, 146.978 251, 115.800 251 L 74 251 74 256.154 M 355.200 252.200 C 353.626 253.774, 353.665 257.477, 355.271 258.810 C 356.085 259.486, 371.536 260.124, 398.271 260.586 L 440 261.307 440 256.154 L 440 251 398.200 251 C 367.022 251, 356.095 251.305, 355.200 252.200 M 167.204 274.517 C 164.412 280.263, 158.168 287.051, 152.173 290.857 C 143.184 296.564, 139.824 297, 104.882 297 L 73.127 297 75.124 304.204 C 96.291 380.588, 163.512 435.150, 242.250 439.859 C 328.864 445.039, 404.332 394.704, 431.581 313.580 C 433.997 306.386, 435.980 299.712, 435.987 298.750 C 435.999 297.123, 433.942 297, 406.682 297 C 374.399 297, 370.707 296.494, 361.827 290.857 C 355.820 287.044, 349.586 280.260, 346.780 274.484 L 344.569 269.933 335.254 270.216 L 325.939 270.500 323.161 278.529 C 314.891 302.432, 294.518 320.179, 269.186 325.548 C 235.552 332.677, 199.969 311.598, 188.328 277.651 L 185.704 270 177.551 270 L 169.399 270 167.204 274.517" stroke="none" fill="#fb1b1b" fill-rule="evenodd"/><path d="M 235.500 36.056 C 159.823 43.468, 93.855 88.444, 59.572 156 C 56.083 162.875, 51.577 172.936, 49.558 178.357 C 45.581 189.035, 39 213.516, 39 217.629 C 39 219.399, 40.747 221.898, 44.750 225.854 C 59.356 240.286, 61.781 261.724, 50.678 278.255 C 48.380 281.677, 45.470 284.982, 44.212 285.599 C 40.996 287.178, 39.069 290.030, 39.032 293.266 C 38.977 298.003, 45.821 322.695, 50.518 334.707 C 89.691 434.893, 194.020 492.286, 299 471.400 C 356.329 459.994, 407.535 425.505, 439.963 376.455 C 452.252 357.866, 462.828 334.586, 468.507 313.625 C 469.978 308.193, 472.039 302.343, 473.087 300.625 C 476.444 295.119, 474.971 288.147, 469.928 285.669 C 465.604 283.544, 459.324 272.844, 457.445 264.398 C 456.009 257.944, 455.925 255.677, 456.903 249.757 C 458.431 240.503, 462.341 232.733, 468.656 226.401 L 473.812 221.232 472.440 214.034 C 458.619 141.499, 407.791 79.416, 339.500 51.658 C 306.489 38.240, 269.640 32.712, 235.500 36.056 M 237.500 72.033 C 224.312 73.537, 213.231 76.005, 199.366 80.528 C 151.531 96.132, 111.502 131.160, 89.991 176.241 C 85.215 186.249, 77.044 208.858, 77.015 212.146 C 77.001 213.635, 79.907 213.806, 107.476 213.942 C 134.536 214.075, 138.570 214.304, 143.459 215.986 C 153.234 219.349, 162.534 227.246, 166.977 235.955 L 169.041 240 177.270 239.991 L 185.500 239.981 187.715 232.741 C 190.847 222.502, 196.317 213.696, 205 204.916 C 223.379 186.329, 249.154 179.062, 273.926 185.481 C 297.259 191.527, 317.483 210.507, 324.285 232.741 L 326.500 239.981 335.730 239.991 L 344.959 240 347.023 235.955 C 351.466 227.246, 360.766 219.349, 370.541 215.986 C 375.430 214.304, 379.464 214.075, 406.524 213.942 C 442.294 213.766, 439.076 215.756, 432.962 197.587 C 411.207 132.931, 356.110 85.594, 289 73.900 C 275.751 71.591, 249.668 70.646, 237.500 72.033 M 247.594 213.057 C 236.833 214.860, 224.175 223.751, 218.490 233.500 C 211.887 244.823, 211.194 261.407, 216.822 273.432 C 220.936 282.225, 228.607 290.189, 236.890 294.266 C 243.235 297.390, 243.884 297.500, 256 297.500 C 268.116 297.500, 268.765 297.390, 275.110 294.266 C 283.420 290.176, 291.043 282.243, 295.299 273.259 C 298.297 266.929, 298.500 265.802, 298.500 255.500 C 298.500 245.198, 298.297 244.071, 295.299 237.741 C 288.955 224.349, 276.681 214.957, 262.925 212.969 C 255.616 211.912, 254.385 211.920, 247.594 213.057 M 74 256.154 L 74 261.307 115.729 260.586 C 142.464 260.124, 157.915 259.486, 158.729 258.810 C 160.335 257.477, 160.374 253.774, 158.800 252.200 C 157.905 251.305, 146.978 251, 115.800 251 L 74 251 74 256.154 M 355.200 252.200 C 353.626 253.774, 353.665 257.477, 355.271 258.810 C 356.085 259.486, 371.536 260.124, 398.271 260.586 L 440 261.307 440 256.154 L 440 251 398.200 251 C 367.022 251, 356.095 251.305, 355.200 252.200 M 167.204 274.517 C 164.412 280.263, 158.168 287.051, 152.173 290.857 C 143.184 296.564, 139.824 297, 104.882 297 L 73.127 297 75.124 304.204 C 96.291 380.588, 163.512 435.150, 242.250 439.859 C 328.864 445.039, 404.332 394.704, 431.581 313.580 C 433.997 306.386, 435.980 299.712, 435.987 298.750 C 435.999 297.123, 433.942 297, 406.682 297 C 374.399 297, 370.707 296.494, 361.827 290.857 C 355.820 287.044, 349.586 280.260, 346.780 274.484 L 344.569 269.933 335.254 270.216 L 325.939 270.500 323.161 278.529 C 314.891 302.432, 294.518 320.179, 269.186 325.548 C 235.552 332.677, 199.969 311.598, 188.328 277.651 L 185.704 270 177.551 270 L 169.399 270 167.204 274.517" stroke="none" fill="#040404" fill-rule="evenodd"/></svg>