<svg xmlns="http://www.w3.org/2000/svg" width="512" height="511" viewBox="0 0 512 511" version="1.1"><path d="M 246 69.627 C 234.059 70.371, 221.576 72.262, 210.797 74.960 C 196.920 78.432, 181.800 83.868, 182.567 85.109 C 183.716 86.967, 190.929 89.928, 209 95.959 C 223.194 100.696, 230.168 102.466, 238.962 103.566 C 262.964 106.568, 278.610 104.766, 305 95.959 C 323.122 89.911, 330.284 86.968, 331.444 85.091 C 332.195 83.876, 318.754 78.709, 306.686 75.574 C 289.729 71.168, 263.118 68.560, 246 69.627 M 233.863 130.013 C 181.498 138.255, 140.804 175.405, 128.497 226.203 C 124.623 242.196, 123.860 241, 137.933 241 C 151.142 241, 150.137 241.554, 151.500 233.524 C 152.773 226.026, 157.210 213.495, 161.599 205 C 175.460 178.175, 200.503 158.306, 230.500 150.335 C 239.400 147.970, 242.315 147.677, 257 147.677 C 271.685 147.677, 274.600 147.970, 283.500 150.335 C 313.497 158.306, 338.540 178.175, 352.401 205 C 356.790 213.495, 361.227 226.026, 362.500 233.524 C 363.863 241.554, 362.858 241, 376.067 241 C 390.140 241, 389.377 242.196, 385.503 226.203 C 374.161 179.388, 339.180 144.367, 291.797 132.389 C 282.652 130.077, 279.151 129.749, 260.500 129.456 C 248.950 129.274, 236.963 129.525, 233.863 130.013 M 82.180 188.250 C 76.609 203.142, 72.244 221.358, 71.277 233.750 L 70.711 241 87.856 241 C 100.147 241, 105 240.673, 105 239.846 C 105 233.902, 86.943 183.042, 84.822 183.010 C 84.449 183.005, 83.260 185.363, 82.180 188.250 M 424.873 191.761 C 418.438 207.265, 409 235.829, 409 239.801 C 409 240.561, 414.542 241.004, 426.570 241.205 L 444.141 241.500 443.473 235.500 C 441.327 216.210, 432.807 184.410, 429.500 183.344 C 428.950 183.167, 426.868 186.955, 424.873 191.761 M 69.567 275.250 C 71.349 288.069, 73.190 297.444, 75.468 305.300 C 78.791 316.757, 83.236 328.253, 84.500 328.658 C 86.716 329.367, 105 278.971, 105 272.154 C 105 271.325, 99.935 271, 86.988 271 L 68.976 271 69.567 275.250 M 126.001 273.250 C 126.004 277.694, 131.062 296.263, 134.594 304.797 C 150.224 342.554, 181.779 369.392, 222.726 379.753 C 232.943 382.339, 234.714 382.480, 257 382.480 C 279.286 382.480, 281.057 382.339, 291.274 379.753 C 339.210 367.623, 374.109 332.825, 385.503 285.797 C 389.377 269.804, 390.140 271, 376.067 271 C 362.858 271, 363.863 270.446, 362.500 278.476 C 361.227 285.974, 356.790 298.505, 352.401 307 C 338.540 333.825, 313.497 353.694, 283.500 361.665 C 274.600 364.030, 271.685 364.323, 257 364.323 C 242.315 364.323, 239.400 364.030, 230.500 361.665 C 200.503 353.694, 175.460 333.825, 161.599 307 C 157.210 298.505, 152.773 285.974, 151.500 278.476 C 150.137 270.446, 151.142 271, 137.933 271 C 126.224 271, 126 271.042, 126.001 273.250 M 409 272.154 C 409 277.568, 425.546 325, 427.435 325 C 427.687 325, 429.698 319.456, 431.903 312.679 C 435.840 300.577, 440 280.873, 440 274.325 L 440 271 424.500 271 C 413.452 271, 409 271.332, 409 272.154 M 237.500 408.535 C 224.523 410.236, 183 423.898, 183 426.467 C 183 427.495, 208.498 435.040, 218.500 436.972 C 241.338 441.383, 270.222 441.233, 293.183 436.584 C 303.942 434.405, 323.567 428.436, 327.921 426.018 C 330.074 424.822, 325.972 423.037, 305 416.040 C 278.671 407.255, 261.683 405.367, 237.500 408.535" stroke="none" fill="#59932a" fill-rule="evenodd"/><path d="M 246 69.627 C 234.059 70.371, 221.576 72.262, 210.797 74.960 C 196.920 78.432, 181.800 83.868, 182.567 85.109 C 183.716 86.967, 190.929 89.928, 209 95.959 C 223.194 100.696, 230.168 102.466, 238.962 103.566 C 262.964 106.568, 278.610 104.766, 305 95.959 C 323.122 89.911, 330.284 86.968, 331.444 85.091 C 332.195 83.876, 318.754 78.709, 306.686 75.574 C 289.729 71.168, 263.118 68.560, 246 69.627 M 233.863 130.013 C 181.498 138.255, 140.804 175.405, 128.497 226.203 C 124.623 242.196, 123.860 241, 137.933 241 C 151.142 241, 150.137 241.554, 151.500 233.524 C 152.773 226.026, 157.210 213.495, 161.599 205 C 175.460 178.175, 200.503 158.306, 230.500 150.335 C 239.400 147.970, 242.315 147.677, 257 147.677 C 271.685 147.677, 274.600 147.970, 283.500 150.335 C 313.497 158.306, 338.540 178.175, 352.401 205 C 356.790 213.495, 361.227 226.026, 362.500 233.524 C 363.863 241.554, 362.858 241, 376.067 241 C 390.140 241, 389.377 242.196, 385.503 226.203 C 374.161 179.388, 339.180 144.367, 291.797 132.389 C 282.652 130.077, 279.151 129.749, 260.500 129.456 C 248.950 129.274, 236.963 129.525, 233.863 130.013 M 82.180 188.250 C 76.609 203.142, 72.244 221.358, 71.277 233.750 L 70.711 241 87.856 241 C 100.147 241, 105 240.673, 105 239.846 C 105 233.902, 86.943 183.042, 84.822 183.010 C 84.449 183.005, 83.260 185.363, 82.180 188.250 M 424.873 191.761 C 418.438 207.265, 409 235.829, 409 239.801 C 409 240.561, 414.542 241.004, 426.570 241.205 L 444.141 241.500 443.473 235.500 C 441.327 216.210, 432.807 184.410, 429.500 183.344 C 428.950 183.167, 426.868 186.955, 424.873 191.761 M 69.567 275.250 C 71.349 288.069, 73.190 297.444, 75.468 305.300 C 78.791 316.757, 83.236 328.253, 84.500 328.658 C 86.716 329.367, 105 278.971, 105 272.154 C 105 271.325, 99.935 271, 86.988 271 L 68.976 271 69.567 275.250 M 126.001 273.250 C 126.004 277.694, 131.062 296.263, 134.594 304.797 C 150.224 342.554, 181.779 369.392, 222.726 379.753 C 232.943 382.339, 234.714 382.480, 257 382.480 C 279.286 382.480, 281.057 382.339, 291.274 379.753 C 339.210 367.623, 374.109 332.825, 385.503 285.797 C 389.377 269.804, 390.140 271, 376.067 271 C 362.858 271, 363.863 270.446, 362.500 278.476 C 361.227 285.974, 356.790 298.505, 352.401 307 C 338.540 333.825, 313.497 353.694, 283.500 361.665 C 274.600 364.030, 271.685 364.323, 257 364.323 C 242.315 364.323, 239.400 364.030, 230.500 361.665 C 200.503 353.694, 175.460 333.825, 161.599 307 C 157.210 298.505, 152.773 285.974, 151.500 278.476 C 150.137 270.446, 151.142 271, 137.933 271 C 126.224 271, 126 271.042, 126.001 273.250 M 409 272.154 C 409 277.568, 425.546 325, 427.435 325 C 427.687 325, 429.698 319.456, 431.903 312.679 C 435.840 300.577, 440 280.873, 440 274.325 L 440 271 424.500 271 C 413.452 271, 409 271.332, 409 272.154 M 237.500 408.535 C 224.523 410.236, 183 423.898, 183 426.467 C 183 427.495, 208.498 435.040, 218.500 436.972 C 241.338 441.383, 270.222 441.233, 293.183 436.584 C 303.942 434.405, 323.567 428.436, 327.921 426.018 C 330.074 424.822, 325.972 423.037, 305 416.040 C 278.671 407.255, 261.683 405.367, 237.500 408.535" stroke="none" fill="#59932a" fill-rule="evenodd"/><path d="M 241.500 148.038 C 205.962 153.574, 175.144 176.350, 159.967 208.294 C 156.155 216.318, 151.852 229.765, 150.702 237.250 L 150.126 241 167.928 241 L 185.730 241 187.965 234.250 C 194.377 214.879, 206.878 200.635, 225.500 191.480 C 245.597 181.601, 266.160 181.606, 286.500 191.497 C 304.890 200.439, 317.635 214.956, 324.032 234.250 L 326.270 241 345.072 241 L 363.874 241 363.298 237.250 C 361.076 222.791, 352.135 201.858, 343.074 189.907 C 328.705 170.953, 306.697 156.370, 283.500 150.433 C 272.243 147.551, 252.026 146.399, 241.500 148.038 M 150.702 274.750 C 152.924 289.209, 161.865 310.142, 170.926 322.093 C 185.237 340.970, 206.985 355.416, 230.500 361.665 C 239.400 364.030, 242.315 364.323, 257 364.323 C 271.685 364.323, 274.600 364.030, 283.500 361.665 C 307.015 355.416, 328.763 340.970, 343.074 322.093 C 352.141 310.134, 361.076 289.212, 363.302 274.728 L 363.881 270.956 345.411 271.228 L 326.942 271.500 324.162 279.529 C 317.414 299.024, 302.285 314.866, 282.965 322.670 C 244.511 338.202, 200.858 318.110, 187.328 278.651 L 184.704 271 167.415 271 L 150.126 271 150.702 274.750" stroke="none" fill="#629d33" fill-rule="evenodd"/><path d="M 242.287 214.812 C 221.328 222.274, 209.101 244.231, 214.396 264.899 C 219.532 284.949, 235.936 298, 256 298 C 277.328 298, 294.544 283.360, 298.185 262.127 C 301.302 243.948, 291.471 225.280, 274.338 216.845 C 268.290 213.868, 266.607 213.507, 257.558 213.246 C 249.741 213.020, 246.338 213.369, 242.287 214.812 M 444.349 260 C 444.349 264.675, 444.522 266.587, 444.732 264.250 C 444.943 261.913, 444.943 258.087, 444.732 255.750 C 444.522 253.412, 444.349 255.325, 444.349 260 M 69.252 256.500 C 69.263 258.700, 69.468 259.482, 69.707 258.238 C 69.946 256.994, 69.937 255.194, 69.687 254.238 C 69.437 253.282, 69.241 254.300, 69.252 256.500" stroke="none" fill="#d76b00" fill-rule="evenodd"/><path d="M 241.500 185.604 C 232.470 187.462, 218.170 194.525, 210.339 200.994 C 200.180 209.388, 192.338 221.039, 187.973 234.226 L 185.746 240.952 128.923 241.226 C 90.080 241.413, 71.759 241.840, 71.025 242.575 C 70.408 243.192, 69.816 249.082, 69.635 256.411 C 69.322 269.095, 69.335 269.177, 71.725 270.086 C 73.073 270.598, 98.431 271, 129.417 271 L 184.704 271 187.328 278.651 C 200.858 318.110, 244.511 338.202, 282.965 322.670 C 302.285 314.867, 317.412 299.026, 324.163 279.529 L 326.943 271.500 383.441 271.242 C 435.988 271.002, 440.001 270.862, 440.827 269.242 C 442.064 266.817, 444.468 243.135, 443.569 242.235 C 443.165 241.831, 416.603 241.374, 384.542 241.219 L 326.249 240.939 324.021 234.219 C 317.636 214.958, 304.879 200.434, 286.500 191.497 C 271.833 184.365, 256.974 182.419, 241.500 185.604 M 242.287 214.812 C 221.328 222.274, 209.101 244.231, 214.396 264.899 C 219.532 284.949, 235.936 298, 256 298 C 277.328 298, 294.544 283.360, 298.185 262.127 C 301.302 243.948, 291.471 225.280, 274.338 216.845 C 268.290 213.868, 266.607 213.507, 257.558 213.246 C 249.741 213.020, 246.338 213.369, 242.287 214.812" stroke="none" fill="#ff7f00" fill-rule="evenodd"/><path d="M 331.481 85.030 C 330.283 86.970, 323.297 89.852, 305 95.959 C 268.663 108.085, 245.393 108.089, 209 95.974 C 198.825 92.587, 188.361 88.660, 185.746 87.247 L 180.991 84.677 172.746 88.777 C 137.264 106.417, 107.400 136.260, 89.515 171.950 L 84.779 181.400 87.966 188.950 C 92.254 199.110, 100 219.837, 100 221.152 C 100 221.735, 101.152 225.988, 102.561 230.605 L 105.121 239 115.061 239 C 122.308 239, 125.019 239.339, 125.071 240.250 C 125.110 240.938, 126.038 237.225, 127.133 232 C 132.552 206.138, 143.815 184.668, 161.262 166.942 C 178.251 149.682, 198.096 138.479, 222.726 132.247 C 232.943 129.661, 234.714 129.520, 257 129.520 C 279.286 129.520, 281.057 129.661, 291.274 132.247 C 341.255 144.894, 376.271 181.434, 386.867 232 C 387.962 237.225, 388.890 240.938, 388.929 240.250 C 388.981 239.339, 391.692 239, 398.939 239 L 408.879 239 411.439 230.605 C 412.848 225.988, 414 221.735, 414 221.152 C 414 218.374, 427.675 184.014, 429.209 182.938 C 430.197 182.245, 422.700 166.673, 416.900 157.373 C 402.669 134.553, 383.045 114.372, 360.932 99.815 C 349.996 92.617, 332.287 83.726, 331.481 85.030 M 125.071 271.750 C 125.019 272.661, 122.308 273, 115.061 273 L 105.121 273 102.561 281.395 C 101.152 286.012, 100 290.265, 100 290.848 C 100 293.809, 86.294 328.017, 84.655 329.146 C 83.418 329.999, 93.558 349.064, 101.020 359.915 C 118.733 385.673, 143.597 407.233, 171.770 421.264 L 182.039 426.379 186.443 424.240 C 188.865 423.063, 199.094 419.348, 209.173 415.984 C 245.274 403.935, 268.722 403.934, 304.809 415.978 C 314.879 419.339, 324.613 422.802, 326.440 423.673 C 329.608 425.184, 330.019 425.138, 335.403 422.673 C 344.931 418.311, 359.064 409.571, 368.968 401.918 C 391.506 384.499, 409.126 362.915, 422.038 336.912 L 427.295 326.324 422.743 314.912 C 417.831 302.598, 415.377 295.413, 411.416 281.750 L 408.879 273 398.939 273 C 391.692 273, 388.981 272.661, 388.929 271.750 C 388.890 271.063, 387.962 274.775, 386.867 280 C 381.448 305.862, 370.185 327.332, 352.738 345.058 C 335.749 362.318, 315.904 373.521, 291.274 379.753 C 281.057 382.339, 279.286 382.480, 257 382.480 C 234.714 382.480, 232.943 382.339, 222.726 379.753 C 172.745 367.106, 137.729 330.566, 127.133 280 C 126.038 274.775, 125.110 271.063, 125.071 271.750" stroke="none" fill="#070c03" fill-rule="evenodd"/><path d="M 443.032 255.023 C 442.308 261.885, 441.335 268.247, 440.871 269.160 C 440.230 270.419, 440.445 270.758, 441.763 270.567 C 443.265 270.348, 443.600 268.566, 444.236 257.407 C 445.200 240.485, 444.676 239.447, 443.032 255.023" stroke="none" fill="#f17704" fill-rule="evenodd"/><path d="M 235.500 36.056 C 184.679 41.034, 137.472 63.070, 101.500 98.608 C 66.074 133.607, 43.688 178.832, 37.454 228 C 35.345 244.635, 35.874 276.204, 38.510 291 C 44.055 322.133, 55.198 350.813, 71.298 375.396 C 120.882 451.103, 210.692 488.969, 299 471.400 C 356.329 459.994, 407.535 425.505, 439.963 376.455 C 456.735 351.085, 467.682 323.132, 473.624 290.500 C 476.178 276.472, 476.214 235.052, 473.684 220.500 C 461.625 151.121, 420.422 93.708, 359 60.698 C 322.809 41.247, 276.611 32.029, 235.500 36.056 M 240.652 70.066 C 159.678 75.866, 90.666 136.653, 73.852 216.987 C 67.643 246.655, 67.689 274.474, 73.988 299.500 C 93.893 378.573, 161.579 435.035, 242.250 439.859 C 289.551 442.688, 333.030 429.692, 368.829 402.025 C 398.346 379.212, 420.448 347.888, 431.931 312.593 C 435.871 300.482, 440 280.845, 440 274.218 C 440 271.656, 440.362 270.925, 441.427 271.334 C 442.212 271.635, 443.292 271.345, 443.827 270.691 C 444.913 269.362, 445.823 244.071, 444.841 242.500 C 444.497 241.950, 443.686 237.225, 443.038 232 C 435.268 169.375, 396.502 115.362, 339.623 87.913 C 317.545 77.259, 296.909 71.859, 271.171 70.003 C 256.309 68.932, 256.502 68.931, 240.652 70.066 M 105.500 240 C 105.841 240.552, 110.344 241, 115.559 241 C 121.186 241, 125 240.596, 125 240 C 125 239.400, 120.980 239, 114.941 239 C 108.490 239, 105.104 239.359, 105.500 240 M 389 240 C 389 240.596, 392.814 241, 398.441 241 C 403.656 241, 408.159 240.552, 408.500 240 C 408.896 239.359, 405.510 239, 399.059 239 C 393.020 239, 389 239.400, 389 240 M 105.500 272 C 105.104 272.641, 108.490 273, 114.941 273 C 120.980 273, 125 272.600, 125 272 C 125 271.404, 121.186 271, 115.559 271 C 110.344 271, 105.841 271.448, 105.500 272 M 389 272 C 389 272.600, 393.020 273, 399.059 273 C 405.510 273, 408.896 272.641, 408.500 272 C 408.159 271.448, 403.656 271, 398.441 271 C 392.814 271, 389 271.404, 389 272" stroke="none" fill="#080807" fill-rule="evenodd"/></svg>