<svg xmlns="http://www.w3.org/2000/svg" width="512" height="511" viewBox="0 0 512 511" version="1.1"><path d="M 235.500 36.056 C 207.848 38.765, 183.226 45.872, 157.395 58.603 L 144.290 65.062 127.829 62.865 L 111.367 60.668 107.350 63.084 C 103.317 65.510, 100.082 68.018, 88.414 77.766 C 82.795 82.459, 73.962 92.111, 67.090 101.063 C 64.311 104.683, 64.248 106.338, 66.089 127.205 L 67.298 140.909 60.255 154.705 C 42.413 189.653, 35.211 221.731, 36.280 261.500 C 37.030 289.406, 41.208 310.897, 50.507 334.680 C 89.692 434.895, 194.006 492.288, 299 471.400 C 356.329 459.994, 407.535 425.505, 439.963 376.455 C 456.735 351.085, 467.682 323.132, 473.624 290.500 C 476.178 276.472, 476.214 235.052, 473.684 220.500 C 469.551 196.721, 462.688 176.139, 451.745 154.705 L 444.702 140.909 445.911 127.205 C 447.752 106.338, 447.689 104.683, 444.910 101.063 C 438.038 92.111, 429.205 82.459, 423.586 77.766 C 411.920 68.020, 408.684 65.510, 404.655 63.087 L 400.643 60.674 383.919 62.895 L 367.194 65.115 358.847 60.622 C 322.886 41.266, 276.543 32.036, 235.500 36.056 M 226.220 73.096 C 210 75.340, 191.560 80.568, 181.039 85.904 C 179.093 86.892, 174.899 89.005, 171.721 90.600 C 157.608 97.682, 154.007 99.982, 154.003 101.916 C 154.001 102.695, 164.006 115.745, 176.235 130.916 C 204.967 166.561, 205.723 168.500, 196.394 182.621 C 190.560 191.452, 184.706 196.713, 178.744 198.483 C 173.032 200.180, 162.417 200.489, 158.681 199.069 C 157.335 198.557, 144.629 187.757, 130.447 175.069 C 116.266 162.381, 104.389 152, 104.056 152 C 103.073 152, 91.612 171.895, 88.213 179.500 C 84.819 187.094, 79.254 202.926, 76.614 212.500 C 74.934 218.593, 71.678 239.011, 72.289 239.622 C 72.472 239.806, 97.653 240.160, 128.245 240.410 C 170.300 240.754, 184.104 240.576, 184.836 239.682 C 185.369 239.032, 186.721 235.698, 187.841 232.273 C 191.242 221.870, 196.801 213.115, 205.636 204.250 C 210.157 199.713, 214.331 196, 214.909 196 C 215.488 196, 218.332 194.492, 221.231 192.649 C 224.129 190.806, 229.650 188.219, 233.500 186.899 C 239.709 184.771, 242.252 184.500, 256 184.500 C 269.748 184.500, 272.291 184.771, 278.500 186.899 C 282.350 188.219, 287.871 190.806, 290.769 192.649 C 293.668 194.492, 296.512 196, 297.091 196 C 297.669 196, 301.842 199.713, 306.363 204.250 C 315.254 213.173, 321.315 222.924, 324.543 233.500 C 325.551 236.800, 326.698 239.725, 327.093 240 C 327.838 240.519, 367.559 240.622, 414.844 240.228 L 442.188 240 441.513 234.750 C 438.041 207.722, 427.559 178.272, 414.097 157.719 C 411.293 153.440, 409 149.531, 409 149.034 C 409 148.536, 414.221 143.491, 420.603 137.822 C 435.595 124.506, 438.749 118.418, 435.943 108.210 C 434.864 104.285, 432.886 101.743, 424.074 92.958 C 403.509 72.457, 398.323 70.105, 386.506 75.922 C 380.686 78.787, 379.019 80.383, 369.914 91.804 C 364.347 98.787, 350.052 116.561, 338.146 131.302 C 326.241 146.044, 315.713 159.544, 314.752 161.302 C 312.337 165.718, 312.536 172.353, 315.246 177.779 C 316.482 180.252, 320.419 185.323, 323.996 189.047 C 329.705 194.990, 331.148 195.951, 335.799 196.909 C 350.205 199.876, 350.782 199.567, 380.480 172.979 C 403.671 152.218, 408.866 148.032, 407.833 150.939 C 407.199 152.725, 355.758 198.142, 353.319 199.069 C 349.583 200.489, 338.968 200.180, 333.256 198.483 C 327.306 196.716, 321.441 191.453, 315.645 182.680 C 310.309 174.603, 309.515 171.180, 311.441 164.556 C 312.748 160.060, 316.726 154.571, 336.159 130.453 L 359.320 101.709 356.479 99.604 C 350.061 94.850, 328.561 84.438, 317 80.486 C 290.469 71.416, 257.661 68.745, 226.220 73.096 M 109.547 74.552 C 104.896 76.977, 98.314 82.605, 87.435 93.459 C 79.123 101.751, 77.143 104.320, 76.066 108.210 C 73.158 118.716, 76.350 124.544, 92.952 139.040 C 100.172 145.343, 117.578 160.728, 131.633 173.229 C 161.206 199.533, 161.836 199.867, 176.201 196.909 C 180.852 195.951, 182.295 194.990, 188.004 189.047 C 191.581 185.323, 195.518 180.252, 196.754 177.779 C 199.464 172.353, 199.663 165.718, 197.248 161.302 C 196.287 159.544, 185.759 146.044, 173.854 131.302 C 161.948 116.561, 147.662 98.798, 142.106 91.829 C 133.227 80.692, 131.259 78.786, 125.843 76.079 C 119.019 72.670, 114.050 72.204, 109.547 74.552 M 244.892 214.449 C 229.035 218.823, 216.328 233.089, 214.158 248.954 C 209.726 281.363, 240.778 306.409, 271.253 295.006 C 300.558 284.042, 307.619 244.957, 284.130 223.736 C 273.897 214.492, 258.206 210.778, 244.892 214.449 M 70.345 276.028 C 72.423 295.906, 78.948 317.386, 89.019 337.500 C 103.948 367.316, 125.009 390.961, 153.319 409.689 C 203.492 442.880, 269.064 449.101, 325.552 426.029 C 365.496 409.714, 399.922 377.993, 419.906 339.088 C 430.276 318.899, 436.226 299.354, 439.493 274.742 L 440.125 269.983 383.372 270.242 L 326.619 270.500 324.982 276 C 315.873 306.600, 288.062 327.270, 256 327.270 C 224.668 327.270, 198.155 308.328, 187.857 278.587 L 185.057 270.500 127.385 270.242 L 69.713 269.984 70.345 276.028" stroke="none" fill="#000000" fill-rule="evenodd"/><path d="M 247.045 214.030 C 234.895 216.582, 223.234 226.002, 217.769 237.681 C 211.385 251.322, 213.189 268.244, 222.353 280.693 C 231.550 293.186, 247.897 299.739, 263.024 296.996 C 276.672 294.521, 288.471 285.561, 294.307 273.241 C 297.235 267.058, 297.500 265.672, 297.500 256.500 C 297.500 244.707, 296.368 240.427, 291.089 232.259 C 282.059 218.288, 263.448 210.585, 247.045 214.030 M 70.562 276.242 C 79.197 347.939, 129.449 408.830, 198.143 430.835 C 243.143 445.250, 292.378 441.880, 334.839 421.480 C 389.018 395.451, 426.308 346.266, 437.451 286.140 C 438.303 281.541, 439 276.250, 439 274.381 L 439 270.983 382.876 271.242 L 326.752 271.500 324.548 278 C 317.266 299.477, 300.730 316.426, 280.037 323.622 C 264.360 329.074, 247.640 329.074, 231.963 323.622 C 221.334 319.925, 214.474 315.445, 204.984 306 C 195.964 297.023, 190.315 287.951, 186.928 277.002 L 185.226 271.500 127.577 271.242 L 69.929 270.984 70.562 276.242" stroke="none" fill="#ffffff" fill-rule="evenodd"/><path d="M 226.220 73.096 C 210 75.340, 191.560 80.568, 181.039 85.904 C 179.093 86.892, 174.899 89.005, 171.721 90.600 C 157.608 97.682, 154.007 99.982, 154.003 101.916 C 154.001 102.695, 164.006 115.745, 176.235 130.916 C 204.967 166.561, 205.723 168.500, 196.394 182.621 C 190.560 191.452, 184.706 196.713, 178.744 198.483 C 173.032 200.180, 162.417 200.489, 158.681 199.069 C 157.335 198.557, 144.629 187.757, 130.447 175.069 C 116.266 162.381, 104.389 152, 104.056 152 C 103.388 152, 91 172.309, 91 173.403 C 91 173.777, 89.603 177.072, 87.895 180.724 C 84.607 187.757, 79.368 202.514, 76.614 212.500 C 74.934 218.593, 71.678 239.011, 72.289 239.622 C 72.472 239.806, 97.653 240.160, 128.245 240.410 C 170.300 240.754, 184.104 240.576, 184.836 239.682 C 185.369 239.032, 186.721 235.698, 187.841 232.273 C 191.242 221.870, 196.801 213.115, 205.636 204.250 C 210.157 199.713, 214.331 196, 214.909 196 C 215.488 196, 218.332 194.492, 221.231 192.649 C 224.129 190.806, 229.650 188.219, 233.500 186.899 C 239.709 184.771, 242.252 184.500, 256 184.500 C 269.748 184.500, 272.291 184.771, 278.500 186.899 C 282.350 188.219, 287.871 190.806, 290.769 192.649 C 293.668 194.492, 296.512 196, 297.091 196 C 297.669 196, 301.842 199.713, 306.363 204.250 C 315.048 212.966, 321.142 222.660, 324.438 233 C 325.402 236.025, 326.616 239.018, 327.135 239.650 C 327.834 240.502, 342.783 240.689, 384.737 240.370 C 415.899 240.133, 441.482 239.840, 441.590 239.719 C 441.697 239.599, 441.177 235.149, 440.434 229.831 C 437.079 205.809, 428.021 180.827, 414.921 159.465 C 409.555 150.715, 407.092 147.752, 407.355 150.365 C 407.527 152.065, 356.878 197.716, 353.319 199.069 C 349.583 200.489, 338.968 200.180, 333.256 198.483 C 327.306 196.716, 321.441 191.453, 315.645 182.680 C 310.309 174.603, 309.515 171.180, 311.441 164.556 C 312.748 160.060, 316.726 154.571, 336.159 130.453 L 359.320 101.709 356.479 99.604 C 350.061 94.850, 328.561 84.438, 317 80.486 C 290.469 71.416, 257.661 68.745, 226.220 73.096 M 90 270.726 C 142.845 271.420, 185.767 271.431, 185.346 270.750 C 185.091 270.337, 158.921 270.103, 127.191 270.229 C 95.461 270.354, 78.725 270.578, 90 270.726 M 326.654 270.750 C 326.399 271.163, 351.538 271.380, 382.519 271.234 C 435.649 270.983, 438.873 271.068, 439.308 272.734 C 439.659 274.083, 439.795 273.968, 439.884 272.250 L 440 270 383.559 270 C 352.516 270, 326.909 270.337, 326.654 270.750 M 123.500 386 C 126.209 388.750, 128.650 391, 128.925 391 C 129.200 391, 127.209 388.750, 124.500 386 C 121.791 383.250, 119.350 381, 119.075 381 C 118.800 381, 120.791 383.250, 123.500 386" stroke="none" fill="#1e74fd" fill-rule="evenodd"/><path d="M 109.547 74.552 C 104.896 76.977, 98.314 82.605, 87.435 93.459 C 79.123 101.751, 77.143 104.320, 76.066 108.210 C 73.158 118.716, 76.350 124.544, 92.952 139.040 C 100.172 145.343, 117.578 160.728, 131.633 173.229 C 161.206 199.533, 161.836 199.867, 176.201 196.909 C 180.852 195.951, 182.295 194.990, 188.004 189.047 C 191.581 185.323, 195.518 180.252, 196.754 177.779 C 199.464 172.353, 199.663 165.718, 197.248 161.302 C 196.287 159.544, 185.759 146.044, 173.854 131.302 C 161.948 116.561, 147.662 98.798, 142.106 91.829 C 133.227 80.692, 131.259 78.786, 125.843 76.079 C 119.019 72.670, 114.050 72.204, 109.547 74.552 M 386.248 76.002 C 380.745 78.780, 378.784 80.677, 369.894 91.829 C 364.338 98.798, 350.052 116.561, 338.146 131.302 C 326.241 146.044, 315.713 159.544, 314.752 161.302 C 312.337 165.718, 312.536 172.353, 315.246 177.779 C 316.482 180.252, 320.419 185.323, 323.996 189.047 C 329.705 194.990, 331.148 195.951, 335.799 196.909 C 350.226 199.880, 350.710 199.619, 381.023 172.499 C 395.447 159.594, 407.642 149.279, 408.124 149.577 C 408.606 149.874, 409 149.671, 409 149.124 C 409 148.577, 414.221 143.491, 420.603 137.822 C 435.595 124.506, 438.749 118.418, 435.943 108.210 C 434.864 104.285, 432.886 101.743, 424.074 92.958 C 403.482 72.429, 398.102 70.017, 386.248 76.002" stroke="none" fill="#ff1c1c" fill-rule="evenodd"/></svg>