<svg xmlns="http://www.w3.org/2000/svg" width="512" height="511" viewBox="0 0 512 511" version="1.1"><path d="M 215.453 95.738 C 215.820 96.694, 224.273 112.106, 234.238 129.988 C 244.202 147.870, 253.288 164.184, 254.428 166.242 C 255.567 168.300, 256.725 169.984, 257 169.984 C 257.275 169.984, 258.433 168.300, 259.572 166.242 C 260.712 164.184, 269.798 147.870, 279.762 129.988 C 289.727 112.106, 298.180 96.694, 298.547 95.738 C 299.153 94.158, 298.296 94, 289.127 94 L 279.041 94 277.011 97.750 C 275.895 99.813, 273.073 104.480, 270.741 108.121 C 268.408 111.763, 264.484 117.950, 262.020 121.871 C 259.556 125.792, 257.297 129, 257 129 C 256.703 129, 254.444 125.792, 251.980 121.871 C 249.516 117.950, 245.592 111.763, 243.259 108.121 C 240.927 104.480, 238.105 99.813, 236.989 97.750 L 234.959 94 224.873 94 C 215.704 94, 214.847 94.158, 215.453 95.738 M 190.250 137.689 C 191.213 137.941, 192.787 137.941, 193.750 137.689 C 194.713 137.438, 193.925 137.232, 192 137.232 C 190.075 137.232, 189.287 137.438, 190.250 137.689 M 320.250 137.689 C 321.212 137.941, 322.788 137.941, 323.750 137.689 C 324.712 137.438, 323.925 137.232, 322 137.232 C 320.075 137.232, 319.288 137.438, 320.250 137.689 M 139.250 138.689 C 140.213 138.941, 141.787 138.941, 142.750 138.689 C 143.713 138.438, 142.925 138.232, 141 138.232 C 139.075 138.232, 138.287 138.438, 139.250 138.689 M 371.250 138.689 C 372.212 138.941, 373.788 138.941, 374.750 138.689 C 375.712 138.438, 374.925 138.232, 373 138.232 C 371.075 138.232, 370.288 138.438, 371.250 138.689 M 90 270.726 C 142.845 271.420, 185.767 271.431, 185.346 270.750 C 185.091 270.337, 158.921 270.103, 127.191 270.229 C 95.461 270.354, 78.725 270.578, 90 270.726 M 354.750 270.749 C 370.288 270.904, 395.713 270.904, 411.250 270.749 C 426.788 270.594, 414.075 270.468, 383 270.468 C 351.925 270.468, 339.213 270.594, 354.750 270.749" stroke="none" fill="#ff1c1c" fill-rule="evenodd"/><path d="M 247.045 214.092 C 235.074 216.439, 223.251 225.965, 217.769 237.681 C 211.385 251.322, 213.189 268.244, 222.353 280.693 C 231.550 293.186, 247.897 299.739, 263.024 296.996 C 276.672 294.521, 288.471 285.561, 294.307 273.241 C 297.297 266.929, 297.500 265.799, 297.500 255.478 C 297.500 244.948, 297.347 244.144, 294.071 237.478 C 285.290 219.607, 266.522 210.274, 247.045 214.092 M 70.562 276.242 C 79.196 347.932, 129.450 408.831, 198.129 430.830 C 251.905 448.056, 310.726 439.823, 357.500 408.522 C 390.938 386.146, 415.258 355.152, 429.315 317 C 433.236 306.359, 437.778 287.187, 438.688 277.435 L 439.289 271 382.895 271.009 L 326.500 271.019 324.285 278.259 C 321.170 288.442, 315.717 297.216, 307 306.069 C 287 326.381, 258.840 332.969, 231.963 323.622 C 221.334 319.925, 214.474 315.445, 204.984 306 C 195.964 297.023, 190.315 287.951, 186.928 277.002 L 185.226 271.500 127.577 271.242 L 69.929 270.984 70.562 276.242" stroke="none" fill="#ffffff" fill-rule="evenodd"/><path d="M 153.504 138.217 C 104.718 139.258, 110.758 137.568, 100.420 153.066 C 84.978 176.216, 73.242 208.768, 71.333 233.750 L 70.703 242 128.717 242 L 186.730 242 188.968 235.250 C 200.236 201.266, 234.962 179.824, 268.044 186.422 C 293.609 191.521, 314.902 210.451, 322.968 235.250 L 325.163 242 384.582 242 C 440.511 242, 443.999 241.897, 443.982 240.250 C 443.937 236.006, 440.882 217.369, 439.061 210.239 C 433.924 190.118, 424.160 167.960, 413.324 151.832 C 403.999 137.952, 410.721 139.408, 349.990 138.111 C 321.120 137.494, 293.634 136.991, 288.909 136.994 L 280.318 137 269.594 155.500 C 261.721 169.081, 258.373 174, 257 174 C 255.627 174, 252.279 169.081, 244.406 155.500 L 233.682 137 214.591 137.161 C 204.091 137.250, 176.602 137.725, 153.504 138.217" stroke="none" fill="#ffea00" fill-rule="evenodd"/><path d="M 235.500 36.056 C 184.679 41.034, 137.472 63.070, 101.500 98.608 C 66.074 133.607, 43.688 178.832, 37.454 228 C 35.345 244.635, 35.874 276.204, 38.510 291 C 44.055 322.133, 55.198 350.813, 71.298 375.396 C 120.882 451.103, 210.692 488.969, 299 471.400 C 356.329 459.994, 407.535 425.505, 439.963 376.455 C 456.735 351.085, 467.682 323.132, 473.624 290.500 C 476.178 276.472, 476.214 235.052, 473.684 220.500 C 461.625 151.121, 420.422 93.708, 359 60.698 C 322.809 41.247, 276.611 32.029, 235.500 36.056 M 216.500 92 C 214.300 92.394, 212.950 92.787, 213.500 92.873 C 214.065 92.962, 213.993 93.353, 213.333 93.773 C 212.003 94.619, 229.949 128.025, 233.750 131.778 C 234.988 133, 236 134.392, 236 134.872 C 236 136.057, 214.380 136.875, 165.500 137.541 C 123.871 138.107, 111.560 138.536, 110.050 139.469 C 109.588 139.755, 105.809 145.054, 101.653 151.244 C 85.072 175.944, 73.304 207.966, 71.333 233.750 L 70.703 242 128.717 242 L 186.730 242 188.968 235.250 C 200.236 201.266, 234.962 179.824, 268.044 186.422 C 293.609 191.521, 314.902 210.451, 322.968 235.250 L 325.163 242 384.680 242 L 444.196 242 443.501 235.750 C 440.806 211.522, 434.076 189.292, 423.142 168.500 C 417.825 158.389, 407.939 143.160, 404.919 140.427 C 403.081 138.764, 398.264 138.529, 342.214 137.373 C 308.821 136.684, 280.712 136.093, 279.750 136.060 C 277.372 135.978, 277.551 134.443, 280.250 131.778 C 284.051 128.025, 301.997 94.619, 300.667 93.773 C 300.012 93.356, 299.939 92.969, 300.500 92.890 C 303.130 92.521, 291.730 91.148, 286 91.144 L 279.500 91.139 275.935 98.320 C 273.974 102.269, 271.853 105.393, 271.221 105.262 C 270.589 105.131, 270.311 105.648, 270.604 106.411 C 270.897 107.174, 270.586 108.138, 269.914 108.553 C 269.132 109.037, 268.948 108.893, 269.405 108.155 C 269.797 107.520, 269.900 107, 269.634 107 C 269.368 107, 266.833 111.050, 264 116 C 260.433 122.233, 258.281 125, 257 125 C 255.719 125, 253.567 122.233, 250 116 C 247.167 111.050, 244.632 107, 244.366 107 C 244.100 107, 244.203 107.520, 244.595 108.155 C 245.052 108.893, 244.868 109.037, 244.086 108.553 C 243.414 108.138, 243.103 107.174, 243.396 106.411 C 243.689 105.648, 243.411 105.131, 242.779 105.262 C 242.147 105.393, 240.026 102.269, 238.065 98.320 L 234.500 91.139 227.500 91.212 C 223.650 91.251, 218.700 91.606, 216.500 92 M 242.287 214.812 C 230.398 219.044, 220.694 228.308, 215.900 240 C 212.915 247.280, 212.644 261.045, 215.335 268.763 C 221.497 286.440, 237.581 298, 256.016 298 C 277.327 298, 294.545 283.352, 298.185 262.127 C 301.317 243.861, 291.539 225.314, 274.303 216.829 C 268.294 213.870, 266.596 213.507, 257.558 213.246 C 249.741 213.020, 246.338 213.369, 242.287 214.812 M 69.665 274.250 C 78.301 351.504, 134.037 415.578, 209.130 434.579 C 223.808 438.293, 237.936 439.961, 254.872 439.982 C 300.223 440.036, 340.445 425.254, 375.778 395.546 C 410.345 366.484, 434.674 320.988, 439.574 276.250 L 440.258 270 383.209 270 L 326.159 270 325.489 273.050 C 321.489 291.263, 305.683 310.649, 287.589 319.537 C 266.983 329.659, 244.888 329.598, 224.055 319.361 C 216.202 315.502, 213.167 313.269, 206.040 306.110 C 196.403 296.430, 191.192 288.206, 187.829 277.372 L 185.541 270 127.366 270 L 69.190 270 69.665 274.250" stroke="none" fill="#000000" fill-rule="evenodd"/><path d="M 216.500 92 C 214.300 92.394, 212.950 92.787, 213.500 92.873 C 214.065 92.962, 213.993 93.353, 213.333 93.773 C 212.003 94.619, 229.949 128.025, 233.750 131.778 C 234.988 133, 236 134.450, 236 135 C 236 135.570, 232.451 136.085, 227.750 136.199 L 219.500 136.397 226.691 136.741 L 233.882 137.085 244.414 155.328 C 252.679 169.643, 255.389 173.571, 257 173.571 C 258.611 173.571, 261.321 169.643, 269.586 155.328 L 280.118 137.085 287.309 136.741 L 294.500 136.397 286.250 136.199 C 281.549 136.085, 278 135.570, 278 135 C 278 134.450, 279.012 133, 280.250 131.778 C 284.051 128.025, 301.997 94.619, 300.667 93.773 C 300.012 93.356, 299.939 92.969, 300.500 92.890 C 303.028 92.535, 291.791 91.140, 285.867 91.074 C 280.353 91.013, 279.156 91.295, 278.773 92.750 C 278.353 94.349, 279.218 94.473, 288.789 94.183 C 298.255 93.897, 299.203 94.028, 298.622 95.543 C 298.268 96.465, 292.307 107.408, 285.375 119.860 C 278.443 132.312, 272.748 143.063, 272.719 143.750 C 272.690 144.438, 272.265 145, 271.774 145 C 271.284 145, 271.160 145.450, 271.500 146 C 271.840 146.550, 271.738 147, 271.275 147 C 270.073 147, 266.924 152.591, 267.693 153.360 C 268.045 153.712, 267.733 154, 267 154 C 266.267 154, 265.929 154.262, 266.250 154.583 C 266.571 154.904, 265.954 156.046, 264.880 157.120 C 263.806 158.194, 263.195 159.507, 263.523 160.036 C 263.850 160.566, 263.615 161, 263 161 C 262.385 161, 262.160 161.450, 262.500 162 C 262.840 162.550, 262.653 163, 262.085 163 C 260.787 163, 257.858 168.525, 258.707 169.373 C 259.051 169.718, 258.283 170, 257 170 C 255.717 170, 254.949 169.718, 255.293 169.373 C 256.142 168.525, 253.213 163, 251.915 163 C 251.347 163, 251.160 162.550, 251.500 162 C 251.840 161.450, 251.615 161, 251 161 C 250.385 161, 250.150 160.566, 250.477 160.036 C 250.805 159.507, 250.194 158.194, 249.120 157.120 C 248.046 156.046, 247.429 154.904, 247.750 154.583 C 248.071 154.262, 247.733 154, 247 154 C 246.267 154, 245.955 153.712, 246.307 153.360 C 247.076 152.591, 243.927 147, 242.725 147 C 242.262 147, 242.160 146.550, 242.500 146 C 242.840 145.450, 242.716 145, 242.226 145 C 241.735 145, 241.310 144.438, 241.281 143.750 C 241.252 143.063, 235.557 132.312, 228.625 119.860 C 221.693 107.408, 215.732 96.465, 215.378 95.543 C 214.797 94.028, 215.745 93.897, 225.211 94.183 C 234.782 94.473, 235.647 94.349, 235.227 92.750 C 234.838 91.272, 233.657 91.022, 227.633 91.142 C 223.710 91.220, 218.700 91.606, 216.500 92 M 243.538 107.939 C 243.219 108.455, 243.610 109.242, 244.408 109.689 C 245.205 110.135, 245.924 110.950, 246.006 111.500 C 246.202 112.831, 256.360 128.997, 257 128.997 C 257.665 128.997, 268.561 111.597, 268.171 111.159 C 268.004 110.971, 268.640 110.253, 269.585 109.562 C 270.692 108.752, 270.922 108.070, 270.232 107.643 C 269.601 107.253, 267.044 110.680, 264.005 115.991 C 260.434 122.231, 258.281 125, 257 125 C 255.719 125, 253.567 122.233, 250 116 C 247.167 111.050, 244.685 107, 244.484 107 C 244.283 107, 243.857 107.422, 243.538 107.939 M 173.750 137.737 C 176.637 137.939, 181.363 137.939, 184.250 137.737 C 187.137 137.535, 184.775 137.370, 179 137.370 C 173.225 137.370, 170.863 137.535, 173.750 137.737 M 329.750 137.737 C 332.637 137.939, 337.363 137.939, 340.250 137.737 C 343.137 137.535, 340.775 137.370, 335 137.370 C 329.225 137.370, 326.863 137.535, 329.750 137.737 M 122.750 138.737 C 125.638 138.939, 130.363 138.939, 133.250 138.737 C 136.137 138.535, 133.775 138.370, 128 138.370 C 122.225 138.370, 119.862 138.535, 122.750 138.737 M 380.750 138.737 C 383.637 138.939, 388.363 138.939, 391.250 138.737 C 394.137 138.535, 391.775 138.370, 386 138.370 C 380.225 138.370, 377.863 138.535, 380.750 138.737 M 225.437 225.250 L 222.500 228.500 225.750 225.563 C 228.779 222.825, 229.460 222, 228.687 222 C 228.515 222, 227.052 223.463, 225.437 225.250 M 213.320 255 C 213.320 258.575, 213.502 260.038, 213.723 258.250 C 213.945 256.462, 213.945 253.537, 213.723 251.750 C 213.502 249.963, 213.320 251.425, 213.320 255 M 298.310 255.500 C 298.315 258.800, 298.502 260.029, 298.725 258.232 C 298.947 256.435, 298.943 253.735, 298.715 252.232 C 298.486 250.729, 298.304 252.200, 298.310 255.500 M 205 306.500 C 207.987 309.525, 210.657 312, 210.932 312 C 211.207 312, 208.987 309.525, 206 306.500 C 203.013 303.475, 200.343 301, 200.068 301 C 199.793 301, 202.013 303.475, 205 306.500 M 305.966 306.750 L 300.500 312.500 306.250 307.034 C 311.592 301.956, 312.458 301, 311.716 301 C 311.560 301, 308.972 303.587, 305.966 306.750 M 253.250 327.716 C 254.762 327.945, 257.238 327.945, 258.750 327.716 C 260.262 327.487, 259.025 327.300, 256 327.300 C 252.975 327.300, 251.738 327.487, 253.250 327.716 M 117 379.500 C 118.866 381.425, 120.617 383, 120.892 383 C 121.167 383, 119.866 381.425, 118 379.500 C 116.134 377.575, 114.383 376, 114.108 376 C 113.833 376, 115.134 377.575, 117 379.500 M 385.971 385.750 L 379.500 392.500 386.250 386.029 C 389.962 382.470, 393 379.432, 393 379.279 C 393 378.543, 391.982 379.480, 385.971 385.750 M 129 391.500 C 130.866 393.425, 132.617 395, 132.892 395 C 133.167 395, 131.866 393.425, 130 391.500 C 128.134 389.575, 126.383 388, 126.108 388 C 125.833 388, 127.134 389.575, 129 391.500 M 238.250 439.689 C 239.213 439.941, 240.787 439.941, 241.750 439.689 C 242.713 439.438, 241.925 439.232, 240 439.232 C 238.075 439.232, 237.287 439.438, 238.250 439.689 M 267.762 439.707 C 269.006 439.946, 270.806 439.937, 271.762 439.687 C 272.718 439.437, 271.700 439.241, 269.500 439.252 C 267.300 439.263, 266.518 439.468, 267.762 439.707" stroke="none" fill="#040404" fill-rule="evenodd"/></svg>