<svg xmlns="http://www.w3.org/2000/svg" width="512" height="511" viewBox="0 0 512 511" version="1.1"><path d="M 235.500 36.056 C 184.679 41.034, 137.472 63.070, 101.500 98.608 C 66.074 133.607, 43.688 178.832, 37.454 228 C 35.345 244.635, 35.874 276.204, 38.510 291 C 44.055 322.133, 55.198 350.813, 71.298 375.396 C 120.882 451.103, 210.692 488.969, 299 471.400 C 356.329 459.994, 407.535 425.505, 439.963 376.455 C 456.735 351.085, 467.682 323.132, 473.624 290.500 C 476.178 276.472, 476.214 235.052, 473.684 220.500 C 461.625 151.121, 420.422 93.708, 359 60.698 C 322.809 41.247, 276.611 32.029, 235.500 36.056 M 241.652 71.038 C 176.215 75.895, 117.524 116.385, 88.975 176.370 C 80.138 194.936, 73.885 216.522, 72.352 233.750 L 71.707 241 128.705 241 L 185.704 241 188.328 233.349 C 193.575 218.046, 205.766 202.203, 215.662 197.825 C 219.363 196.188, 219.917 195.605, 218.919 194.402 C 218.257 193.604, 218.038 192.629, 218.433 192.234 C 218.827 191.840, 219.581 192.286, 220.107 193.227 C 221.445 195.618, 228 195.385, 228 192.947 C 228 189.796, 245.130 184.981, 256.208 185.017 C 266.414 185.051, 286 190.597, 286 193.454 C 286 195.428, 292.770 195.233, 293.893 193.227 C 294.419 192.286, 295.173 191.840, 295.567 192.234 C 295.962 192.629, 295.739 193.610, 295.072 194.414 C 294.073 195.617, 294.391 196.151, 296.867 197.431 C 301.774 199.969, 312.641 211.547, 316.996 218.876 C 319.225 222.628, 322.229 229.141, 323.672 233.349 L 326.296 241 384.709 241 L 443.123 241 442.491 236.250 C 436.668 192.488, 421.081 158.558, 393.119 128.772 C 354.456 87.586, 299.733 66.728, 241.652 71.038 M 251.593 164.250 C 254.630 169.588, 257.828 170.305, 260.941 166.347 C 263.819 162.689, 262.690 162.110, 259.551 165.635 L 257 168.500 254.548 165.750 C 252.011 162.904, 250.347 162.060, 251.593 164.250 M 242.413 214.769 C 222.345 221.923, 210.092 242.260, 213.809 262.247 C 217.717 283.261, 235.103 298, 255.984 298 C 277.240 298, 294.559 283.272, 298.188 262.109 C 301.286 244.040, 291.377 225.234, 274.338 216.845 C 268.290 213.868, 266.607 213.507, 257.558 213.246 C 249.816 213.022, 246.329 213.373, 242.413 214.769 M 69.644 273.750 C 73.575 302.211, 80.160 323.067, 91.872 344.149 C 120.342 395.395, 171.026 430.231, 229.130 438.489 C 242.853 440.440, 267.481 440.410, 280.838 438.427 C 342.290 429.302, 393.713 392.258, 420.937 337.500 C 430.977 317.306, 437.359 296.329, 439.570 276.250 L 440.258 270 383.359 270 L 326.459 270 324.171 277.372 C 320.808 288.206, 315.597 296.430, 305.960 306.110 C 298.833 313.269, 295.798 315.502, 287.945 319.361 C 266.937 329.684, 244.940 329.691, 224.055 319.382 C 207.011 310.968, 192.023 293.347, 187.407 276.296 L 185.703 270 127.414 270 L 69.126 270 69.644 273.750" stroke="none" fill="#000000" fill-rule="evenodd"/><path d="M 215 87.942 C 202.656 89.131, 199.397 90.606, 190.648 98.961 C 178.334 110.722, 175.098 119.219, 176.924 135 C 178.618 149.634, 182.537 156.144, 195 165.028 C 205.777 172.710, 208.448 175.357, 216.412 186.250 C 221.458 193.151, 224.011 195.507, 223.995 193.250 C 223.972 190.034, 210.738 174.895, 197.947 163.453 C 191.111 157.338, 184.721 150.681, 183.194 148.083 C 180.673 143.794, 180.500 142.730, 180.500 131.499 C 180.500 119.518, 180.506 119.487, 184.342 112.179 C 188.888 103.517, 193.565 98.750, 200.779 95.430 C 205.462 93.274, 207.445 93, 218.378 93 C 230.187 93, 230.864 93.114, 234.680 95.750 C 242.728 101.308, 246.181 105.100, 252.898 115.750 C 254.719 118.638, 256.565 121, 257 121 C 257.435 121, 259.281 118.638, 261.102 115.750 C 267.819 105.100, 271.272 101.308, 279.320 95.750 C 283.136 93.114, 283.813 93, 295.622 93 C 306.555 93, 308.538 93.274, 313.221 95.430 C 320.435 98.750, 325.112 103.517, 329.658 112.179 C 333.494 119.487, 333.500 119.518, 333.500 131.499 C 333.500 142.730, 333.327 143.794, 330.806 148.083 C 329.279 150.681, 322.889 157.338, 316.053 163.453 C 303.262 174.895, 290.028 190.034, 290.005 193.250 C 289.989 195.507, 292.542 193.151, 297.588 186.250 C 305.552 175.357, 308.223 172.710, 319 165.028 C 331.463 156.144, 335.382 149.634, 337.076 135 C 338.904 119.205, 335.670 110.727, 323.312 98.921 C 313.971 89.996, 309.185 88.182, 294 87.811 C 279.814 87.464, 277.282 88.924, 266.775 103.515 C 262.225 109.832, 257.827 115, 257 115 C 256.173 115, 251.775 109.832, 247.225 103.515 C 236.264 88.294, 232.121 86.291, 215 87.942 M 254.133 141.750 C 252.475 149.134, 253.164 163.593, 255.275 165.703 C 256.908 167.337, 257.092 167.337, 258.725 165.703 C 260.051 164.378, 260.507 161.951, 260.692 155.239 C 260.995 144.277, 259.521 137, 257 137 C 255.668 137, 254.922 138.237, 254.133 141.750 M 249 214.126 C 231.085 217.031, 215.844 233.528, 214.327 251.656 C 212.876 268.995, 221.925 284.900, 237.668 292.680 C 244.213 295.915, 246.310 296.447, 253.979 296.813 C 260.528 297.126, 264.151 296.791, 268.140 295.501 C 293.555 287.283, 305.156 259.088, 292.744 235.697 C 289.005 228.651, 280.347 220.496, 273.283 217.366 C 269.021 215.478, 256.996 212.688, 255 213.124 C 254.725 213.185, 252.025 213.635, 249 214.126 M 70.691 275.250 C 70.967 277.587, 72.259 284.926, 73.563 291.558 C 86 354.812, 132.849 408.040, 194.942 429.463 C 223.605 439.353, 262.173 442.025, 289.500 436.014 C 294.450 434.925, 299.914 433.803, 301.642 433.521 C 311.439 431.921, 334.788 422.184, 349.277 413.657 C 387.392 391.225, 417.108 354.082, 430.931 311.593 C 434.715 299.961, 439 279.906, 439 273.825 L 439 271 383.039 271 L 327.077 271 325.965 275.250 C 324.085 282.440, 317.375 295.182, 312.011 301.752 C 302.925 312.879, 288.977 321.879, 274.887 325.706 C 265.933 328.138, 245.818 328.140, 237.010 325.709 C 213.169 319.131, 193.222 299.770, 186.514 276.698 L 184.858 271 127.524 271 L 70.190 271 70.691 275.250" stroke="none" fill="#ffffff" fill-rule="evenodd"/><path d="M 203.229 97.039 C 195.772 100.351, 190.373 105.734, 186.275 113.941 C 182.745 121.009, 182.500 122.085, 182.507 130.500 C 182.518 145.100, 184.496 148.498, 201.272 162.730 C 206.112 166.837, 212.469 173.190, 215.398 176.848 C 218.328 180.507, 221.835 184.625, 223.192 186 C 224.549 187.375, 225.941 189.271, 226.284 190.214 C 226.869 191.818, 227.185 191.807, 231.205 190.043 C 236.783 187.595, 249.542 185, 256 185 C 262.491 185, 274.699 187.513, 280.698 190.085 C 285.481 192.135, 287.987 192.031, 288.017 189.781 C 288.027 189.077, 289.221 187.375, 290.671 186 C 292.122 184.625, 295.698 180.507, 298.618 176.848 C 301.539 173.190, 307.888 166.837, 312.728 162.730 C 329.504 148.498, 331.482 145.100, 331.493 130.500 C 331.500 122.085, 331.255 121.009, 327.725 113.941 C 323.548 105.577, 318.156 100.282, 310.452 96.979 C 306.849 95.435, 303.577 95, 295.556 95 C 285.364 95, 285.231 95.031, 279.555 98.750 C 275.193 101.608, 272.068 104.982, 266.412 112.936 C 261.695 119.569, 258.290 123.423, 257.066 123.514 C 255.688 123.615, 253.064 120.700, 247.821 113.244 C 242.206 105.259, 239.133 101.920, 234.636 98.916 L 228.772 95 218.136 95.071 C 209.974 95.125, 206.507 95.583, 203.229 97.039 M 254.186 135.302 C 251.556 138.101, 250 145.719, 250 155.792 C 250 162.312, 250.339 163.756, 252.551 166.656 C 253.954 168.495, 255.956 170, 257 170 C 258.044 170, 260.046 168.495, 261.449 166.656 C 263.661 163.756, 264 162.312, 264 155.792 C 264 145.719, 262.444 138.101, 259.814 135.302 C 258.625 134.036, 257.358 133, 257 133 C 256.642 133, 255.375 134.036, 254.186 135.302 M 90 270.726 C 142.845 271.420, 185.767 271.431, 185.346 270.750 C 185.091 270.337, 158.921 270.103, 127.191 270.229 C 95.461 270.354, 78.725 270.578, 90 270.726 M 354.750 270.749 C 370.288 270.904, 395.713 270.904, 411.250 270.749 C 426.788 270.594, 414.075 270.468, 383 270.468 C 351.925 270.468, 339.213 270.594, 354.750 270.749" stroke="none" fill="#ff2a94" fill-rule="evenodd"/><path d="M 241.652 71.038 C 176.215 75.895, 117.524 116.385, 88.975 176.370 C 80.138 194.936, 73.885 216.522, 72.352 233.750 L 71.707 241 128.718 241 L 185.730 241 187.965 234.250 C 192.252 221.298, 200.170 209.398, 209.745 201.516 C 212.822 198.982, 216.031 196.523, 216.874 196.050 C 218.855 194.942, 217.723 192.346, 211.676 184.132 C 206.588 177.220, 201.521 172.619, 190.252 164.677 C 182.892 159.491, 182.056 158.532, 179.005 151.787 C 174.608 142.068, 172.814 131.051, 174.188 122.205 C 175.490 113.820, 180.118 104.421, 184.869 100.511 C 186.866 98.868, 190.592 95.586, 193.148 93.220 C 199.324 87.503, 207.822 85, 221.060 85 C 235.308 85, 238.272 86.716, 248.500 100.883 C 252.900 106.977, 256.725 111.964, 257 111.964 C 257.275 111.964, 261.100 106.977, 265.500 100.883 C 275.728 86.716, 278.692 85, 292.940 85 C 306.178 85, 314.676 87.503, 320.852 93.220 C 323.408 95.586, 327.134 98.868, 329.131 100.511 C 333.882 104.421, 338.510 113.820, 339.812 122.205 C 341.186 131.051, 339.392 142.068, 334.995 151.787 C 331.944 158.532, 331.108 159.491, 323.748 164.677 C 312.479 172.619, 307.412 177.220, 302.324 184.132 C 296.343 192.256, 295.187 194.873, 297.057 196.056 C 297.851 196.558, 298.114 196.976, 297.641 196.985 C 297.169 196.993, 298.969 198.801, 301.641 201.001 C 311.634 209.230, 319.715 221.231, 324.032 234.250 L 326.270 241 384.696 241 L 443.123 241 442.491 236.250 C 436.668 192.488, 421.081 158.558, 393.119 128.772 C 354.456 87.586, 299.733 66.728, 241.652 71.038" stroke="none" fill="#ff007f" fill-rule="evenodd"/><path d="M 214.250 87.716 C 215.762 87.945, 218.238 87.945, 219.750 87.716 C 221.262 87.487, 220.025 87.300, 217 87.300 C 213.975 87.300, 212.738 87.487, 214.250 87.716 M 294.250 87.716 C 295.762 87.945, 298.238 87.945, 299.750 87.716 C 301.262 87.487, 300.025 87.300, 297 87.300 C 293.975 87.300, 292.738 87.487, 294.250 87.716 M 207.500 172 C 209.648 174.200, 211.631 176, 211.906 176 C 212.181 176, 210.648 174.200, 208.500 172 C 206.352 169.800, 204.369 168, 204.094 168 C 203.819 168, 205.352 169.800, 207.500 172 M 305.453 172.250 L 301.500 176.500 305.750 172.547 C 309.702 168.871, 310.460 168, 309.703 168 C 309.540 168, 307.627 169.912, 305.453 172.250 M 223.548 192.250 C 224.281 194.175, 223.078 194.561, 221.196 193.004 C 220.534 192.456, 220.666 192.774, 221.489 193.711 C 222.658 195.041, 223.250 195.150, 224.193 194.207 C 225.136 193.264, 225.124 192.726, 224.141 191.750 C 223.131 190.748, 223.014 190.847, 223.548 192.250 M 289.446 192.087 C 289.077 192.685, 289.278 193.678, 289.894 194.294 C 290.721 195.121, 291.406 194.968, 292.511 193.711 C 293.334 192.774, 293.466 192.456, 292.804 193.004 C 291.018 194.482, 289.705 194.211, 290.362 192.500 C 291.029 190.762, 290.432 190.493, 289.446 192.087 M 225.453 226.250 L 221.500 230.500 225.750 226.547 C 228.088 224.373, 230 222.460, 230 222.297 C 230 221.540, 229.129 222.298, 225.453 226.250 M 285 225.500 C 286.866 227.425, 288.617 229, 288.892 229 C 289.167 229, 287.866 227.425, 286 225.500 C 284.134 223.575, 282.383 222, 282.108 222 C 281.833 222, 283.134 223.575, 285 225.500 M 223 282.313 C 223 282.485, 224.463 283.948, 226.250 285.563 L 229.500 288.500 226.563 285.250 C 223.825 282.221, 223 281.540, 223 282.313 M 285.437 285.250 L 282.500 288.500 285.750 285.563 C 287.538 283.948, 289 282.485, 289 282.313 C 289 281.540, 288.175 282.221, 285.437 285.250 M 253.750 297.706 C 254.988 297.944, 257.012 297.944, 258.250 297.706 C 259.488 297.467, 258.475 297.272, 256 297.272 C 253.525 297.272, 252.512 297.467, 253.750 297.706 M 203.958 306.250 C 208.102 310.665, 209 311.459, 209 310.708 C 209 310.548, 206.863 308.410, 204.250 305.958 L 199.500 301.500 203.958 306.250 M 306.453 307.250 L 302.500 311.500 306.750 307.547 C 310.702 303.871, 311.460 303, 310.703 303 C 310.540 303, 308.627 304.913, 306.453 307.250 M 246.264 439.718 C 247.784 439.947, 250.034 439.941, 251.264 439.704 C 252.494 439.467, 251.250 439.279, 248.500 439.286 C 245.750 439.294, 244.744 439.488, 246.264 439.718 M 258.264 439.718 C 259.784 439.947, 262.034 439.941, 263.264 439.704 C 264.494 439.467, 263.250 439.279, 260.500 439.286 C 257.750 439.294, 256.744 439.488, 258.264 439.718" stroke="none" fill="#fafafa" fill-rule="evenodd"/><path d="M 204.161 87.023 C 199.606 88.367, 196.510 90.107, 193.161 93.208 C 190.597 95.581, 186.866 98.868, 184.869 100.511 C 180.118 104.421, 175.490 113.820, 174.188 122.205 C 172.814 131.051, 174.608 142.068, 179.005 151.787 C 182.056 158.532, 182.892 159.491, 190.252 164.677 C 201.777 172.799, 206.690 177.316, 212.152 184.808 C 214.819 188.465, 217 191.790, 217 192.197 C 217 192.604, 217.661 192.684, 218.469 192.374 C 219.587 191.945, 218.592 189.980, 214.309 184.155 C 208.038 175.628, 204.646 172.443, 192.879 164.032 C 182.272 156.449, 179.016 150.875, 176.508 136 C 173.904 120.561, 177.966 109.772, 190.812 98.008 C 200.210 89.401, 206.668 87, 220.422 87 C 234.397 87, 237.159 88.638, 247.640 103.137 C 252.356 109.662, 256.568 115, 257 115 C 257.432 115, 261.644 109.662, 266.360 103.137 C 276.841 88.638, 279.603 87, 293.578 87 C 307.332 87, 313.790 89.401, 323.188 98.008 C 336.034 109.772, 340.096 120.561, 337.492 136 C 334.984 150.875, 331.728 156.449, 321.121 164.032 C 309.354 172.443, 305.962 175.628, 299.691 184.155 C 295.408 189.980, 294.413 191.945, 295.531 192.374 C 296.339 192.684, 297 192.604, 297 192.197 C 297 191.790, 299.181 188.465, 301.848 184.808 C 307.310 177.316, 312.223 172.799, 323.748 164.677 C 331.108 159.491, 331.944 158.532, 334.995 151.787 C 339.392 142.068, 341.186 131.051, 339.812 122.205 C 338.510 113.820, 333.882 104.421, 329.131 100.511 C 327.134 98.868, 323.408 95.586, 320.852 93.220 C 314.676 87.503, 306.178 85, 292.940 85 C 278.692 85, 275.728 86.716, 265.500 100.883 C 261.100 106.977, 257.275 111.964, 257 111.964 C 256.725 111.964, 252.900 106.977, 248.500 100.883 C 238.154 86.552, 235.348 84.964, 220.563 85.076 C 213.860 85.127, 208.384 85.777, 204.161 87.023 M 202.655 95.075 C 186.714 101.544, 177.331 120.615, 180.945 139.200 C 182.662 148.024, 185.629 152.061, 198.808 163.500 C 205.145 169, 211.718 175.343, 213.415 177.595 C 215.112 179.847, 218.434 184.078, 220.799 186.996 C 223.163 189.915, 224.900 192.818, 224.659 193.447 C 224.417 194.076, 225.070 194.655, 226.110 194.733 C 227.149 194.812, 228 194.505, 228 194.052 C 228 192.613, 225.572 188.545, 223.461 186.447 C 222.339 185.333, 218.848 181.196, 215.702 177.253 C 212.556 173.311, 206.274 166.982, 201.741 163.190 C 190.920 154.137, 185.575 148.217, 183.889 143.416 C 183.116 141.216, 182.511 135.555, 182.507 130.500 C 182.501 122.335, 182.818 120.822, 185.921 114.200 C 189.750 106.030, 195.435 100.457, 203.442 97.025 C 207.164 95.429, 210.346 95, 218.444 95 C 228.630 95, 228.772 95.033, 234.477 98.750 C 238.914 101.640, 241.927 104.893, 247.618 112.936 C 252.349 119.622, 255.698 123.422, 256.939 123.514 C 258.335 123.617, 260.887 120.770, 266.082 113.314 C 271.688 105.270, 274.616 102.087, 279.259 98.986 L 285.228 95 295.531 95 C 303.654 95, 306.834 95.428, 310.558 97.025 C 318.565 100.457, 324.250 106.030, 328.079 114.200 C 331.182 120.822, 331.499 122.335, 331.493 130.500 C 331.489 135.555, 330.884 141.216, 330.111 143.416 C 328.425 148.217, 323.080 154.137, 312.259 163.190 C 307.726 166.982, 301.444 173.311, 298.298 177.253 C 295.152 181.196, 291.661 185.333, 290.539 186.447 C 288.428 188.545, 286 192.613, 286 194.052 C 286 194.505, 286.851 194.812, 287.890 194.733 C 288.930 194.655, 289.583 194.076, 289.341 193.447 C 289.100 192.818, 290.837 189.915, 293.201 186.996 C 295.566 184.078, 298.888 179.847, 300.585 177.595 C 302.282 175.343, 308.855 169, 315.192 163.500 C 328.371 152.061, 331.338 148.024, 333.055 139.200 C 336.701 120.450, 327.213 101.391, 311.063 95.025 C 307.129 93.474, 303.608 93, 296.028 93 C 290.584 93, 284.951 93.448, 283.511 93.996 C 276.474 96.671, 270.417 103.073, 258.250 120.690 C 257.044 122.437, 256.956 122.437, 255.750 120.690 C 243.583 103.073, 237.526 96.671, 230.489 93.996 C 225.735 92.188, 208.082 92.873, 202.655 95.075 M 254.284 135.250 C 253.148 136.488, 251.720 139.885, 251.109 142.799 C 249.631 149.863, 249.659 163.671, 251.155 164.595 C 251.870 165.038, 252.038 164.870, 251.595 164.155 C 251.203 163.520, 251.260 163, 251.722 163 C 252.184 163, 252.642 158.261, 252.741 152.469 C 252.926 141.636, 254.295 136.500, 257 136.500 C 259.705 136.500, 261.074 141.636, 261.259 152.469 C 261.358 158.261, 261.816 163, 262.278 163 C 262.740 163, 262.797 163.520, 262.405 164.155 C 261.962 164.870, 262.130 165.038, 262.845 164.595 C 264.341 163.671, 264.369 149.863, 262.891 142.799 C 261.910 138.114, 258.836 133, 257 133 C 256.642 133, 255.419 134.012, 254.284 135.250 M 225.437 225.250 L 222.500 228.500 225.750 225.563 C 228.779 222.825, 229.460 222, 228.687 222 C 228.515 222, 227.052 223.463, 225.437 225.250 M 213.310 255.500 C 213.315 258.800, 213.502 260.029, 213.725 258.232 C 213.947 256.435, 213.943 253.735, 213.715 252.232 C 213.486 250.729, 213.304 252.200, 213.310 255.500 M 298.310 255.500 C 298.315 258.800, 298.502 260.029, 298.725 258.232 C 298.947 256.435, 298.943 253.735, 298.715 252.232 C 298.486 250.729, 298.304 252.200, 298.310 255.500 M 205 306.500 C 207.987 309.525, 210.657 312, 210.932 312 C 211.207 312, 208.987 309.525, 206 306.500 C 203.013 303.475, 200.343 301, 200.068 301 C 199.793 301, 202.013 303.475, 205 306.500 M 306 306.500 C 303.571 308.975, 301.809 311, 302.084 311 C 302.359 311, 304.571 308.975, 307 306.500 C 309.429 304.025, 311.191 302, 310.916 302 C 310.641 302, 308.429 304.025, 306 306.500 M 253.250 327.716 C 254.762 327.945, 257.238 327.945, 258.750 327.716 C 260.262 327.487, 259.025 327.300, 256 327.300 C 252.975 327.300, 251.738 327.487, 253.250 327.716 M 117 379.500 C 118.866 381.425, 120.617 383, 120.892 383 C 121.167 383, 119.866 381.425, 118 379.500 C 116.134 377.575, 114.383 376, 114.108 376 C 113.833 376, 115.134 377.575, 117 379.500 M 385.469 386.250 L 379.500 392.500 385.750 386.531 C 391.556 380.987, 392.458 380, 391.719 380 C 391.564 380, 388.751 382.813, 385.469 386.250 M 126 388.313 C 126 388.485, 127.463 389.948, 129.250 391.563 L 132.500 394.500 129.563 391.250 C 126.825 388.221, 126 387.540, 126 388.313 M 238.250 439.689 C 239.213 439.941, 240.787 439.941, 241.750 439.689 C 242.713 439.438, 241.925 439.232, 240 439.232 C 238.075 439.232, 237.287 439.438, 238.250 439.689 M 268.250 439.689 C 269.212 439.941, 270.788 439.941, 271.750 439.689 C 272.712 439.438, 271.925 439.232, 270 439.232 C 268.075 439.232, 267.288 439.438, 268.250 439.689" stroke="none" fill="#050405" fill-rule="evenodd"/></svg>