<svg xmlns="http://www.w3.org/2000/svg" width="512" height="511" viewBox="0 0 512 511" version="1.1"><path d="M 144.671 107.662 C 144.302 108.031, 144 108.596, 144 108.917 C 144 109.938, 368.979 109.466, 369.250 108.444 C 369.536 107.363, 145.749 106.584, 144.671 107.662 M 106.004 148.495 C 104.904 149.821, 122.013 149.990, 257 149.990 C 391.987 149.990, 409.096 149.821, 407.996 148.495 C 406.905 147.180, 388.678 147, 257 147 C 125.322 147, 107.095 147.180, 106.004 148.495 M 243.413 215.767 C 223.742 222.787, 211.154 243.047, 214.859 261.723 C 219.909 287.176, 244.371 302.380, 268.354 294.972 C 283.033 290.439, 294.195 277.528, 297.109 261.713 C 300.218 244.839, 290.067 226.081, 273.381 217.867 C 267.579 215.010, 265.511 214.538, 257.602 214.265 C 250.720 214.028, 247.259 214.394, 243.413 215.767" stroke="none" fill="#f6ff32" fill-rule="evenodd"/><path d="M 199.583 109.758 L 143.667 110.017 140.345 112.550 C 131.618 119.207, 111.784 139.798, 108.889 145.207 C 107.969 146.927, 113.998 147, 257.520 147 L 407.110 147 402.474 141.250 C 396.704 134.093, 385.432 122.468, 377.416 115.407 L 371.333 110.048 313.416 109.774 C 281.562 109.623, 230.338 109.616, 199.583 109.758" stroke="none" fill="#ff1c1c" fill-rule="evenodd"/><path d="M 144.671 107.662 C 144.302 108.031, 144 108.596, 144 108.917 C 144 109.938, 368.979 109.466, 369.250 108.444 C 369.536 107.363, 145.749 106.584, 144.671 107.662 M 106.004 148.495 C 104.904 149.821, 122.013 149.990, 257 149.990 C 391.987 149.990, 409.096 149.821, 407.996 148.495 C 406.905 147.180, 388.678 147, 257 147 C 125.322 147, 107.095 147.180, 106.004 148.495 M 243.413 215.767 C 223.742 222.787, 211.154 243.047, 214.859 261.723 C 219.909 287.176, 244.371 302.380, 268.354 294.972 C 283.033 290.439, 294.195 277.528, 297.109 261.713 C 300.218 244.839, 290.067 226.081, 273.381 217.867 C 267.579 215.010, 265.511 214.538, 257.602 214.265 C 250.720 214.028, 247.259 214.394, 243.413 215.767" stroke="none" fill="#f6ff32" fill-rule="evenodd"/><path d="M 191.250 109.728 C 193.313 109.944, 196.688 109.944, 198.750 109.728 C 200.813 109.513, 199.125 109.336, 195 109.336 C 190.875 109.336, 189.188 109.513, 191.250 109.728 M 313.776 109.733 C 316.128 109.945, 319.728 109.942, 321.776 109.727 C 323.824 109.512, 321.900 109.339, 317.500 109.343 C 313.100 109.346, 311.424 109.522, 313.776 109.733 M 246.500 181.661 C 230.718 185.885, 216.838 193.126, 208.491 201.487 C 207.386 202.594, 205.075 204.666, 203.354 206.090 C 198.557 210.063, 193.475 217.726, 188.429 228.599 C 185.907 234.033, 183.316 238.814, 182.672 239.224 C 182.027 239.634, 156.413 239.976, 125.750 239.985 L 70 240 70 256 L 70 272 126.750 272.015 L 183.500 272.030 187.449 281.168 C 192.252 292.282, 197.550 300.662, 202.606 305.143 C 204.689 306.989, 207.317 309.406, 208.447 310.513 C 215.804 317.724, 225.416 323.272, 239 328.148 C 244.439 330.101, 247.465 330.483, 257.545 330.491 C 266.741 330.498, 270.171 330.132, 272.045 328.943 C 273.395 328.087, 276.525 326.798, 279 326.080 C 292.738 322.090, 308.522 310.321, 317.281 297.535 C 321.613 291.210, 328 277.140, 328 273.921 C 328 272.049, 329.435 272, 383.918 272 C 414.673 272, 440.548 271.727, 441.418 271.393 C 442.751 270.882, 442.998 268.714, 442.986 257.643 C 442.979 250.414, 442.701 243.488, 442.370 242.250 L 441.767 240 387.633 239.986 C 357.860 239.979, 332.549 239.717, 331.387 239.405 C 329.824 238.986, 328.310 236.404, 325.578 229.501 C 321.591 219.429, 315.846 210.399, 310.724 206.157 C 308.961 204.695, 306.614 202.594, 305.509 201.487 C 298.414 194.379, 288.270 188.540, 275 183.925 C 268.591 181.695, 251.457 180.335, 246.500 181.661 M 243.413 215.767 C 223.742 222.787, 211.154 243.047, 214.859 261.723 C 219.909 287.176, 244.371 302.380, 268.354 294.972 C 283.033 290.439, 294.195 277.528, 297.109 261.713 C 300.218 244.839, 290.067 226.081, 273.381 217.867 C 267.579 215.010, 265.511 214.538, 257.602 214.265 C 250.720 214.028, 247.259 214.394, 243.413 215.767" stroke="none" fill="#ffea00" fill-rule="evenodd"/><path d="M 250.500 177.618 C 233.194 180.046, 217.330 188.094, 204.079 201.166 C 196.735 208.410, 192.405 214.709, 185.976 227.499 L 181.452 236.500 126.059 237 C 82.993 237.389, 70.574 237.778, 70.250 238.750 C 69.920 239.740, 81.439 239.997, 125.667 239.985 C 156.375 239.976, 182.033 239.631, 182.683 239.217 C 183.334 238.803, 185.556 234.647, 187.621 229.982 C 191.904 220.303, 199.176 208.786, 202.350 206.656 C 203.532 205.862, 205.850 203.907, 207.500 202.311 C 216.269 193.829, 224.337 189.120, 239.365 183.709 C 248.166 180.540, 265.834 180.540, 274.635 183.709 C 290.102 189.277, 297.401 193.609, 307.490 203.205 C 309.684 205.292, 311.831 207, 312.260 207 C 313.856 207, 322.618 221.798, 326 230.205 C 328.567 236.586, 330.062 239.047, 331.609 239.436 C 332.768 239.728, 358.418 239.990, 388.609 240.017 C 432.645 240.057, 443.500 239.813, 443.500 238.783 C 443.500 237.760, 432.251 237.399, 388.024 237 L 332.548 236.500 328.024 227.499 C 321.595 214.709, 317.265 208.410, 309.921 201.166 C 298.807 190.201, 285.680 182.668, 271.500 179.117 C 266.636 177.899, 254.612 177.041, 250.500 177.618 M 385.315 271.758 L 329.130 272.017 328.502 274.258 C 328.157 275.491, 327.468 277.400, 326.971 278.500 C 326.474 279.600, 324.967 283.054, 323.622 286.175 C 317.430 300.544, 304.432 314.091, 289.732 321.498 C 284.910 323.928, 279.397 326.210, 277.482 326.569 C 275.567 326.929, 274 327.591, 274 328.040 C 274 329.723, 262.367 331.238, 253.500 330.709 C 237.359 329.747, 220.068 321.846, 207.500 309.689 C 205.850 308.093, 203.532 306.138, 202.350 305.344 C 198.955 303.066, 191.685 291.350, 187.413 281.273 L 183.500 272.046 126.781 272.023 C 76.911 272.003, 70.132 272.180, 70.635 273.492 C 71.131 274.785, 78.598 275.018, 126.720 275.242 L 182.233 275.500 184.709 282.384 C 192.224 303.280, 209.932 319.753, 237.275 331.286 C 244.029 334.135, 245.315 334.333, 257 334.333 C 268.685 334.333, 269.971 334.135, 276.725 331.286 C 304.068 319.753, 321.776 303.280, 329.291 282.384 L 331.767 275.500 387.633 275 C 434.930 274.577, 443.500 274.283, 443.500 273.083 C 443.500 272.304, 443.050 271.629, 442.500 271.583 C 441.950 271.538, 416.217 271.616, 385.315 271.758" stroke="none" fill="#bfbfbf" fill-rule="evenodd"/><path d="M 241.442 71.057 C 212.776 73.201, 180.719 83.919, 156.500 99.457 L 149.500 103.948 256.750 103.974 C 315.738 103.988, 364 103.822, 364 103.604 C 364 102.829, 349.369 94.159, 341.013 89.982 C 310.901 74.929, 276.663 68.422, 241.442 71.057 M 204.250 106.748 C 213.463 106.913, 228.537 106.913, 237.750 106.748 C 246.963 106.583, 239.425 106.448, 221 106.448 C 202.575 106.448, 195.037 106.583, 204.250 106.748 M 276.250 106.748 C 285.462 106.913, 300.538 106.913, 309.750 106.748 C 318.962 106.583, 311.425 106.448, 293 106.448 C 274.575 106.448, 267.038 106.583, 276.250 106.748 M 98.307 158.735 C 92.691 167.513, 83.564 187.360, 80.020 198.500 C 77.082 207.733, 74.134 220.370, 72.495 230.750 L 71.824 235 90.662 234.998 C 101.023 234.998, 125.383 234.699, 144.795 234.336 L 180.090 233.674 183.501 226.587 C 187.700 217.863, 190.814 212.364, 194.034 207.982 C 197.758 202.916, 208.983 192.071, 213.500 189.174 C 215.700 187.763, 218.400 185.880, 219.500 184.988 C 221.567 183.313, 231.613 179.323, 240.688 176.572 C 247.693 174.449, 266.307 174.449, 273.312 176.572 C 282.387 179.323, 292.433 183.313, 294.500 184.988 C 295.600 185.880, 298.300 187.763, 300.500 189.174 C 305.017 192.071, 316.242 202.916, 319.966 207.982 C 323.186 212.364, 326.300 217.863, 330.499 226.587 L 333.910 233.674 369.205 234.336 C 388.617 234.699, 412.989 234.998, 423.365 234.998 L 442.230 235 441.552 229.250 C 439.094 208.423, 429.244 180.637, 417.269 160.750 L 412.602 153 257.289 153 L 101.975 153 98.307 158.735 M 206.946 197.750 L 203.500 201.500 207.250 198.054 C 210.740 194.846, 211.460 194, 210.696 194 C 210.529 194, 208.842 195.688, 206.946 197.750 M 306 197.500 C 307.866 199.425, 309.617 201, 309.892 201 C 310.167 201, 308.866 199.425, 307 197.500 C 305.134 195.575, 303.383 194, 303.108 194 C 302.833 194, 304.134 195.575, 306 197.500 M 170.250 236.728 C 172.313 236.944, 175.688 236.944, 177.750 236.728 C 179.813 236.513, 178.125 236.336, 174 236.336 C 169.875 236.336, 168.188 236.513, 170.250 236.728 M 336.250 236.728 C 338.313 236.944, 341.688 236.944, 343.750 236.728 C 345.813 236.513, 344.125 236.336, 340 236.336 C 335.875 236.336, 334.188 236.513, 336.250 236.728 M 69.232 256 C 69.232 257.925, 69.438 258.712, 69.689 257.750 C 69.941 256.788, 69.941 255.213, 69.689 254.250 C 69.438 253.287, 69.232 254.075, 69.232 256 M 69.232 268 C 69.232 269.925, 69.438 270.712, 69.689 269.750 C 69.941 268.788, 69.941 267.212, 69.689 266.250 C 69.438 265.288, 69.232 266.075, 69.232 268 M 70.547 282.750 C 70.927 285.913, 72.480 293.450, 73.998 299.500 C 90.954 367.084, 142.418 418.264, 210.725 435.474 C 228.135 439.860, 260.393 441.529, 279.049 439.009 C 305.955 435.374, 329.549 427.165, 351.953 413.642 C 357.153 410.504, 362.553 407.672, 363.953 407.349 C 367.837 406.454, 371 404.150, 371 402.216 C 371 401.261, 374.488 397.489, 378.750 393.835 C 383.012 390.181, 389.425 383.808, 393 379.673 C 396.893 375.170, 400.102 372.307, 401 372.534 C 403.947 373.280, 414.853 358.253, 412.832 356.232 C 412.162 355.562, 412.657 353.920, 414.322 351.282 C 425.976 332.821, 434.773 308.128, 439.450 280.750 L 440.091 277 387.230 277 L 334.370 277 332.075 283.501 C 328.450 293.769, 318.835 307.184, 309.500 314.999 C 301.111 322.022, 284.286 331.633, 274.467 335.011 C 266.272 337.831, 247.728 337.831, 239.533 335.011 C 229.714 331.633, 212.889 322.022, 204.500 314.999 C 195.165 307.184, 185.550 293.769, 181.925 283.501 L 179.630 277 124.743 277 L 69.856 277 70.547 282.750" stroke="none" fill="#262626" fill-rule="evenodd"/><path d="M 235.500 36.056 C 184.679 41.034, 137.472 63.070, 101.500 98.608 C 66.074 133.607, 43.688 178.832, 37.454 228 C 35.345 244.635, 35.874 276.204, 38.510 291 C 44.055 322.133, 55.198 350.813, 71.298 375.396 C 120.882 451.103, 210.692 488.969, 299 471.400 C 356.329 459.994, 407.535 425.505, 439.963 376.455 C 456.735 351.085, 467.682 323.132, 473.624 290.500 C 476.178 276.472, 476.214 235.052, 473.684 220.500 C 461.625 151.121, 420.422 93.708, 359 60.698 C 322.809 41.247, 276.611 32.029, 235.500 36.056 M 241.442 71.057 C 214.246 73.091, 185.874 82.075, 162 96.212 C 156.775 99.306, 151.636 102.487, 150.580 103.280 C 148.904 104.538, 162.399 104.721, 256.830 104.721 C 316.324 104.721, 365 104.556, 365 104.354 C 365 103.504, 350.352 94.695, 341.778 90.388 C 311.006 74.934, 277.055 68.392, 241.442 71.057 M 144.330 107.806 C 144.080 108.738, 142.114 110.817, 139.959 112.426 C 133.338 117.372, 104 148.381, 104 150.433 C 104 150.745, 172.850 151, 257 151 C 341.150 151, 410 150.771, 410 150.490 C 410 150.210, 407.202 146.497, 403.782 142.240 C 397.413 134.311, 385.376 121.920, 374.220 111.808 L 367.941 106.115 256.362 106.114 C 152.354 106.113, 144.753 106.227, 144.330 107.806 M 110.712 152.745 L 101.925 153.079 98.281 158.774 C 92.689 167.517, 83.558 187.380, 80.020 198.500 C 77.082 207.733, 74.134 220.370, 72.495 230.750 L 71.824 235 125.864 235 L 179.904 235 183.906 226.750 C 186.107 222.213, 188.941 216.876, 190.204 214.890 C 191.467 212.905, 193.717 209.305, 195.204 206.890 C 197.732 202.786, 208.016 193.438, 216 187.986 C 217.925 186.672, 219.725 185.293, 220 184.921 C 220.763 183.891, 233.551 178.950, 239.879 177.242 C 247.363 175.220, 266.637 175.220, 274.121 177.242 C 280.449 178.950, 293.237 183.891, 294 184.921 C 294.275 185.293, 296.075 186.672, 298 187.986 C 305.984 193.438, 316.268 202.786, 318.796 206.890 C 320.283 209.305, 322.533 212.905, 323.796 214.890 C 325.059 216.876, 327.893 222.213, 330.094 226.750 L 334.096 235 388.163 235 L 442.230 235 441.552 229.250 C 439.102 208.491, 429.243 180.636, 417.359 160.900 L 412.783 153.300 399.234 152.650 C 385.889 152.010, 127.823 152.095, 110.712 152.745 M 244.500 177.956 C 236.577 179.674, 224.364 184.784, 217.426 189.282 C 213.535 191.805, 206.546 197.868, 201.896 202.755 C 194.738 210.277, 192.524 213.481, 187.470 223.631 L 181.500 235.622 142.586 236.311 C 121.184 236.690, 96.141 237, 86.937 237 L 70.201 237 69.655 249.250 C 69.002 263.906, 69 265.276, 69.632 270.750 L 70.123 275 125.526 275 C 188.150 275, 181.334 274.024, 184.534 283.449 C 188.721 295.781, 201.199 311.180, 213.899 319.688 C 220.599 324.176, 233.354 330.542, 240.741 333.083 C 248.530 335.763, 265.470 335.763, 273.259 333.083 C 280.646 330.542, 293.401 324.176, 300.101 319.688 C 312.801 311.180, 325.279 295.781, 329.466 283.449 C 332.665 274.025, 325.875 275, 388.285 274.998 L 443.500 274.996 443.573 255.998 L 443.645 237 426.986 237 C 417.824 237, 392.816 236.690, 371.414 236.311 L 332.500 235.622 326.530 223.631 C 321.476 213.481, 319.262 210.277, 312.104 202.755 C 301.876 192.007, 292.644 185.816, 280 181.226 C 271.772 178.240, 269.027 177.732, 259.500 177.434 C 253.450 177.244, 246.700 177.479, 244.500 177.956 M 70.547 282.750 C 73.146 304.385, 85.349 336.495, 98.495 356.294 C 100.671 359.572, 101.887 362.374, 101.444 363.090 C 101.008 363.797, 101.108 364.051, 101.683 363.696 C 102.228 363.359, 106.162 367.322, 110.424 372.503 C 140.136 408.614, 181.748 432.050, 227.725 438.570 C 240.523 440.384, 267.178 440.612, 279.049 439.009 C 305.115 435.488, 329.047 427.312, 350.338 414.654 C 354.648 412.091, 359.265 409.721, 360.597 409.386 C 361.929 409.052, 363.266 408.378, 363.568 407.889 C 363.871 407.400, 364.913 407, 365.885 407 C 367.979 407, 372.453 402.541, 371.655 401.250 C 371.349 400.756, 374.263 397.685, 378.129 394.426 C 381.994 391.167, 388.388 384.895, 392.336 380.488 C 396.696 375.622, 400.148 372.597, 401.127 372.786 C 402.066 372.967, 404.529 371.003, 407.025 368.085 C 409.382 365.329, 411.760 363.352, 412.310 363.691 C 412.901 364.057, 412.993 363.798, 412.537 363.059 C 412.112 362.372, 412.359 360.698, 413.086 359.340 C 414.168 357.317, 414.172 356.725, 413.108 356.067 C 412.098 355.442, 412.365 354.382, 414.311 351.299 C 425.976 332.820, 434.771 308.138, 439.450 280.750 L 440.091 277 387.117 277 L 334.144 277 332.055 282.581 C 329.801 288.607, 327.110 294.198, 326.078 295 C 325.724 295.275, 323.931 297.876, 322.093 300.781 C 314.461 312.844, 292.838 328.099, 274 334.710 C 264.769 337.950, 249.231 337.950, 240 334.710 C 221.162 328.099, 199.539 312.844, 191.907 300.781 C 190.069 297.876, 188.276 295.275, 187.922 295 C 186.890 294.198, 184.199 288.607, 181.945 282.581 L 179.856 277 124.856 277 L 69.856 277 70.547 282.750" stroke="none" fill="#000000" fill-rule="evenodd"/><path d="M 215.250 109.748 C 222.813 109.917, 235.188 109.917, 242.750 109.748 C 250.313 109.578, 244.125 109.439, 229 109.439 C 213.875 109.439, 207.688 109.578, 215.250 109.748 M 270.750 109.747 C 278.038 109.918, 289.962 109.918, 297.250 109.747 C 304.538 109.577, 298.575 109.437, 284 109.437 C 269.425 109.437, 263.462 109.577, 270.750 109.747" stroke="none" fill="#f6b51e" fill-rule="evenodd"/><path d="M 168.250 104.749 C 179.112 104.910, 196.887 104.910, 207.750 104.749 C 218.612 104.587, 209.725 104.455, 188 104.455 C 166.275 104.455, 157.387 104.587, 168.250 104.749 M 306.250 104.749 C 317.112 104.910, 334.887 104.910, 345.750 104.749 C 356.613 104.587, 347.725 104.455, 326 104.455 C 304.275 104.455, 295.387 104.587, 306.250 104.749 M 166.296 106.744 C 170.583 106.932, 177.333 106.931, 181.296 106.742 C 185.258 106.552, 181.750 106.399, 173.500 106.400 C 165.250 106.401, 162.008 106.556, 166.296 106.744 M 333.296 106.744 C 337.583 106.932, 344.333 106.931, 348.296 106.742 C 352.258 106.552, 348.750 106.399, 340.500 106.400 C 332.250 106.401, 329.008 106.556, 333.296 106.744 M 182.750 150.750 C 223.588 150.895, 290.413 150.895, 331.250 150.750 C 372.088 150.605, 338.675 150.487, 257 150.487 C 175.325 150.487, 141.913 150.605, 182.750 150.750 M 187.750 152.750 C 225.837 152.895, 288.162 152.895, 326.250 152.750 C 364.337 152.605, 333.175 152.486, 257 152.486 C 180.825 152.486, 149.662 152.605, 187.750 152.750 M 156.500 234 L 132.500 234.555 156.191 234.777 C 171.151 234.918, 180.110 234.631, 180.500 234 C 180.840 233.450, 180.979 233.100, 180.809 233.223 C 180.639 233.345, 169.700 233.695, 156.500 234 M 333.867 234.269 C 334.291 234.692, 345.182 234.916, 358.069 234.767 L 381.500 234.497 357.298 233.999 C 343.988 233.724, 333.444 233.846, 333.867 234.269 M 139.302 236.746 C 144.693 236.926, 153.243 236.925, 158.302 236.744 C 163.361 236.563, 158.950 236.416, 148.500 236.417 C 138.050 236.418, 133.911 236.566, 139.302 236.746 M 356.302 236.746 C 361.693 236.926, 370.243 236.925, 375.302 236.744 C 380.361 236.563, 375.950 236.416, 365.500 236.417 C 355.050 236.418, 350.911 236.566, 356.302 236.746 M 198 309.500 C 199.866 311.425, 201.617 313, 201.892 313 C 202.167 313, 200.866 311.425, 199 309.500 C 197.134 307.575, 195.383 306, 195.108 306 C 194.833 306, 196.134 307.575, 198 309.500 M 314.946 309.750 L 311.500 313.500 315.250 310.054 C 317.313 308.158, 319 306.471, 319 306.304 C 319 305.540, 318.154 306.260, 314.946 309.750" stroke="none" fill="#171717" fill-rule="evenodd"/></svg>