<svg xmlns="http://www.w3.org/2000/svg" width="512" height="511" viewBox="0 0 512 511" version="1.1"><path d="M 176.500 21.603 C 152.587 22.866, 137.828 27.158, 117.737 38.689 C 88.584 55.422, 70.901 69.595, 56.740 87.577 C 50.926 94.960, 40.262 113.322, 39.072 118 C 36.609 127.679, 35.092 139.053, 35.552 144.381 C 36.269 152.676, 40.739 169.005, 44.949 178.706 L 47.209 183.913 43.623 197.206 C 37.446 220.103, 36.548 227.514, 36.557 255.500 C 36.563 275.290, 36.944 282.584, 38.381 290.500 C 44.193 322.504, 55.127 350.706, 71.298 375.396 C 120.882 451.103, 210.692 488.969, 299 471.400 C 356.329 459.994, 407.535 425.505, 439.963 376.455 C 456.735 351.085, 467.682 323.132, 473.624 290.500 C 475.072 282.545, 475.442 275.388, 475.434 255.500 C 475.421 227.498, 474.504 219.916, 468.377 197.206 L 464.791 183.913 467.051 178.706 C 471.261 169.005, 475.731 152.676, 476.448 144.381 C 476.908 139.053, 475.391 127.679, 472.928 118 C 471.738 113.322, 461.074 94.960, 455.260 87.577 C 441.099 69.595, 423.416 55.422, 394.263 38.689 C 372.724 26.326, 357.229 22.132, 332 21.834 C 322.542 21.722, 318.795 22.152, 310.899 24.254 C 301.349 26.796, 298.499 27.982, 288 33.785 C 282.646 36.745, 282.287 36.803, 274.500 35.967 C 264.591 34.903, 248.092 34.887, 237.500 35.931 C 229.799 36.690, 229.294 36.607, 224 33.732 C 213.120 27.823, 210.564 26.774, 201.367 24.441 C 190.892 21.784, 185.258 21.141, 176.500 21.603 M 313.731 43.448 C 308.091 45.633, 299.138 53.827, 296.919 58.835 C 294.017 65.384, 293.397 75.396, 295.450 82.561 C 299.446 96.510, 307.520 107.768, 324.989 123.751 C 336.483 134.267, 356.367 149, 359.066 149 C 360.215 149, 367.356 153.098, 378.827 160.341 C 390.182 167.510, 421.491 180, 428.107 180 C 433.831 180, 438.501 177.122, 444.386 169.968 C 453.307 159.124, 455.431 153.686, 455.841 140.641 L 456.183 129.782 451.948 121.641 C 449.618 117.163, 446.209 111.140, 444.372 108.256 C 440.178 101.670, 423.541 82.674, 417.812 77.928 C 415.441 75.963, 402.837 68.406, 389.804 61.134 C 369.244 49.662, 364.810 47.582, 356.304 45.415 C 343.786 42.227, 319.748 41.117, 313.731 43.448 M 169 44.032 C 154.009 45.805, 141.802 50.209, 123.482 60.456 C 102.102 72.413, 92.926 79.511, 81.595 92.855 C 70.887 105.464, 67.576 110.239, 61.957 121.180 L 56.818 131.183 57.166 140.841 C 57.585 152.474, 59.747 157.818, 68.427 168.674 C 77.667 180.230, 82.605 181.251, 99.705 175.145 C 127.850 165.095, 164.428 142.685, 187.500 121.356 C 202.291 107.683, 209.327 98.392, 214.168 86.136 C 217.008 78.949, 217.214 67.585, 214.627 60.905 C 212.555 55.557, 202.915 46.451, 197.140 44.388 C 193.174 42.971, 179.436 42.797, 169 44.032 M 243.500 65.586 C 241.300 65.802, 235.787 66.248, 231.250 66.579 L 223 67.180 223 70.575 C 223 73.874, 222.136 78.172, 219.396 88.500 C 213.973 108.942, 179.257 141.490, 141.527 161.505 C 120.811 172.495, 91.105 184, 83.444 184 C 78.811 184, 77.408 185.727, 74.510 195 C 70.068 209.208, 67.893 220.896, 67.297 233.750 L 66.730 246 128.730 246 L 190.730 246 192.968 239.250 C 201.798 212.619, 224.186 193.931, 252.539 189.523 C 262.806 187.927, 284.650 196, 296.278 205.686 C 306.690 214.360, 314.750 226.282, 318.968 239.250 L 321.163 246 384.582 246 L 448 246 447.982 240.250 C 447.943 228.138, 444.648 210.291, 439.315 193.306 L 436.742 185.112 431.121 184.471 C 422.312 183.468, 414.709 181.125, 398.033 174.274 C 362.397 159.635, 337.461 143.383, 313.080 118.906 C 303.570 109.358, 294.607 96.048, 292.604 88.500 C 289.870 78.193, 289 73.877, 289 70.614 C 289 67.362, 288.852 67.239, 284.250 66.649 C 278.019 65.851, 248.622 65.084, 243.500 65.586 M 215.256 121.250 C 214.687 121.969, 213.979 135.766, 213.589 153.750 L 212.911 185 221.255 185 C 226.412 185, 230.058 184.542, 230.800 183.800 C 231.597 183.003, 232 178.658, 232 170.859 C 232 164.401, 232.394 158.875, 232.875 158.577 C 233.357 158.279, 238.622 163.653, 244.575 170.518 C 250.529 177.383, 255.670 183, 256 183 C 256.330 183, 261.471 177.383, 267.425 170.518 C 273.378 163.653, 278.643 158.279, 279.125 158.577 C 279.606 158.875, 280 164.401, 280 170.859 C 280 178.658, 280.403 183.003, 281.200 183.800 C 281.942 184.542, 285.588 185, 290.745 185 L 299.089 185 298.425 153.750 C 297.701 119.712, 297.459 118.346, 292.624 120.934 C 291.285 121.650, 282.649 130.509, 273.432 140.618 C 264.216 150.728, 256.373 159, 256.004 159 C 255.634 159, 249.520 152.614, 242.416 144.809 C 219.309 119.419, 217.764 118.080, 215.256 121.250 M 218.013 125.750 C 218.020 126.162, 217.752 138.762, 217.417 153.750 L 216.808 181 222.404 181 L 228 181 228 166 C 228 147.947, 228.477 147.524, 237.288 157.769 C 240.472 161.471, 245.984 167.650, 249.538 171.500 L 256 178.500 262.462 171.500 C 266.016 167.650, 271.528 161.471, 274.712 157.769 C 283.523 147.524, 284 147.947, 284 166 L 284 181 289.596 181 L 295.192 181 294.559 153.297 C 294.211 138.060, 293.711 125.378, 293.448 125.114 C 293.184 124.851, 290.613 127.295, 287.734 130.546 C 271.080 149.350, 257.448 163.500, 255.986 163.500 C 254.540 163.500, 236.286 144.483, 223.592 129.750 C 219.742 125.282, 217.983 124.021, 218.013 125.750 M 244.892 214.449 C 229.035 218.823, 216.328 233.089, 214.158 248.954 C 209.726 281.363, 240.778 306.409, 271.253 295.006 C 300.558 284.042, 307.619 244.957, 284.130 223.736 C 273.897 214.492, 258.206 210.778, 244.892 214.449 M 70.345 276.028 C 72.423 295.906, 78.948 317.386, 89.019 337.500 C 103.959 367.338, 125.007 390.960, 153.373 409.725 C 203.468 442.864, 269.116 449.080, 325.552 426.029 C 365.423 409.744, 399.958 377.922, 419.906 339.088 C 430.276 318.899, 436.226 299.354, 439.493 274.742 L 440.125 269.983 383.372 270.242 L 326.619 270.500 324.982 276 C 315.873 306.600, 288.062 327.270, 256 327.270 C 224.668 327.270, 198.155 308.328, 187.857 278.587 L 185.057 270.500 127.385 270.242 L 69.713 269.984 70.345 276.028" stroke="none" fill="#000000" fill-rule="evenodd"/><path d="M 314.427 43.773 C 307.726 46.054, 299.342 53.292, 296.860 58.940 C 294.528 64.245, 293.152 78.358, 294.863 79.415 C 295.488 79.802, 296 81.374, 296 82.908 C 296 86.647, 301.974 97.846, 308.714 106.743 C 318.332 119.438, 352.343 147.989, 357.859 147.998 C 358.606 147.999, 364.906 151.433, 371.859 155.629 C 378.812 159.825, 386.136 164.086, 388.135 165.097 C 395.492 168.818, 416.888 177.052, 423.334 178.642 C 432.778 180.973, 436.638 179.386, 444.359 170.001 C 453.308 159.123, 455.431 153.695, 455.841 140.641 L 456.183 129.782 451.948 121.641 C 449.618 117.163, 446.163 111.068, 444.270 108.096 C 440.476 102.140, 426.153 85.639, 419.649 79.732 C 417.367 77.659, 403.800 69.460, 389.500 61.511 C 359.103 44.613, 355.146 43.283, 333 42.515 C 321.948 42.131, 318.580 42.360, 314.427 43.773 M 168.500 44.084 C 159.725 45.117, 145.503 49.206, 138.693 52.653 C 129.992 57.056, 108.774 69.082, 104 72.315 C 88.273 82.966, 71.679 102.253, 61.957 121.180 L 56.818 131.183 57.166 140.841 C 57.585 152.474, 59.747 157.818, 68.427 168.674 C 74.513 176.286, 78.986 179, 85.441 179 C 93.233 179, 117.081 168.752, 139.826 155.631 C 161.097 143.359, 172.535 135.129, 187.500 121.327 C 202.296 107.680, 209.317 98.416, 214.168 86.136 C 217.008 78.949, 217.214 67.585, 214.627 60.905 C 212.555 55.557, 202.915 46.451, 197.140 44.388 C 193.104 42.946, 179.396 42.801, 168.500 44.084" stroke="none" fill="#c613c5" fill-rule="evenodd"/><path d="M 218 152.917 L 218 180 222.750 180.001 L 227.500 180.002 227.500 165.268 C 227.500 152.464, 227.713 150.492, 229.125 150.217 C 230.155 150.017, 235.238 154.854, 243.029 163.451 C 249.782 170.903, 255.620 177, 256 177 C 256.380 177, 262.218 170.903, 268.971 163.451 C 276.762 154.854, 281.845 150.017, 282.875 150.217 C 284.287 150.492, 284.500 152.464, 284.500 165.268 L 284.500 180.002 289.250 180.001 L 294 180 294 152.917 C 294 138.021, 293.644 125.983, 293.209 126.167 C 292.292 126.554, 262.395 159.026, 259.667 162.599 C 258.658 163.919, 257.008 165, 256 165 C 254.992 165, 253.342 163.919, 252.333 162.599 C 249.605 159.026, 219.708 126.554, 218.791 126.167 C 218.356 125.983, 218 138.021, 218 152.917 M 249 214.126 C 231.086 217.030, 215.844 233.528, 214.327 251.656 C 212.876 268.995, 221.925 284.900, 237.668 292.680 C 244.213 295.915, 246.310 296.447, 253.979 296.813 C 267.467 297.458, 277.914 293.241, 286.852 283.544 C 304.137 264.793, 300.576 235.500, 279.225 220.811 C 270.770 214.994, 259.299 212.457, 249 214.126 M 70.636 274.750 C 72.167 286.004, 75.504 301.549, 78.188 309.927 C 101.515 382.751, 167.134 434.271, 242.375 438.837 C 257.759 439.770, 277.910 438.563, 289.500 436.014 C 294.450 434.925, 299.914 433.803, 301.642 433.521 C 311.439 431.921, 334.788 422.184, 349.277 413.657 C 387.392 391.225, 417.108 354.082, 430.931 311.593 C 434.715 299.961, 439 279.906, 439 273.825 L 439 271 383.071 271 L 327.142 271 325.481 276.750 C 320.205 295.020, 305.092 312.604, 287.417 321.040 C 276.656 326.175, 269.928 327.505, 255 327.448 C 242.946 327.402, 240.643 327.101, 233.500 324.641 C 210.469 316.706, 192.949 298.831, 186.517 276.707 L 184.858 271 127.492 271 L 70.126 271 70.636 274.750" stroke="none" fill="#ffffff" fill-rule="evenodd"/><path d="M 176.500 21.603 C 152.587 22.866, 137.828 27.158, 117.737 38.689 C 88.584 55.422, 70.901 69.595, 56.740 87.577 C 50.926 94.960, 40.262 113.322, 39.072 118 C 36.609 127.679, 35.092 139.053, 35.552 144.381 C 36.269 152.676, 40.739 169.005, 44.949 178.706 L 47.209 183.913 43.623 197.206 C 37.446 220.103, 36.548 227.514, 36.557 255.500 C 36.563 275.290, 36.944 282.584, 38.381 290.500 C 44.193 322.504, 55.127 350.706, 71.298 375.396 C 120.882 451.103, 210.692 488.969, 299 471.400 C 356.329 459.994, 407.535 425.505, 439.963 376.455 C 456.735 351.085, 467.682 323.132, 473.624 290.500 C 475.072 282.545, 475.442 275.388, 475.434 255.500 C 475.421 227.498, 474.504 219.916, 468.377 197.206 L 464.791 183.913 467.051 178.706 C 471.261 169.005, 475.731 152.676, 476.448 144.381 C 476.908 139.053, 475.391 127.679, 472.928 118 C 471.738 113.322, 461.074 94.960, 455.260 87.577 C 441.099 69.595, 423.416 55.422, 394.263 38.689 C 372.724 26.326, 357.229 22.132, 332 21.834 C 322.542 21.722, 318.795 22.152, 310.899 24.254 C 301.349 26.796, 298.499 27.982, 288 33.785 C 282.646 36.745, 282.287 36.803, 274.500 35.967 C 264.591 34.903, 248.092 34.887, 237.500 35.931 C 229.799 36.690, 229.294 36.607, 224 33.732 C 213.120 27.823, 210.564 26.774, 201.367 24.441 C 190.892 21.784, 185.258 21.141, 176.500 21.603 M 313.731 43.448 C 308.091 45.633, 299.138 53.827, 296.919 58.835 C 294.017 65.384, 293.397 75.396, 295.450 82.561 C 299.446 96.510, 307.520 107.768, 324.989 123.751 C 336.483 134.267, 356.367 149, 359.066 149 C 360.215 149, 367.356 153.098, 378.827 160.341 C 390.182 167.510, 421.491 180, 428.107 180 C 433.831 180, 438.501 177.122, 444.386 169.968 C 453.307 159.124, 455.431 153.686, 455.841 140.641 L 456.183 129.782 451.948 121.641 C 449.618 117.163, 446.209 111.140, 444.372 108.256 C 440.178 101.670, 423.541 82.674, 417.812 77.928 C 415.441 75.963, 402.837 68.406, 389.804 61.134 C 369.244 49.662, 364.810 47.582, 356.304 45.415 C 343.786 42.227, 319.748 41.117, 313.731 43.448 M 169 44.032 C 154.009 45.805, 141.802 50.209, 123.482 60.456 C 102.102 72.413, 92.926 79.511, 81.595 92.855 C 70.887 105.464, 67.576 110.239, 61.957 121.180 L 56.818 131.183 57.166 140.841 C 57.585 152.474, 59.747 157.818, 68.427 168.674 C 77.667 180.230, 82.605 181.251, 99.705 175.145 C 127.850 165.095, 164.428 142.685, 187.500 121.356 C 202.291 107.683, 209.327 98.392, 214.168 86.136 C 217.008 78.949, 217.214 67.585, 214.627 60.905 C 212.555 55.557, 202.915 46.451, 197.140 44.388 C 193.174 42.971, 179.436 42.797, 169 44.032 M 243.500 65.586 C 241.300 65.802, 235.787 66.248, 231.250 66.579 L 223 67.180 223 70.575 C 223 73.874, 222.136 78.172, 219.396 88.500 C 213.973 108.942, 179.257 141.490, 141.527 161.505 C 120.811 172.495, 91.105 184, 83.444 184 C 78.811 184, 77.408 185.727, 74.510 195 C 70.068 209.208, 67.893 220.896, 67.297 233.750 L 66.730 246 128.730 246 L 190.730 246 192.968 239.250 C 201.798 212.619, 224.186 193.931, 252.539 189.523 C 262.806 187.927, 284.650 196, 296.278 205.686 C 306.690 214.360, 314.750 226.282, 318.968 239.250 L 321.163 246 384.582 246 L 448 246 447.982 240.250 C 447.943 228.138, 444.648 210.291, 439.315 193.306 L 436.742 185.112 431.121 184.471 C 422.312 183.468, 414.709 181.125, 398.033 174.274 C 362.397 159.635, 337.461 143.383, 313.080 118.906 C 303.570 109.358, 294.607 96.048, 292.604 88.500 C 289.870 78.193, 289 73.877, 289 70.614 C 289 67.362, 288.852 67.239, 284.250 66.649 C 278.019 65.851, 248.622 65.084, 243.500 65.586 M 215.256 121.250 C 214.687 121.969, 213.979 135.766, 213.589 153.750 L 212.911 185 221.255 185 C 226.412 185, 230.058 184.542, 230.800 183.800 C 231.597 183.003, 232 178.658, 232 170.859 C 232 164.401, 232.394 158.875, 232.875 158.577 C 233.357 158.279, 238.622 163.653, 244.575 170.518 C 250.529 177.383, 255.670 183, 256 183 C 256.330 183, 261.471 177.383, 267.425 170.518 C 273.378 163.653, 278.643 158.279, 279.125 158.577 C 279.606 158.875, 280 164.401, 280 170.859 C 280 178.658, 280.403 183.003, 281.200 183.800 C 281.942 184.542, 285.588 185, 290.745 185 L 299.089 185 298.425 153.750 C 297.701 119.712, 297.459 118.346, 292.624 120.934 C 291.285 121.650, 282.649 130.509, 273.432 140.618 C 264.216 150.728, 256.373 159, 256.004 159 C 255.634 159, 249.520 152.614, 242.416 144.809 C 219.309 119.419, 217.764 118.080, 215.256 121.250 M 218.013 125.750 C 218.020 126.162, 217.752 138.762, 217.417 153.750 L 216.808 181 222.404 181 L 228 181 228 166 C 228 147.947, 228.477 147.524, 237.288 157.769 C 240.472 161.471, 245.984 167.650, 249.538 171.500 L 256 178.500 262.462 171.500 C 266.016 167.650, 271.528 161.471, 274.712 157.769 C 283.523 147.524, 284 147.947, 284 166 L 284 181 289.596 181 L 295.192 181 294.559 153.297 C 294.211 138.060, 293.711 125.378, 293.448 125.114 C 293.184 124.851, 290.613 127.295, 287.734 130.546 C 271.080 149.350, 257.448 163.500, 255.986 163.500 C 254.540 163.500, 236.286 144.483, 223.592 129.750 C 219.742 125.282, 217.983 124.021, 218.013 125.750 M 244.892 214.449 C 229.035 218.823, 216.328 233.089, 214.158 248.954 C 209.726 281.363, 240.778 306.409, 271.253 295.006 C 300.558 284.042, 307.619 244.957, 284.130 223.736 C 273.897 214.492, 258.206 210.778, 244.892 214.449 M 70.345 276.028 C 72.423 295.906, 78.948 317.386, 89.019 337.500 C 103.959 367.338, 125.007 390.960, 153.373 409.725 C 203.468 442.864, 269.116 449.080, 325.552 426.029 C 365.423 409.744, 399.958 377.922, 419.906 339.088 C 430.276 318.899, 436.226 299.354, 439.493 274.742 L 440.125 269.983 383.372 270.242 L 326.619 270.500 324.982 276 C 315.873 306.600, 288.062 327.270, 256 327.270 C 224.668 327.270, 198.155 308.328, 187.857 278.587 L 185.057 270.500 127.385 270.242 L 69.713 269.984 70.345 276.028" stroke="none" fill="#000000" fill-rule="evenodd"/><path d="M 218 152.917 L 218 180 222.750 180.001 L 227.500 180.002 227.500 165.268 C 227.500 152.464, 227.713 150.492, 229.125 150.217 C 230.155 150.017, 235.238 154.854, 243.029 163.451 C 249.782 170.903, 255.620 177, 256 177 C 256.380 177, 262.218 170.903, 268.971 163.451 C 276.762 154.854, 281.845 150.017, 282.875 150.217 C 284.287 150.492, 284.500 152.464, 284.500 165.268 L 284.500 180.002 289.250 180.001 L 294 180 294 152.917 C 294 138.021, 293.644 125.983, 293.209 126.167 C 292.292 126.554, 262.395 159.026, 259.667 162.599 C 258.658 163.919, 257.008 165, 256 165 C 254.992 165, 253.342 163.919, 252.333 162.599 C 249.605 159.026, 219.708 126.554, 218.791 126.167 C 218.356 125.983, 218 138.021, 218 152.917 M 249 214.126 C 231.086 217.030, 215.844 233.528, 214.327 251.656 C 212.876 268.995, 221.925 284.900, 237.668 292.680 C 244.213 295.915, 246.310 296.447, 253.979 296.813 C 267.467 297.458, 277.914 293.241, 286.852 283.544 C 304.137 264.793, 300.576 235.500, 279.225 220.811 C 270.770 214.994, 259.299 212.457, 249 214.126 M 70.636 274.750 C 72.167 286.004, 75.504 301.549, 78.188 309.927 C 101.515 382.751, 167.134 434.271, 242.375 438.837 C 257.759 439.770, 277.910 438.563, 289.500 436.014 C 294.450 434.925, 299.914 433.803, 301.642 433.521 C 311.439 431.921, 334.788 422.184, 349.277 413.657 C 387.392 391.225, 417.108 354.082, 430.931 311.593 C 434.715 299.961, 439 279.906, 439 273.825 L 439 271 383.071 271 L 327.142 271 325.481 276.750 C 320.205 295.020, 305.092 312.604, 287.417 321.040 C 276.656 326.175, 269.928 327.505, 255 327.448 C 242.946 327.402, 240.643 327.101, 233.500 324.641 C 210.469 316.706, 192.949 298.831, 186.517 276.707 L 184.858 271 127.492 271 L 70.126 271 70.636 274.750" stroke="none" fill="#ffffff" fill-rule="evenodd"/><path d="M 243.500 65.586 C 241.300 65.802, 235.787 66.248, 231.250 66.579 L 223 67.180 223 70.575 C 223 73.874, 222.136 78.172, 219.396 88.500 C 213.973 108.942, 179.257 141.490, 141.527 161.505 C 120.811 172.495, 91.105 184, 83.444 184 C 78.811 184, 77.408 185.727, 74.510 195 C 70.068 209.208, 67.893 220.896, 67.297 233.750 L 66.730 246 128.730 246 L 190.730 246 192.968 239.250 C 201.798 212.619, 224.186 193.931, 252.539 189.523 C 262.806 187.927, 284.650 196, 296.278 205.686 C 306.690 214.360, 314.750 226.282, 318.968 239.250 L 321.163 246 384.582 246 L 448 246 447.982 240.250 C 447.943 228.138, 444.648 210.291, 439.315 193.306 L 436.742 185.112 431.121 184.471 C 422.312 183.468, 414.709 181.125, 398.033 174.274 C 362.397 159.635, 337.461 143.383, 313.080 118.906 C 303.570 109.358, 294.607 96.048, 292.604 88.500 C 289.870 78.193, 289 73.877, 289 70.614 C 289 67.362, 288.852 67.239, 284.250 66.649 C 278.019 65.851, 248.622 65.084, 243.500 65.586 M 215.256 121.250 C 214.687 121.969, 213.979 135.766, 213.589 153.750 L 212.911 185 221.255 185 C 226.412 185, 230.058 184.542, 230.800 183.800 C 231.597 183.003, 232 178.658, 232 170.859 C 232 164.401, 232.394 158.875, 232.875 158.577 C 233.357 158.279, 238.622 163.653, 244.575 170.518 C 250.529 177.383, 255.670 183, 256 183 C 256.330 183, 261.471 177.383, 267.425 170.518 C 273.378 163.653, 278.643 158.279, 279.125 158.577 C 279.606 158.875, 280 164.401, 280 170.859 C 280 178.658, 280.403 183.003, 281.200 183.800 C 281.942 184.542, 285.588 185, 290.745 185 L 299.089 185 298.425 153.750 C 297.701 119.712, 297.459 118.346, 292.624 120.934 C 291.285 121.650, 282.649 130.509, 273.432 140.618 C 264.216 150.728, 256.373 159, 256.004 159 C 255.634 159, 249.520 152.614, 242.416 144.809 C 219.309 119.419, 217.764 118.080, 215.256 121.250 M 217.378 163 C 217.378 169.325, 217.541 171.912, 217.739 168.750 C 217.937 165.588, 217.937 160.412, 217.739 157.250 C 217.541 154.088, 217.378 156.675, 217.378 163 M 294.378 163 C 294.378 169.325, 294.541 171.912, 294.739 168.750 C 294.937 165.588, 294.937 160.412, 294.739 157.250 C 294.541 154.088, 294.378 156.675, 294.378 163 M 90 270.726 C 142.845 271.420, 185.767 271.431, 185.346 270.750 C 185.091 270.337, 158.921 270.103, 127.191 270.229 C 95.461 270.354, 78.725 270.578, 90 270.726 M 354.679 270.749 C 370.177 270.904, 395.827 270.904, 411.679 270.750 C 427.530 270.595, 414.850 270.468, 383.500 270.468 C 352.150 270.468, 339.180 270.594, 354.679 270.749 M 123.500 386 C 126.209 388.750, 128.650 391, 128.925 391 C 129.200 391, 127.209 388.750, 124.500 386 C 121.791 383.250, 119.350 381, 119.075 381 C 118.800 381, 120.791 383.250, 123.500 386" stroke="none" fill="#8117ed" fill-rule="evenodd"/><path d="M 230 138.313 C 230 138.485, 231.463 139.948, 233.250 141.563 L 236.500 144.500 233.563 141.250 C 230.825 138.221, 230 137.540, 230 138.313 M 278.437 141.250 L 275.500 144.500 278.750 141.563 C 281.779 138.825, 282.460 138, 281.687 138 C 281.515 138, 280.052 139.463, 278.437 141.250 M 227.437 151.303 C 227.162 152.019, 227.066 158.432, 227.223 165.553 L 227.510 178.500 228.005 164.248 C 228.277 156.410, 228.373 149.997, 228.219 149.998 C 228.064 149.999, 227.712 150.586, 227.437 151.303 M 241 150.313 C 241 150.485, 242.463 151.948, 244.250 153.563 L 247.500 156.500 244.563 153.250 C 241.825 150.221, 241 149.540, 241 150.313 M 267.437 153.250 L 264.500 156.500 267.750 153.563 C 270.779 150.825, 271.460 150, 270.687 150 C 270.515 150, 269.052 151.463, 267.437 153.250 M 283.996 164.297 L 284.492 178.500 284.776 165.080 C 284.933 157.699, 284.709 151.308, 284.280 150.877 C 283.851 150.446, 283.723 156.485, 283.996 164.297 M 217.160 177.250 L 217 181 222.750 180.815 L 228.500 180.630 223.310 180.265 C 218.313 179.913, 218.104 179.780, 217.720 176.700 C 217.334 173.611, 217.315 173.630, 217.160 177.250 M 294 176.948 C 294 179.790, 293.813 179.909, 288.750 180.263 L 283.500 180.630 289.250 180.815 L 295 181 295 177.500 C 295 175.575, 294.775 174, 294.500 174 C 294.225 174, 294 175.326, 294 176.948 M 225.453 226.250 L 221.500 230.500 225.750 226.547 C 228.088 224.373, 230 222.460, 230 222.297 C 230 221.540, 229.129 222.298, 225.453 226.250 M 285 225.500 C 286.866 227.425, 288.617 229, 288.892 229 C 289.167 229, 287.866 227.425, 286 225.500 C 284.134 223.575, 282.383 222, 282.108 222 C 281.833 222, 283.134 223.575, 285 225.500 M 223 282.313 C 223 282.485, 224.463 283.948, 226.250 285.563 L 229.500 288.500 226.563 285.250 C 223.825 282.221, 223 281.540, 223 282.313 M 285.437 285.250 L 282.500 288.500 285.750 285.563 C 287.538 283.948, 289 282.485, 289 282.313 C 289 281.540, 288.175 282.221, 285.437 285.250 M 253.750 297.706 C 254.988 297.944, 257.012 297.944, 258.250 297.706 C 259.488 297.467, 258.475 297.272, 256 297.272 C 253.525 297.272, 252.512 297.467, 253.750 297.706 M 204.500 307 C 207.209 309.750, 209.650 312, 209.925 312 C 210.200 312, 208.209 309.750, 205.500 307 C 202.791 304.250, 200.350 302, 200.075 302 C 199.800 302, 201.791 304.250, 204.500 307 M 306.453 307.250 L 302.500 311.500 306.750 307.547 C 310.702 303.871, 311.460 303, 310.703 303 C 310.540 303, 308.627 304.913, 306.453 307.250 M 246.264 439.718 C 247.784 439.947, 250.034 439.941, 251.264 439.704 C 252.494 439.467, 251.250 439.279, 248.500 439.286 C 245.750 439.294, 244.744 439.488, 246.264 439.718 M 258.264 439.718 C 259.784 439.947, 262.034 439.941, 263.264 439.704 C 264.494 439.467, 263.250 439.279, 260.500 439.286 C 257.750 439.294, 256.744 439.488, 258.264 439.718" stroke="none" fill="#fbfbfb" fill-rule="evenodd"/><path d="" stroke="none" fill="#a014d8" fill-rule="evenodd"/></svg>