<svg xmlns="http://www.w3.org/2000/svg" width="512" height="511" viewBox="0 0 512 511" version="1.1"><path d="M 245.024 214.603 C 233.202 217.780, 223.796 225.587, 218.235 236.840 C 214.602 244.191, 214.500 244.697, 214.500 255.469 C 214.500 266.056, 214.650 266.848, 217.929 273.521 C 224.254 286.395, 235.555 294.752, 249.830 297.109 C 267.961 300.103, 286.219 290.315, 294.291 273.274 C 297.298 266.927, 297.500 265.807, 297.500 255.500 C 297.500 245.251, 297.288 244.056, 294.390 238 C 285.216 218.828, 264.984 209.239, 245.024 214.603 M 70.486 276.242 C 74.075 304.179, 84.434 332.761, 99.030 355 C 127.553 398.462, 172.835 428.443, 222.690 436.875 C 268.141 444.563, 312.761 436.116, 351.756 412.441 C 398.964 383.780, 432.301 332.215, 438.833 277.750 L 439.642 271 383.071 271.009 L 326.500 271.019 324.285 278.259 C 317.483 300.493, 297.259 319.473, 273.926 325.519 C 250.689 331.541, 225.384 325.171, 207.458 308.788 C 197.859 300.014, 191.925 290.917, 187.378 278 L 185.090 271.500 127.450 271.242 L 69.810 270.984 70.486 276.242" stroke="none" fill="#ffffff" fill-rule="evenodd"/><path d="M 245.024 214.603 C 233.202 217.780, 223.796 225.587, 218.235 236.840 C 214.602 244.191, 214.500 244.697, 214.500 255.469 C 214.500 266.056, 214.650 266.848, 217.929 273.521 C 224.254 286.395, 235.555 294.752, 249.830 297.109 C 267.961 300.103, 286.219 290.315, 294.291 273.274 C 297.298 266.927, 297.500 265.807, 297.500 255.500 C 297.500 245.251, 297.288 244.056, 294.390 238 C 285.216 218.828, 264.984 209.239, 245.024 214.603 M 70.486 276.242 C 74.075 304.179, 84.434 332.761, 99.030 355 C 127.553 398.462, 172.835 428.443, 222.690 436.875 C 268.141 444.563, 312.761 436.116, 351.756 412.441 C 398.964 383.780, 432.301 332.215, 438.833 277.750 L 439.642 271 383.071 271.009 L 326.500 271.019 324.285 278.259 C 317.483 300.493, 297.259 319.473, 273.926 325.519 C 250.689 331.541, 225.384 325.171, 207.458 308.788 C 197.859 300.014, 191.925 290.917, 187.378 278 L 185.090 271.500 127.450 271.242 L 69.810 270.984 70.486 276.242" stroke="none" fill="#ffffff" fill-rule="evenodd"/><path d="M 235.500 36.056 C 184.679 41.034, 137.472 63.070, 101.500 98.608 C 66.074 133.607, 43.688 178.832, 37.454 228 C 35.345 244.635, 35.874 276.204, 38.510 291 C 44.055 322.133, 55.198 350.813, 71.298 375.396 C 120.882 451.103, 210.692 488.969, 299 471.400 C 356.329 459.994, 407.535 425.505, 439.963 376.455 C 456.735 351.085, 467.682 323.132, 473.624 290.500 C 476.178 276.472, 476.214 235.052, 473.684 220.500 C 461.625 151.121, 420.422 93.708, 359 60.698 C 322.809 41.247, 276.611 32.029, 235.500 36.056 M 237.500 72.033 C 200.950 76.201, 166.137 91.078, 138.059 114.530 C 102.428 144.290, 78.483 188.088, 73.154 233.250 L 72.358 240 128.929 239.991 L 185.500 239.981 187.715 232.741 C 190.830 222.559, 196.283 213.785, 205 204.930 C 223.291 186.348, 249.134 179.056, 273.926 185.481 C 297.259 191.527, 317.483 210.507, 324.285 232.741 L 326.500 239.981 384.344 239.991 L 442.188 240 441.513 234.750 C 430.964 152.642, 369.625 87.949, 289 73.900 C 275.751 71.591, 249.668 70.646, 237.500 72.033 M 245.251 214.545 C 230.998 218.383, 220.043 228.807, 215.501 242.854 C 212.720 251.455, 213.691 264.615, 217.745 273.274 C 232.773 305.367, 278.062 305.933, 293.734 274.223 C 297.405 266.796, 297.500 266.324, 297.500 255.500 C 297.500 244.676, 297.405 244.204, 293.734 236.777 C 284.705 218.506, 264.665 209.317, 245.251 214.545 M 70.429 276.242 C 73.189 301.300, 83.185 329.890, 96.904 351.961 C 142.555 425.405, 232.022 457.490, 314.383 429.953 C 380.221 407.940, 428.580 349.715, 438.512 280.500 C 439.222 275.550, 439.484 271.159, 439.093 270.742 C 438.703 270.324, 413.309 270.099, 382.663 270.242 L 326.943 270.500 324.143 278.587 C 320.189 290.006, 314.880 298.301, 305.825 307.209 C 299.669 313.265, 296.006 315.892, 288.744 319.458 C 276.344 325.548, 268.882 327.345, 256 327.345 C 242.978 327.345, 235.548 325.531, 223 319.289 C 215.291 315.455, 211.991 313.046, 205.500 306.513 C 196.254 297.209, 191.596 289.852, 187.795 278.545 L 185.090 270.500 127.415 270.242 L 69.740 269.984 70.429 276.242" stroke="none" fill="#000000" fill-rule="evenodd"/><path d="M 237.500 72.033 C 200.950 76.201, 166.137 91.078, 138.059 114.530 C 102.428 144.290, 78.483 188.088, 73.154 233.250 L 72.358 240 128.929 239.991 L 185.500 239.981 187.715 232.741 C 190.830 222.559, 196.283 213.785, 205 204.930 C 223.291 186.348, 249.134 179.056, 273.926 185.481 C 297.259 191.527, 317.483 210.507, 324.285 232.741 L 326.500 239.981 384.344 239.991 L 442.188 240 441.513 234.750 C 430.964 152.642, 369.625 87.949, 289 73.900 C 275.751 71.591, 249.668 70.646, 237.500 72.033 M 90 270.726 C 142.845 271.420, 185.767 271.431, 185.346 270.750 C 185.091 270.337, 158.921 270.103, 127.191 270.229 C 95.461 270.354, 78.725 270.578, 90 270.726 M 354.750 270.749 C 370.288 270.904, 395.713 270.904, 411.250 270.749 C 426.788 270.594, 414.075 270.468, 383 270.468 C 351.925 270.468, 339.213 270.594, 354.750 270.749" stroke="none" fill="#ff1c1c" fill-rule="evenodd"/><path d="M 235.500 36.056 C 184.679 41.034, 137.472 63.070, 101.500 98.608 C 66.074 133.607, 43.688 178.832, 37.454 228 C 35.345 244.635, 35.874 276.204, 38.510 291 C 44.055 322.133, 55.198 350.813, 71.298 375.396 C 120.882 451.103, 210.692 488.969, 299 471.400 C 356.329 459.994, 407.535 425.505, 439.963 376.455 C 456.735 351.085, 467.682 323.132, 473.624 290.500 C 476.178 276.472, 476.214 235.052, 473.684 220.500 C 461.625 151.121, 420.422 93.708, 359 60.698 C 322.809 41.247, 276.611 32.029, 235.500 36.056 M 237.500 72.033 C 200.950 76.201, 166.137 91.078, 138.059 114.530 C 102.428 144.290, 78.483 188.088, 73.154 233.250 L 72.358 240 128.929 239.991 L 185.500 239.981 187.715 232.741 C 190.830 222.559, 196.283 213.785, 205 204.930 C 223.291 186.348, 249.134 179.056, 273.926 185.481 C 297.259 191.527, 317.483 210.507, 324.285 232.741 L 326.500 239.981 384.344 239.991 L 442.188 240 441.513 234.750 C 430.964 152.642, 369.625 87.949, 289 73.900 C 275.751 71.591, 249.668 70.646, 237.500 72.033 M 245.251 214.545 C 230.998 218.383, 220.043 228.807, 215.501 242.854 C 212.720 251.455, 213.691 264.615, 217.745 273.274 C 232.773 305.367, 278.062 305.933, 293.734 274.223 C 297.405 266.796, 297.500 266.324, 297.500 255.500 C 297.500 244.676, 297.405 244.204, 293.734 236.777 C 284.705 218.506, 264.665 209.317, 245.251 214.545 M 70.429 276.242 C 73.189 301.300, 83.185 329.890, 96.904 351.961 C 142.555 425.405, 232.022 457.490, 314.383 429.953 C 380.221 407.940, 428.580 349.715, 438.512 280.500 C 439.222 275.550, 439.484 271.159, 439.093 270.742 C 438.703 270.324, 413.309 270.099, 382.663 270.242 L 326.943 270.500 324.143 278.587 C 320.189 290.006, 314.880 298.301, 305.825 307.209 C 299.669 313.265, 296.006 315.892, 288.744 319.458 C 276.344 325.548, 268.882 327.345, 256 327.345 C 242.978 327.345, 235.548 325.531, 223 319.289 C 215.291 315.455, 211.991 313.046, 205.500 306.513 C 196.254 297.209, 191.596 289.852, 187.795 278.545 L 185.090 270.500 127.415 270.242 L 69.740 269.984 70.429 276.242" stroke="none" fill="#000000" fill-rule="evenodd"/><path d="M 235.500 36.056 C 184.679 41.034, 137.472 63.070, 101.500 98.608 C 66.074 133.607, 43.688 178.832, 37.454 228 C 35.345 244.635, 35.874 276.204, 38.510 291 C 44.055 322.133, 55.198 350.813, 71.298 375.396 C 120.882 451.103, 210.692 488.969, 299 471.400 C 356.329 459.994, 407.535 425.505, 439.963 376.455 C 456.735 351.085, 467.682 323.132, 473.624 290.500 C 476.178 276.472, 476.214 235.052, 473.684 220.500 C 461.625 151.121, 420.422 93.708, 359 60.698 C 322.809 41.247, 276.611 32.029, 235.500 36.056 M 237.500 72.033 C 200.950 76.201, 166.137 91.078, 138.059 114.530 C 102.428 144.290, 78.483 188.088, 73.154 233.250 L 72.358 240 128.929 239.991 L 185.500 239.981 187.715 232.741 C 190.830 222.559, 196.283 213.785, 205 204.930 C 223.291 186.348, 249.134 179.056, 273.926 185.481 C 297.259 191.527, 317.483 210.507, 324.285 232.741 L 326.500 239.981 384.344 239.991 L 442.188 240 441.513 234.750 C 430.964 152.642, 369.625 87.949, 289 73.900 C 275.751 71.591, 249.668 70.646, 237.500 72.033 M 245.251 214.545 C 230.998 218.383, 220.043 228.807, 215.501 242.854 C 212.720 251.455, 213.691 264.615, 217.745 273.274 C 232.773 305.367, 278.062 305.933, 293.734 274.223 C 297.405 266.796, 297.500 266.324, 297.500 255.500 C 297.500 244.676, 297.405 244.204, 293.734 236.777 C 284.705 218.506, 264.665 209.317, 245.251 214.545 M 70.429 276.242 C 73.189 301.300, 83.185 329.890, 96.904 351.961 C 142.555 425.405, 232.022 457.490, 314.383 429.953 C 380.221 407.940, 428.580 349.715, 438.512 280.500 C 439.222 275.550, 439.484 271.159, 439.093 270.742 C 438.703 270.324, 413.309 270.099, 382.663 270.242 L 326.943 270.500 324.143 278.587 C 320.189 290.006, 314.880 298.301, 305.825 307.209 C 299.669 313.265, 296.006 315.892, 288.744 319.458 C 276.344 325.548, 268.882 327.345, 256 327.345 C 242.978 327.345, 235.548 325.531, 223 319.289 C 215.291 315.455, 211.991 313.046, 205.500 306.513 C 196.254 297.209, 191.596 289.852, 187.795 278.545 L 185.090 270.500 127.415 270.242 L 69.740 269.984 70.429 276.242" stroke="none" fill="#000000" fill-rule="evenodd"/></svg>