<svg xmlns="http://www.w3.org/2000/svg" width="512" height="511" viewBox="0 0 512 511" version="1.1"><path d="M 246.500 184.638 C 237.570 186.451, 230.382 188.840, 224 192.116 C 206.659 201.017, 194.129 215.669, 187.968 234.250 L 185.730 241 130.365 241 L 75 241 74.795 243.250 C 74.682 244.488, 74.569 251.234, 74.545 258.243 L 74.500 270.985 129.586 270.993 L 184.672 271 186.363 277.082 C 192.318 298.502, 210.415 317.065, 232.725 324.636 C 238.872 326.722, 243.012 327.371, 252.500 327.733 C 267.856 328.320, 276.329 326.611, 288.945 320.383 C 296.773 316.518, 299.856 314.246, 306.960 307.110 C 316.597 297.430, 321.808 289.206, 325.171 278.372 L 327.459 271 382.480 270.993 L 437.500 270.985 437.455 258.243 C 437.431 251.234, 437.318 244.488, 437.205 243.250 L 437 241 381.582 241 L 326.163 241 323.968 234.250 C 319.750 221.282, 311.690 209.360, 301.278 200.686 C 293.660 194.341, 279.455 187.516, 269.792 185.560 C 262.678 184.120, 251.274 183.669, 246.500 184.638 M 243.413 215.767 C 223.742 222.787, 211.154 243.047, 214.859 261.723 C 219.909 287.176, 244.371 302.380, 268.354 294.972 C 283.033 290.439, 294.195 277.528, 297.109 261.713 C 300.218 244.839, 290.067 226.081, 273.381 217.867 C 267.579 215.010, 265.511 214.538, 257.602 214.265 C 250.720 214.028, 247.259 214.394, 243.413 215.767" stroke="none" fill="#ff1c1c" fill-rule="evenodd"/><path d="M 235.500 36.056 C 184.679 41.034, 137.472 63.070, 101.500 98.608 C 66.074 133.607, 43.688 178.832, 37.454 228 C 35.345 244.635, 35.874 276.204, 38.510 291 C 44.055 322.133, 55.198 350.813, 71.298 375.396 C 120.882 451.103, 210.692 488.969, 299 471.400 C 356.329 459.994, 407.535 425.505, 439.963 376.455 C 456.735 351.085, 467.682 323.132, 473.624 290.500 C 476.178 276.472, 476.214 235.052, 473.684 220.500 C 461.625 151.121, 420.422 93.708, 359 60.698 C 322.809 41.247, 276.611 32.029, 235.500 36.056 M 240.442 70.085 C 175.264 74.795, 116.544 115.343, 87.975 175.370 C 78.842 194.559, 72.673 216.216, 71.330 233.804 C 70.748 241.415, 70.854 242.149, 72.598 242.609 C 74.350 243.070, 74.500 244.187, 74.500 256.805 C 74.500 270.427, 74.487 270.502, 72.145 270.833 C 69.894 271.152, 69.820 271.415, 70.467 276.833 C 73.478 302.044, 83.396 330.228, 96.904 351.961 C 142.549 425.396, 232.033 457.486, 314.383 429.953 C 377.092 408.986, 425.120 353.905, 436.851 289.500 C 439.952 272.474, 440.051 271.234, 438.369 270.588 C 437.142 270.117, 436.942 267.712, 437.195 256.514 L 437.500 243.008 440.750 242.393 C 444.526 241.678, 444.474 242.093, 442.510 228.279 C 433.843 167.314, 395.359 114.811, 339.623 87.913 C 317.545 77.259, 296.909 71.859, 271.171 70.003 C 256.249 68.927, 256.465 68.927, 240.442 70.085" stroke="none" fill="#040404" fill-rule="evenodd"/><path d="M 240.442 70.085 C 175.264 74.795, 116.544 115.343, 87.975 175.370 C 78.858 194.524, 72.674 216.215, 71.335 233.725 C 70.770 241.117, 70.892 242.022, 72.543 242.655 C 73.637 243.075, 74.539 242.883, 74.773 242.180 C 75.069 241.292, 88.863 241, 130.448 241 L 185.730 241 187.968 234.250 C 195.576 211.307, 213.853 193.578, 236.817 186.868 C 272.867 176.334, 312.062 197.643, 323.968 234.250 L 326.163 241 381.582 241 C 420.580 241, 437 241.320, 437 242.079 C 437 243.015, 442.692 242.496, 443.844 241.456 C 444.491 240.872, 441.863 222.518, 439.914 214 C 427.189 158.402, 390.746 112.585, 339.623 87.913 C 317.545 77.259, 296.909 71.859, 271.171 70.003 C 256.249 68.927, 256.465 68.927, 240.442 70.085 M 243.413 215.767 C 223.742 222.787, 211.154 243.047, 214.859 261.723 C 219.909 287.176, 244.371 302.380, 268.354 294.972 C 283.033 290.439, 294.195 277.528, 297.109 261.713 C 300.218 244.839, 290.067 226.081, 273.381 217.867 C 267.579 215.010, 265.511 214.538, 257.602 214.265 C 250.720 214.028, 247.259 214.394, 243.413 215.767 M 70.487 276.250 C 74.836 310.099, 89.208 344.625, 109.304 369.500 C 115.633 377.334, 130.852 392.670, 138 398.416 C 187.240 438.001, 253.652 450.136, 313 430.394 C 368.997 411.767, 412.707 367.919, 431.024 312 C 434.998 299.868, 437.493 288.926, 438.833 277.750 L 439.642 271 383.551 271 L 327.459 271 325.171 278.372 C 321.808 289.206, 316.597 297.430, 306.960 307.110 C 299.856 314.246, 296.773 316.518, 288.945 320.383 C 276.329 326.611, 267.856 328.320, 252.500 327.733 C 243.012 327.371, 238.872 326.722, 232.725 324.636 C 210.415 317.065, 192.318 298.502, 186.363 277.082 L 184.672 271 127.242 271 L 69.812 271 70.487 276.250" stroke="none" fill="#fbfbfb" fill-rule="evenodd"/></svg>