<svg xmlns="http://www.w3.org/2000/svg" width="512" height="511" viewBox="0 0 512 511" version="1.1"><path d="M 246.459 214.332 C 227.936 219.064, 215.250 233.965, 214.193 252.234 C 212.876 274.973, 227.350 293.167, 249.917 297.142 C 261.829 299.240, 276.805 294.290, 285.821 285.274 C 288.484 282.612, 292.199 277.310, 294.080 273.489 C 297.324 266.902, 297.499 266.003, 297.476 256.022 C 297.456 247.512, 297.028 244.448, 295.233 240 C 290.698 228.758, 280.589 219.131, 269.523 215.517 C 262.712 213.292, 252.570 212.771, 246.459 214.332" stroke="none" fill="#ffffff" fill-rule="evenodd"/><path d="M 235.500 36.056 C 184.679 41.034, 137.472 63.070, 101.500 98.608 C 66.074 133.607, 43.688 178.832, 37.454 228 C 35.345 244.635, 35.874 276.204, 38.510 291 C 44.055 322.133, 55.198 350.813, 71.298 375.396 C 120.882 451.103, 210.692 488.969, 299 471.400 C 356.329 459.994, 407.535 425.505, 439.963 376.455 C 456.735 351.085, 467.682 323.132, 473.624 290.500 C 476.178 276.472, 476.214 235.052, 473.684 220.500 C 461.625 151.121, 420.422 93.708, 359 60.698 C 322.809 41.247, 276.611 32.029, 235.500 36.056 M 241.442 71.085 C 221.397 72.533, 200.439 77.873, 180.606 86.585 C 175.165 88.976, 169.827 91.882, 168.744 93.044 C 166.782 95.150, 166.784 95.165, 169.217 97.828 C 170.560 99.298, 180.997 110.975, 192.412 123.777 L 213.165 147.055 233.947 127.027 C 248.535 112.969, 255.406 107, 257 107 C 258.594 107, 265.465 112.969, 280.053 127.027 L 300.835 147.055 321.588 123.777 C 333.003 110.975, 343.440 99.298, 344.783 97.828 C 347.191 95.193, 347.198 95.129, 345.317 93.109 C 340.439 87.874, 313.223 77.659, 294.550 74.056 C 285.108 72.233, 259.982 69.784, 254.500 70.152 C 253.400 70.225, 247.524 70.645, 241.442 71.085 M 154 100.533 C 149.875 102.905, 144.475 106.455, 142 108.423 C 139.525 110.391, 135.588 113.353, 133.250 115.007 C 130.912 116.660, 129.006 118.797, 129.013 119.756 C 129.020 120.715, 138.752 132.300, 150.640 145.500 C 162.528 158.700, 175.178 172.763, 178.750 176.751 L 185.247 184.002 165.373 204.547 C 154.443 215.848, 141.979 228.888, 137.674 233.526 L 129.849 241.960 158.281 241.967 L 186.714 241.973 189.333 234.336 C 194.422 219.493, 206.347 203.748, 216 199.125 C 218.475 197.940, 222.975 195.418, 226 193.521 C 233.544 188.790, 234.767 188.311, 244.174 186.405 C 253.605 184.494, 263.249 184.945, 274.500 187.823 C 281.438 189.599, 283.763 190.697, 292.861 196.500 C 307.530 205.857, 317.659 218.889, 322.967 235.239 L 325.155 241.977 354.653 241.968 L 384.150 241.958 376.325 233.526 C 372.021 228.888, 359.557 215.848, 348.627 204.547 L 328.753 184.002 335.250 176.751 C 338.822 172.763, 351.472 158.700, 363.360 145.500 C 375.248 132.300, 384.980 120.715, 384.987 119.756 C 384.994 118.797, 383.087 116.660, 380.750 115.007 C 378.413 113.353, 374.475 110.393, 372 108.428 C 366.981 104.442, 352.332 96, 350.436 96 C 349.764 96, 348.994 96.562, 348.725 97.250 C 347.939 99.262, 301.960 150.500, 300.941 150.500 C 300.432 150.500, 290.597 141.387, 279.087 130.250 C 267.576 119.112, 257.637 110, 257 110 C 256.363 110, 246.424 119.113, 234.913 130.250 C 223.403 141.387, 213.568 150.500, 213.059 150.500 C 212.040 150.500, 166.061 99.262, 165.275 97.250 C 164.483 95.224, 161.951 95.962, 154 100.533 M 118.697 131.672 C 106.824 145.156, 98.677 157.127, 91.008 172.358 C 80.941 192.352, 74.005 215.177, 72.352 233.750 L 71.707 241 99.103 240.953 L 126.500 240.905 153.500 212.784 C 168.350 197.317, 180.500 184.321, 180.500 183.905 C 180.500 183.197, 156.519 156.061, 139.048 137 C 134.763 132.325, 130.180 127.227, 128.863 125.672 L 126.469 122.844 118.697 131.672 M 385.040 125.679 C 383.820 127.230, 379.298 132.325, 374.991 137 C 358.801 154.575, 333.500 183.177, 333.500 183.905 C 333.500 184.321, 345.650 197.317, 360.500 212.784 L 387.500 240.905 415.311 240.953 L 443.123 241 442.491 236.250 C 438.955 209.676, 432.997 190.149, 422.101 169.418 C 413.987 153.979, 400.886 135.927, 390.721 126.179 L 387.257 122.857 385.040 125.679 M 244.892 214.449 C 229.035 218.823, 216.328 233.089, 214.158 248.954 C 209.726 281.363, 240.778 306.409, 271.253 295.006 C 300.558 284.042, 307.619 244.957, 284.130 223.736 C 273.897 214.492, 258.206 210.778, 244.892 214.449 M 69.018 270.750 C 69.028 271.163, 69.706 276.211, 70.525 281.970 C 74.275 308.358, 85.060 336.360, 100.001 358.501 C 105.519 366.679, 117.864 381.747, 122.940 386.500 L 126.143 389.500 129.739 385.500 C 131.716 383.300, 136.798 377.675, 141.033 373 C 147.777 365.554, 165.859 345.298, 177.354 332.311 L 181.207 327.957 157.383 303.369 C 144.280 289.845, 131.820 276.805, 129.694 274.390 L 125.830 270 97.415 270 C 81.787 270, 69.008 270.337, 69.018 270.750 M 136.669 277.420 C 140.426 281.501, 152.884 294.542, 164.354 306.399 L 185.207 327.957 181.354 332.318 C 179.234 334.716, 166.475 348.935, 153 363.915 C 139.525 378.894, 128.500 391.656, 128.500 392.274 C 128.500 392.893, 130.525 394.897, 133 396.728 C 135.475 398.559, 139.525 401.652, 142 403.601 C 147.063 407.589, 161.692 416, 163.564 416 C 164.236 416, 165.006 415.438, 165.275 414.750 C 166.019 412.844, 212.012 361.500, 212.974 361.500 C 213.437 361.500, 223.265 370.613, 234.814 381.750 C 246.364 392.887, 256.347 402, 257 402 C 257.653 402, 267.636 392.887, 279.186 381.750 C 290.735 370.613, 300.560 361.500, 301.020 361.500 C 301.480 361.500, 312.060 372.975, 324.531 387 C 337.002 401.025, 348.010 413.338, 348.993 414.362 C 350.730 416.173, 351.026 416.091, 359.640 411.425 C 364.513 408.785, 370.300 405.138, 372.500 403.321 C 374.700 401.504, 378.525 398.528, 381 396.708 C 383.475 394.888, 385.500 392.893, 385.500 392.274 C 385.500 391.656, 374.475 378.894, 361 363.915 C 347.525 348.935, 334.766 334.716, 332.646 332.318 L 328.793 327.957 349.646 306.399 C 361.116 294.542, 373.574 281.501, 377.331 277.420 L 384.162 270 354.331 270.018 L 324.500 270.036 322.198 277.314 C 319.735 285.101, 313.975 295.033, 308.205 301.444 C 302.118 308.206, 290.602 317.406, 285.441 319.628 C 266.195 327.918, 242.261 327.597, 227.043 318.845 C 223.444 316.775, 219.037 314.305, 217.250 313.356 C 215.463 312.406, 214 311.238, 214 310.759 C 214 310.281, 211.066 306.955, 207.480 303.369 C 200.108 295.997, 193.352 285.184, 190.457 276.125 L 188.500 270 159.169 270 L 129.838 270 136.669 277.420 M 384.306 274.390 C 382.180 276.805, 369.720 289.845, 356.617 303.369 L 332.793 327.957 336.646 332.311 C 349.399 346.718, 366.327 365.664, 373.004 373 C 377.259 377.675, 381.930 382.850, 383.385 384.500 L 386.030 387.500 390.098 383 C 410.384 360.561, 423.515 338.462, 431.931 312.593 C 435.966 300.191, 440 280.808, 440 273.825 L 440 270 414.085 270 L 388.170 270 384.306 274.390 M 192.412 388.223 C 180.997 401.025, 170.560 412.702, 169.217 414.172 C 166.813 416.803, 166.805 416.874, 168.675 418.881 C 172.281 422.752, 193.565 431.150, 210.725 435.474 C 228.135 439.860, 260.393 441.529, 279.049 439.009 C 299.950 436.186, 318.476 430.687, 336.872 421.848 L 347.244 416.864 344.793 414.182 C 343.445 412.707, 333.003 401.025, 321.588 388.223 L 300.835 364.945 280.053 384.973 C 265.465 399.031, 258.594 405, 257 405 C 255.406 405, 248.535 399.031, 233.947 384.973 L 213.165 364.945 192.412 388.223" stroke="none" fill="#000000" fill-rule="evenodd"/><path d="M 152.704 101.411 C 148.416 103.769, 143.466 107.030, 141.704 108.658 C 139.942 110.286, 136.830 112.714, 134.789 114.052 C 132.748 115.390, 130.529 117.511, 129.858 118.765 C 128.768 120.802, 129.015 121.442, 132.183 124.772 C 140.540 133.560, 184.259 182.511, 184.642 183.509 C 184.873 184.111, 182.236 187.515, 178.781 191.072 C 175.326 194.630, 162.911 207.534, 151.191 219.750 L 129.882 241.960 158.298 241.967 L 186.714 241.973 189.333 234.336 C 190.773 230.135, 193.719 223.728, 195.880 220.099 C 200.095 213.019, 211.217 200.769, 214.500 199.590 C 215.600 199.195, 220.138 196.682, 224.585 194.006 C 238.083 185.883, 252.932 183.328, 268.057 186.526 C 272.701 187.508, 277.424 188.385, 278.554 188.474 C 281.327 188.692, 290.666 194.334, 298.986 200.816 C 310.045 209.432, 318.554 221.646, 322.967 235.239 L 325.155 241.977 354.636 241.968 L 384.117 241.958 362.808 219.749 C 351.089 207.534, 338.674 194.630, 335.219 191.072 C 331.764 187.515, 329.127 184.111, 329.358 183.509 C 329.741 182.511, 373.460 133.560, 381.817 124.772 C 384.985 121.442, 385.232 120.802, 384.142 118.765 C 383.471 117.511, 381.252 115.380, 379.211 114.030 C 377.170 112.679, 373.653 109.921, 371.396 107.901 C 369.138 105.880, 366.238 103.893, 364.950 103.484 C 363.663 103.076, 360.457 101.417, 357.827 99.798 C 355.196 98.180, 352.217 97, 351.206 97.178 C 350.196 97.355, 339.779 108.300, 328.057 121.500 C 316.336 134.700, 305.485 146.809, 303.945 148.409 L 301.144 151.317 295.617 146.409 C 292.578 143.709, 282.860 134.412, 274.023 125.750 C 265.185 117.088, 257.525 110, 257 110 C 256.475 110, 248.815 117.088, 239.977 125.750 C 231.140 134.412, 221.422 143.709, 218.383 146.409 L 212.856 151.317 210.055 148.409 C 208.515 146.809, 197.663 134.700, 185.940 121.500 C 172.372 106.223, 163.875 97.432, 162.563 97.313 C 161.428 97.210, 156.992 99.054, 152.704 101.411 M 147.244 288.180 C 156.735 298.051, 169.108 310.937, 174.739 316.814 C 180.371 322.691, 184.809 327.967, 184.602 328.538 C 184.395 329.108, 171.552 343.622, 156.061 360.791 L 127.896 392.007 131.698 395.498 C 133.789 397.419, 135.822 398.993, 136.217 398.995 C 136.611 398.998, 139.169 400.985, 141.900 403.412 C 144.632 405.838, 147.885 408.146, 149.129 408.541 C 150.373 408.936, 153.543 410.583, 156.173 412.202 C 158.804 413.820, 161.790 415, 162.810 414.822 C 163.829 414.645, 175.378 402.462, 188.474 387.750 C 201.569 373.038, 212.558 361.007, 212.892 361.016 C 213.226 361.025, 223.153 370.250, 234.951 381.516 C 246.749 392.782, 256.671 402, 257 402 C 257.329 402, 267.251 392.782, 279.049 381.516 C 290.847 370.250, 300.773 361.025, 301.107 361.016 C 301.618 361.003, 344.324 408.474, 349.039 414.296 C 350.559 416.174, 350.841 416.098, 359.551 411.438 C 364.473 408.804, 370.402 404.928, 372.728 402.825 C 375.053 400.721, 377.303 398.998, 377.728 398.995 C 378.152 398.993, 380.211 397.419, 382.302 395.498 L 386.104 392.007 357.939 360.791 C 342.448 343.622, 329.605 329.108, 329.398 328.538 C 329.191 327.967, 333.629 322.691, 339.261 316.814 C 344.892 310.937, 357.266 298.051, 366.757 288.178 L 384.015 270.229 354.257 270.093 L 324.500 269.956 322.175 277.344 C 318.428 289.251, 310.730 300.016, 297.922 311.260 C 289.962 318.248, 285.713 320.755, 279.792 321.960 C 276.881 322.552, 271.575 323.694, 268 324.498 C 264.425 325.301, 259.147 325.968, 256.270 325.979 C 250.384 326.003, 235.802 323.439, 232 321.712 C 226.051 319.010, 214 311.743, 214 310.857 C 214 310.325, 211.066 306.955, 207.480 303.369 C 200.085 295.974, 193.339 285.161, 190.457 276.085 L 188.500 269.920 159.244 270.076 L 129.988 270.231 147.244 288.180" stroke="none" fill="#f2fc24" fill-rule="evenodd"/><path d="M 241.442 71.085 C 221.397 72.533, 200.439 77.873, 180.606 86.585 C 175.165 88.976, 169.827 91.882, 168.744 93.044 C 166.782 95.150, 166.784 95.165, 169.217 97.828 C 170.560 99.298, 180.997 110.975, 192.412 123.777 L 213.165 147.055 233.947 127.027 C 248.535 112.969, 255.406 107, 257 107 C 258.594 107, 265.465 112.969, 280.053 127.027 L 300.835 147.055 321.588 123.777 C 333.003 110.975, 343.440 99.298, 344.783 97.828 C 347.191 95.193, 347.198 95.129, 345.317 93.109 C 340.439 87.874, 313.223 77.659, 294.550 74.056 C 285.108 72.233, 259.982 69.784, 254.500 70.152 C 253.400 70.225, 247.524 70.645, 241.442 71.085 M 251.946 113.750 L 248.500 117.500 252.250 114.054 C 254.313 112.158, 256 110.471, 256 110.304 C 256 109.540, 255.154 110.260, 251.946 113.750 M 261 113.500 C 262.866 115.425, 264.617 117, 264.892 117 C 265.167 117, 263.866 115.425, 262 113.500 C 260.134 111.575, 258.383 110, 258.108 110 C 257.833 110, 259.134 111.575, 261 113.500 M 118.697 131.672 C 106.824 145.156, 98.677 157.127, 91.008 172.358 C 80.941 192.352, 74.005 215.177, 72.352 233.750 L 71.707 241 99.103 240.953 L 126.500 240.905 153.500 212.784 C 168.350 197.317, 180.500 184.321, 180.500 183.905 C 180.500 183.197, 156.519 156.061, 139.048 137 C 134.763 132.325, 130.180 127.227, 128.863 125.672 L 126.469 122.844 118.697 131.672 M 385.040 125.679 C 383.820 127.230, 379.298 132.325, 374.991 137 C 358.801 154.575, 333.500 183.177, 333.500 183.905 C 333.500 184.321, 345.650 197.317, 360.500 212.784 L 387.500 240.905 415.311 240.953 L 443.123 241 442.491 236.250 C 438.955 209.676, 432.997 190.149, 422.101 169.418 C 413.987 153.979, 400.886 135.927, 390.721 126.179 L 387.257 122.857 385.040 125.679 M 224.437 140.250 L 221.500 143.500 224.750 140.563 C 226.537 138.948, 228 137.485, 228 137.313 C 228 136.540, 227.175 137.221, 224.437 140.250 M 286 137.313 C 286 137.485, 287.462 138.948, 289.250 140.563 L 292.500 143.500 289.563 140.250 C 286.825 137.221, 286 136.540, 286 137.313 M 168.946 200.750 L 165.500 204.500 169.250 201.054 C 172.740 197.846, 173.460 197, 172.696 197 C 172.529 197, 170.842 198.688, 168.946 200.750 M 344 200.500 C 345.866 202.425, 347.617 204, 347.892 204 C 348.167 204, 346.866 202.425, 345 200.500 C 343.134 198.575, 341.383 197, 341.108 197 C 340.833 197, 342.134 198.575, 344 200.500 M 145.473 225.250 L 138.500 232.500 145.750 225.527 C 149.738 221.692, 153 218.429, 153 218.277 C 153 217.543, 151.950 218.516, 145.473 225.250 M 367.500 225 C 371.320 228.850, 374.671 232, 374.946 232 C 375.221 232, 372.320 228.850, 368.500 225 C 364.680 221.150, 361.329 218, 361.054 218 C 360.779 218, 363.680 221.150, 367.500 225 M 69.018 270.750 C 69.028 271.163, 69.706 276.211, 70.525 281.970 C 74.275 308.358, 85.060 336.360, 100.001 358.501 C 105.519 366.679, 117.864 381.747, 122.940 386.500 L 126.143 389.500 129.739 385.500 C 131.716 383.300, 136.798 377.675, 141.033 373 C 147.777 365.554, 165.859 345.298, 177.354 332.311 L 181.207 327.957 157.383 303.369 C 144.280 289.845, 131.820 276.805, 129.694 274.390 L 125.830 270 97.415 270 C 81.787 270, 69.008 270.337, 69.018 270.750 M 384.306 274.390 C 382.180 276.805, 369.720 289.845, 356.617 303.369 L 332.793 327.957 336.646 332.311 C 349.399 346.718, 366.327 365.664, 373.004 373 C 377.259 377.675, 381.930 382.850, 383.385 384.500 L 386.030 387.500 390.098 383 C 410.384 360.561, 423.515 338.462, 431.931 312.593 C 435.966 300.191, 440 280.808, 440 273.825 L 440 270 414.085 270 L 388.170 270 384.306 274.390 M 142.500 284 C 144.648 286.200, 146.631 288, 146.906 288 C 147.181 288, 145.648 286.200, 143.500 284 C 141.352 281.800, 139.369 280, 139.094 280 C 138.819 280, 140.352 281.800, 142.500 284 M 370.453 284.250 L 366.500 288.500 370.750 284.547 C 374.702 280.871, 375.460 280, 374.703 280 C 374.540 280, 372.627 281.913, 370.453 284.250 M 168.500 311 C 170.648 313.200, 172.631 315, 172.906 315 C 173.181 315, 171.648 313.200, 169.500 311 C 167.352 308.800, 165.369 307, 165.094 307 C 164.819 307, 166.352 308.800, 168.500 311 M 344.453 311.250 L 340.500 315.500 344.750 311.547 C 348.702 307.871, 349.460 307, 348.703 307 C 348.540 307, 346.627 308.913, 344.453 311.250 M 192.412 388.223 C 180.997 401.025, 170.560 412.702, 169.217 414.172 C 166.813 416.803, 166.805 416.874, 168.675 418.881 C 172.281 422.752, 193.565 431.150, 210.725 435.474 C 228.135 439.860, 260.393 441.529, 279.049 439.009 C 299.950 436.186, 318.476 430.687, 336.872 421.848 L 347.244 416.864 344.793 414.182 C 343.445 412.707, 333.003 401.025, 321.588 388.223 L 300.835 364.945 280.053 384.973 C 265.465 399.031, 258.594 405, 257 405 C 255.406 405, 248.535 399.031, 233.947 384.973 L 213.165 364.945 192.412 388.223 M 228 375.500 C 229.866 377.425, 231.617 379, 231.892 379 C 232.167 379, 230.866 377.425, 229 375.500 C 227.134 373.575, 225.383 372, 225.108 372 C 224.833 372, 226.134 373.575, 228 375.500 M 284.946 375.750 L 281.500 379.500 285.250 376.054 C 287.313 374.158, 289 372.471, 289 372.304 C 289 371.540, 288.154 372.260, 284.946 375.750 M 252 398.500 C 253.866 400.425, 255.617 402, 255.892 402 C 256.167 402, 254.866 400.425, 253 398.500 C 251.134 396.575, 249.383 395, 249.108 395 C 248.833 395, 250.134 396.575, 252 398.500 M 260.946 398.750 L 257.500 402.500 261.250 399.054 C 264.740 395.846, 265.460 395, 264.696 395 C 264.529 395, 262.842 396.688, 260.946 398.750" stroke="none" fill="#1e74fd" fill-rule="evenodd"/><path d="" stroke="none" fill="#f4fb40" fill-rule="evenodd"/></svg>