<svg xmlns="http://www.w3.org/2000/svg" width="512" height="511" viewBox="0 0 512 511" version="1.1"><path d="M 247.045 214.092 C 235.074 216.439, 223.251 225.965, 217.769 237.681 C 211.385 251.322, 213.189 268.244, 222.353 280.693 C 231.550 293.186, 247.897 299.739, 263.024 296.996 C 276.672 294.521, 288.471 285.561, 294.307 273.241 C 297.297 266.929, 297.500 265.799, 297.500 255.478 C 297.500 244.948, 297.347 244.144, 294.071 237.478 C 285.290 219.607, 266.522 210.274, 247.045 214.092 M 70.562 276.242 C 79.196 347.932, 129.450 408.831, 198.129 430.830 C 251.905 448.056, 310.726 439.823, 357.500 408.522 C 390.938 386.146, 415.258 355.152, 429.315 317 C 433.236 306.359, 437.778 287.187, 438.688 277.435 L 439.289 271 382.895 271.009 L 326.500 271.019 324.285 278.259 C 321.170 288.442, 315.717 297.216, 307 306.069 C 287 326.381, 258.840 332.969, 231.963 323.622 C 221.334 319.925, 214.474 315.445, 204.984 306 C 195.964 297.023, 190.315 287.951, 186.928 277.002 L 185.226 271.500 127.577 271.242 L 69.929 270.984 70.562 276.242" stroke="none" fill="#ffffff" fill-rule="evenodd"/><path d="M 247.045 214.092 C 235.074 216.439, 223.251 225.965, 217.769 237.681 C 211.385 251.322, 213.189 268.244, 222.353 280.693 C 231.550 293.186, 247.897 299.739, 263.024 296.996 C 276.672 294.521, 288.471 285.561, 294.307 273.241 C 297.297 266.929, 297.500 265.799, 297.500 255.478 C 297.500 244.948, 297.347 244.144, 294.071 237.478 C 285.290 219.607, 266.522 210.274, 247.045 214.092 M 70.562 276.242 C 79.196 347.932, 129.450 408.831, 198.129 430.830 C 251.905 448.056, 310.726 439.823, 357.500 408.522 C 390.938 386.146, 415.258 355.152, 429.315 317 C 433.236 306.359, 437.778 287.187, 438.688 277.435 L 439.289 271 382.895 271.009 L 326.500 271.019 324.285 278.259 C 321.170 288.442, 315.717 297.216, 307 306.069 C 287 326.381, 258.840 332.969, 231.963 323.622 C 221.334 319.925, 214.474 315.445, 204.984 306 C 195.964 297.023, 190.315 287.951, 186.928 277.002 L 185.226 271.500 127.577 271.242 L 69.929 270.984 70.562 276.242" stroke="none" fill="#ffffff" fill-rule="evenodd"/><path d="M 235.500 36.056 C 184.679 41.034, 137.472 63.070, 101.500 98.608 C 66.074 133.607, 43.688 178.832, 37.454 228 C 35.345 244.635, 35.874 276.204, 38.510 291 C 44.055 322.133, 55.198 350.813, 71.298 375.396 C 120.882 451.103, 210.692 488.969, 299 471.400 C 356.329 459.994, 407.535 425.505, 439.963 376.455 C 456.735 351.085, 467.682 323.132, 473.624 290.500 C 476.178 276.472, 476.214 235.052, 473.684 220.500 C 461.625 151.121, 420.422 93.708, 359 60.698 C 322.809 41.247, 276.611 32.029, 235.500 36.056 M 193.500 79.399 C 182.521 83.029, 169.453 88.798, 164 92.422 C 162.075 93.702, 155.785 97.818, 150.023 101.571 C 144.261 105.323, 137.915 109.992, 135.922 111.947 C 133.929 113.901, 128.375 119.325, 123.578 124 C 118.782 128.675, 113.517 134.524, 111.878 136.998 L 108.899 141.495 109.200 164.184 L 109.500 186.873 112.437 189.936 C 114.052 191.621, 115.965 193, 116.687 193 C 117.409 193, 118 193.450, 118 194 C 118 194.650, 132.051 195, 158.154 195 L 198.308 195 201.904 190.830 C 203.882 188.537, 205.819 185.847, 206.210 184.852 C 206.600 183.857, 206.978 159.070, 207.050 129.771 C 207.175 78.730, 207.103 76.491, 205.340 76.296 C 204.328 76.184, 199 77.581, 193.500 79.399 M 304.809 76.750 C 304.639 77.162, 304.725 101.948, 305 131.828 L 305.500 186.156 309.250 189.591 C 311.313 191.481, 313 193.471, 313 194.013 C 313 194.646, 327.535 195, 353.500 195 C 379.833 195, 394 194.650, 394 194 C 394 193.450, 394.591 193, 395.313 193 C 396.035 193, 397.948 191.621, 399.563 189.937 L 402.500 186.873 402.804 164.911 C 403.036 148.205, 403.395 143.121, 404.304 143.667 C 405.203 144.206, 405.224 144.026, 404.388 142.942 C 403.776 142.149, 402.988 140.375, 402.637 139 C 401.076 132.894, 368.996 103.703, 357.067 97.535 C 355.437 96.692, 352.102 94.652, 349.657 93.001 C 347.211 91.350, 344.980 90, 344.699 90 C 344.418 90, 339.534 87.788, 333.844 85.084 C 317.974 77.541, 305.910 74.079, 304.809 76.750 M 242.287 214.812 C 230.398 219.044, 220.694 228.308, 215.900 240 C 212.915 247.280, 212.644 261.045, 215.335 268.763 C 221.497 286.440, 237.581 298, 256.016 298 C 277.327 298, 294.545 283.352, 298.185 262.127 C 301.317 243.861, 291.539 225.314, 274.303 216.829 C 268.294 213.870, 266.596 213.507, 257.558 213.246 C 249.741 213.020, 246.338 213.369, 242.287 214.812 M 69.665 274.250 C 78.301 351.504, 134.037 415.578, 209.130 434.579 C 223.808 438.293, 237.936 439.961, 254.872 439.982 C 300.223 440.036, 340.445 425.254, 375.778 395.546 C 410.345 366.484, 434.674 320.988, 439.574 276.250 L 440.258 270 383.209 270 L 326.159 270 325.489 273.050 C 321.489 291.263, 305.683 310.649, 287.589 319.537 C 266.983 329.659, 244.888 329.598, 224.055 319.361 C 216.202 315.502, 213.167 313.269, 206.040 306.110 C 196.403 296.430, 191.192 288.206, 187.829 277.372 L 185.541 270 127.366 270 L 69.190 270 69.665 274.250" stroke="none" fill="#000000" fill-rule="evenodd"/><path d="M 201.500 77.137 C 199.850 77.676, 195.575 79.045, 192 80.180 C 188.425 81.314, 182.228 83.763, 178.228 85.621 C 174.229 87.480, 170.753 89, 170.505 89 C 169.739 89, 147.795 103.124, 142.419 107.077 C 134.701 112.752, 115.519 131.501, 112.009 136.800 L 108.899 141.495 109.200 164.169 C 109.498 186.661, 109.520 186.864, 111.949 189.447 C 117.179 195.010, 117.114 195.003, 158.904 194.967 L 197.500 194.935 202 190.455 L 206.500 185.975 206.775 130.987 C 206.995 86.919, 206.796 76.016, 205.775 76.079 C 205.074 76.122, 203.150 76.599, 201.500 77.137 M 305.225 130.987 L 305.500 185.975 310 190.455 L 314.500 194.935 353.096 194.967 C 394.886 195.003, 394.821 195.010, 400.051 189.447 C 402.493 186.851, 402.501 186.769, 402.800 162.432 L 403.099 138.020 398.300 132.783 C 390.869 124.674, 388.980 122.792, 382 116.550 C 374.265 109.632, 361.215 99.679, 357.067 97.535 C 355.437 96.692, 352.102 94.652, 349.657 93.001 C 347.211 91.350, 344.980 90, 344.699 90 C 344.418 90, 339.534 87.788, 333.844 85.084 C 321.702 79.313, 312.278 76, 308.007 76 L 304.950 76 305.225 130.987 M 90 270.726 C 142.845 271.420, 185.767 271.431, 185.346 270.750 C 185.091 270.337, 158.921 270.103, 127.191 270.229 C 95.461 270.354, 78.725 270.578, 90 270.726 M 382.446 270.746 C 425.606 270.955, 438.594 271.301, 439.272 272.258 C 439.919 273.170, 440.044 273.102, 439.743 272 C 439.385 270.689, 432.209 270.498, 382.917 270.487 L 326.500 270.474 382.446 270.746" stroke="none" fill="#ffea00" fill-rule="evenodd"/><path d="M 225.437 225.250 L 222.500 228.500 225.750 225.563 C 228.779 222.825, 229.460 222, 228.687 222 C 228.515 222, 227.052 223.463, 225.437 225.250 M 213.320 255 C 213.320 258.575, 213.502 260.038, 213.723 258.250 C 213.945 256.462, 213.945 253.537, 213.723 251.750 C 213.502 249.963, 213.320 251.425, 213.320 255 M 298.310 255.500 C 298.315 258.800, 298.502 260.029, 298.725 258.232 C 298.947 256.435, 298.943 253.735, 298.715 252.232 C 298.486 250.729, 298.304 252.200, 298.310 255.500 M 205 306.500 C 207.987 309.525, 210.657 312, 210.932 312 C 211.207 312, 208.987 309.525, 206 306.500 C 203.013 303.475, 200.343 301, 200.068 301 C 199.793 301, 202.013 303.475, 205 306.500 M 305.966 306.750 L 300.500 312.500 306.250 307.034 C 311.592 301.956, 312.458 301, 311.716 301 C 311.560 301, 308.972 303.587, 305.966 306.750 M 252.750 327.723 C 254.537 327.945, 257.462 327.945, 259.250 327.723 C 261.038 327.502, 259.575 327.320, 256 327.320 C 252.425 327.320, 250.963 327.502, 252.750 327.723 M 117.500 380 C 119.648 382.200, 121.631 384, 121.906 384 C 122.181 384, 120.648 382.200, 118.500 380 C 116.352 377.800, 114.369 376, 114.094 376 C 113.819 376, 115.352 377.800, 117.500 380 M 385.971 385.750 L 379.500 392.500 386.250 386.029 C 389.962 382.470, 393 379.432, 393 379.279 C 393 378.543, 391.982 379.480, 385.971 385.750 M 127.958 390.250 C 130.410 392.863, 132.548 395, 132.708 395 C 133.459 395, 132.665 394.102, 128.250 389.958 L 123.500 385.500 127.958 390.250 M 238.250 439.689 C 239.213 439.941, 240.787 439.941, 241.750 439.689 C 242.713 439.438, 241.925 439.232, 240 439.232 C 238.075 439.232, 237.287 439.438, 238.250 439.689 M 267.762 439.707 C 269.006 439.946, 270.806 439.937, 271.762 439.687 C 272.718 439.437, 271.700 439.241, 269.500 439.252 C 267.300 439.263, 266.518 439.468, 267.762 439.707" stroke="none" fill="#040404" fill-rule="evenodd"/></svg>