<svg xmlns="http://www.w3.org/2000/svg" width="1920" height="1080" viewBox="0 0 1920 1080" version="1.1"><path d="M 1590 222.500 L 1590 225 1575 225 L 1560 225 1560 227.500 C 1560 229.944, 1559.833 230, 1552.500 230 C 1545.167 230, 1545 230.056, 1545 232.500 C 1545 234.944, 1544.833 235, 1537.500 235 C 1530.167 235, 1530 235.056, 1530 237.500 C 1530 239.944, 1529.833 240, 1522.500 240 C 1515.167 240, 1515 240.056, 1515 242.500 C 1515 244.833, 1514.667 245, 1510 245 C 1505.333 245, 1505 245.167, 1505 247.500 C 1505 249.833, 1504.667 250, 1500 250 C 1495.333 250, 1495 250.167, 1495 252.500 C 1495 254.833, 1494.667 255, 1490 255 C 1485.333 255, 1485 255.167, 1485 257.500 C 1485 259.500, 1484.500 260, 1482.500 260 C 1480.500 260, 1480 260.500, 1480 262.500 C 1480 264.833, 1479.667 265, 1475 265 C 1470.333 265, 1470 265.167, 1470 267.500 C 1470 269.500, 1469.500 270, 1467.500 270 C 1465.500 270, 1465 270.500, 1465 272.500 C 1465 274.833, 1464.667 275, 1460 275 C 1455.333 275, 1455 275.167, 1455 277.500 C 1455 279.500, 1454.500 280, 1452.500 280 C 1450.500 280, 1450 280.500, 1450 282.500 C 1450 284.500, 1449.500 285, 1447.500 285 C 1445.500 285, 1445 285.500, 1445 287.500 C 1445 289.500, 1444.500 290, 1442.500 290 C 1440.500 290, 1440 290.500, 1440 292.500 C 1440 294.500, 1439.500 295, 1437.500 295 C 1435.500 295, 1435 295.500, 1435 297.500 C 1435 299.500, 1434.500 300, 1432.500 300 C 1430.500 300, 1430 300.500, 1430 302.500 C 1430 304.500, 1429.500 305, 1427.500 305 C 1425.500 305, 1425 305.500, 1425 307.500 C 1425 309.500, 1424.500 310, 1422.500 310 C 1420.500 310, 1420 310.500, 1420 312.500 C 1420 314.500, 1419.500 315, 1417.500 315 C 1415.500 315, 1415 315.500, 1415 317.500 C 1415 319.500, 1414.500 320, 1412.500 320 C 1410.500 320, 1410 320.500, 1410 322.500 C 1410 324.500, 1409.500 325, 1407.500 325 C 1405.167 325, 1405 325.333, 1405 330 C 1405 334.667, 1404.833 335, 1402.500 335 C 1400.500 335, 1400 335.500, 1400 337.500 C 1400 339.500, 1399.500 340, 1397.500 340 C 1395.167 340, 1395 340.333, 1395 345 C 1395 349.667, 1394.833 350, 1392.500 350 C 1390.500 350, 1390 350.500, 1390 352.500 C 1390 354.500, 1389.500 355, 1387.500 355 C 1385.167 355, 1385 355.333, 1385 360 L 1385 365 1180 365 L 975 365 975 367.500 L 975 370 777.500 370 L 580 370 580 372.500 L 580 375 410 375 L 240 375 240 377.500 L 240 380 130 380 L 20 380 20 525 L 20 670 187.500 670 L 355 670 355 667.500 L 355 665 552.500 665 L 750 665 750 662.500 L 750 660 920 660 L 1090 660 1090 657.500 L 1090 655 1247.500 655 L 1405 655 1405 660 C 1405 664.667, 1405.167 665, 1407.500 665 C 1409.500 665, 1410 665.500, 1410 667.500 C 1410 669.500, 1410.500 670, 1412.500 670 C 1414.500 670, 1415 670.500, 1415 672.500 C 1415 674.500, 1415.500 675, 1417.500 675 C 1419.500 675, 1420 675.500, 1420 677.500 C 1420 679.500, 1420.500 680, 1422.500 680 C 1424.500 680, 1425 680.500, 1425 682.500 C 1425 684.500, 1425.500 685, 1427.500 685 C 1429.500 685, 1430 685.500, 1430 687.500 C 1430 689.500, 1430.500 690, 1432.500 690 C 1434.500 690, 1435 690.500, 1435 692.500 C 1435 694.500, 1435.500 695, 1437.500 695 C 1439.500 695, 1440 695.500, 1440 697.500 C 1440 699.500, 1440.500 700, 1442.500 700 C 1444.500 700, 1445 700.500, 1445 702.500 C 1445 704.500, 1445.500 705, 1447.500 705 C 1449.500 705, 1450 705.500, 1450 707.500 C 1450 709.500, 1450.500 710, 1452.500 710 C 1454.500 710, 1455 710.500, 1455 712.500 C 1455 714.833, 1455.333 715, 1460 715 C 1464.667 715, 1465 715.167, 1465 717.500 C 1465 719.500, 1465.500 720, 1467.500 720 C 1469.500 720, 1470 720.500, 1470 722.500 C 1470 724.833, 1470.333 725, 1475 725 C 1479.667 725, 1480 725.167, 1480 727.500 C 1480 729.500, 1480.500 730, 1482.500 730 C 1484.500 730, 1485 730.500, 1485 732.500 C 1485 734.833, 1485.333 735, 1490 735 C 1494.667 735, 1495 735.167, 1495 737.500 C 1495 739.833, 1495.333 740, 1500 740 C 1504.667 740, 1505 740.167, 1505 742.500 C 1505 744.833, 1505.333 745, 1510 745 C 1514.667 745, 1515 745.167, 1515 747.500 C 1515 749.944, 1515.167 750, 1522.500 750 C 1529.833 750, 1530 750.056, 1530 752.500 C 1530 754.944, 1530.167 755, 1537.500 755 C 1544.833 755, 1545 755.056, 1545 757.500 C 1545 759.944, 1545.167 760, 1552.500 760 C 1559.833 760, 1560 760.056, 1560 762.500 L 1560 765 1575 765 L 1590 765 1590 767.500 L 1590 770 1622.500 770 L 1655 770 1655 767.500 L 1655 765 1670 765 L 1685 765 1685 762.500 L 1685 760 1695 760 L 1705 760 1705 757.500 C 1705 755.056, 1705.167 755, 1712.500 755 C 1719.833 755, 1720 754.944, 1720 752.500 C 1720 750.167, 1720.333 750, 1725 750 C 1729.667 750, 1730 749.833, 1730 747.500 C 1730 745.167, 1730.333 745, 1735 745 C 1739.667 745, 1740 744.833, 1740 742.500 C 1740 740.056, 1740.167 740, 1747.500 740 C 1754.833 740, 1755 739.944, 1755 737.500 C 1755 735.500, 1755.500 735, 1757.500 735 C 1759.500 735, 1760 734.500, 1760 732.500 C 1760 730.167, 1760.333 730, 1765 730 C 1769.667 730, 1770 729.833, 1770 727.500 C 1770 725.167, 1770.333 725, 1775 725 C 1779.667 725, 1780 724.833, 1780 722.500 C 1780 720.500, 1780.500 720, 1782.500 720 C 1784.500 720, 1785 719.500, 1785 717.500 C 1785 715.500, 1785.500 715, 1787.500 715 C 1789.500 715, 1790 714.500, 1790 712.500 C 1790 710.167, 1790.333 710, 1795 710 C 1799.667 710, 1800 709.833, 1800 707.500 C 1800 705.500, 1800.500 705, 1802.500 705 C 1804.500 705, 1805 704.500, 1805 702.500 C 1805 700.500, 1805.500 700, 1807.500 700 C 1809.500 700, 1810 699.500, 1810 697.500 C 1810 695.500, 1810.500 695, 1812.500 695 C 1814.500 695, 1815 694.500, 1815 692.500 C 1815 690.500, 1815.500 690, 1817.500 690 C 1819.500 690, 1820 689.500, 1820 687.500 C 1820 685.500, 1820.500 685, 1822.500 685 C 1824.500 685, 1825 684.500, 1825 682.500 C 1825 680.500, 1825.500 680, 1827.500 680 C 1829.500 680, 1830 679.500, 1830 677.500 C 1830 675.500, 1830.500 675, 1832.500 675 C 1834.500 675, 1835 674.500, 1835 672.500 C 1835 670.500, 1835.500 670, 1837.500 670 C 1839.833 670, 1840 669.667, 1840 665 C 1840 660.333, 1840.167 660, 1842.500 660 C 1844.500 660, 1845 659.500, 1845 657.500 C 1845 655.500, 1845.500 655, 1847.500 655 C 1849.500 655, 1850 654.500, 1850 652.500 C 1850 650.500, 1850.500 650, 1852.500 650 C 1854.833 650, 1855 649.667, 1855 645 C 1855 640.333, 1855.167 640, 1857.500 640 C 1859.833 640, 1860 639.667, 1860 635 C 1860 630.333, 1860.167 630, 1862.500 630 C 1864.500 630, 1865 629.500, 1865 627.500 C 1865 625.500, 1865.500 625, 1867.500 625 C 1869.944 625, 1870 624.833, 1870 617.500 C 1870 610.167, 1870.056 610, 1872.500 610 C 1874.833 610, 1875 609.667, 1875 605 C 1875 600.333, 1875.167 600, 1877.500 600 C 1879.833 600, 1880 599.667, 1880 595 C 1880 590.333, 1880.167 590, 1882.500 590 C 1884.944 590, 1885 589.833, 1885 582.500 C 1885 575.167, 1885.056 575, 1887.500 575 L 1890 575 1890 565 L 1890 555 1892.500 555 L 1895 555 1895 540 L 1895 525 1897.500 525 L 1900 525 1900 495 L 1900 465 1897.500 465 L 1895 465 1895 450 L 1895 435 1892.500 435 L 1890 435 1890 425 L 1890 415 1887.500 415 C 1885.056 415, 1885 414.833, 1885 407.500 C 1885 400.167, 1884.944 400, 1882.500 400 C 1880.167 400, 1880 399.667, 1880 395 C 1880 390.333, 1879.833 390, 1877.500 390 C 1875.167 390, 1875 389.667, 1875 385 C 1875 380.333, 1874.833 380, 1872.500 380 C 1870.056 380, 1870 379.833, 1870 372.500 C 1870 365.167, 1869.944 365, 1867.500 365 C 1865.500 365, 1865 364.500, 1865 362.500 C 1865 360.500, 1864.500 360, 1862.500 360 C 1860.167 360, 1860 359.667, 1860 355 C 1860 350.333, 1859.833 350, 1857.500 350 C 1855.167 350, 1855 349.667, 1855 345 C 1855 340.333, 1854.833 340, 1852.500 340 C 1850.500 340, 1850 339.500, 1850 337.500 C 1850 335.500, 1849.500 335, 1847.500 335 C 1845.500 335, 1845 334.500, 1845 332.500 C 1845 330.500, 1844.500 330, 1842.500 330 C 1840.167 330, 1840 329.667, 1840 325 C 1840 320.333, 1839.833 320, 1837.500 320 C 1835.500 320, 1835 319.500, 1835 317.500 C 1835 315.500, 1834.500 315, 1832.500 315 C 1830.500 315, 1830 314.500, 1830 312.500 C 1830 310.500, 1829.500 310, 1827.500 310 C 1825.500 310, 1825 309.500, 1825 307.500 C 1825 305.500, 1824.500 305, 1822.500 305 C 1820.500 305, 1820 304.500, 1820 302.500 C 1820 300.500, 1819.500 300, 1817.500 300 C 1815.500 300, 1815 299.500, 1815 297.500 C 1815 295.500, 1814.500 295, 1812.500 295 C 1810.500 295, 1810 294.500, 1810 292.500 C 1810 290.500, 1809.500 290, 1807.500 290 C 1805.500 290, 1805 289.500, 1805 287.500 C 1805 285.500, 1804.500 285, 1802.500 285 C 1800.500 285, 1800 284.500, 1800 282.500 C 1800 280.167, 1799.667 280, 1795 280 C 1790.333 280, 1790 279.833, 1790 277.500 C 1790 275.500, 1789.500 275, 1787.500 275 C 1785.500 275, 1785 274.500, 1785 272.500 C 1785 270.500, 1784.500 270, 1782.500 270 C 1780.500 270, 1780 269.500, 1780 267.500 C 1780 265.167, 1779.667 265, 1775 265 C 1770.333 265, 1770 264.833, 1770 262.500 C 1770 260.167, 1769.667 260, 1765 260 C 1760.333 260, 1760 259.833, 1760 257.500 C 1760 255.500, 1759.500 255, 1757.500 255 C 1755.500 255, 1755 254.500, 1755 252.500 C 1755 250.056, 1754.833 250, 1747.500 250 C 1740.167 250, 1740 249.944, 1740 247.500 C 1740 245.167, 1739.667 245, 1735 245 C 1730.333 245, 1730 244.833, 1730 242.500 C 1730 240.167, 1729.667 240, 1725 240 C 1720.333 240, 1720 239.833, 1720 237.500 C 1720 235.056, 1719.833 235, 1712.500 235 C 1705.167 235, 1705 234.944, 1705 232.500 L 1705 230 1695 230 L 1685 230 1685 227.500 L 1685 225 1670 225 L 1655 225 1655 222.500 L 1655 220 1622.500 220 L 1590 220 1590 222.500 M 1590 262.500 L 1590 265 1577.500 265 L 1565 265 1565 267.500 C 1565 269.944, 1564.833 270, 1557.500 270 C 1550.167 270, 1550 270.056, 1550 272.500 C 1550 274.944, 1549.833 275, 1542.500 275 C 1535.167 275, 1535 275.056, 1535 277.500 C 1535 279.833, 1534.667 280, 1530 280 C 1525.333 280, 1525 280.167, 1525 282.500 C 1525 284.833, 1524.667 285, 1520 285 C 1515.333 285, 1515 285.167, 1515 287.500 C 1515 289.833, 1514.667 290, 1510 290 C 1505.333 290, 1505 290.167, 1505 292.500 C 1505 294.833, 1504.667 295, 1500 295 C 1495.333 295, 1495 295.167, 1495 297.500 C 1495 299.500, 1494.500 300, 1492.500 300 C 1490.500 300, 1490 300.500, 1490 302.500 C 1490 304.500, 1489.500 305, 1487.500 305 C 1485.500 305, 1485 305.500, 1485 307.500 C 1485 309.833, 1484.667 310, 1480 310 C 1475.333 310, 1475 310.167, 1475 312.500 C 1475 314.500, 1474.500 315, 1472.500 315 C 1470.500 315, 1470 315.500, 1470 317.500 C 1470 319.500, 1469.500 320, 1467.500 320 C 1465.500 320, 1465 320.500, 1465 322.500 C 1465 324.500, 1464.500 325, 1462.500 325 C 1460.500 325, 1460 325.500, 1460 327.500 C 1460 329.500, 1459.500 330, 1457.500 330 C 1455.500 330, 1455 330.500, 1455 332.500 C 1455 334.500, 1454.500 335, 1452.500 335 C 1450.500 335, 1450 335.500, 1450 337.500 C 1450 339.500, 1449.500 340, 1447.500 340 C 1445.167 340, 1445 340.333, 1445 345 C 1445 349.667, 1444.833 350, 1442.500 350 C 1440.500 350, 1440 350.500, 1440 352.500 C 1440 354.500, 1439.500 355, 1437.500 355 C 1435.500 355, 1435 355.500, 1435 357.500 C 1435 359.500, 1434.500 360, 1432.500 360 C 1430.167 360, 1430 360.333, 1430 365 C 1430 369.667, 1429.833 370, 1427.500 370 C 1425.167 370, 1425 370.333, 1425 375 C 1425 379.667, 1424.833 380, 1422.500 380 C 1420.167 380, 1420 380.333, 1420 385 L 1420 390 1380 390 L 1340 390 1340 392.500 L 1340 395 1167.500 395 L 995 395 995 397.500 L 995 400 800 400 L 605 400 605 402.500 L 605 405 430 405 L 255 405 255 407.500 L 255 410 150 410 L 45 410 45 520 L 45 630 85 630 L 125 630 125 632.500 L 125 635 217.500 635 L 310 635 310 632.500 L 310 630 505 630 L 700 630 700 627.500 L 700 625 875 625 L 1050 625 1050 622.500 L 1050 620 1240 620 L 1430 620 1430 622.500 C 1430 624.500, 1430.500 625, 1432.500 625 C 1434.500 625, 1435 625.500, 1435 627.500 C 1435 629.500, 1435.500 630, 1437.500 630 C 1439.500 630, 1440 630.500, 1440 632.500 C 1440 634.500, 1440.500 635, 1442.500 635 C 1444.833 635, 1445 635.333, 1445 640 C 1445 644.667, 1445.167 645, 1447.500 645 C 1449.500 645, 1450 645.500, 1450 647.500 C 1450 649.500, 1450.500 650, 1452.500 650 C 1454.500 650, 1455 650.500, 1455 652.500 C 1455 654.500, 1455.500 655, 1457.500 655 C 1459.500 655, 1460 655.500, 1460 657.500 C 1460 659.500, 1460.500 660, 1462.500 660 C 1464.500 660, 1465 660.500, 1465 662.500 C 1465 664.500, 1465.500 665, 1467.500 665 C 1469.500 665, 1470 665.500, 1470 667.500 C 1470 669.500, 1470.500 670, 1472.500 670 C 1474.500 670, 1475 670.500, 1475 672.500 C 1475 674.833, 1475.333 675, 1480 675 C 1484.667 675, 1485 675.167, 1485 677.500 C 1485 679.500, 1485.500 680, 1487.500 680 C 1489.500 680, 1490 680.500, 1490 682.500 C 1490 684.500, 1490.500 685, 1492.500 685 C 1494.500 685, 1495 685.500, 1495 687.500 C 1495 689.833, 1495.333 690, 1500 690 C 1504.667 690, 1505 690.167, 1505 692.500 C 1505 694.833, 1505.333 695, 1510 695 C 1514.667 695, 1515 695.167, 1515 697.500 C 1515 699.833, 1515.333 700, 1520 700 C 1524.667 700, 1525 700.167, 1525 702.500 C 1525 704.833, 1525.333 705, 1530 705 C 1534.667 705, 1535 705.167, 1535 707.500 C 1535 709.944, 1535.167 710, 1542.500 710 C 1549.833 710, 1550 710.056, 1550 712.500 C 1550 714.944, 1550.167 715, 1557.500 715 C 1564.833 715, 1565 715.056, 1565 717.500 L 1565 720 1577.500 720 L 1590 720 1590 722.500 L 1590 725 1627.500 725 L 1665 725 1665 722.500 L 1665 720 1677.500 720 L 1690 720 1690 717.500 C 1690 715.056, 1690.167 715, 1697.500 715 C 1704.833 715, 1705 714.944, 1705 712.500 C 1705 710.056, 1705.167 710, 1712.500 710 C 1719.833 710, 1720 709.944, 1720 707.500 C 1720 705.167, 1720.333 705, 1725 705 C 1729.667 705, 1730 704.833, 1730 702.500 C 1730 700.167, 1730.333 700, 1735 700 C 1739.667 700, 1740 699.833, 1740 697.500 C 1740 695.500, 1740.500 695, 1742.500 695 C 1744.500 695, 1745 694.500, 1745 692.500 C 1745 690.167, 1745.333 690, 1750 690 C 1754.667 690, 1755 689.833, 1755 687.500 C 1755 685.167, 1755.333 685, 1760 685 C 1764.667 685, 1765 684.833, 1765 682.500 C 1765 680.500, 1765.500 680, 1767.500 680 C 1769.500 680, 1770 679.500, 1770 677.500 C 1770 675.500, 1770.500 675, 1772.500 675 C 1774.500 675, 1775 674.500, 1775 672.500 C 1775 670.500, 1775.500 670, 1777.500 670 C 1779.500 670, 1780 669.500, 1780 667.500 C 1780 665.500, 1780.500 665, 1782.500 665 C 1784.500 665, 1785 664.500, 1785 662.500 C 1785 660.500, 1785.500 660, 1787.500 660 C 1789.500 660, 1790 659.500, 1790 657.500 C 1790 655.500, 1790.500 655, 1792.500 655 C 1794.500 655, 1795 654.500, 1795 652.500 C 1795 650.500, 1795.500 650, 1797.500 650 C 1799.500 650, 1800 649.500, 1800 647.500 C 1800 645.500, 1800.500 645, 1802.500 645 C 1804.500 645, 1805 644.500, 1805 642.500 C 1805 640.500, 1805.500 640, 1807.500 640 C 1809.500 640, 1810 639.500, 1810 637.500 C 1810 635.500, 1810.500 635, 1812.500 635 C 1814.500 635, 1815 634.500, 1815 632.500 C 1815 630.500, 1815.500 630, 1817.500 630 C 1819.833 630, 1820 629.667, 1820 625 C 1820 620.333, 1820.167 620, 1822.500 620 C 1824.833 620, 1825 619.667, 1825 615 C 1825 610.333, 1825.167 610, 1827.500 610 C 1829.500 610, 1830 609.500, 1830 607.500 C 1830 605.500, 1830.500 605, 1832.500 605 C 1834.833 605, 1835 604.667, 1835 600 C 1835 595.333, 1835.167 595, 1837.500 595 C 1839.833 595, 1840 594.667, 1840 590 C 1840 585.333, 1840.167 585, 1842.500 585 C 1844.944 585, 1845 584.833, 1845 577.500 C 1845 570.167, 1845.056 570, 1847.500 570 C 1849.944 570, 1850 569.833, 1850 562.500 C 1850 555.167, 1850.056 555, 1852.500 555 L 1855 555 1855 542.500 L 1855 530 1857.500 530 L 1860 530 1860 492.500 L 1860 455 1857.500 455 L 1855 455 1855 442.500 L 1855 430 1852.500 430 C 1850.056 430, 1850 429.833, 1850 422.500 C 1850 415.167, 1849.944 415, 1847.500 415 C 1845.056 415, 1845 414.833, 1845 407.500 C 1845 400.167, 1844.944 400, 1842.500 400 C 1840.167 400, 1840 399.667, 1840 395 C 1840 390.333, 1839.833 390, 1837.500 390 C 1835.167 390, 1835 389.667, 1835 385 C 1835 380.333, 1834.833 380, 1832.500 380 C 1830.500 380, 1830 379.500, 1830 377.500 C 1830 375.500, 1829.500 375, 1827.500 375 C 1825.167 375, 1825 374.667, 1825 370 C 1825 365.333, 1824.833 365, 1822.500 365 C 1820.167 365, 1820 364.667, 1820 360 C 1820 355.333, 1819.833 355, 1817.500 355 C 1815.500 355, 1815 354.500, 1815 352.500 C 1815 350.500, 1814.500 350, 1812.500 350 C 1810.500 350, 1810 349.500, 1810 347.500 C 1810 345.500, 1809.500 345, 1807.500 345 C 1805.500 345, 1805 344.500, 1805 342.500 C 1805 340.500, 1804.500 340, 1802.500 340 C 1800.500 340, 1800 339.500, 1800 337.500 C 1800 335.500, 1799.500 335, 1797.500 335 C 1795.500 335, 1795 334.500, 1795 332.500 C 1795 330.500, 1794.500 330, 1792.500 330 C 1790.500 330, 1790 329.500, 1790 327.500 C 1790 325.500, 1789.500 325, 1787.500 325 C 1785.500 325, 1785 324.500, 1785 322.500 C 1785 320.500, 1784.500 320, 1782.500 320 C 1780.500 320, 1780 319.500, 1780 317.500 C 1780 315.500, 1779.500 315, 1777.500 315 C 1775.500 315, 1775 314.500, 1775 312.500 C 1775 310.500, 1774.500 310, 1772.500 310 C 1770.500 310, 1770 309.500, 1770 307.500 C 1770 305.500, 1769.500 305, 1767.500 305 C 1765.500 305, 1765 304.500, 1765 302.500 C 1765 300.167, 1764.667 300, 1760 300 C 1755.333 300, 1755 299.833, 1755 297.500 C 1755 295.167, 1754.667 295, 1750 295 C 1745.333 295, 1745 294.833, 1745 292.500 C 1745 290.500, 1744.500 290, 1742.500 290 C 1740.500 290, 1740 289.500, 1740 287.500 C 1740 285.167, 1739.667 285, 1735 285 C 1730.333 285, 1730 284.833, 1730 282.500 C 1730 280.167, 1729.667 280, 1725 280 C 1720.333 280, 1720 279.833, 1720 277.500 C 1720 275.056, 1719.833 275, 1712.500 275 C 1705.167 275, 1705 274.944, 1705 272.500 C 1705 270.056, 1704.833 270, 1697.500 270 C 1690.167 270, 1690 269.944, 1690 267.500 L 1690 265 1677.500 265 L 1665 265 1665 262.500 L 1665 260 1627.500 260 L 1590 260 1590 262.500" stroke="none" fill="#d1f9aa" fill-rule="evenodd"/><path d="M 1590 262.500 L 1590 265 1577.500 265 L 1565 265 1565 267.500 C 1565 269.944, 1564.833 270, 1557.500 270 C 1550.167 270, 1550 270.056, 1550 272.500 C 1550 274.944, 1549.833 275, 1542.500 275 C 1535.167 275, 1535 275.056, 1535 277.500 C 1535 279.833, 1534.667 280, 1530 280 C 1525.333 280, 1525 280.167, 1525 282.500 C 1525 284.833, 1524.667 285, 1520 285 C 1515.333 285, 1515 285.167, 1515 287.500 C 1515 289.833, 1514.667 290, 1510 290 C 1505.333 290, 1505 290.167, 1505 292.500 C 1505 294.833, 1504.667 295, 1500 295 C 1495.333 295, 1495 295.167, 1495 297.500 C 1495 299.500, 1494.500 300, 1492.500 300 C 1490.500 300, 1490 300.500, 1490 302.500 C 1490 304.500, 1489.500 305, 1487.500 305 C 1485.500 305, 1485 305.500, 1485 307.500 C 1485 309.833, 1484.667 310, 1480 310 C 1475.333 310, 1475 310.167, 1475 312.500 C 1475 314.500, 1474.500 315, 1472.500 315 C 1470.500 315, 1470 315.500, 1470 317.500 C 1470 319.500, 1469.500 320, 1467.500 320 C 1465.500 320, 1465 320.500, 1465 322.500 C 1465 324.500, 1464.500 325, 1462.500 325 C 1460.500 325, 1460 325.500, 1460 327.500 C 1460 329.500, 1459.500 330, 1457.500 330 C 1455.500 330, 1455 330.500, 1455 332.500 C 1455 334.500, 1454.500 335, 1452.500 335 C 1450.500 335, 1450 335.500, 1450 337.500 C 1450 339.500, 1449.500 340, 1447.500 340 C 1445.167 340, 1445 340.333, 1445 345 C 1445 349.667, 1444.833 350, 1442.500 350 C 1440.500 350, 1440 350.500, 1440 352.500 C 1440 354.500, 1439.500 355, 1437.500 355 C 1435.500 355, 1435 355.500, 1435 357.500 C 1435 359.500, 1434.500 360, 1432.500 360 C 1430.167 360, 1430 360.333, 1430 365 C 1430 369.667, 1429.833 370, 1427.500 370 C 1425.167 370, 1425 370.333, 1425 375 C 1425 379.667, 1424.833 380, 1422.500 380 C 1420.167 380, 1420 380.333, 1420 385 L 1420 390 1380 390 L 1340 390 1340 392.500 L 1340 395 1167.500 395 L 995 395 995 397.500 L 995 400 800 400 L 605 400 605 402.500 L 605 405 430 405 L 255 405 255 407.500 L 255 410 150 410 L 45 410 45 520 L 45 630 85 630 L 125 630 125 632.500 L 125 635 217.500 635 L 310 635 310 632.500 L 310 630 505 630 L 700 630 700 627.500 L 700 625 875 625 L 1050 625 1050 622.500 L 1050 620 1240 620 L 1430 620 1430 622.500 C 1430 624.500, 1430.500 625, 1432.500 625 C 1434.500 625, 1435 625.500, 1435 627.500 C 1435 629.500, 1435.500 630, 1437.500 630 C 1439.500 630, 1440 630.500, 1440 632.500 C 1440 634.500, 1440.500 635, 1442.500 635 C 1444.833 635, 1445 635.333, 1445 640 C 1445 644.667, 1445.167 645, 1447.500 645 C 1449.500 645, 1450 645.500, 1450 647.500 C 1450 649.500, 1450.500 650, 1452.500 650 C 1454.500 650, 1455 650.500, 1455 652.500 C 1455 654.500, 1455.500 655, 1457.500 655 C 1459.500 655, 1460 655.500, 1460 657.500 C 1460 659.500, 1460.500 660, 1462.500 660 C 1464.500 660, 1465 660.500, 1465 662.500 C 1465 664.500, 1465.500 665, 1467.500 665 C 1469.500 665, 1470 665.500, 1470 667.500 C 1470 669.500, 1470.500 670, 1472.500 670 C 1474.500 670, 1475 670.500, 1475 672.500 C 1475 674.833, 1475.333 675, 1480 675 C 1484.667 675, 1485 675.167, 1485 677.500 C 1485 679.500, 1485.500 680, 1487.500 680 C 1489.500 680, 1490 680.500, 1490 682.500 C 1490 684.500, 1490.500 685, 1492.500 685 C 1494.500 685, 1495 685.500, 1495 687.500 C 1495 689.833, 1495.333 690, 1500 690 C 1504.667 690, 1505 690.167, 1505 692.500 C 1505 694.833, 1505.333 695, 1510 695 C 1514.667 695, 1515 695.167, 1515 697.500 C 1515 699.833, 1515.333 700, 1520 700 C 1524.667 700, 1525 700.167, 1525 702.500 C 1525 704.833, 1525.333 705, 1530 705 C 1534.667 705, 1535 705.167, 1535 707.500 C 1535 709.944, 1535.167 710, 1542.500 710 C 1549.833 710, 1550 710.056, 1550 712.500 C 1550 714.944, 1550.167 715, 1557.500 715 C 1564.833 715, 1565 715.056, 1565 717.500 L 1565 720 1577.500 720 L 1590 720 1590 722.500 L 1590 725 1627.500 725 L 1665 725 1665 722.500 L 1665 720 1677.500 720 L 1690 720 1690 717.500 C 1690 715.056, 1690.167 715, 1697.500 715 C 1704.833 715, 1705 714.944, 1705 712.500 C 1705 710.056, 1705.167 710, 1712.500 710 C 1719.833 710, 1720 709.944, 1720 707.500 C 1720 705.167, 1720.333 705, 1725 705 C 1729.667 705, 1730 704.833, 1730 702.500 C 1730 700.167, 1730.333 700, 1735 700 C 1739.667 700, 1740 699.833, 1740 697.500 C 1740 695.500, 1740.500 695, 1742.500 695 C 1744.500 695, 1745 694.500, 1745 692.500 C 1745 690.167, 1745.333 690, 1750 690 C 1754.667 690, 1755 689.833, 1755 687.500 C 1755 685.167, 1755.333 685, 1760 685 C 1764.667 685, 1765 684.833, 1765 682.500 C 1765 680.500, 1765.500 680, 1767.500 680 C 1769.500 680, 1770 679.500, 1770 677.500 C 1770 675.500, 1770.500 675, 1772.500 675 C 1774.500 675, 1775 674.500, 1775 672.500 C 1775 670.500, 1775.500 670, 1777.500 670 C 1779.500 670, 1780 669.500, 1780 667.500 C 1780 665.500, 1780.500 665, 1782.500 665 C 1784.500 665, 1785 664.500, 1785 662.500 C 1785 660.500, 1785.500 660, 1787.500 660 C 1789.500 660, 1790 659.500, 1790 657.500 C 1790 655.500, 1790.500 655, 1792.500 655 C 1794.500 655, 1795 654.500, 1795 652.500 C 1795 650.500, 1795.500 650, 1797.500 650 C 1799.500 650, 1800 649.500, 1800 647.500 C 1800 645.500, 1800.500 645, 1802.500 645 C 1804.500 645, 1805 644.500, 1805 642.500 C 1805 640.500, 1805.500 640, 1807.500 640 C 1809.500 640, 1810 639.500, 1810 637.500 C 1810 635.500, 1810.500 635, 1812.500 635 C 1814.500 635, 1815 634.500, 1815 632.500 C 1815 630.500, 1815.500 630, 1817.500 630 C 1819.833 630, 1820 629.667, 1820 625 C 1820 620.333, 1820.167 620, 1822.500 620 C 1824.833 620, 1825 619.667, 1825 615 C 1825 610.333, 1825.167 610, 1827.500 610 C 1829.500 610, 1830 609.500, 1830 607.500 C 1830 605.500, 1830.500 605, 1832.500 605 C 1834.833 605, 1835 604.667, 1835 600 C 1835 595.333, 1835.167 595, 1837.500 595 C 1839.833 595, 1840 594.667, 1840 590 C 1840 585.333, 1840.167 585, 1842.500 585 C 1844.944 585, 1845 584.833, 1845 577.500 C 1845 570.167, 1845.056 570, 1847.500 570 C 1849.944 570, 1850 569.833, 1850 562.500 C 1850 555.167, 1850.056 555, 1852.500 555 L 1855 555 1855 542.500 L 1855 530 1857.500 530 L 1860 530 1860 492.500 L 1860 455 1857.500 455 L 1855 455 1855 442.500 L 1855 430 1852.500 430 C 1850.056 430, 1850 429.833, 1850 422.500 C 1850 415.167, 1849.944 415, 1847.500 415 C 1845.056 415, 1845 414.833, 1845 407.500 C 1845 400.167, 1844.944 400, 1842.500 400 C 1840.167 400, 1840 399.667, 1840 395 C 1840 390.333, 1839.833 390, 1837.500 390 C 1835.167 390, 1835 389.667, 1835 385 C 1835 380.333, 1834.833 380, 1832.500 380 C 1830.500 380, 1830 379.500, 1830 377.500 C 1830 375.500, 1829.500 375, 1827.500 375 C 1825.167 375, 1825 374.667, 1825 370 C 1825 365.333, 1824.833 365, 1822.500 365 C 1820.167 365, 1820 364.667, 1820 360 C 1820 355.333, 1819.833 355, 1817.500 355 C 1815.500 355, 1815 354.500, 1815 352.500 C 1815 350.500, 1814.500 350, 1812.500 350 C 1810.500 350, 1810 349.500, 1810 347.500 C 1810 345.500, 1809.500 345, 1807.500 345 C 1805.500 345, 1805 344.500, 1805 342.500 C 1805 340.500, 1804.500 340, 1802.500 340 C 1800.500 340, 1800 339.500, 1800 337.500 C 1800 335.500, 1799.500 335, 1797.500 335 C 1795.500 335, 1795 334.500, 1795 332.500 C 1795 330.500, 1794.500 330, 1792.500 330 C 1790.500 330, 1790 329.500, 1790 327.500 C 1790 325.500, 1789.500 325, 1787.500 325 C 1785.500 325, 1785 324.500, 1785 322.500 C 1785 320.500, 1784.500 320, 1782.500 320 C 1780.500 320, 1780 319.500, 1780 317.500 C 1780 315.500, 1779.500 315, 1777.500 315 C 1775.500 315, 1775 314.500, 1775 312.500 C 1775 310.500, 1774.500 310, 1772.500 310 C 1770.500 310, 1770 309.500, 1770 307.500 C 1770 305.500, 1769.500 305, 1767.500 305 C 1765.500 305, 1765 304.500, 1765 302.500 C 1765 300.167, 1764.667 300, 1760 300 C 1755.333 300, 1755 299.833, 1755 297.500 C 1755 295.167, 1754.667 295, 1750 295 C 1745.333 295, 1745 294.833, 1745 292.500 C 1745 290.500, 1744.500 290, 1742.500 290 C 1740.500 290, 1740 289.500, 1740 287.500 C 1740 285.167, 1739.667 285, 1735 285 C 1730.333 285, 1730 284.833, 1730 282.500 C 1730 280.167, 1729.667 280, 1725 280 C 1720.333 280, 1720 279.833, 1720 277.500 C 1720 275.056, 1719.833 275, 1712.500 275 C 1705.167 275, 1705 274.944, 1705 272.500 C 1705 270.056, 1704.833 270, 1697.500 270 C 1690.167 270, 1690 269.944, 1690 267.500 L 1690 265 1677.500 265 L 1665 265 1665 262.500 L 1665 260 1627.500 260 L 1590 260 1590 262.500" stroke="none" fill="#3c5c64" fill-rule="evenodd"/></svg>