<svg xmlns="http://www.w3.org/2000/svg" width="1920" height="1080" viewBox="0 0 1920 1080" version="1.1"><path d="M 260 312.500 L 260 315 245 315 L 230 315 230 317.500 C 230 319.944, 229.833 320, 222.500 320 C 215.167 320, 215 320.056, 215 322.500 C 215 324.944, 214.833 325, 207.500 325 C 200.167 325, 200 325.056, 200 327.500 C 200 329.944, 199.833 330, 192.500 330 C 185.167 330, 185 330.056, 185 332.500 C 185 334.833, 184.667 335, 180 335 C 175.333 335, 175 335.167, 175 337.500 C 175 339.833, 174.667 340, 170 340 C 165.333 340, 165 340.167, 165 342.500 C 165 344.833, 164.667 345, 160 345 C 155.333 345, 155 345.167, 155 347.500 C 155 349.500, 154.500 350, 152.500 350 C 150.500 350, 150 350.500, 150 352.500 C 150 354.833, 149.667 355, 145 355 C 140.333 355, 140 355.167, 140 357.500 C 140 359.500, 139.500 360, 137.500 360 C 135.500 360, 135 360.500, 135 362.500 C 135 364.833, 134.667 365, 130 365 C 125.333 365, 125 365.167, 125 367.500 C 125 369.500, 124.500 370, 122.500 370 C 120.500 370, 120 370.500, 120 372.500 C 120 374.500, 119.500 375, 117.500 375 C 115.500 375, 115 375.500, 115 377.500 C 115 379.500, 114.500 380, 112.500 380 C 110.500 380, 110 380.500, 110 382.500 C 110 384.500, 109.500 385, 107.500 385 C 105.500 385, 105 385.500, 105 387.500 C 105 389.500, 104.500 390, 102.500 390 C 100.500 390, 100 390.500, 100 392.500 C 100 394.500, 99.500 395, 97.500 395 C 95.500 395, 95 395.500, 95 397.500 C 95 399.500, 94.500 400, 92.500 400 C 90.500 400, 90 400.500, 90 402.500 C 90 404.500, 89.500 405, 87.500 405 C 85.500 405, 85 405.500, 85 407.500 C 85 409.500, 84.500 410, 82.500 410 C 80.500 410, 80 410.500, 80 412.500 C 80 414.500, 79.500 415, 77.500 415 C 75.167 415, 75 415.333, 75 420 C 75 424.667, 74.833 425, 72.500 425 C 70.500 425, 70 425.500, 70 427.500 C 70 429.500, 69.500 430, 67.500 430 C 65.167 430, 65 430.333, 65 435 C 65 439.667, 64.833 440, 62.500 440 C 60.500 440, 60 440.500, 60 442.500 C 60 444.500, 59.500 445, 57.500 445 C 55.167 445, 55 445.333, 55 450 C 55 454.667, 54.833 455, 52.500 455 C 50.167 455, 50 455.333, 50 460 C 50 464.667, 49.833 465, 47.500 465 C 45.167 465, 45 465.333, 45 470 C 45 474.667, 44.833 475, 42.500 475 C 40.056 475, 40 475.167, 40 482.500 C 40 489.833, 39.944 490, 37.500 490 C 35.056 490, 35 490.167, 35 497.500 C 35 504.833, 34.944 505, 32.500 505 C 30.056 505, 30 505.167, 30 512.500 C 30 519.833, 29.944 520, 27.500 520 L 25 520 25 535 L 25 550 22.500 550 L 20 550 20 585 L 20 620 22.500 620 L 25 620 25 635 L 25 650 27.500 650 C 29.944 650, 30 650.167, 30 657.500 C 30 664.833, 30.056 665, 32.500 665 C 34.944 665, 35 665.167, 35 672.500 C 35 679.833, 35.056 680, 37.500 680 C 39.944 680, 40 680.167, 40 687.500 C 40 694.833, 40.056 695, 42.500 695 C 44.833 695, 45 695.333, 45 700 C 45 704.667, 45.167 705, 47.500 705 C 49.833 705, 50 705.333, 50 710 C 50 714.667, 50.167 715, 52.500 715 C 54.833 715, 55 715.333, 55 720 C 55 724.667, 55.167 725, 57.500 725 C 59.500 725, 60 725.500, 60 727.500 C 60 729.500, 60.500 730, 62.500 730 C 64.833 730, 65 730.333, 65 735 C 65 739.667, 65.167 740, 67.500 740 C 69.500 740, 70 740.500, 70 742.500 C 70 744.500, 70.500 745, 72.500 745 C 74.833 745, 75 745.333, 75 750 C 75 754.667, 75.167 755, 77.500 755 C 79.500 755, 80 755.500, 80 757.500 C 80 759.500, 80.500 760, 82.500 760 C 84.500 760, 85 760.500, 85 762.500 C 85 764.500, 85.500 765, 87.500 765 C 89.500 765, 90 765.500, 90 767.500 C 90 769.500, 90.500 770, 92.500 770 C 94.500 770, 95 770.500, 95 772.500 C 95 774.500, 95.500 775, 97.500 775 C 99.500 775, 100 775.500, 100 777.500 C 100 779.500, 100.500 780, 102.500 780 C 104.500 780, 105 780.500, 105 782.500 C 105 784.500, 105.500 785, 107.500 785 C 109.500 785, 110 785.500, 110 787.500 C 110 789.500, 110.500 790, 112.500 790 C 114.500 790, 115 790.500, 115 792.500 C 115 794.500, 115.500 795, 117.500 795 C 119.500 795, 120 795.500, 120 797.500 C 120 799.500, 120.500 800, 122.500 800 C 124.500 800, 125 800.500, 125 802.500 C 125 804.833, 125.333 805, 130 805 C 134.667 805, 135 805.167, 135 807.500 C 135 809.500, 135.500 810, 137.500 810 C 139.500 810, 140 810.500, 140 812.500 C 140 814.833, 140.333 815, 145 815 C 149.667 815, 150 815.167, 150 817.500 C 150 819.500, 150.500 820, 152.500 820 C 154.500 820, 155 820.500, 155 822.500 C 155 824.833, 155.333 825, 160 825 C 164.667 825, 165 825.167, 165 827.500 C 165 829.833, 165.333 830, 170 830 C 174.667 830, 175 830.167, 175 832.500 C 175 834.833, 175.333 835, 180 835 C 184.667 835, 185 835.167, 185 837.500 C 185 839.944, 185.167 840, 192.500 840 C 199.833 840, 200 840.056, 200 842.500 C 200 844.944, 200.167 845, 207.500 845 C 214.833 845, 215 845.056, 215 847.500 C 215 849.944, 215.167 850, 222.500 850 C 229.833 850, 230 850.056, 230 852.500 L 230 855 245 855 L 260 855 260 857.500 L 260 860 295 860 L 330 860 330 857.500 L 330 855 345 855 L 360 855 360 852.500 C 360 850.056, 360.167 850, 367.500 850 C 374.833 850, 375 849.944, 375 847.500 C 375 845.056, 375.167 845, 382.500 845 C 389.833 845, 390 844.944, 390 842.500 C 390 840.056, 390.167 840, 397.500 840 C 404.833 840, 405 839.944, 405 837.500 C 405 835.167, 405.333 835, 410 835 C 414.667 835, 415 834.833, 415 832.500 C 415 830.167, 415.333 830, 420 830 C 424.667 830, 425 829.833, 425 827.500 C 425 825.167, 425.333 825, 430 825 C 434.667 825, 435 824.833, 435 822.500 C 435 820.500, 435.500 820, 437.500 820 C 439.500 820, 440 819.500, 440 817.500 C 440 815.167, 440.333 815, 445 815 C 449.667 815, 450 814.833, 450 812.500 C 450 810.500, 450.500 810, 452.500 810 C 454.500 810, 455 809.500, 455 807.500 C 455 805.167, 455.333 805, 460 805 C 464.667 805, 465 804.833, 465 802.500 C 465 800.500, 465.500 800, 467.500 800 C 469.500 800, 470 799.500, 470 797.500 C 470 795.500, 470.500 795, 472.500 795 C 474.500 795, 475 794.500, 475 792.500 C 475 790.500, 475.500 790, 477.500 790 C 479.500 790, 480 789.500, 480 787.500 C 480 785.500, 480.500 785, 482.500 785 C 484.500 785, 485 784.500, 485 782.500 C 485 780.500, 485.500 780, 487.500 780 C 489.500 780, 490 779.500, 490 777.500 C 490 775.500, 490.500 775, 492.500 775 C 494.500 775, 495 774.500, 495 772.500 C 495 770.500, 495.500 770, 497.500 770 C 499.500 770, 500 769.500, 500 767.500 C 500 765.500, 500.500 765, 502.500 765 C 504.500 765, 505 764.500, 505 762.500 C 505 760.500, 505.500 760, 507.500 760 C 509.500 760, 510 759.500, 510 757.500 C 510 755.500, 510.500 755, 512.500 755 C 514.833 755, 515 754.667, 515 750 C 515 745.333, 515.167 745, 517.500 745 C 519.500 745, 520 744.500, 520 742.500 C 520 740.500, 520.500 740, 522.500 740 C 524.500 740, 525 739.500, 525 737.500 C 525 735.667, 525.533 735, 527 735 C 528.851 735, 529 734.333, 529 726.066 L 529 717.133 539.250 716.575 C 544.888 716.268, 638.487 715.753, 747.250 715.429 L 945 714.841 945 712.421 L 945 710 1145 710 L 1345 710 1345 707.500 L 1345 705 1515 705 L 1685 705 1685 702.500 L 1685 700 1792.500 700 L 1900 700 1900 555 L 1900 410 1732.500 410 L 1565 410 1565 412.500 L 1565 415 1365 415 L 1165 415 1165 417.500 L 1165 420 995 420 L 825 420 825 422.500 L 825 425 725 425 L 625 425 625 422.500 L 625 420 570 420 L 515 420 515 417.500 C 515 415.500, 514.500 415, 512.500 415 C 510.500 415, 510 414.500, 510 412.500 C 510 410.500, 509.500 410, 507.500 410 C 505.500 410, 505 409.500, 505 407.500 C 505 405.500, 504.500 405, 502.500 405 C 500.500 405, 500 404.500, 500 402.500 C 500 400.500, 499.500 400, 497.500 400 C 495.500 400, 495 399.500, 495 397.500 C 495 395.500, 494.500 395, 492.500 395 C 490.500 395, 490 394.500, 490 392.500 C 490 390.500, 489.500 390, 487.500 390 C 485.500 390, 485 389.500, 485 387.500 C 485 385.500, 484.500 385, 482.500 385 C 480.500 385, 480 384.500, 480 382.500 C 480 380.500, 479.500 380, 477.500 380 C 475.500 380, 475 379.500, 475 377.500 C 475 375.500, 474.500 375, 472.500 375 C 470.500 375, 470 374.500, 470 372.500 C 470 370.500, 469.500 370, 467.500 370 C 465.500 370, 465 369.500, 465 367.500 C 465 365.167, 464.667 365, 460 365 C 455.333 365, 455 364.833, 455 362.500 C 455 360.500, 454.500 360, 452.500 360 C 450.500 360, 450 359.500, 450 357.500 C 450 355.167, 449.667 355, 445 355 C 440.333 355, 440 354.833, 440 352.500 C 440 350.500, 439.500 350, 437.500 350 C 435.500 350, 435 349.500, 435 347.500 C 435 345.167, 434.667 345, 430 345 C 425.333 345, 425 344.833, 425 342.500 C 425 340.167, 424.667 340, 420 340 C 415.333 340, 415 339.833, 415 337.500 C 415 335.167, 414.667 335, 410 335 C 405.333 335, 405 334.833, 405 332.500 C 405 330.056, 404.833 330, 397.500 330 C 390.167 330, 390 329.944, 390 327.500 C 390 325.056, 389.833 325, 382.500 325 C 375.167 325, 375 324.944, 375 322.500 C 375 320.056, 374.833 320, 367.500 320 C 360.167 320, 360 319.944, 360 317.500 L 360 315 345 315 L 330 315 330 312.500 L 330 310 295 310 L 260 310 260 312.500 M 260 357.500 L 260 360 247.500 360 L 235 360 235 362.500 C 235 364.944, 234.833 365, 227.500 365 C 220.167 365, 220 365.056, 220 367.500 C 220 369.944, 219.833 370, 212.500 370 C 205.167 370, 205 370.056, 205 372.500 C 205 374.833, 204.667 375, 200 375 C 195.333 375, 195 375.167, 195 377.500 C 195 379.833, 194.667 380, 190 380 C 185.333 380, 185 380.167, 185 382.500 C 185 384.833, 184.667 385, 180 385 C 175.333 385, 175 385.167, 175 387.500 C 175 389.833, 174.667 390, 170 390 C 165.333 390, 165 390.167, 165 392.500 C 165 394.500, 164.500 395, 162.500 395 C 160.500 395, 160 395.500, 160 397.500 C 160 399.500, 159.500 400, 157.500 400 C 155.500 400, 155 400.500, 155 402.500 C 155 404.833, 154.667 405, 150 405 C 145.333 405, 145 405.167, 145 407.500 C 145 409.500, 144.500 410, 142.500 410 C 140.500 410, 140 410.500, 140 412.500 C 140 414.500, 139.500 415, 137.500 415 C 135.500 415, 135 415.500, 135 417.500 C 135 419.500, 134.500 420, 132.500 420 C 130.500 420, 130 420.500, 130 422.500 C 130 424.500, 129.500 425, 127.500 425 C 125.500 425, 125 425.500, 125 427.500 C 125 429.500, 124.500 430, 122.500 430 C 120.500 430, 120 430.500, 120 432.500 C 120 434.500, 119.500 435, 117.500 435 C 115.500 435, 115 435.500, 115 437.500 C 115 439.500, 114.500 440, 112.500 440 C 110.167 440, 110 440.333, 110 445 C 110 449.667, 109.833 450, 107.500 450 C 105.500 450, 105 450.500, 105 452.500 C 105 454.500, 104.500 455, 102.500 455 C 100.500 455, 100 455.500, 100 457.500 C 100 459.500, 99.500 460, 97.500 460 C 95.167 460, 95 460.333, 95 465 C 95 469.667, 94.833 470, 92.500 470 C 90.167 470, 90 470.333, 90 475 C 90 479.667, 89.833 480, 87.500 480 C 85.167 480, 85 480.333, 85 485 C 85 489.667, 84.833 490, 82.500 490 C 80.167 490, 80 490.333, 80 495 C 80 499.667, 79.833 500, 77.500 500 C 75.056 500, 75 500.167, 75 507.500 C 75 514.833, 74.944 515, 72.500 515 C 70.056 515, 70 515.167, 70 522.500 C 70 529.833, 69.944 530, 67.500 530 L 65 530 65 545 L 65 560 62.500 560 L 60 560 60 587.500 L 60 615 62.500 615 L 65 615 65 630 L 65 645 67.500 645 C 69.944 645, 70 645.167, 70 652.500 C 70 659.833, 70.056 660, 72.500 660 C 74.944 660, 75 660.167, 75 667.500 C 75 674.833, 75.056 675, 77.500 675 C 79.833 675, 80 675.333, 80 680 C 80 684.667, 80.167 685, 82.500 685 C 84.833 685, 85 685.333, 85 690 C 85 694.667, 85.167 695, 87.500 695 C 89.833 695, 90 695.333, 90 700 C 90 704.667, 90.167 705, 92.500 705 C 94.833 705, 95 705.333, 95 710 C 95 714.667, 95.167 715, 97.500 715 C 99.500 715, 100 715.500, 100 717.500 C 100 719.500, 100.500 720, 102.500 720 C 104.500 720, 105 720.500, 105 722.500 C 105 724.500, 105.500 725, 107.500 725 C 109.833 725, 110 725.333, 110 730 C 110 734.667, 110.167 735, 112.500 735 C 114.500 735, 115 735.500, 115 737.500 C 115 739.500, 115.500 740, 117.500 740 C 119.500 740, 120 740.500, 120 742.500 C 120 744.500, 120.500 745, 122.500 745 C 124.500 745, 125 745.500, 125 747.500 C 125 749.500, 125.500 750, 127.500 750 C 129.500 750, 130 750.500, 130 752.500 C 130 754.500, 130.500 755, 132.500 755 C 134.500 755, 135 755.500, 135 757.500 C 135 759.500, 135.500 760, 137.500 760 C 139.500 760, 140 760.500, 140 762.500 C 140 764.500, 140.500 765, 142.500 765 C 144.500 765, 145 765.500, 145 767.500 C 145 769.833, 145.333 770, 150 770 C 154.667 770, 155 770.167, 155 772.500 C 155 774.500, 155.500 775, 157.500 775 C 159.500 775, 160 775.500, 160 777.500 C 160 779.500, 160.500 780, 162.500 780 C 164.500 780, 165 780.500, 165 782.500 C 165 784.833, 165.333 785, 170 785 C 174.667 785, 175 785.167, 175 787.500 C 175 789.833, 175.333 790, 180 790 C 184.667 790, 185 790.167, 185 792.500 C 185 794.833, 185.333 795, 190 795 C 194.667 795, 195 795.167, 195 797.500 C 195 799.833, 195.333 800, 200 800 C 204.667 800, 205 800.167, 205 802.500 C 205 804.944, 205.167 805, 212.500 805 C 219.833 805, 220 805.056, 220 807.500 C 220 809.944, 220.167 810, 227.500 810 C 234.833 810, 235 810.056, 235 812.500 L 235 815 247.500 815 L 260 815 260 817.500 L 260 820 295 820 L 330 820 330 817.500 L 330 815 342.500 815 L 355 815 355 812.500 C 355 810.056, 355.167 810, 362.500 810 C 369.833 810, 370 809.944, 370 807.500 C 370 805.056, 370.167 805, 377.500 805 C 384.833 805, 385 804.944, 385 802.500 C 385 800.167, 385.333 800, 390 800 C 394.667 800, 395 799.833, 395 797.500 C 395 795.167, 395.333 795, 400 795 C 404.667 795, 405 794.833, 405 792.500 C 405 790.500, 405.500 790, 407.500 790 C 409.500 790, 410 789.500, 410 787.500 C 410 785.167, 410.333 785, 415 785 C 419.667 785, 420 784.833, 420 782.500 C 420 780.167, 420.333 780, 425 780 C 429.667 780, 430 779.833, 430 777.500 C 430 775.500, 430.500 775, 432.500 775 C 434.500 775, 435 774.500, 435 772.500 C 435 770.500, 435.500 770, 437.500 770 C 439.500 770, 440 769.500, 440 767.500 C 440 765.500, 440.500 765, 442.500 765 C 444.500 765, 445 764.500, 445 762.500 C 445 760.500, 445.500 760, 447.500 760 C 449.500 760, 450 759.500, 450 757.500 C 450 755.500, 450.500 755, 452.500 755 C 454.500 755, 455 754.500, 455 752.500 C 455 750.500, 455.500 750, 457.500 750 C 459.500 750, 460 749.500, 460 747.500 C 460 745.500, 460.500 745, 462.500 745 C 464.500 745, 465 744.500, 465 742.500 C 465 740.500, 465.500 740, 467.500 740 C 469.500 740, 470 739.500, 470 737.500 C 470 735.500, 470.500 735, 472.500 735 C 474.500 735, 475 734.500, 475 732.500 C 475 730.500, 475.500 730, 477.500 730 C 479.500 730, 480 729.500, 480 727.500 C 480 725.500, 480.500 725, 482.500 725 C 484.833 725, 485 724.667, 485 720 C 485 715.333, 485.167 715, 487.500 715 C 489.833 715, 490 714.667, 490 710 C 490 705.333, 490.167 705, 492.500 705 C 494.500 705, 495 704.500, 495 702.500 C 495 700.500, 495.500 700, 497.500 700 C 499.833 700, 500 699.667, 500 695 C 500 690.333, 500.167 690, 502.500 690 C 504.500 690, 505 689.500, 505 687.500 L 505 685 630 685 L 755 685 755 682.500 L 755 680 770 680 L 785 680 785 682.500 C 785 684.833, 785.333 685, 790 685 C 794.667 685, 795 684.833, 795 682.500 L 795 680 967.500 680 L 1140 680 1140 677.500 L 1140 675 1315 675 L 1490 675 1490 672.500 L 1490 670 1507.500 670 L 1525 670 1525 672.500 C 1525 674.500, 1525.500 675, 1527.500 675 C 1529.500 675, 1530 674.500, 1530 672.500 L 1530 670 1680 670 L 1830 670 1830 667.500 L 1830 665 1852.500 665 L 1875 665 1875 557.500 L 1875 450 1635 450 L 1395 450 1395 452.500 L 1395 455 1220 455 L 1045 455 1045 457.500 L 1045 460 1030 460 L 1015 460 1015 457.500 C 1015 455.167, 1014.667 455, 1010 455 C 1005.333 455, 1005 455.167, 1005 457.500 L 1005 460 832.500 460 L 660 460 660 462.500 L 660 465 575 465 L 490 465 490 462.500 C 490 460.500, 489.500 460, 487.500 460 C 485.167 460, 485 459.667, 485 455 C 485 450.333, 484.833 450, 482.500 450 C 480.500 450, 480 449.500, 480 447.500 C 480 445.500, 479.500 445, 477.500 445 C 475.500 445, 475 444.500, 475 442.500 C 475 440.500, 474.500 440, 472.500 440 C 470.500 440, 470 439.500, 470 437.500 C 470 435.500, 469.500 435, 467.500 435 C 465.500 435, 465 434.500, 465 432.500 C 465 430.500, 464.500 430, 462.500 430 C 460.500 430, 460 429.500, 460 427.500 C 460 425.500, 459.500 425, 457.500 425 C 455.500 425, 455 424.500, 455 422.500 C 455 420.500, 454.500 420, 452.500 420 C 450.500 420, 450 419.500, 450 417.500 C 450 415.500, 449.500 415, 447.500 415 C 445.500 415, 445 414.500, 445 412.500 C 445 410.500, 444.500 410, 442.500 410 C 440.500 410, 440 409.500, 440 407.500 C 440 405.500, 439.500 405, 437.500 405 C 435.500 405, 435 404.500, 435 402.500 C 435 400.500, 434.500 400, 432.500 400 C 430.500 400, 430 399.500, 430 397.500 C 430 395.167, 429.667 395, 425 395 C 420.333 395, 420 394.833, 420 392.500 C 420 390.167, 419.667 390, 415 390 C 410.333 390, 410 389.833, 410 387.500 C 410 385.500, 409.500 385, 407.500 385 C 405.500 385, 405 384.500, 405 382.500 C 405 380.167, 404.667 380, 400 380 C 395.333 380, 395 379.833, 395 377.500 C 395 375.167, 394.667 375, 390 375 C 385.333 375, 385 374.833, 385 372.500 C 385 370.056, 384.833 370, 377.500 370 C 370.167 370, 370 369.944, 370 367.500 C 370 365.056, 369.833 365, 362.500 365 C 355.167 365, 355 364.944, 355 362.500 L 355 360 342.500 360 L 330 360 330 357.500 L 330 355 295 355 L 260 355 260 357.500" stroke="none" fill="#60acc6" fill-rule="evenodd"/><path d="M 260 357.500 L 260 360 247.500 360 L 235 360 235 362.500 C 235 364.944, 234.833 365, 227.500 365 C 220.167 365, 220 365.056, 220 367.500 C 220 369.944, 219.833 370, 212.500 370 C 205.167 370, 205 370.056, 205 372.500 C 205 374.833, 204.667 375, 200 375 C 195.333 375, 195 375.167, 195 377.500 C 195 379.833, 194.667 380, 190 380 C 185.333 380, 185 380.167, 185 382.500 C 185 384.833, 184.667 385, 180 385 C 175.333 385, 175 385.167, 175 387.500 C 175 389.833, 174.667 390, 170 390 C 165.333 390, 165 390.167, 165 392.500 C 165 394.500, 164.500 395, 162.500 395 C 160.500 395, 160 395.500, 160 397.500 C 160 399.500, 159.500 400, 157.500 400 C 155.500 400, 155 400.500, 155 402.500 C 155 404.833, 154.667 405, 150 405 C 145.333 405, 145 405.167, 145 407.500 C 145 409.500, 144.500 410, 142.500 410 C 140.500 410, 140 410.500, 140 412.500 C 140 414.500, 139.500 415, 137.500 415 C 135.500 415, 135 415.500, 135 417.500 C 135 419.500, 134.500 420, 132.500 420 C 130.500 420, 130 420.500, 130 422.500 C 130 424.500, 129.500 425, 127.500 425 C 125.500 425, 125 425.500, 125 427.500 C 125 429.500, 124.500 430, 122.500 430 C 120.500 430, 120 430.500, 120 432.500 C 120 434.500, 119.500 435, 117.500 435 C 115.500 435, 115 435.500, 115 437.500 C 115 439.500, 114.500 440, 112.500 440 C 110.167 440, 110 440.333, 110 445 C 110 449.667, 109.833 450, 107.500 450 C 105.500 450, 105 450.500, 105 452.500 C 105 454.500, 104.500 455, 102.500 455 C 100.500 455, 100 455.500, 100 457.500 C 100 459.500, 99.500 460, 97.500 460 C 95.167 460, 95 460.333, 95 465 C 95 469.667, 94.833 470, 92.500 470 C 90.167 470, 90 470.333, 90 475 C 90 479.667, 89.833 480, 87.500 480 C 85.167 480, 85 480.333, 85 485 C 85 489.667, 84.833 490, 82.500 490 C 80.167 490, 80 490.333, 80 495 C 80 499.667, 79.833 500, 77.500 500 C 75.056 500, 75 500.167, 75 507.500 C 75 514.833, 74.944 515, 72.500 515 C 70.056 515, 70 515.167, 70 522.500 C 70 529.833, 69.944 530, 67.500 530 L 65 530 65 545 L 65 560 62.500 560 L 60 560 60 587.500 L 60 615 62.500 615 L 65 615 65 630 L 65 645 67.500 645 C 69.944 645, 70 645.167, 70 652.500 C 70 659.833, 70.056 660, 72.500 660 C 74.944 660, 75 660.167, 75 667.500 C 75 674.833, 75.056 675, 77.500 675 C 79.833 675, 80 675.333, 80 680 C 80 684.667, 80.167 685, 82.500 685 C 84.833 685, 85 685.333, 85 690 C 85 694.667, 85.167 695, 87.500 695 C 89.833 695, 90 695.333, 90 700 C 90 704.667, 90.167 705, 92.500 705 C 94.833 705, 95 705.333, 95 710 C 95 714.667, 95.167 715, 97.500 715 C 99.500 715, 100 715.500, 100 717.500 C 100 719.500, 100.500 720, 102.500 720 C 104.500 720, 105 720.500, 105 722.500 C 105 724.500, 105.500 725, 107.500 725 C 109.833 725, 110 725.333, 110 730 C 110 734.667, 110.167 735, 112.500 735 C 114.500 735, 115 735.500, 115 737.500 C 115 739.500, 115.500 740, 117.500 740 C 119.500 740, 120 740.500, 120 742.500 C 120 744.500, 120.500 745, 122.500 745 C 124.500 745, 125 745.500, 125 747.500 C 125 749.500, 125.500 750, 127.500 750 C 129.500 750, 130 750.500, 130 752.500 C 130 754.500, 130.500 755, 132.500 755 C 134.500 755, 135 755.500, 135 757.500 C 135 759.500, 135.500 760, 137.500 760 C 139.500 760, 140 760.500, 140 762.500 C 140 764.500, 140.500 765, 142.500 765 C 144.500 765, 145 765.500, 145 767.500 C 145 769.833, 145.333 770, 150 770 C 154.667 770, 155 770.167, 155 772.500 C 155 774.500, 155.500 775, 157.500 775 C 159.500 775, 160 775.500, 160 777.500 C 160 779.500, 160.500 780, 162.500 780 C 164.500 780, 165 780.500, 165 782.500 C 165 784.833, 165.333 785, 170 785 C 174.667 785, 175 785.167, 175 787.500 C 175 789.833, 175.333 790, 180 790 C 184.667 790, 185 790.167, 185 792.500 C 185 794.833, 185.333 795, 190 795 C 194.667 795, 195 795.167, 195 797.500 C 195 799.833, 195.333 800, 200 800 C 204.667 800, 205 800.167, 205 802.500 C 205 804.944, 205.167 805, 212.500 805 C 219.833 805, 220 805.056, 220 807.500 C 220 809.944, 220.167 810, 227.500 810 C 234.833 810, 235 810.056, 235 812.500 L 235 815 247.500 815 L 260 815 260 817.500 L 260 820 295 820 L 330 820 330 817.500 L 330 815 342.500 815 L 355 815 355 812.500 C 355 810.056, 355.167 810, 362.500 810 C 369.833 810, 370 809.944, 370 807.500 C 370 805.056, 370.167 805, 377.500 805 C 384.833 805, 385 804.944, 385 802.500 C 385 800.167, 385.333 800, 390 800 C 394.667 800, 395 799.833, 395 797.500 C 395 795.167, 395.333 795, 400 795 C 404.667 795, 405 794.833, 405 792.500 C 405 790.500, 405.500 790, 407.500 790 C 409.500 790, 410 789.500, 410 787.500 C 410 785.167, 410.333 785, 415 785 C 419.667 785, 420 784.833, 420 782.500 C 420 780.167, 420.333 780, 425 780 C 429.667 780, 430 779.833, 430 777.500 C 430 775.500, 430.500 775, 432.500 775 C 434.500 775, 435 774.500, 435 772.500 C 435 770.500, 435.500 770, 437.500 770 C 439.500 770, 440 769.500, 440 767.500 C 440 765.500, 440.500 765, 442.500 765 C 444.500 765, 445 764.500, 445 762.500 C 445 760.500, 445.500 760, 447.500 760 C 449.500 760, 450 759.500, 450 757.500 C 450 755.500, 450.500 755, 452.500 755 C 454.500 755, 455 754.500, 455 752.500 C 455 750.500, 455.500 750, 457.500 750 C 459.500 750, 460 749.500, 460 747.500 C 460 745.500, 460.500 745, 462.500 745 C 464.500 745, 465 744.500, 465 742.500 C 465 740.500, 465.500 740, 467.500 740 C 469.500 740, 470 739.500, 470 737.500 C 470 735.500, 470.500 735, 472.500 735 C 474.500 735, 475 734.500, 475 732.500 C 475 730.500, 475.500 730, 477.500 730 C 479.500 730, 480 729.500, 480 727.500 C 480 725.500, 480.500 725, 482.500 725 C 484.833 725, 485 724.667, 485 720 C 485 715.333, 485.167 715, 487.500 715 C 489.833 715, 490 714.667, 490 710 C 490 705.333, 490.167 705, 492.500 705 C 494.500 705, 495 704.500, 495 702.500 C 495 700.500, 495.500 700, 497.500 700 C 499.833 700, 500 699.667, 500 695 C 500 690.333, 500.167 690, 502.500 690 C 504.500 690, 505 689.500, 505 687.500 L 505 685 630 685 L 755 685 755 682.500 L 755 680 770 680 L 785 680 785 682.500 C 785 684.833, 785.333 685, 790 685 C 794.667 685, 795 684.833, 795 682.500 L 795 680 967.500 680 L 1140 680 1140 677.500 L 1140 675 1315 675 L 1490 675 1490 672.500 L 1490 670 1507.500 670 L 1525 670 1525 672.500 C 1525 674.500, 1525.500 675, 1527.500 675 C 1529.500 675, 1530 674.500, 1530 672.500 L 1530 670 1680 670 L 1830 670 1830 667.500 L 1830 665 1852.500 665 L 1875 665 1875 557.500 L 1875 450 1635 450 L 1395 450 1395 452.500 L 1395 455 1220 455 L 1045 455 1045 457.500 L 1045 460 1030 460 L 1015 460 1015 457.500 C 1015 455.167, 1014.667 455, 1010 455 C 1005.333 455, 1005 455.167, 1005 457.500 L 1005 460 832.500 460 L 660 460 660 462.500 L 660 465 575 465 L 490 465 490 462.500 C 490 460.500, 489.500 460, 487.500 460 C 485.167 460, 485 459.667, 485 455 C 485 450.333, 484.833 450, 482.500 450 C 480.500 450, 480 449.500, 480 447.500 C 480 445.500, 479.500 445, 477.500 445 C 475.500 445, 475 444.500, 475 442.500 C 475 440.500, 474.500 440, 472.500 440 C 470.500 440, 470 439.500, 470 437.500 C 470 435.500, 469.500 435, 467.500 435 C 465.500 435, 465 434.500, 465 432.500 C 465 430.500, 464.500 430, 462.500 430 C 460.500 430, 460 429.500, 460 427.500 C 460 425.500, 459.500 425, 457.500 425 C 455.500 425, 455 424.500, 455 422.500 C 455 420.500, 454.500 420, 452.500 420 C 450.500 420, 450 419.500, 450 417.500 C 450 415.500, 449.500 415, 447.500 415 C 445.500 415, 445 414.500, 445 412.500 C 445 410.500, 444.500 410, 442.500 410 C 440.500 410, 440 409.500, 440 407.500 C 440 405.500, 439.500 405, 437.500 405 C 435.500 405, 435 404.500, 435 402.500 C 435 400.500, 434.500 400, 432.500 400 C 430.500 400, 430 399.500, 430 397.500 C 430 395.167, 429.667 395, 425 395 C 420.333 395, 420 394.833, 420 392.500 C 420 390.167, 419.667 390, 415 390 C 410.333 390, 410 389.833, 410 387.500 C 410 385.500, 409.500 385, 407.500 385 C 405.500 385, 405 384.500, 405 382.500 C 405 380.167, 404.667 380, 400 380 C 395.333 380, 395 379.833, 395 377.500 C 395 375.167, 394.667 375, 390 375 C 385.333 375, 385 374.833, 385 372.500 C 385 370.056, 384.833 370, 377.500 370 C 370.167 370, 370 369.944, 370 367.500 C 370 365.056, 369.833 365, 362.500 365 C 355.167 365, 355 364.944, 355 362.500 L 355 360 342.500 360 L 330 360 330 357.500 L 330 355 295 355 L 260 355 260 357.500" stroke="none" fill="#141414" fill-rule="evenodd"/></svg>